<svg class="main-svg" xmlns="http://www.w3.org/2000/svg" xmlns:xlink="http://www.w3.org/1999/xlink" width="700" height="500" viewBox="0 0 700 500"><rect x="0" y="0" width="700" height="500" style="fill: rgb(255, 255, 255); fill-opacity: 1;"/><defs id="defs-132720"><g class="clips"><clipPath id="clip132720xyplot" class="plotclip"><rect width="485" height="309"/></clipPath><clipPath class="axesclip" id="clip132720x"><rect x="80" y="0" width="485" height="500"/></clipPath><clipPath class="axesclip" id="clip132720y"><rect x="0" y="100" width="700" height="309"/></clipPath><clipPath class="axesclip" id="clip132720xy"><rect x="80" y="100" width="485" height="309"/></clipPath></g><g class="gradients"/></defs><g class="bglayer"><rect class="bg" x="80" y="100" width="485" height="309" style="fill: rgb(229, 236, 246); fill-opacity: 1; stroke-width: 0;"/></g><g class="layer-below"><g class="imagelayer"/><g class="shapelayer"/></g><g class="cartesianlayer"><g class="subplot xy"><g class="layer-subplot"><g class="shapelayer"/><g class="imagelayer"/></g><g class="gridlayer"><g class="x"><path class="xgrid crisp" transform="translate(94.49,0)" d="M0,100v309" style="stroke: rgb(255, 255, 255); stroke-opacity: 1; stroke-width: 1px;"/><path class="xgrid crisp" transform="translate(108.98,0)" d="M0,100v309" style="stroke: rgb(255, 255, 255); stroke-opacity: 1; stroke-width: 1px;"/><path class="xgrid crisp" transform="translate(123.47999999999999,0)" d="M0,100v309" style="stroke: rgb(255, 255, 255); stroke-opacity: 1; stroke-width: 1px;"/><path class="xgrid crisp" transform="translate(137.97,0)" d="M0,100v309" style="stroke: rgb(255, 255, 255); stroke-opacity: 1; stroke-width: 1px;"/><path class="xgrid crisp" transform="translate(152.45999999999998,0)" d="M0,100v309" style="stroke: rgb(255, 255, 255); stroke-opacity: 1; stroke-width: 1px;"/><path class="xgrid crisp" transform="translate(166.95,0)" d="M0,100v309" style="stroke: rgb(255, 255, 255); stroke-opacity: 1; stroke-width: 1px;"/><path class="xgrid crisp" transform="translate(181.44,0)" d="M0,100v309" style="stroke: rgb(255, 255, 255); stroke-opacity: 1; stroke-width: 1px;"/><path class="xgrid crisp" transform="translate(195.94,0)" d="M0,100v309" style="stroke: rgb(255, 255, 255); stroke-opacity: 1; stroke-width: 1px;"/><path class="xgrid crisp" transform="translate(210.43,0)" d="M0,100v309" style="stroke: rgb(255, 255, 255); stroke-opacity: 1; stroke-width: 1px;"/><path class="xgrid crisp" transform="translate(224.92,0)" d="M0,100v309" style="stroke: rgb(255, 255, 255); stroke-opacity: 1; stroke-width: 1px;"/><path class="xgrid crisp" transform="translate(239.41,0)" d="M0,100v309" style="stroke: rgb(255, 255, 255); stroke-opacity: 1; stroke-width: 1px;"/><path class="xgrid crisp" transform="translate(253.9,0)" d="M0,100v309" style="stroke: rgb(255, 255, 255); stroke-opacity: 1; stroke-width: 1px;"/><path class="xgrid crisp" transform="translate(268.4,0)" d="M0,100v309" style="stroke: rgb(255, 255, 255); stroke-opacity: 1; stroke-width: 1px;"/><path class="xgrid crisp" transform="translate(282.89,0)" d="M0,100v309" style="stroke: rgb(255, 255, 255); stroke-opacity: 1; stroke-width: 1px;"/><path class="xgrid crisp" transform="translate(297.38,0)" d="M0,100v309" style="stroke: rgb(255, 255, 255); stroke-opacity: 1; stroke-width: 1px;"/><path class="xgrid crisp" transform="translate(311.87,0)" d="M0,100v309" style="stroke: rgb(255, 255, 255); stroke-opacity: 1; stroke-width: 1px;"/><path class="xgrid crisp" transform="translate(326.36,0)" d="M0,100v309" style="stroke: rgb(255, 255, 255); stroke-opacity: 1; stroke-width: 1px;"/><path class="xgrid crisp" transform="translate(340.86,0)" d="M0,100v309" style="stroke: rgb(255, 255, 255); stroke-opacity: 1; stroke-width: 1px;"/><path class="xgrid crisp" transform="translate(355.35,0)" d="M0,100v309" style="stroke: rgb(255, 255, 255); stroke-opacity: 1; stroke-width: 1px;"/><path class="xgrid crisp" transform="translate(369.84,0)" d="M0,100v309" style="stroke: rgb(255, 255, 255); stroke-opacity: 1; stroke-width: 1px;"/><path class="xgrid crisp" transform="translate(384.33,0)" d="M0,100v309" style="stroke: rgb(255, 255, 255); stroke-opacity: 1; stroke-width: 1px;"/><path class="xgrid crisp" transform="translate(398.82,0)" d="M0,100v309" style="stroke: rgb(255, 255, 255); stroke-opacity: 1; stroke-width: 1px;"/><path class="xgrid crisp" transform="translate(413.32,0)" d="M0,100v309" style="stroke: rgb(255, 255, 255); stroke-opacity: 1; stroke-width: 1px;"/><path class="xgrid crisp" transform="translate(427.81,0)" d="M0,100v309" style="stroke: rgb(255, 255, 255); stroke-opacity: 1; stroke-width: 1px;"/><path class="xgrid crisp" transform="translate(442.3,0)" d="M0,100v309" style="stroke: rgb(255, 255, 255); stroke-opacity: 1; stroke-width: 1px;"/><path class="xgrid crisp" transform="translate(456.79,0)" d="M0,100v309" style="stroke: rgb(255, 255, 255); stroke-opacity: 1; stroke-width: 1px;"/><path class="xgrid crisp" transform="translate(471.28,0)" d="M0,100v309" style="stroke: rgb(255, 255, 255); stroke-opacity: 1; stroke-width: 1px;"/><path class="xgrid crisp" transform="translate(485.78,0)" d="M0,100v309" style="stroke: rgb(255, 255, 255); stroke-opacity: 1; stroke-width: 1px;"/><path class="xgrid crisp" transform="translate(500.27,0)" d="M0,100v309" style="stroke: rgb(255, 255, 255); stroke-opacity: 1; stroke-width: 1px;"/><path class="xgrid crisp" transform="translate(514.76,0)" d="M0,100v309" style="stroke: rgb(255, 255, 255); stroke-opacity: 1; stroke-width: 1px;"/><path class="xgrid crisp" transform="translate(529.25,0)" d="M0,100v309" style="stroke: rgb(255, 255, 255); stroke-opacity: 1; stroke-width: 1px;"/><path class="xgrid crisp" transform="translate(543.75,0)" d="M0,100v309" style="stroke: rgb(255, 255, 255); stroke-opacity: 1; stroke-width: 1px;"/><path class="xgrid crisp" transform="translate(558.24,0)" d="M0,100v309" style="stroke: rgb(255, 255, 255); stroke-opacity: 1; stroke-width: 1px;"/></g><g class="y"><path class="ygrid crisp" transform="translate(0,407.6)" d="M80,0h485" style="stroke: rgb(255, 255, 255); stroke-opacity: 1; stroke-width: 1px;"/><path class="ygrid crisp" transform="translate(0,365.02)" d="M80,0h485" style="stroke: rgb(255, 255, 255); stroke-opacity: 1; stroke-width: 1px;"/><path class="ygrid crisp" transform="translate(0,322.43)" d="M80,0h485" style="stroke: rgb(255, 255, 255); stroke-opacity: 1; stroke-width: 1px;"/><path class="ygrid crisp" transform="translate(0,279.84000000000003)" d="M80,0h485" style="stroke: rgb(255, 255, 255); stroke-opacity: 1; stroke-width: 1px;"/><path class="ygrid crisp" transform="translate(0,237.25)" d="M80,0h485" style="stroke: rgb(255, 255, 255); stroke-opacity: 1; stroke-width: 1px;"/><path class="ygrid crisp" transform="translate(0,194.66)" d="M80,0h485" style="stroke: rgb(255, 255, 255); stroke-opacity: 1; stroke-width: 1px;"/><path class="ygrid crisp" transform="translate(0,152.07999999999998)" d="M80,0h485" style="stroke: rgb(255, 255, 255); stroke-opacity: 1; stroke-width: 1px;"/><path class="ygrid crisp" transform="translate(0,109.49)" d="M80,0h485" style="stroke: rgb(255, 255, 255); stroke-opacity: 1; stroke-width: 1px;"/></g></g><g class="zerolinelayer"/><path class="xlines-below"/><path class="ylines-below"/><g class="overlines-below"/><g class="xaxislayer-below"/><g class="yaxislayer-below"/><g class="overaxes-below"/><g class="plot" transform="translate(80, 100)" clip-path="url('#clip132720xyplot')"><g class="scatterlayer mlayer"><g class="trace scatter trace1adef5" style="stroke-miterlimit: 2; opacity: 1;"><g class="fills"/><g class="errorbars"/><g class="lines"><path class="js-line" d="M0,139.38L0.97,138.53L1.93,127.88L2.9,128.31L3.86,131.5L5.8,121.71L6.76,122.56L8.7,99.14L9.66,109.78L10.63,100.84L11.59,100.2L14.49,90.19L15.46,89.34L16.42,90.4L17.39,85.08L18.36,90.4L19.32,88.49L21.25,80.4L22.22,95.09L23.19,109.78L24.15,100.2L25.12,107.87L26.09,124.26L27.05,106.59L28.02,107.44L29.95,84.66L30.92,89.13L31.88,91.26L32.85,86.79L34.78,93.39L35.75,85.29L36.71,76.56L37.68,78.27L39.61,101.26L40.58,87.21L41.54,87.85L42.51,89.77L43.48,88.91L44.44,79.12L45.41,72.31L46.37,73.58L48.31,87.42L49.27,82.53L50.24,89.98L51.21,90.4L52.17,85.08L53.14,105.52L54.1,122.13L55.07,125.33L56.04,122.98L57,138.1L57.97,134.27L58.93,135.97L59.9,144.7L60.87,137.89L61.83,125.54L62.8,131.08L63.76,123.84L64.73,124.9L65.7,132.14L66.66,120.22L67.63,112.34L68.6,129.37L69.56,129.37L70.53,132.57L71.49,132.14L72.46,125.97L73.43,128.73L74.39,118.94L75.36,130.01L76.32,131.29L77.29,132.78L78.26,128.1L79.22,138.1L80.19,135.76L81.16,147.47L82.12,149.6L84.05,134.48L85.02,120.43L85.99,114.47L86.95,115.32L88.88,108.29L89.85,110.63L92.75,122.77L93.72,112.98L97.58,141.51L98.55,145.77L99.51,153.01L100.48,144.49L101.44,145.98L102.41,151.31L104.34,130.65L105.31,136.19L106.27,128.52L107.24,131.5L108.21,129.59L109.17,136.19L110.14,149.82L111.11,147.9L112.07,150.67L113.04,147.9L114,148.96L114.97,147.47L116.9,165.57L117.87,161.74L118.83,161.95L119.8,154.93L120.77,173.88L121.73,170.68L122.7,178.14L123.67,176.65L125.6,151.52L126.56,160.46L127.53,159.18L128.5,165.15L130.43,132.99L131.39,131.08L132.36,136.83L133.33,133.84L135.26,113.62L136.23,113.62L137.19,111.49L138.16,112.98L139.12,106.38L140.09,107.01L141.06,104.25L142.02,109.36L144.92,98.92L145.89,96.58L146.85,99.14L147.82,108.93L150.72,124.05L151.68,119.36L152.65,118.94L153.62,117.45L154.58,110.63L155.55,114.04L156.51,116.38L157.48,114.25L158.45,105.52L159.41,107.23L161.34,112.76L162.31,117.02L164.24,110.85L165.21,113.62L166.18,113.4L167.14,115.96L168.11,118.09L169.07,116.81L171.01,128.95L171.97,126.82L172.94,128.73L173.9,111.7L174.87,108.08L175.84,108.08L178.74,121.49L179.7,130.65L180.67,140.45L181.63,138.53L182.6,143.21L183.57,133.42L184.53,120.43L185.5,123.41L188.4,134.48L189.36,153.22L190.33,157.69L191.29,166.64L192.26,167.49L193.23,154.5L196.13,172.39L197.09,196.88L198.06,203.26L199.02,202.62L199.99,210.08L200.96,197.3L201.92,204.12L202.89,182.4L203.85,179.84L204.82,171.75L205.79,174.73L206.75,174.52L208.69,155.99L209.65,160.89L211.58,176.86L212.55,177.71L214.48,182.18L215.45,179.41L216.41,189L217.38,184.95L218.35,197.51L219.31,185.59L220.28,181.97L221.25,169.83L222.21,172.39L223.18,166.42L224.14,157.69L225.11,173.03L226.08,215.61L227.04,210.93L228.01,238.82L228.97,235.2L230.91,247.55L231.87,246.49L232.84,245.21L233.8,241.81L234.77,238.61L235.74,255.86L236.7,254.16L237.67,281.84L238.64,261.18L239.6,257.14L241.53,244.36L242.5,240.74L243.47,242.87L244.43,229.88L245.4,227.11L246.36,226.9L247.33,225.62L248.3,227.11L250.23,212.21L251.2,205.18L252.16,164.51L253.13,158.55L254.09,148.75L255.06,152.16L256.03,152.58L256.99,154.29L257.96,143.21L258.92,144.28L259.89,143.64L260.86,148.54L261.82,161.95L262.79,161.95L263.75,159.18L264.72,161.1L265.69,160.68L266.65,166.21L267.62,173.03L268.59,170.04L270.52,158.76L271.48,166.64L272.45,151.94L273.42,153.01L274.38,148.96L275.35,148.96L276.31,152.8L277.28,145.98L279.21,144.28L280.18,146.83L281.15,144.7L282.11,147.05L283.08,154.5L284.04,155.14L285.01,164.51L285.98,165.57L286.94,157.27L287.91,155.99L289.84,144.92L290.81,145.56L292.74,134.27L293.71,144.49L295.64,178.35L296.6,193.04L297.57,193.68L298.54,193.26L299.5,192.4L300.47,186.65L301.43,164.08L302.4,161.31L303.37,153.44L304.33,151.94L305.3,147.9L306.26,154.29L307.23,157.06L308.2,155.35L309.16,148.11L310.13,132.57L312.06,136.19L313.03,134.7L313.99,133.84L314.96,135.12L315.93,132.78L316.89,133.63L318.82,128.95L319.79,112.34L320.76,118.51L321.72,118.3L322.69,125.33L323.66,120.22L324.62,124.26L325.59,133.63L326.55,134.91L327.52,141.94L328.49,143.43L329.45,158.55L330.42,158.76L331.38,169.41L332.35,162.17L333.32,166.21L334.28,168.77L335.25,163.87L336.22,166.42L337.18,175.58L338.15,174.3L339.11,174.52L340.08,183.03L341.05,181.33L342.01,203.9L342.98,201.35L343.94,180.9L344.91,179.63L345.88,178.99L346.84,184.31L348.77,164.93L349.74,174.09L350.71,176.43L351.67,176.22L352.64,175.16L353.61,162.8L354.57,159.18L355.54,166.85L356.5,168.13L357.47,171.75L358.44,179.41L359.4,176.01L360.37,173.03L361.33,152.8L362.3,140.45L363.27,149.39L364.23,153.44L365.2,146.41L366.17,152.16L367.13,149.6L368.1,150.03L369.06,147.9L371,147.26L371.96,154.29L372.93,145.34L373.89,146.2L375.83,145.56L376.79,131.29L378.73,118.3L379.69,116.17L380.66,119.15L381.62,118.09L382.59,114.68L383.56,114.47L385.49,166.21L386.45,169.41L387.42,181.33L388.39,169.41L389.35,168.77L390.32,183.03L391.28,174.52L392.25,199.43L393.22,204.75L394.18,198.58L395.15,186.23L396.12,199.86L397.08,199.43L398.05,194.75L399.01,196.45L399.98,205.39L401.91,199.43L402.88,191.55L403.84,186.44L404.81,196.24L405.78,188.78L406.74,170.68L407.71,177.92L408.68,161.74L410.61,148.54L411.57,141.51L412.54,130.44L413.51,133.63L414.47,136.83L415.44,134.06L416.4,135.12L417.37,134.48L418.34,145.34L419.3,144.92L421.24,151.52L422.2,143.43L423.17,147.47L424.13,147.69L426.07,182.4L427.03,171.32L428,166.64L428.96,181.54L429.93,178.35L430.9,163.87L431.86,151.31L432.83,155.14L434.76,121.92L435.73,125.75L436.69,126.82L437.66,112.76L439.59,106.59L440.56,104.88L442.49,89.77L443.46,91.68L444.42,94.45L445.39,102.76L446.35,98.07L447.32,84.02L448.29,71.45L449.25,72.09L450.22,60.59L451.19,67.62L452.15,68.05L453.12,66.56L454.08,75.71L455.05,76.35L457.95,70.18L458.91,76.99L461.81,62.51L462.78,64.85L463.75,60.59L464.71,62.3L465.68,57.4L466.64,75.5L467.61,66.98L468.58,68.69L469.54,56.33L470.51,58.46L471.47,59.95L472.44,57.19L473.41,34.83L474.37,31.63L476.3,25.03L477.27,25.03L478.24,25.88L479.2,25.67L480.17,26.74L481.14,24.82L483.07,15.45L484.03,16.94L485,25.25" style="vector-effect: non-scaling-stroke; fill: none; stroke: rgb(0, 191, 255); stroke-opacity: 1; stroke-width: 2px; opacity: 1;"/></g><g class="points"/><g class="text"/></g><g class="trace scatter trace41ecf0" style="stroke-miterlimit: 2; opacity: 1;"><g class="fills"/><g class="errorbars"/><g class="lines"><path class="js-line" d="M0,145.56L0.97,143.85L1.93,139.81L2.9,136.19L3.86,136.19L4.83,134.48L5.8,130.65L6.76,127.67L7.73,120.86L8.7,115.32L9.66,130.01L11.59,106.16L12.56,103.61L13.53,99.14L14.49,98.5L16.42,95.73L17.39,90.83L18.36,97.86L19.32,95.73L20.29,95.52L21.25,97.64L22.22,155.35L23.19,152.16L24.15,118.94L25.12,143L26.09,155.78L27.05,125.75L28.98,114.68L29.95,97.43L30.92,96.37L31.88,99.99L32.85,99.56L33.81,103.39L35.75,93.6L36.71,87.85L37.68,92.75L38.65,108.29L39.61,123.84L40.58,112.34L41.54,95.73L42.51,103.61L43.48,98.71L44.44,86.15L45.41,81.04L46.37,88.28L47.34,96.15L48.31,96.15L49.27,92.96L50.24,101.48L51.21,97.22L52.17,101.48L54.1,157.48L55.07,144.7L57,158.33L57.97,151.94L58.93,163.87L59.9,156.42L60.87,159.61L61.83,134.7L62.8,150.67L63.76,142.36L64.73,132.35L65.7,139.59L66.66,133.63L67.63,146.62L68.6,148.54L69.56,139.81L70.53,147.9L71.49,147.05L72.46,134.48L73.43,134.7L75.36,141.51L76.32,137.46L78.26,138.96L79.22,145.34L80.19,146.62L81.16,170.68L87.92,115.32L88.88,119.15L89.85,115.53L90.82,122.98L91.78,132.35L92.75,127.03L93.72,125.75L94.68,135.55L95.65,140.87L96.61,139.81L97.58,164.93L98.55,155.14L99.51,162.17L100.48,151.94L101.44,151.52L102.41,157.27L103.38,152.58L104.34,139.59L105.31,141.3L106.27,135.97L107.24,142.58L108.21,143.64L110.14,161.31L111.11,162.59L113.04,154.71L114,158.55L114.97,158.76L115.94,174.3L116.9,179.63L117.87,174.73L118.83,173.45L119.8,176.01L121.73,185.38L122.7,183.89L123.67,187.72L124.63,175.16L125.6,163.87L126.56,166.64L127.53,165.79L128.5,175.16L131.39,140.66L132.36,144.92L133.33,148.75L134.29,134.48L135.26,123.41L136.23,122.98L137.19,118.3L138.16,120.22L139.12,113.19L140.09,119.79L141.06,112.34L142.02,118.73L143.95,109.14L144.92,105.52L145.89,105.74L146.85,104.25L148.78,127.67L149.75,128.31L150.72,133.84L151.68,126.18L152.65,125.54L153.62,123.41L155.55,118.51L156.51,121.49L158.45,116.17L159.41,111.91L161.34,117.02L162.31,124.05L164.24,116.6L165.21,121.71L166.18,123.84L167.14,121.28L168.11,122.35L169.07,129.16L170.04,135.55L171.01,134.91L171.97,134.06L172.94,134.48L173.9,134.48L174.87,112.98L175.84,116.6L176.8,123.2L177.77,124.48L178.74,135.97L179.7,138.74L180.67,149.6L181.63,147.05L182.6,152.8L184.53,134.27L185.5,136.19L187.43,140.02L188.4,154.07L190.33,185.59L191.29,187.51L193.23,176.43L194.19,176.86L195.16,180.48L196.13,194.53L197.09,220.09L198.06,220.72L199.02,218.6L199.99,224.98L200.96,216.25L201.92,215.61L203.85,188.14L204.82,190.06L205.79,182.18L206.75,185.38L208.69,170.68L209.65,171.75L210.62,187.51L211.58,186.44L212.55,205.82L213.52,203.69L214.48,192.19L215.45,189.64L216.41,201.77L217.38,195.81L218.35,203.69L219.31,199L222.21,180.48L223.18,182.61L224.14,172.17L225.11,206.88L226.08,232.44L227.04,237.33L228.01,258.84L228.97,253.73L231.87,262.46L232.84,261.61L233.8,258.41L234.77,263.53L236.7,280.77L237.67,293.55L238.64,292.91L239.6,278.01L240.57,259.48L241.53,257.14L242.5,264.8L243.47,255.43L245.4,237.55L246.36,241.81L247.33,235.42L248.3,234.78L249.26,233.93L250.23,230.73L251.2,221.36L252.16,182.82L253.13,177.92L254.09,164.72L255.06,160.89L256.03,166.64L256.99,164.08L257.96,155.56L259.89,151.31L260.86,159.61L261.82,180.27L262.79,173.24L264.72,167.7L265.69,168.34L266.65,181.97L267.62,182.82L270.52,165.79L271.48,177.5L272.45,165.57L273.42,163.87L275.35,156.2L276.31,159.4L277.28,155.99L278.25,159.4L279.21,154.07L280.18,158.33L281.15,154.07L282.11,163.44L283.08,164.93L284.04,162.8L285.98,179.63L286.94,164.93L289.84,153.44L290.81,153.01L291.77,151.52L292.74,147.05L295.64,207.31L296.6,209.44L298.54,202.2L299.5,200.71L300.47,194.75L301.43,183.03L303.37,164.93L304.33,161.95L305.3,158.97L306.26,161.31L307.23,164.08L308.2,163.87L309.16,158.76L310.13,146.62L311.1,144.49L312.06,158.55L313.99,141.08L314.96,141.94L315.93,138.96L316.89,140.45L317.86,139.38L318.82,136.19L319.79,128.52L320.76,128.52L321.72,133.42L322.69,134.06L323.66,126.6L324.62,135.76L325.59,145.13L326.55,144.28L328.49,154.5L329.45,178.78L330.42,175.37L331.38,179.63L332.35,170.68L333.32,175.16L334.28,174.73L335.25,170.26L336.22,172.39L337.18,190.49L338.15,182.82L339.11,182.4L342.01,212.21L342.98,213.91L344.91,191.34L345.88,189.64L346.84,192.19L347.81,183.25L348.77,176.86L349.74,182.82L351.67,184.52L352.64,184.31L353.61,183.46L354.57,173.45L355.54,183.03L356.5,178.14L357.47,182.18L358.44,193.04L362.3,153.22L363.27,160.04L364.23,160.04L365.2,155.35L366.17,159.82L367.13,159.82L368.1,159.4L369.06,157.91L370.03,150.88L371,156.84L371.96,161.53L372.93,158.55L374.86,150.45L375.83,152.58L377.76,136.4L378.73,132.78L380.66,126.82L381.62,134.06L382.59,124.69L383.56,150.88L384.52,160.46L385.49,186.02L386.45,186.44L387.42,198.58L388.39,178.35L389.35,180.48L390.32,191.34L391.28,193.04L392.25,216.47L393.22,217.96L394.18,213.06L395.15,198.15L396.12,207.52L397.08,205.61L398.05,201.99L399.01,216.89L399.98,211.99L400.95,216.47L401.91,217.96L402.88,202.84L403.84,193.68L404.81,209.44L406.74,184.1L407.71,189L408.68,180.48L409.64,162.59L410.61,160.68L411.57,160.46L412.54,140.02L413.51,144.92L415.44,146.83L416.4,142.58L417.37,146.41L418.34,154.93L419.3,164.08L420.27,163.23L422.2,154.07L423.17,156.84L426.07,197.73L427.03,183.25L428,176.01L428.96,191.34L430.9,178.99L431.86,161.53L432.83,164.3L433.79,156.2L434.76,134.06L435.73,137.25L436.69,135.12L437.66,123.84L438.63,121.28L439.59,114.04L441.52,108.72L442.49,100.2L443.46,98.71L444.42,104.67L445.39,119.79L446.35,108.08L448.29,84.02L449.25,80.4L450.22,73.16L451.19,74.86L453.12,73.58L454.08,84.44L455.05,84.23L456.02,79.76L457.95,77.2L458.91,85.72L460.85,74.65L461.81,67.83L462.78,70.81L463.75,66.77L464.71,68.26L465.68,66.13L466.64,82.95L467.61,76.56L468.58,73.37L469.54,61.23L471.47,66.98L472.44,63.15L473.41,58.89L474.37,44.62L475.34,37.17L476.3,36.32L477.27,29.72L478.24,33.12L480.17,31.85L481.14,28.23L482.1,24.61L483.07,25.25L485,31.42" style="vector-effect: non-scaling-stroke; fill: none; stroke: rgb(105, 105, 105); stroke-opacity: 1; stroke-width: 2px; opacity: 1;"/></g><g class="points"/><g class="text"/></g></g></g><g class="overplot"/><path class="xlines-above crisp" d="M0,0" style="fill: none;"/><path class="ylines-above crisp" d="M0,0" style="fill: none;"/><g class="overlines-above"/><g class="xaxislayer-above"><g class="xtick"><text text-anchor="start" x="0" y="422" transform="translate(80,0) rotate(90,0,416)" style="font-family: 'Open Sans', verdana, arial, sans-serif; font-size: 12px; fill: rgb(42, 63, 95); fill-opacity: 1; white-space: pre;">1/2/2018</text></g><g class="xtick"><text text-anchor="start" x="0" y="422" transform="translate(94.49,0) rotate(90,0,416)" style="font-family: 'Open Sans', verdana, arial, sans-serif; font-size: 12px; fill: rgb(42, 63, 95); fill-opacity: 1; white-space: pre;">1/24/2018</text></g><g class="xtick"><text text-anchor="start" x="0" y="422" transform="translate(108.98,0) rotate(90,0,416)" style="font-family: 'Open Sans', verdana, arial, sans-serif; font-size: 12px; fill: rgb(42, 63, 95); fill-opacity: 1; white-space: pre;">2/14/2018</text></g><g class="xtick"><text text-anchor="start" x="0" y="422" transform="translate(123.47999999999999,0) rotate(90,0,416)" style="font-family: 'Open Sans', verdana, arial, sans-serif; font-size: 12px; fill: rgb(42, 63, 95); fill-opacity: 1; white-space: pre;">3/8/2018</text></g><g class="xtick"><text text-anchor="start" x="0" y="422" transform="translate(137.97,0) rotate(90,0,416)" style="font-family: 'Open Sans', verdana, arial, sans-serif; font-size: 12px; fill: rgb(42, 63, 95); fill-opacity: 1; white-space: pre;">3/29/2018</text></g><g class="xtick"><text text-anchor="start" x="0" y="422" transform="translate(152.45999999999998,0) rotate(90,0,416)" style="font-family: 'Open Sans', verdana, arial, sans-serif; font-size: 12px; fill: rgb(42, 63, 95); fill-opacity: 1; white-space: pre;">4/20/2018</text></g><g class="xtick"><text text-anchor="start" x="0" y="422" transform="translate(166.95,0) rotate(90,0,416)" style="font-family: 'Open Sans', verdana, arial, sans-serif; font-size: 12px; fill: rgb(42, 63, 95); fill-opacity: 1; white-space: pre;">5/11/2018</text></g><g class="xtick"><text text-anchor="start" x="0" y="422" transform="translate(181.44,0) rotate(90,0,416)" style="font-family: 'Open Sans', verdana, arial, sans-serif; font-size: 12px; fill: rgb(42, 63, 95); fill-opacity: 1; white-space: pre;">6/4/2018</text></g><g class="xtick"><text text-anchor="start" x="0" y="422" transform="translate(195.94,0) rotate(90,0,416)" style="font-family: 'Open Sans', verdana, arial, sans-serif; font-size: 12px; fill: rgb(42, 63, 95); fill-opacity: 1; white-space: pre;">6/25/2018</text></g><g class="xtick"><text text-anchor="start" x="0" y="422" transform="translate(210.43,0) rotate(90,0,416)" style="font-family: 'Open Sans', verdana, arial, sans-serif; font-size: 12px; fill: rgb(42, 63, 95); fill-opacity: 1; white-space: pre;">7/17/2018</text></g><g class="xtick"><text text-anchor="start" x="0" y="422" transform="translate(224.92,0) rotate(90,0,416)" style="font-family: 'Open Sans', verdana, arial, sans-serif; font-size: 12px; fill: rgb(42, 63, 95); fill-opacity: 1; white-space: pre;">8/7/2018</text></g><g class="xtick"><text text-anchor="start" x="0" y="422" transform="translate(239.41,0) rotate(90,0,416)" style="font-family: 'Open Sans', verdana, arial, sans-serif; font-size: 12px; fill: rgb(42, 63, 95); fill-opacity: 1; white-space: pre;">8/28/2018</text></g><g class="xtick"><text text-anchor="start" x="0" y="422" transform="translate(253.9,0) rotate(90,0,416)" style="font-family: 'Open Sans', verdana, arial, sans-serif; font-size: 12px; fill: rgb(42, 63, 95); fill-opacity: 1; white-space: pre;">9/19/2018</text></g><g class="xtick"><text text-anchor="start" x="0" y="422" transform="translate(268.4,0) rotate(90,0,416)" style="font-family: 'Open Sans', verdana, arial, sans-serif; font-size: 12px; fill: rgb(42, 63, 95); fill-opacity: 1; white-space: pre;">10/10/2018</text></g><g class="xtick"><text text-anchor="start" x="0" y="422" transform="translate(282.89,0) rotate(90,0,416)" style="font-family: 'Open Sans', verdana, arial, sans-serif; font-size: 12px; fill: rgb(42, 63, 95); fill-opacity: 1; white-space: pre;">10/31/2018</text></g><g class="xtick"><text text-anchor="start" x="0" y="422" transform="translate(297.38,0) rotate(90,0,416)" style="font-family: 'Open Sans', verdana, arial, sans-serif; font-size: 12px; fill: rgb(42, 63, 95); fill-opacity: 1; white-space: pre;">11/21/2018</text></g><g class="xtick"><text text-anchor="start" x="0" y="422" transform="translate(311.87,0) rotate(90,0,416)" style="font-family: 'Open Sans', verdana, arial, sans-serif; font-size: 12px; fill: rgb(42, 63, 95); fill-opacity: 1; white-space: pre;">12/14/2018</text></g><g class="xtick"><text text-anchor="start" x="0" y="422" transform="translate(326.36,0) rotate(90,0,416)" style="font-family: 'Open Sans', verdana, arial, sans-serif; font-size: 12px; fill: rgb(42, 63, 95); fill-opacity: 1; white-space: pre;">1/8/2019</text></g><g class="xtick"><text text-anchor="start" x="0" y="422" transform="translate(340.86,0) rotate(90,0,416)" style="font-family: 'Open Sans', verdana, arial, sans-serif; font-size: 12px; fill: rgb(42, 63, 95); fill-opacity: 1; white-space: pre;">1/30/2019</text></g><g class="xtick"><text text-anchor="start" x="0" y="422" transform="translate(355.35,0) rotate(90,0,416)" style="font-family: 'Open Sans', verdana, arial, sans-serif; font-size: 12px; fill: rgb(42, 63, 95); fill-opacity: 1; white-space: pre;">2/21/2019</text></g><g class="xtick"><text text-anchor="start" x="0" y="422" transform="translate(369.84,0) rotate(90,0,416)" style="font-family: 'Open Sans', verdana, arial, sans-serif; font-size: 12px; fill: rgb(42, 63, 95); fill-opacity: 1; white-space: pre;">3/14/2019</text></g><g class="xtick"><text text-anchor="start" x="0" y="422" transform="translate(384.33,0) rotate(90,0,416)" style="font-family: 'Open Sans', verdana, arial, sans-serif; font-size: 12px; fill: rgb(42, 63, 95); fill-opacity: 1; white-space: pre;">4/4/2019</text></g><g class="xtick"><text text-anchor="start" x="0" y="422" transform="translate(398.82,0) rotate(90,0,416)" style="font-family: 'Open Sans', verdana, arial, sans-serif; font-size: 12px; fill: rgb(42, 63, 95); fill-opacity: 1; white-space: pre;">4/26/2019</text></g><g class="xtick"><text text-anchor="start" x="0" y="422" transform="translate(413.32,0) rotate(90,0,416)" style="font-family: 'Open Sans', verdana, arial, sans-serif; font-size: 12px; fill: rgb(42, 63, 95); fill-opacity: 1; white-space: pre;">5/17/2019</text></g><g class="xtick"><text text-anchor="start" x="0" y="422" transform="translate(427.81,0) rotate(90,0,416)" style="font-family: 'Open Sans', verdana, arial, sans-serif; font-size: 12px; fill: rgb(42, 63, 95); fill-opacity: 1; white-space: pre;">6/10/2019</text></g><g class="xtick"><text text-anchor="start" x="0" y="422" transform="translate(442.3,0) rotate(90,0,416)" style="font-family: 'Open Sans', verdana, arial, sans-serif; font-size: 12px; fill: rgb(42, 63, 95); fill-opacity: 1; white-space: pre;">7/1/2019</text></g><g class="xtick"><text text-anchor="start" x="0" y="422" transform="translate(456.79,0) rotate(90,0,416)" style="font-family: 'Open Sans', verdana, arial, sans-serif; font-size: 12px; fill: rgb(42, 63, 95); fill-opacity: 1; white-space: pre;">7/23/2019</text></g><g class="xtick"><text text-anchor="start" x="0" y="422" transform="translate(471.28,0) rotate(90,0,416)" style="font-family: 'Open Sans', verdana, arial, sans-serif; font-size: 12px; fill: rgb(42, 63, 95); fill-opacity: 1; white-space: pre;">8/13/2019</text></g><g class="xtick"><text text-anchor="start" x="0" y="422" transform="translate(485.78,0) rotate(90,0,416)" style="font-family: 'Open Sans', verdana, arial, sans-serif; font-size: 12px; fill: rgb(42, 63, 95); fill-opacity: 1; white-space: pre;">9/4/2019</text></g><g class="xtick"><text text-anchor="start" x="0" y="422" transform="translate(500.27,0) rotate(90,0,416)" style="font-family: 'Open Sans', verdana, arial, sans-serif; font-size: 12px; fill: rgb(42, 63, 95); fill-opacity: 1; white-space: pre;">9/25/2019</text></g><g class="xtick"><text text-anchor="start" x="0" y="422" transform="translate(514.76,0) rotate(90,0,416)" style="font-family: 'Open Sans', verdana, arial, sans-serif; font-size: 12px; fill: rgb(42, 63, 95); fill-opacity: 1; white-space: pre;">10/16/2019</text></g><g class="xtick"><text text-anchor="start" x="0" y="422" transform="translate(529.25,0) rotate(90,0,416)" style="font-family: 'Open Sans', verdana, arial, sans-serif; font-size: 12px; fill: rgb(42, 63, 95); fill-opacity: 1; white-space: pre;">11/6/2019</text></g><g class="xtick"><text text-anchor="start" x="0" y="422" transform="translate(543.75,0) rotate(90,0,416)" style="font-family: 'Open Sans', verdana, arial, sans-serif; font-size: 12px; fill: rgb(42, 63, 95); fill-opacity: 1; white-space: pre;">11/27/2019</text></g><g class="xtick"><text text-anchor="start" x="0" y="422" transform="translate(558.24,0) rotate(90,0,416)" style="font-family: 'Open Sans', verdana, arial, sans-serif; font-size: 12px; fill: rgb(42, 63, 95); fill-opacity: 1; white-space: pre;">12/19/2019</text></g></g><g class="yaxislayer-above"><g class="ytick"><text text-anchor="end" x="79" y="4.199999999999999" transform="translate(0,407.6)" style="font-family: 'Open Sans', verdana, arial, sans-serif; font-size: 12px; fill: rgb(42, 63, 95); fill-opacity: 1; white-space: pre;">22</text></g><g class="ytick"><text text-anchor="end" x="79" y="4.199999999999999" transform="translate(0,365.02)" style="font-family: 'Open Sans', verdana, arial, sans-serif; font-size: 12px; fill: rgb(42, 63, 95); fill-opacity: 1; white-space: pre;">24</text></g><g class="ytick"><text text-anchor="end" x="79" y="4.199999999999999" transform="translate(0,322.43)" style="font-family: 'Open Sans', verdana, arial, sans-serif; font-size: 12px; fill: rgb(42, 63, 95); fill-opacity: 1; white-space: pre;">26</text></g><g class="ytick"><text text-anchor="end" x="79" y="4.199999999999999" transform="translate(0,279.84000000000003)" style="font-family: 'Open Sans', verdana, arial, sans-serif; font-size: 12px; fill: rgb(42, 63, 95); fill-opacity: 1; white-space: pre;">28</text></g><g class="ytick"><text text-anchor="end" x="79" y="4.199999999999999" transform="translate(0,237.25)" style="font-family: 'Open Sans', verdana, arial, sans-serif; font-size: 12px; fill: rgb(42, 63, 95); fill-opacity: 1; white-space: pre;">30</text></g><g class="ytick"><text text-anchor="end" x="79" y="4.199999999999999" transform="translate(0,194.66)" style="font-family: 'Open Sans', verdana, arial, sans-serif; font-size: 12px; fill: rgb(42, 63, 95); fill-opacity: 1; white-space: pre;">32</text></g><g class="ytick"><text text-anchor="end" x="79" y="4.199999999999999" transform="translate(0,152.07999999999998)" style="font-family: 'Open Sans', verdana, arial, sans-serif; font-size: 12px; fill: rgb(42, 63, 95); fill-opacity: 1; white-space: pre;">34</text></g><g class="ytick"><text text-anchor="end" x="79" y="4.199999999999999" transform="translate(0,109.49)" style="font-family: 'Open Sans', verdana, arial, sans-serif; font-size: 12px; fill: rgb(42, 63, 95); fill-opacity: 1; white-space: pre;">36</text></g></g><g class="overaxes-above"/></g></g><g class="polarlayer"/><g class="ternarylayer"/><g class="geolayer"/><g class="funnelarealayer"/><g class="pielayer"/><g class="treemaplayer"/><g class="sunburstlayer"/><g class="glimages"/><defs id="topdefs-132720"><g class="clips"/><clipPath id="legend132720"><rect width="113" height="48" x="0" y="0"/></clipPath></defs><g class="layer-above"><g class="imagelayer"/><g class="shapelayer"/></g><g class="infolayer"><g class="legend" pointer-events="all" transform="translate(574.7, 100)"><rect class="bg" shape-rendering="crispEdges" style="stroke: rgb(68, 68, 68); stroke-opacity: 1; fill: rgb(255, 255, 255); fill-opacity: 1; stroke-width: 0px;" width="113" height="48" x="0" y="0"/><g class="scrollbox" transform="translate(0, 0)" clip-path="url('#legend132720')"><g class="groups"><g class="traces" transform="translate(0, 14.5)" style="opacity: 1;"><text class="legendtext user-select-none" text-anchor="start" x="40" y="4.680000000000001" style="font-family: 'Open Sans', verdana, arial, sans-serif; font-size: 12px; fill: rgb(42, 63, 95); fill-opacity: 1; white-space: pre;">B of A High</text><g class="layers" style="opacity: 1;"><g class="legendfill"/><g class="legendlines"><path class="js-line" d="M5,0h30" style="fill: none; stroke: rgb(0, 191, 255); stroke-opacity: 1; stroke-width: 2px;"/></g><g class="legendsymbols"><g class="legendpoints"/></g></g><rect class="legendtoggle" pointer-events="all" x="0" y="-9.5" width="107.96875" height="19" style="cursor: pointer; fill: rgb(0, 0, 0); fill-opacity: 0;"/></g><g class="traces" transform="translate(0, 33.5)" style="opacity: 1;"><text class="legendtext user-select-none" text-anchor="start" x="40" y="4.680000000000001" style="font-family: 'Open Sans', verdana, arial, sans-serif; font-size: 12px; fill: rgb(42, 63, 95); fill-opacity: 1; white-space: pre;">B of A Low</text><g class="layers" style="opacity: 1;"><g class="legendfill"/><g class="legendlines"><path class="js-line" d="M5,0h30" style="fill: none; stroke: rgb(105, 105, 105); stroke-opacity: 1; stroke-width: 2px;"/></g><g class="legendsymbols"><g class="legendpoints"/></g></g><rect class="legendtoggle" pointer-events="all" x="0" y="-9.5" width="107.96875" height="19" style="cursor: pointer; fill: rgb(0, 0, 0); fill-opacity: 0;"/></g></g></g><rect class="scrollbar" rx="20" ry="3" width="0" height="0" style="fill: rgb(128, 139, 164); fill-opacity: 1;" x="0" y="0"/></g><g class="g-gtitle"><text class="gtitle" x="35" y="50" text-anchor="start" dy="0em" style="font-family: 'Open Sans', verdana, arial, sans-serif; font-size: 17px; fill: rgb(42, 63, 95); opacity: 1; font-weight: normal; white-space: pre;">Bank of America Time Series</text></g><g class="g-xtitle"/><g class="g-ytitle"/></g></svg>