<svg class="main-svg" xmlns="http://www.w3.org/2000/svg" xmlns:xlink="http://www.w3.org/1999/xlink" width="400" height="400" viewBox="0 0 400 400"><rect x="0" y="0" width="400" height="400" style="fill: rgb(255, 255, 255); fill-opacity: 1;"/><defs id="defs-479959"><g class="clips"><clipPath id="clip479959xyplot" class="plotclip"><rect width="240" height="220"/></clipPath><clipPath class="axesclip" id="clip479959x"><rect x="80" y="0" width="240" height="400"/></clipPath><clipPath class="axesclip" id="clip479959y"><rect x="0" y="100" width="400" height="220"/></clipPath><clipPath class="axesclip" id="clip479959xy"><rect x="80" y="100" width="240" height="220"/></clipPath></g><g class="gradients"/></defs><g class="bglayer"><rect class="bg" x="80" y="100" width="240" height="220" style="fill: rgb(229, 236, 246); fill-opacity: 1; stroke-width: 0;"/></g><g class="layer-below"><g class="imagelayer"/><g class="shapelayer"/></g><g class="cartesianlayer"><g class="subplot xy"><g class="layer-subplot"><g class="shapelayer"/><g class="imagelayer"/></g><g class="gridlayer"><g class="x"><path class="xgrid crisp" transform="translate(200,0)" d="M0,100v220" style="stroke: rgb(255, 255, 255); stroke-opacity: 1; stroke-width: 1px;"/><path class="xgrid crisp" transform="translate(318,0)" d="M0,100v220" style="stroke: rgb(255, 255, 255); stroke-opacity: 1; stroke-width: 1px;"/></g><g class="y"><path class="ygrid crisp" transform="translate(0,275.1)" d="M80,0h240" style="stroke: rgb(255, 255, 255); stroke-opacity: 1; stroke-width: 1px;"/><path class="ygrid crisp" transform="translate(0,224.24)" d="M80,0h240" style="stroke: rgb(255, 255, 255); stroke-opacity: 1; stroke-width: 1px;"/><path class="ygrid crisp" transform="translate(0,173.38)" d="M80,0h240" style="stroke: rgb(255, 255, 255); stroke-opacity: 1; stroke-width: 1px;"/><path class="ygrid crisp" transform="translate(0,122.53)" d="M80,0h240" style="stroke: rgb(255, 255, 255); stroke-opacity: 1; stroke-width: 1px;"/></g></g><g class="zerolinelayer"><path class="xzl zl crisp" transform="translate(82,0)" d="M0,100v220" style="stroke: rgb(255, 255, 255); stroke-opacity: 1; stroke-width: 2px;"/></g><path class="xlines-below"/><path class="ylines-below"/><g class="overlines-below"/><g class="xaxislayer-below"/><g class="yaxislayer-below"/><g class="overaxes-below"/><g class="plot" transform="translate(80, 100)" clip-path="url('#clip479959xyplot')"><g class="scatterlayer mlayer"><g class="trace scatter tracec3f44c" style="stroke-miterlimit: 2; opacity: 1;"><g class="fills"/><g class="errorbars"/><g class="lines"><path class="js-line" d="M2,192.73L2.47,209L2.71,184.59L2.94,190.01L3.18,181.88L3.42,165.6L3.65,173.74L3.89,154.75L4.83,141.19L5.07,141.19L6.72,116.78L6.96,119.49L7.19,122.21L7.43,111.36L7.66,116.78L8.14,114.07L8.37,108.64L8.84,119.49L9.32,114.07L9.55,114.07L9.79,114.07L10.02,108.64L10.26,114.07L10.5,105.93L10.73,108.64L10.97,103.22L11.91,97.79L12.15,97.79L12.62,97.79L12.86,89.66L13.33,103.22L13.8,97.79L14.04,89.66L14.27,86.95L14.51,92.37L14.74,89.66L14.98,92.37L15.22,86.95L15.45,95.08L15.69,100.51L15.92,103.22L16.4,100.51L16.63,97.79L16.87,97.79L17.1,100.51L17.34,100.51L17.58,103.22L18.28,97.79L18.52,100.51L18.76,100.51L18.99,100.51L19.23,105.93L19.94,97.79L20.17,100.51L20.41,97.79L20.64,97.79L20.88,100.51L21.12,100.51L21.35,105.93L22.77,97.79L23,100.51L23.71,100.51L23.95,95.08L24.89,100.51L25.13,100.51L25.36,100.51L25.6,97.79L25.84,100.51L26.07,97.79L26.31,92.37L27.02,100.51L27.25,97.79L27.72,89.66L27.96,92.37L28.2,95.08L28.43,92.37L28.67,100.51L29.61,92.37L29.85,95.08L30.08,97.79L30.32,92.37L30.56,92.37L30.79,100.51L31.26,92.37L31.5,97.79L31.74,84.23L32.21,92.37L32.44,92.37L32.68,92.37L32.92,86.95L33.15,84.23L33.62,86.95L33.86,89.66L34.57,95.08L34.8,89.66L35.04,92.37L35.28,86.95L35.51,89.66L35.75,89.66L35.98,95.08L36.22,89.66L36.46,86.95L37.16,89.66L37.4,81.52L37.64,78.81L37.87,81.52L38.11,92.37L38.82,81.52L39.05,89.66L39.29,95.08L39.52,84.23L39.76,84.23L40.7,81.52L40.94,89.66L41.88,84.23L42.12,86.95L42.59,86.95L42.83,84.23L43.3,81.52L43.54,84.23L43.77,84.23L44.24,84.23L44.48,81.52L44.95,81.52L45.19,76.1L45.42,76.1L45.66,89.66L46.37,76.1L46.6,78.81L46.84,76.1L47.08,81.52L47.55,78.81L47.78,78.81L48.02,76.1L48.26,81.52L48.49,84.23L49.91,73.38L50.14,81.52L50.38,73.38L50.85,76.1L51.09,78.81L51.32,81.52L51.56,70.67L51.8,70.67L52.03,67.96L52.98,81.52L53.21,78.81L54.16,70.67L54.39,78.81L55.34,67.96L55.57,67.96L55.81,67.96L56.04,70.67L56.28,73.38L56.52,65.25L57.46,62.53L57.7,62.53L57.93,67.96L58.17,57.11L58.4,59.82L58.88,73.38L59.11,70.67L59.35,70.67L59.82,62.53L60.06,65.25L60.29,73.38L61.24,65.25L61.47,65.25L61.71,70.67L62.18,67.96L62.42,65.25L62.65,59.82L63.12,65.25L63.36,67.96L63.6,70.67L63.83,62.53L64.07,57.11L64.54,59.82L64.78,59.82L65.01,62.53L65.25,59.82L65.48,57.11L66.19,65.25L66.43,62.53L67.61,54.4L67.84,62.53L68.32,51.68L68.55,59.82L68.79,59.82L69.02,57.11L69.5,54.4L69.97,59.82L70.2,57.11L70.68,62.53L70.91,54.4L71.15,48.97L71.38,54.4L71.62,65.25L72.56,51.68L72.8,54.4L73.04,57.11L73.27,59.82L73.51,57.11L73.74,48.97L74.22,57.11L74.45,54.4L74.69,43.55L75.16,54.4L75.4,48.97L75.63,51.68L75.87,54.4L76.1,46.26L76.34,48.97L76.58,43.55L76.81,57.11L77.52,51.68L77.76,62.53L78.46,43.55L78.7,51.68L78.94,54.4L79.17,48.97L79.41,46.26L79.64,43.55L79.88,59.82L80.12,59.82L80.35,40.84L80.59,38.12L80.82,46.26L81.53,57.11L81.77,46.26L82,46.26L82.24,51.68L83.66,40.84L83.89,48.97L84.36,43.55L84.84,46.26L85.07,46.26L85.31,43.55L85.54,51.68L86.25,40.84L86.49,51.68L86.96,38.12L87.43,43.55L87.67,43.55L87.9,43.55L88.14,38.12L88.61,48.97L88.85,40.84L89.08,40.84L89.56,46.26L89.79,38.12L90.03,43.55L90.5,40.84L90.74,40.84L90.97,43.55L91.21,38.12L91.44,40.84L91.68,38.12L92.15,40.84L92.62,35.41L92.86,48.97L93.57,35.41L93.8,48.97L94.75,40.84L94.98,38.12L95.22,54.4L95.69,43.55L95.93,43.55L96.64,40.84L96.87,46.26L97.11,46.26L97.34,43.55L97.58,32.7L97.82,46.26L98.05,51.68L98.76,40.84L99,48.97L99.94,35.41L100.18,43.55L100.65,51.68L100.88,35.41L101.36,48.97L101.59,38.12L101.83,35.41L102.3,48.97L102.54,46.26L102.77,40.84L103.01,38.12L103.24,46.26L103.72,38.12L103.95,40.84L104.19,48.97L104.42,54.4L104.66,48.97L104.9,43.55L105.13,35.41L105.37,40.84L105.6,51.68L106.31,35.41L106.55,40.84L106.78,48.97L107.49,38.12L107.73,48.97L108.2,35.41L108.44,40.84L108.67,40.84L108.91,40.84L109.14,46.26L109.38,35.41L109.85,43.55L110.09,40.84L110.56,54.4L110.8,43.55L111.03,38.12L111.5,48.97L111.74,40.84L112.21,32.7L112.45,35.41L112.68,48.97L113.16,35.41L113.63,40.84L113.86,38.12L114.34,40.84L114.57,35.41L114.81,38.12L115.04,32.7L115.28,32.7L115.75,38.12L115.99,32.7L116.22,32.7L116.93,40.84L117.17,29.99L117.64,27.27L118.35,35.41L118.58,32.7L118.82,40.84L119.29,35.41L119.53,35.41L119.76,29.99L120,32.7L120.24,40.84L121.18,32.7L121.42,40.84L121.65,29.99L122.12,40.84L122.36,38.12L122.83,38.12L123.07,29.99L123.78,38.12L124.01,32.7L124.25,38.12L124.48,29.99L124.72,27.27L125.66,38.12L125.9,35.41L126.61,29.99L126.84,35.41L127.32,35.41L127.55,32.7L127.79,27.27L128.26,32.7L128.5,38.12L128.97,27.27L129.44,32.7L129.68,38.12L129.91,38.12L130.15,29.99L130.38,29.99L130.62,27.27L131.33,38.12L131.56,35.41L131.8,21.85L132.27,38.12L132.51,29.99L132.74,27.27L133.22,32.7L133.45,27.27L133.69,19.14L134.16,35.41L134.4,29.99L134.63,27.27L134.87,35.41L135.34,29.99L135.58,27.27L135.81,27.27L136.05,32.7L136.52,21.85L136.76,35.41L136.99,35.41L137.23,29.99L137.46,29.99L137.7,27.27L138.17,32.7L138.41,19.14L138.88,43.55L139.12,29.99L139.35,21.85L140.3,40.84L140.53,21.85L141.71,29.99L141.95,27.27L142.18,19.14L142.42,21.85L142.66,32.7L142.89,46.26L143.36,38.12L143.6,27.27L143.84,32.7L144.07,24.56L144.31,27.27L144.54,27.27L144.78,29.99L145.02,43.55L145.72,24.56L145.96,27.27L146.2,29.99L146.43,29.99L146.67,27.27L147.14,40.84L147.38,32.7L147.61,24.56L148.08,35.41L148.32,29.99L148.56,29.99L148.79,27.27L149.03,35.41L149.5,29.99L149.74,32.7L149.97,38.12L150.44,27.27L150.92,29.99L151.15,32.7L151.39,27.27L151.62,35.41L151.86,35.41L152.57,29.99L152.8,38.12L153.75,29.99L153.98,29.99L154.22,29.99L154.46,32.7L154.93,21.85L155.16,29.99L155.4,35.41L155.64,29.99L155.87,27.27L156.82,35.41L157.05,27.27L157.52,40.84L157.76,29.99L158,29.99L158.23,27.27L158.47,35.41L158.94,19.14L159.18,27.27L159.41,29.99L159.88,32.7L160.12,19.14L161.3,27.27L161.54,16.42L162.24,29.99L162.48,27.27L162.72,19.14L162.95,19.14L163.19,24.56L163.66,27.27L163.9,16.42L164.13,19.14L164.37,21.85L164.6,19.14L164.84,24.56L165.08,27.27L165.78,13.71L166.02,19.14L166.26,19.14L166.73,24.56L166.96,16.42L167.2,16.42L167.44,21.85L167.67,19.14L167.91,27.27L168.85,13.71L169.09,21.85L169.56,16.42L170.03,19.14L170.27,19.14L170.5,19.14L170.74,13.71L171.92,24.56L172.16,16.42L172.39,27.27L172.86,19.14L173.1,21.85L173.57,16.42L173.81,24.56L174.28,16.42L174.75,19.14L174.99,19.14L175.22,19.14L175.46,16.42L175.7,24.56L176.17,16.42L176.4,16.42L176.64,24.56L177.11,19.14L177.35,19.14L178.06,16.42L178.29,27.27L179.24,16.42L179.47,24.56L179.71,27.27L179.94,13.71L180.65,21.85L180.89,19.14L181.36,19.14L181.6,24.56L182.54,16.42L182.78,24.56L183.25,13.71L183.72,16.42L183.96,19.14L184.19,21.85L184.43,13.71L185.14,21.85L185.37,16.42L186.32,16.42L186.55,24.56L187.02,16.42L187.26,19.14L187.5,24.56L187.73,16.42L188.2,21.85L188.44,27.27L189.15,11L189.38,19.14L189.62,27.27L190.8,16.42L191.04,27.27L191.74,13.71L191.98,21.85L192.22,21.85L192.45,19.14L192.69,29.99L193.4,13.71L193.63,24.56L193.87,24.56L194.34,13.71L194.81,19.14L195.05,21.85L195.28,16.42L195.52,24.56L195.76,32.7L196.23,13.71L196.7,16.42L196.94,24.56L197.17,35.41L197.41,16.42L197.64,19.14L197.88,27.27L198.35,24.56L198.59,24.56L198.82,24.56L199.06,19.14L199.53,24.56L199.77,16.42L200,29.99L200.48,27.27L200.71,19.14L201.18,21.85L201.42,19.14L201.66,16.42L202.6,24.56L202.84,16.42L203.78,24.56L204.02,24.56L204.25,27.27L204.49,24.56L204.72,19.14L205.67,27.27L205.9,19.14L206.14,29.99L206.38,16.42L206.61,19.14L206.85,24.56L207.08,24.56L207.32,27.27L207.79,19.14L208.03,21.85L208.26,27.27L208.5,27.27L208.74,24.56L208.97,19.14L209.44,21.85L209.68,21.85L209.92,21.85L210.15,29.99L210.62,19.14L210.86,24.56L211.1,27.27L212.75,16.42L212.98,21.85L213.46,19.14L213.93,29.99L214.16,19.14L214.64,27.27L214.87,21.85L215.11,19.14L215.34,29.99L215.82,24.56L216.05,27.27L216.76,16.42L217,19.14L217.23,21.85L217.47,29.99L217.94,27.27L218.18,16.42L218.65,29.99L218.88,19.14L219.12,19.14L219.83,27.27L220.06,24.56L220.3,27.27L220.77,24.56L221.01,24.56L221.48,27.27L221.72,16.42L222.66,27.27L222.9,13.71L223.37,29.99L223.84,27.27L224.08,21.85L224.55,19.14L224.78,27.27L225.02,24.56L225.49,27.27L225.73,19.14L225.96,27.27L226.44,24.56L226.67,13.71L227.85,32.7L228.09,21.85L228.56,27.27L228.8,21.85L229.03,21.85L229.98,32.7L230.21,19.14L231.16,32.7L231.39,24.56L232.57,19.14L232.81,19.14L233.75,27.27L233.99,21.85L234.22,21.85L234.46,27.27L234.93,29.99L235.4,24.56L235.64,24.56L235.88,24.56L236.11,21.85L236.35,16.42L236.58,21.85L236.82,24.56L237.06,24.56L237.29,27.27L237.53,27.27L237.76,21.85" style="vector-effect: non-scaling-stroke; fill: none; stroke: rgb(99, 110, 250); stroke-opacity: 1; stroke-width: 2px; opacity: 1;"/></g><g class="points"/><g class="text"/></g></g></g><g class="overplot"/><path class="xlines-above crisp" d="M0,0" style="fill: none;"/><path class="ylines-above crisp" d="M0,0" style="fill: none;"/><g class="overlines-above"/><g class="xaxislayer-above"><g class="xtick"><text text-anchor="middle" x="0" y="333" transform="translate(82,0)" style="font-family: 'Open Sans', verdana, arial, sans-serif; font-size: 12px; fill: rgb(42, 63, 95); fill-opacity: 1; white-space: pre;">0</text></g><g class="xtick"><text text-anchor="middle" x="0" y="333" transform="translate(200,0)" style="font-family: 'Open Sans', verdana, arial, sans-serif; font-size: 12px; fill: rgb(42, 63, 95); fill-opacity: 1; white-space: pre;">500</text></g><g class="xtick"><text text-anchor="middle" x="0" y="333" transform="translate(318,0)" style="font-family: 'Open Sans', verdana, arial, sans-serif; font-size: 12px; fill: rgb(42, 63, 95); fill-opacity: 1; white-space: pre;">1000</text></g></g><g class="yaxislayer-above"><g class="ytick"><text text-anchor="end" x="79" y="4.199999999999999" transform="translate(0,275.1)" style="font-family: 'Open Sans', verdana, arial, sans-serif; font-size: 12px; fill: rgb(42, 63, 95); fill-opacity: 1; white-space: pre;">0.5</text></g><g class="ytick"><text text-anchor="end" x="79" y="4.199999999999999" transform="translate(0,224.24)" style="font-family: 'Open Sans', verdana, arial, sans-serif; font-size: 12px; fill: rgb(42, 63, 95); fill-opacity: 1; white-space: pre;">0.55</text></g><g class="ytick"><text text-anchor="end" x="79" y="4.199999999999999" transform="translate(0,173.38)" style="font-family: 'Open Sans', verdana, arial, sans-serif; font-size: 12px; fill: rgb(42, 63, 95); fill-opacity: 1; white-space: pre;">0.6</text></g><g class="ytick"><text text-anchor="end" x="79" y="4.199999999999999" transform="translate(0,122.53)" style="font-family: 'Open Sans', verdana, arial, sans-serif; font-size: 12px; fill: rgb(42, 63, 95); fill-opacity: 1; white-space: pre;">0.65</text></g></g><g class="overaxes-above"/></g></g><g class="polarlayer"/><g class="ternarylayer"/><g class="geolayer"/><g class="funnelarealayer"/><g class="pielayer"/><g class="treemaplayer"/><g class="sunburstlayer"/><g class="glimages"/><defs id="topdefs-479959"><g class="clips"/></defs><g class="layer-above"><g class="imagelayer"/><g class="shapelayer"><path data-index="0" fill-rule="evenodd" d="M82,295.44L318,295.44" clip-path="url('#clip479959xy')" style="opacity: 1; stroke: rgb(32, 178, 170); stroke-opacity: 1; fill: rgb(0, 0, 0); fill-opacity: 0; stroke-dasharray: 12px, 4px, 4px, 4px; stroke-width: 4px;"/></g></g><g class="infolayer"><g class="g-gtitle"><text class="gtitle" x="20" y="50" text-anchor="start" dy="0em" style="font-family: 'Open Sans', verdana, arial, sans-serif; font-size: 17px; fill: rgb(42, 63, 95); opacity: 1; font-weight: normal; white-space: pre;">Training Accuracy, Bank of America Corp</text></g><g class="g-xtitle"><text class="xtitle" x="200" y="360.890625" text-anchor="middle" style="font-family: 'Open Sans', verdana, arial, sans-serif; font-size: 15px; fill: rgb(42, 63, 95); opacity: 1; font-weight: normal; white-space: pre;">Epoch</text></g><g class="g-ytitle"><text class="ytitle" transform="rotate(-90,26.234375,210)" x="26.234375" y="210" text-anchor="middle" style="font-family: 'Open Sans', verdana, arial, sans-serif; font-size: 15px; fill: rgb(42, 63, 95); opacity: 1; font-weight: normal; white-space: pre;">Accuracy</text></g></g></svg>