<?xml version="1.0" encoding="utf-8" standalone="no"?>
<!DOCTYPE svg PUBLIC "-//W3C//DTD SVG 1.1//EN"
  "http://www.w3.org/Graphics/SVG/1.1/DTD/svg11.dtd">
<!-- Created with matplotlib (https://matplotlib.org/) -->
<svg height="288pt" version="1.1" viewBox="0 0 432 288" width="432pt" xmlns="http://www.w3.org/2000/svg" xmlns:xlink="http://www.w3.org/1999/xlink">
 <defs>
  <style type="text/css">
*{stroke-linecap:butt;stroke-linejoin:round;white-space:pre;}
  </style>
 </defs>
 <g id="figure_1">
  <g id="patch_1">
   <path d="M 0 288 
L 432 288 
L 432 0 
L 0 0 
z
" style="fill:#ffffff;"/>
  </g>
  <g id="axes_1">
   <g id="patch_2">
    <path d="M 54 252 
L 388.8 252 
L 388.8 34.56 
L 54 34.56 
z
" style="fill:#ffffff;"/>
   </g>
   <g id="matplotlib.axis_1">
    <g id="xtick_1">
     <g id="line2d_1">
      <defs>
       <path d="M 0 0 
L 0 3.5 
" id="mb04e587e53" style="stroke:#000000;stroke-width:0.8;"/>
      </defs>
      <g>
       <use style="stroke:#000000;stroke-width:0.8;" x="68.799525" xlink:href="#mb04e587e53" y="252"/>
      </g>
     </g>
     <g id="text_1">
      <!-- 2018-01 -->
      <defs>
       <path d="M 19.1875 8.296875 
L 53.609375 8.296875 
L 53.609375 0 
L 7.328125 0 
L 7.328125 8.296875 
Q 12.9375 14.109375 22.625 23.890625 
Q 32.328125 33.6875 34.8125 36.53125 
Q 39.546875 41.84375 41.421875 45.53125 
Q 43.3125 49.21875 43.3125 52.78125 
Q 43.3125 58.59375 39.234375 62.25 
Q 35.15625 65.921875 28.609375 65.921875 
Q 23.96875 65.921875 18.8125 64.3125 
Q 13.671875 62.703125 7.8125 59.421875 
L 7.8125 69.390625 
Q 13.765625 71.78125 18.9375 73 
Q 24.125 74.21875 28.421875 74.21875 
Q 39.75 74.21875 46.484375 68.546875 
Q 53.21875 62.890625 53.21875 53.421875 
Q 53.21875 48.921875 51.53125 44.890625 
Q 49.859375 40.875 45.40625 35.40625 
Q 44.1875 33.984375 37.640625 27.21875 
Q 31.109375 20.453125 19.1875 8.296875 
z
" id="DejaVuSans-50"/>
       <path d="M 31.78125 66.40625 
Q 24.171875 66.40625 20.328125 58.90625 
Q 16.5 51.421875 16.5 36.375 
Q 16.5 21.390625 20.328125 13.890625 
Q 24.171875 6.390625 31.78125 6.390625 
Q 39.453125 6.390625 43.28125 13.890625 
Q 47.125 21.390625 47.125 36.375 
Q 47.125 51.421875 43.28125 58.90625 
Q 39.453125 66.40625 31.78125 66.40625 
z
M 31.78125 74.21875 
Q 44.046875 74.21875 50.515625 64.515625 
Q 56.984375 54.828125 56.984375 36.375 
Q 56.984375 17.96875 50.515625 8.265625 
Q 44.046875 -1.421875 31.78125 -1.421875 
Q 19.53125 -1.421875 13.0625 8.265625 
Q 6.59375 17.96875 6.59375 36.375 
Q 6.59375 54.828125 13.0625 64.515625 
Q 19.53125 74.21875 31.78125 74.21875 
z
" id="DejaVuSans-48"/>
       <path d="M 12.40625 8.296875 
L 28.515625 8.296875 
L 28.515625 63.921875 
L 10.984375 60.40625 
L 10.984375 69.390625 
L 28.421875 72.90625 
L 38.28125 72.90625 
L 38.28125 8.296875 
L 54.390625 8.296875 
L 54.390625 0 
L 12.40625 0 
z
" id="DejaVuSans-49"/>
       <path d="M 31.78125 34.625 
Q 24.75 34.625 20.71875 30.859375 
Q 16.703125 27.09375 16.703125 20.515625 
Q 16.703125 13.921875 20.71875 10.15625 
Q 24.75 6.390625 31.78125 6.390625 
Q 38.8125 6.390625 42.859375 10.171875 
Q 46.921875 13.96875 46.921875 20.515625 
Q 46.921875 27.09375 42.890625 30.859375 
Q 38.875 34.625 31.78125 34.625 
z
M 21.921875 38.8125 
Q 15.578125 40.375 12.03125 44.71875 
Q 8.5 49.078125 8.5 55.328125 
Q 8.5 64.0625 14.71875 69.140625 
Q 20.953125 74.21875 31.78125 74.21875 
Q 42.671875 74.21875 48.875 69.140625 
Q 55.078125 64.0625 55.078125 55.328125 
Q 55.078125 49.078125 51.53125 44.71875 
Q 48 40.375 41.703125 38.8125 
Q 48.828125 37.15625 52.796875 32.3125 
Q 56.78125 27.484375 56.78125 20.515625 
Q 56.78125 9.90625 50.3125 4.234375 
Q 43.84375 -1.421875 31.78125 -1.421875 
Q 19.734375 -1.421875 13.25 4.234375 
Q 6.78125 9.90625 6.78125 20.515625 
Q 6.78125 27.484375 10.78125 32.3125 
Q 14.796875 37.15625 21.921875 38.8125 
z
M 18.3125 54.390625 
Q 18.3125 48.734375 21.84375 45.5625 
Q 25.390625 42.390625 31.78125 42.390625 
Q 38.140625 42.390625 41.71875 45.5625 
Q 45.3125 48.734375 45.3125 54.390625 
Q 45.3125 60.0625 41.71875 63.234375 
Q 38.140625 66.40625 31.78125 66.40625 
Q 25.390625 66.40625 21.84375 63.234375 
Q 18.3125 60.0625 18.3125 54.390625 
z
" id="DejaVuSans-56"/>
       <path d="M 4.890625 31.390625 
L 31.203125 31.390625 
L 31.203125 23.390625 
L 4.890625 23.390625 
z
" id="DejaVuSans-45"/>
      </defs>
      <g transform="translate(51.031643 283.544703)rotate(-25)scale(0.1 -0.1)">
       <use xlink:href="#DejaVuSans-50"/>
       <use x="63.623047" xlink:href="#DejaVuSans-48"/>
       <use x="127.246094" xlink:href="#DejaVuSans-49"/>
       <use x="190.869141" xlink:href="#DejaVuSans-56"/>
       <use x="254.492188" xlink:href="#DejaVuSans-45"/>
       <use x="290.576172" xlink:href="#DejaVuSans-48"/>
       <use x="354.199219" xlink:href="#DejaVuSans-49"/>
      </g>
     </g>
    </g>
    <g id="xtick_2">
     <g id="line2d_2">
      <g>
       <use style="stroke:#000000;stroke-width:0.8;" x="106.478654" xlink:href="#mb04e587e53" y="252"/>
      </g>
     </g>
     <g id="text_2">
      <!-- 2018-04 -->
      <defs>
       <path d="M 37.796875 64.3125 
L 12.890625 25.390625 
L 37.796875 25.390625 
z
M 35.203125 72.90625 
L 47.609375 72.90625 
L 47.609375 25.390625 
L 58.015625 25.390625 
L 58.015625 17.1875 
L 47.609375 17.1875 
L 47.609375 0 
L 37.796875 0 
L 37.796875 17.1875 
L 4.890625 17.1875 
L 4.890625 26.703125 
z
" id="DejaVuSans-52"/>
      </defs>
      <g transform="translate(88.710773 283.544703)rotate(-25)scale(0.1 -0.1)">
       <use xlink:href="#DejaVuSans-50"/>
       <use x="63.623047" xlink:href="#DejaVuSans-48"/>
       <use x="127.246094" xlink:href="#DejaVuSans-49"/>
       <use x="190.869141" xlink:href="#DejaVuSans-56"/>
       <use x="254.492188" xlink:href="#DejaVuSans-45"/>
       <use x="290.576172" xlink:href="#DejaVuSans-48"/>
       <use x="354.199219" xlink:href="#DejaVuSans-52"/>
      </g>
     </g>
    </g>
    <g id="xtick_3">
     <g id="line2d_3">
      <g>
       <use style="stroke:#000000;stroke-width:0.8;" x="144.576441" xlink:href="#mb04e587e53" y="252"/>
      </g>
     </g>
     <g id="text_3">
      <!-- 2018-07 -->
      <defs>
       <path d="M 8.203125 72.90625 
L 55.078125 72.90625 
L 55.078125 68.703125 
L 28.609375 0 
L 18.3125 0 
L 43.21875 64.59375 
L 8.203125 64.59375 
z
" id="DejaVuSans-55"/>
      </defs>
      <g transform="translate(126.808559 283.544703)rotate(-25)scale(0.1 -0.1)">
       <use xlink:href="#DejaVuSans-50"/>
       <use x="63.623047" xlink:href="#DejaVuSans-48"/>
       <use x="127.246094" xlink:href="#DejaVuSans-49"/>
       <use x="190.869141" xlink:href="#DejaVuSans-56"/>
       <use x="254.492188" xlink:href="#DejaVuSans-45"/>
       <use x="290.576172" xlink:href="#DejaVuSans-48"/>
       <use x="354.199219" xlink:href="#DejaVuSans-55"/>
      </g>
     </g>
    </g>
    <g id="xtick_4">
     <g id="line2d_4">
      <g>
       <use style="stroke:#000000;stroke-width:0.8;" x="183.092885" xlink:href="#mb04e587e53" y="252"/>
      </g>
     </g>
     <g id="text_4">
      <!-- 2018-10 -->
      <g transform="translate(165.325003 283.544703)rotate(-25)scale(0.1 -0.1)">
       <use xlink:href="#DejaVuSans-50"/>
       <use x="63.623047" xlink:href="#DejaVuSans-48"/>
       <use x="127.246094" xlink:href="#DejaVuSans-49"/>
       <use x="190.869141" xlink:href="#DejaVuSans-56"/>
       <use x="254.492188" xlink:href="#DejaVuSans-45"/>
       <use x="290.576172" xlink:href="#DejaVuSans-49"/>
       <use x="354.199219" xlink:href="#DejaVuSans-48"/>
      </g>
     </g>
    </g>
    <g id="xtick_5">
     <g id="line2d_5">
      <g>
       <use style="stroke:#000000;stroke-width:0.8;" x="221.609328" xlink:href="#mb04e587e53" y="252"/>
      </g>
     </g>
     <g id="text_5">
      <!-- 2019-01 -->
      <defs>
       <path d="M 10.984375 1.515625 
L 10.984375 10.5 
Q 14.703125 8.734375 18.5 7.8125 
Q 22.3125 6.890625 25.984375 6.890625 
Q 35.75 6.890625 40.890625 13.453125 
Q 46.046875 20.015625 46.78125 33.40625 
Q 43.953125 29.203125 39.59375 26.953125 
Q 35.25 24.703125 29.984375 24.703125 
Q 19.046875 24.703125 12.671875 31.3125 
Q 6.296875 37.9375 6.296875 49.421875 
Q 6.296875 60.640625 12.9375 67.421875 
Q 19.578125 74.21875 30.609375 74.21875 
Q 43.265625 74.21875 49.921875 64.515625 
Q 56.59375 54.828125 56.59375 36.375 
Q 56.59375 19.140625 48.40625 8.859375 
Q 40.234375 -1.421875 26.421875 -1.421875 
Q 22.703125 -1.421875 18.890625 -0.6875 
Q 15.09375 0.046875 10.984375 1.515625 
z
M 30.609375 32.421875 
Q 37.25 32.421875 41.125 36.953125 
Q 45.015625 41.5 45.015625 49.421875 
Q 45.015625 57.28125 41.125 61.84375 
Q 37.25 66.40625 30.609375 66.40625 
Q 23.96875 66.40625 20.09375 61.84375 
Q 16.21875 57.28125 16.21875 49.421875 
Q 16.21875 41.5 20.09375 36.953125 
Q 23.96875 32.421875 30.609375 32.421875 
z
" id="DejaVuSans-57"/>
      </defs>
      <g transform="translate(203.841447 283.544703)rotate(-25)scale(0.1 -0.1)">
       <use xlink:href="#DejaVuSans-50"/>
       <use x="63.623047" xlink:href="#DejaVuSans-48"/>
       <use x="127.246094" xlink:href="#DejaVuSans-49"/>
       <use x="190.869141" xlink:href="#DejaVuSans-57"/>
       <use x="254.492188" xlink:href="#DejaVuSans-45"/>
       <use x="290.576172" xlink:href="#DejaVuSans-48"/>
       <use x="354.199219" xlink:href="#DejaVuSans-49"/>
      </g>
     </g>
    </g>
    <g id="xtick_6">
     <g id="line2d_6">
      <g>
       <use style="stroke:#000000;stroke-width:0.8;" x="259.288458" xlink:href="#mb04e587e53" y="252"/>
      </g>
     </g>
     <g id="text_6">
      <!-- 2019-04 -->
      <g transform="translate(241.520576 283.544703)rotate(-25)scale(0.1 -0.1)">
       <use xlink:href="#DejaVuSans-50"/>
       <use x="63.623047" xlink:href="#DejaVuSans-48"/>
       <use x="127.246094" xlink:href="#DejaVuSans-49"/>
       <use x="190.869141" xlink:href="#DejaVuSans-57"/>
       <use x="254.492188" xlink:href="#DejaVuSans-45"/>
       <use x="290.576172" xlink:href="#DejaVuSans-48"/>
       <use x="354.199219" xlink:href="#DejaVuSans-52"/>
      </g>
     </g>
    </g>
    <g id="xtick_7">
     <g id="line2d_7">
      <g>
       <use style="stroke:#000000;stroke-width:0.8;" x="297.386245" xlink:href="#mb04e587e53" y="252"/>
      </g>
     </g>
     <g id="text_7">
      <!-- 2019-07 -->
      <g transform="translate(279.618363 283.544703)rotate(-25)scale(0.1 -0.1)">
       <use xlink:href="#DejaVuSans-50"/>
       <use x="63.623047" xlink:href="#DejaVuSans-48"/>
       <use x="127.246094" xlink:href="#DejaVuSans-49"/>
       <use x="190.869141" xlink:href="#DejaVuSans-57"/>
       <use x="254.492188" xlink:href="#DejaVuSans-45"/>
       <use x="290.576172" xlink:href="#DejaVuSans-48"/>
       <use x="354.199219" xlink:href="#DejaVuSans-55"/>
      </g>
     </g>
    </g>
    <g id="xtick_8">
     <g id="line2d_8">
      <g>
       <use style="stroke:#000000;stroke-width:0.8;" x="335.902689" xlink:href="#mb04e587e53" y="252"/>
      </g>
     </g>
     <g id="text_8">
      <!-- 2019-10 -->
      <g transform="translate(318.134807 283.544703)rotate(-25)scale(0.1 -0.1)">
       <use xlink:href="#DejaVuSans-50"/>
       <use x="63.623047" xlink:href="#DejaVuSans-48"/>
       <use x="127.246094" xlink:href="#DejaVuSans-49"/>
       <use x="190.869141" xlink:href="#DejaVuSans-57"/>
       <use x="254.492188" xlink:href="#DejaVuSans-45"/>
       <use x="290.576172" xlink:href="#DejaVuSans-49"/>
       <use x="354.199219" xlink:href="#DejaVuSans-48"/>
      </g>
     </g>
    </g>
    <g id="xtick_9">
     <g id="line2d_9">
      <g>
       <use style="stroke:#000000;stroke-width:0.8;" x="374.419132" xlink:href="#mb04e587e53" y="252"/>
      </g>
     </g>
     <g id="text_9">
      <!-- 2020-01 -->
      <g transform="translate(356.65125 283.544703)rotate(-25)scale(0.1 -0.1)">
       <use xlink:href="#DejaVuSans-50"/>
       <use x="63.623047" xlink:href="#DejaVuSans-48"/>
       <use x="127.246094" xlink:href="#DejaVuSans-50"/>
       <use x="190.869141" xlink:href="#DejaVuSans-48"/>
       <use x="254.492188" xlink:href="#DejaVuSans-45"/>
       <use x="290.576172" xlink:href="#DejaVuSans-48"/>
       <use x="354.199219" xlink:href="#DejaVuSans-49"/>
      </g>
     </g>
    </g>
    <g id="text_10">
     <!-- Date -->
     <defs>
      <path d="M 19.671875 64.796875 
L 19.671875 8.109375 
L 31.59375 8.109375 
Q 46.6875 8.109375 53.6875 14.9375 
Q 60.6875 21.78125 60.6875 36.53125 
Q 60.6875 51.171875 53.6875 57.984375 
Q 46.6875 64.796875 31.59375 64.796875 
z
M 9.8125 72.90625 
L 30.078125 72.90625 
Q 51.265625 72.90625 61.171875 64.09375 
Q 71.09375 55.28125 71.09375 36.53125 
Q 71.09375 17.671875 61.125 8.828125 
Q 51.171875 0 30.078125 0 
L 9.8125 0 
z
" id="DejaVuSans-68"/>
      <path d="M 34.28125 27.484375 
Q 23.390625 27.484375 19.1875 25 
Q 14.984375 22.515625 14.984375 16.5 
Q 14.984375 11.71875 18.140625 8.90625 
Q 21.296875 6.109375 26.703125 6.109375 
Q 34.1875 6.109375 38.703125 11.40625 
Q 43.21875 16.703125 43.21875 25.484375 
L 43.21875 27.484375 
z
M 52.203125 31.203125 
L 52.203125 0 
L 43.21875 0 
L 43.21875 8.296875 
Q 40.140625 3.328125 35.546875 0.953125 
Q 30.953125 -1.421875 24.3125 -1.421875 
Q 15.921875 -1.421875 10.953125 3.296875 
Q 6 8.015625 6 15.921875 
Q 6 25.140625 12.171875 29.828125 
Q 18.359375 34.515625 30.609375 34.515625 
L 43.21875 34.515625 
L 43.21875 35.40625 
Q 43.21875 41.609375 39.140625 45 
Q 35.0625 48.390625 27.6875 48.390625 
Q 23 48.390625 18.546875 47.265625 
Q 14.109375 46.140625 10.015625 43.890625 
L 10.015625 52.203125 
Q 14.9375 54.109375 19.578125 55.046875 
Q 24.21875 56 28.609375 56 
Q 40.484375 56 46.34375 49.84375 
Q 52.203125 43.703125 52.203125 31.203125 
z
" id="DejaVuSans-97"/>
      <path d="M 18.3125 70.21875 
L 18.3125 54.6875 
L 36.8125 54.6875 
L 36.8125 47.703125 
L 18.3125 47.703125 
L 18.3125 18.015625 
Q 18.3125 11.328125 20.140625 9.421875 
Q 21.96875 7.515625 27.59375 7.515625 
L 36.8125 7.515625 
L 36.8125 0 
L 27.59375 0 
Q 17.1875 0 13.234375 3.875 
Q 9.28125 7.765625 9.28125 18.015625 
L 9.28125 47.703125 
L 2.6875 47.703125 
L 2.6875 54.6875 
L 9.28125 54.6875 
L 9.28125 70.21875 
z
" id="DejaVuSans-116"/>
      <path d="M 56.203125 29.59375 
L 56.203125 25.203125 
L 14.890625 25.203125 
Q 15.484375 15.921875 20.484375 11.0625 
Q 25.484375 6.203125 34.421875 6.203125 
Q 39.59375 6.203125 44.453125 7.46875 
Q 49.3125 8.734375 54.109375 11.28125 
L 54.109375 2.78125 
Q 49.265625 0.734375 44.1875 -0.34375 
Q 39.109375 -1.421875 33.890625 -1.421875 
Q 20.796875 -1.421875 13.15625 6.1875 
Q 5.515625 13.8125 5.515625 26.8125 
Q 5.515625 40.234375 12.765625 48.109375 
Q 20.015625 56 32.328125 56 
Q 43.359375 56 49.78125 48.890625 
Q 56.203125 41.796875 56.203125 29.59375 
z
M 47.21875 32.234375 
Q 47.125 39.59375 43.09375 43.984375 
Q 39.0625 48.390625 32.421875 48.390625 
Q 24.90625 48.390625 20.390625 44.140625 
Q 15.875 39.890625 15.1875 32.171875 
z
" id="DejaVuSans-101"/>
     </defs>
     <g transform="translate(209.449219 297.027977)scale(0.1 -0.1)">
      <use xlink:href="#DejaVuSans-68"/>
      <use x="77.001953" xlink:href="#DejaVuSans-97"/>
      <use x="138.28125" xlink:href="#DejaVuSans-116"/>
      <use x="177.490234" xlink:href="#DejaVuSans-101"/>
     </g>
    </g>
   </g>
   <g id="matplotlib.axis_2">
    <g id="ytick_1">
     <g id="line2d_10">
      <defs>
       <path d="M 0 0 
L -3.5 0 
" id="mecc5e37467" style="stroke:#000000;stroke-width:0.8;"/>
      </defs>
      <g>
       <use style="stroke:#000000;stroke-width:0.8;" x="54" xlink:href="#mecc5e37467" y="220.25334"/>
      </g>
     </g>
     <g id="text_11">
      <!-- −4 -->
      <defs>
       <path d="M 10.59375 35.5 
L 73.1875 35.5 
L 73.1875 27.203125 
L 10.59375 27.203125 
z
" id="DejaVuSans-8722"/>
      </defs>
      <g transform="translate(32.257812 224.052559)scale(0.1 -0.1)">
       <use xlink:href="#DejaVuSans-8722"/>
       <use x="83.789062" xlink:href="#DejaVuSans-52"/>
      </g>
     </g>
    </g>
    <g id="ytick_2">
     <g id="line2d_11">
      <g>
       <use style="stroke:#000000;stroke-width:0.8;" x="54" xlink:href="#mecc5e37467" y="187.789111"/>
      </g>
     </g>
     <g id="text_12">
      <!-- −2 -->
      <g transform="translate(32.257812 191.58833)scale(0.1 -0.1)">
       <use xlink:href="#DejaVuSans-8722"/>
       <use x="83.789062" xlink:href="#DejaVuSans-50"/>
      </g>
     </g>
    </g>
    <g id="ytick_3">
     <g id="line2d_12">
      <g>
       <use style="stroke:#000000;stroke-width:0.8;" x="54" xlink:href="#mecc5e37467" y="155.324882"/>
      </g>
     </g>
     <g id="text_13">
      <!-- 0 -->
      <g transform="translate(40.6375 159.124101)scale(0.1 -0.1)">
       <use xlink:href="#DejaVuSans-48"/>
      </g>
     </g>
    </g>
    <g id="ytick_4">
     <g id="line2d_13">
      <g>
       <use style="stroke:#000000;stroke-width:0.8;" x="54" xlink:href="#mecc5e37467" y="122.860653"/>
      </g>
     </g>
     <g id="text_14">
      <!-- 2 -->
      <g transform="translate(40.6375 126.659871)scale(0.1 -0.1)">
       <use xlink:href="#DejaVuSans-50"/>
      </g>
     </g>
    </g>
    <g id="ytick_5">
     <g id="line2d_14">
      <g>
       <use style="stroke:#000000;stroke-width:0.8;" x="54" xlink:href="#mecc5e37467" y="90.396424"/>
      </g>
     </g>
     <g id="text_15">
      <!-- 4 -->
      <g transform="translate(40.6375 94.195642)scale(0.1 -0.1)">
       <use xlink:href="#DejaVuSans-52"/>
      </g>
     </g>
    </g>
    <g id="ytick_6">
     <g id="line2d_15">
      <g>
       <use style="stroke:#000000;stroke-width:0.8;" x="54" xlink:href="#mecc5e37467" y="57.932194"/>
      </g>
     </g>
     <g id="text_16">
      <!-- 6 -->
      <defs>
       <path d="M 33.015625 40.375 
Q 26.375 40.375 22.484375 35.828125 
Q 18.609375 31.296875 18.609375 23.390625 
Q 18.609375 15.53125 22.484375 10.953125 
Q 26.375 6.390625 33.015625 6.390625 
Q 39.65625 6.390625 43.53125 10.953125 
Q 47.40625 15.53125 47.40625 23.390625 
Q 47.40625 31.296875 43.53125 35.828125 
Q 39.65625 40.375 33.015625 40.375 
z
M 52.59375 71.296875 
L 52.59375 62.3125 
Q 48.875 64.0625 45.09375 64.984375 
Q 41.3125 65.921875 37.59375 65.921875 
Q 27.828125 65.921875 22.671875 59.328125 
Q 17.53125 52.734375 16.796875 39.40625 
Q 19.671875 43.65625 24.015625 45.921875 
Q 28.375 48.1875 33.59375 48.1875 
Q 44.578125 48.1875 50.953125 41.515625 
Q 57.328125 34.859375 57.328125 23.390625 
Q 57.328125 12.15625 50.6875 5.359375 
Q 44.046875 -1.421875 33.015625 -1.421875 
Q 20.359375 -1.421875 13.671875 8.265625 
Q 6.984375 17.96875 6.984375 36.375 
Q 6.984375 53.65625 15.1875 63.9375 
Q 23.390625 74.21875 37.203125 74.21875 
Q 40.921875 74.21875 44.703125 73.484375 
Q 48.484375 72.75 52.59375 71.296875 
z
" id="DejaVuSans-54"/>
      </defs>
      <g transform="translate(40.6375 61.731413)scale(0.1 -0.1)">
       <use xlink:href="#DejaVuSans-54"/>
      </g>
     </g>
    </g>
    <g id="text_17">
     <!-- Strategy returns (%) -->
     <defs>
      <path d="M 53.515625 70.515625 
L 53.515625 60.890625 
Q 47.90625 63.578125 42.921875 64.890625 
Q 37.9375 66.21875 33.296875 66.21875 
Q 25.25 66.21875 20.875 63.09375 
Q 16.5 59.96875 16.5 54.203125 
Q 16.5 49.359375 19.40625 46.890625 
Q 22.3125 44.4375 30.421875 42.921875 
L 36.375 41.703125 
Q 47.40625 39.59375 52.65625 34.296875 
Q 57.90625 29 57.90625 20.125 
Q 57.90625 9.515625 50.796875 4.046875 
Q 43.703125 -1.421875 29.984375 -1.421875 
Q 24.8125 -1.421875 18.96875 -0.25 
Q 13.140625 0.921875 6.890625 3.21875 
L 6.890625 13.375 
Q 12.890625 10.015625 18.65625 8.296875 
Q 24.421875 6.59375 29.984375 6.59375 
Q 38.421875 6.59375 43.015625 9.90625 
Q 47.609375 13.234375 47.609375 19.390625 
Q 47.609375 24.75 44.3125 27.78125 
Q 41.015625 30.8125 33.5 32.328125 
L 27.484375 33.5 
Q 16.453125 35.6875 11.515625 40.375 
Q 6.59375 45.0625 6.59375 53.421875 
Q 6.59375 63.09375 13.40625 68.65625 
Q 20.21875 74.21875 32.171875 74.21875 
Q 37.3125 74.21875 42.625 73.28125 
Q 47.953125 72.359375 53.515625 70.515625 
z
" id="DejaVuSans-83"/>
      <path d="M 41.109375 46.296875 
Q 39.59375 47.171875 37.8125 47.578125 
Q 36.03125 48 33.890625 48 
Q 26.265625 48 22.1875 43.046875 
Q 18.109375 38.09375 18.109375 28.8125 
L 18.109375 0 
L 9.078125 0 
L 9.078125 54.6875 
L 18.109375 54.6875 
L 18.109375 46.1875 
Q 20.953125 51.171875 25.484375 53.578125 
Q 30.03125 56 36.53125 56 
Q 37.453125 56 38.578125 55.875 
Q 39.703125 55.765625 41.0625 55.515625 
z
" id="DejaVuSans-114"/>
      <path d="M 45.40625 27.984375 
Q 45.40625 37.75 41.375 43.109375 
Q 37.359375 48.484375 30.078125 48.484375 
Q 22.859375 48.484375 18.828125 43.109375 
Q 14.796875 37.75 14.796875 27.984375 
Q 14.796875 18.265625 18.828125 12.890625 
Q 22.859375 7.515625 30.078125 7.515625 
Q 37.359375 7.515625 41.375 12.890625 
Q 45.40625 18.265625 45.40625 27.984375 
z
M 54.390625 6.78125 
Q 54.390625 -7.171875 48.1875 -13.984375 
Q 42 -20.796875 29.203125 -20.796875 
Q 24.46875 -20.796875 20.265625 -20.09375 
Q 16.0625 -19.390625 12.109375 -17.921875 
L 12.109375 -9.1875 
Q 16.0625 -11.328125 19.921875 -12.34375 
Q 23.78125 -13.375 27.78125 -13.375 
Q 36.625 -13.375 41.015625 -8.765625 
Q 45.40625 -4.15625 45.40625 5.171875 
L 45.40625 9.625 
Q 42.625 4.78125 38.28125 2.390625 
Q 33.9375 0 27.875 0 
Q 17.828125 0 11.671875 7.65625 
Q 5.515625 15.328125 5.515625 27.984375 
Q 5.515625 40.671875 11.671875 48.328125 
Q 17.828125 56 27.875 56 
Q 33.9375 56 38.28125 53.609375 
Q 42.625 51.21875 45.40625 46.390625 
L 45.40625 54.6875 
L 54.390625 54.6875 
z
" id="DejaVuSans-103"/>
      <path d="M 32.171875 -5.078125 
Q 28.375 -14.84375 24.75 -17.8125 
Q 21.140625 -20.796875 15.09375 -20.796875 
L 7.90625 -20.796875 
L 7.90625 -13.28125 
L 13.1875 -13.28125 
Q 16.890625 -13.28125 18.9375 -11.515625 
Q 21 -9.765625 23.484375 -3.21875 
L 25.09375 0.875 
L 2.984375 54.6875 
L 12.5 54.6875 
L 29.59375 11.921875 
L 46.6875 54.6875 
L 56.203125 54.6875 
z
" id="DejaVuSans-121"/>
      <path id="DejaVuSans-32"/>
      <path d="M 8.5 21.578125 
L 8.5 54.6875 
L 17.484375 54.6875 
L 17.484375 21.921875 
Q 17.484375 14.15625 20.5 10.265625 
Q 23.53125 6.390625 29.59375 6.390625 
Q 36.859375 6.390625 41.078125 11.03125 
Q 45.3125 15.671875 45.3125 23.6875 
L 45.3125 54.6875 
L 54.296875 54.6875 
L 54.296875 0 
L 45.3125 0 
L 45.3125 8.40625 
Q 42.046875 3.421875 37.71875 1 
Q 33.40625 -1.421875 27.6875 -1.421875 
Q 18.265625 -1.421875 13.375 4.4375 
Q 8.5 10.296875 8.5 21.578125 
z
M 31.109375 56 
z
" id="DejaVuSans-117"/>
      <path d="M 54.890625 33.015625 
L 54.890625 0 
L 45.90625 0 
L 45.90625 32.71875 
Q 45.90625 40.484375 42.875 44.328125 
Q 39.84375 48.1875 33.796875 48.1875 
Q 26.515625 48.1875 22.3125 43.546875 
Q 18.109375 38.921875 18.109375 30.90625 
L 18.109375 0 
L 9.078125 0 
L 9.078125 54.6875 
L 18.109375 54.6875 
L 18.109375 46.1875 
Q 21.34375 51.125 25.703125 53.5625 
Q 30.078125 56 35.796875 56 
Q 45.21875 56 50.046875 50.171875 
Q 54.890625 44.34375 54.890625 33.015625 
z
" id="DejaVuSans-110"/>
      <path d="M 44.28125 53.078125 
L 44.28125 44.578125 
Q 40.484375 46.53125 36.375 47.5 
Q 32.28125 48.484375 27.875 48.484375 
Q 21.1875 48.484375 17.84375 46.4375 
Q 14.5 44.390625 14.5 40.28125 
Q 14.5 37.15625 16.890625 35.375 
Q 19.28125 33.59375 26.515625 31.984375 
L 29.59375 31.296875 
Q 39.15625 29.25 43.1875 25.515625 
Q 47.21875 21.78125 47.21875 15.09375 
Q 47.21875 7.46875 41.1875 3.015625 
Q 35.15625 -1.421875 24.609375 -1.421875 
Q 20.21875 -1.421875 15.453125 -0.5625 
Q 10.6875 0.296875 5.421875 2 
L 5.421875 11.28125 
Q 10.40625 8.6875 15.234375 7.390625 
Q 20.0625 6.109375 24.8125 6.109375 
Q 31.15625 6.109375 34.5625 8.28125 
Q 37.984375 10.453125 37.984375 14.40625 
Q 37.984375 18.0625 35.515625 20.015625 
Q 33.0625 21.96875 24.703125 23.78125 
L 21.578125 24.515625 
Q 13.234375 26.265625 9.515625 29.90625 
Q 5.8125 33.546875 5.8125 39.890625 
Q 5.8125 47.609375 11.28125 51.796875 
Q 16.75 56 26.8125 56 
Q 31.78125 56 36.171875 55.265625 
Q 40.578125 54.546875 44.28125 53.078125 
z
" id="DejaVuSans-115"/>
      <path d="M 31 75.875 
Q 24.46875 64.65625 21.28125 53.65625 
Q 18.109375 42.671875 18.109375 31.390625 
Q 18.109375 20.125 21.3125 9.0625 
Q 24.515625 -2 31 -13.1875 
L 23.1875 -13.1875 
Q 15.875 -1.703125 12.234375 9.375 
Q 8.59375 20.453125 8.59375 31.390625 
Q 8.59375 42.28125 12.203125 53.3125 
Q 15.828125 64.359375 23.1875 75.875 
z
" id="DejaVuSans-40"/>
      <path d="M 72.703125 32.078125 
Q 68.453125 32.078125 66.03125 28.46875 
Q 63.625 24.859375 63.625 18.40625 
Q 63.625 12.0625 66.03125 8.421875 
Q 68.453125 4.78125 72.703125 4.78125 
Q 76.859375 4.78125 79.265625 8.421875 
Q 81.6875 12.0625 81.6875 18.40625 
Q 81.6875 24.8125 79.265625 28.4375 
Q 76.859375 32.078125 72.703125 32.078125 
z
M 72.703125 38.28125 
Q 80.421875 38.28125 84.953125 32.90625 
Q 89.5 27.546875 89.5 18.40625 
Q 89.5 9.28125 84.9375 3.921875 
Q 80.375 -1.421875 72.703125 -1.421875 
Q 64.890625 -1.421875 60.34375 3.921875 
Q 55.8125 9.28125 55.8125 18.40625 
Q 55.8125 27.59375 60.375 32.9375 
Q 64.9375 38.28125 72.703125 38.28125 
z
M 22.3125 68.015625 
Q 18.109375 68.015625 15.6875 64.375 
Q 13.28125 60.75 13.28125 54.390625 
Q 13.28125 47.953125 15.671875 44.328125 
Q 18.0625 40.71875 22.3125 40.71875 
Q 26.5625 40.71875 28.96875 44.328125 
Q 31.390625 47.953125 31.390625 54.390625 
Q 31.390625 60.6875 28.953125 64.34375 
Q 26.515625 68.015625 22.3125 68.015625 
z
M 66.40625 74.21875 
L 74.21875 74.21875 
L 28.609375 -1.421875 
L 20.796875 -1.421875 
z
M 22.3125 74.21875 
Q 30.03125 74.21875 34.609375 68.875 
Q 39.203125 63.53125 39.203125 54.390625 
Q 39.203125 45.171875 34.640625 39.84375 
Q 30.078125 34.515625 22.3125 34.515625 
Q 14.546875 34.515625 10.03125 39.859375 
Q 5.515625 45.21875 5.515625 54.390625 
Q 5.515625 63.484375 10.046875 68.84375 
Q 14.59375 74.21875 22.3125 74.21875 
z
" id="DejaVuSans-37"/>
      <path d="M 8.015625 75.875 
L 15.828125 75.875 
Q 23.140625 64.359375 26.78125 53.3125 
Q 30.421875 42.28125 30.421875 31.390625 
Q 30.421875 20.453125 26.78125 9.375 
Q 23.140625 -1.703125 15.828125 -13.1875 
L 8.015625 -13.1875 
Q 14.5 -2 17.703125 9.0625 
Q 20.90625 20.125 20.90625 31.390625 
Q 20.90625 42.671875 17.703125 53.65625 
Q 14.5 64.65625 8.015625 75.875 
z
" id="DejaVuSans-41"/>
     </defs>
     <g transform="translate(26.178125 194.622187)rotate(-90)scale(0.1 -0.1)">
      <use xlink:href="#DejaVuSans-83"/>
      <use x="63.476562" xlink:href="#DejaVuSans-116"/>
      <use x="102.685547" xlink:href="#DejaVuSans-114"/>
      <use x="143.798828" xlink:href="#DejaVuSans-97"/>
      <use x="205.078125" xlink:href="#DejaVuSans-116"/>
      <use x="244.287109" xlink:href="#DejaVuSans-101"/>
      <use x="305.810547" xlink:href="#DejaVuSans-103"/>
      <use x="369.287109" xlink:href="#DejaVuSans-121"/>
      <use x="428.466797" xlink:href="#DejaVuSans-32"/>
      <use x="460.253906" xlink:href="#DejaVuSans-114"/>
      <use x="501.335938" xlink:href="#DejaVuSans-101"/>
      <use x="562.859375" xlink:href="#DejaVuSans-116"/>
      <use x="602.068359" xlink:href="#DejaVuSans-117"/>
      <use x="665.447266" xlink:href="#DejaVuSans-114"/>
      <use x="706.544922" xlink:href="#DejaVuSans-110"/>
      <use x="769.923828" xlink:href="#DejaVuSans-115"/>
      <use x="822.023438" xlink:href="#DejaVuSans-32"/>
      <use x="853.810547" xlink:href="#DejaVuSans-40"/>
      <use x="892.824219" xlink:href="#DejaVuSans-37"/>
      <use x="987.84375" xlink:href="#DejaVuSans-41"/>
     </g>
    </g>
   </g>
   <g id="line2d_16">
    <path clip-path="url(#pf5f7a54e0d)" d="M 69.218182 155.324882 
L 69.636839 141.038309 
L 70.055496 155.324882 
L 70.474153 153.668411 
L 71.730124 155.324882 
L 72.148781 162.684735 
L 72.567438 155.324882 
L 72.986095 127.313133 
L 73.404752 177.970132 
L 75.07938 155.324882 
L 75.498037 155.324882 
L 75.916694 157.126413 
L 77.591322 150.186437 
L 78.009979 155.324882 
L 78.428636 146.308969 
L 78.847293 124.910615 
L 79.26595 155.324882 
L 80.521921 115.593411 
L 81.359235 155.324882 
L 81.777892 155.324882 
L 82.196549 222.177549 
L 83.45252 93.901048 
L 83.871177 155.324882 
L 84.289834 155.324882 
L 84.708491 94.795803 
L 85.127148 155.324882 
L 86.383119 142.57658 
L 86.801776 155.324882 
L 87.220433 122.256376 
L 87.63909 155.324882 
L 88.057747 155.324882 
L 89.732375 176.858046 
L 90.151032 155.324882 
L 90.569689 155.324882 
L 90.988346 176.078599 
L 92.662974 162.734446 
L 93.081631 155.324882 
L 93.500288 151.828378 
L 93.918945 155.324882 
L 95.174916 155.324882 
L 95.593573 145.932085 
L 96.01223 155.324882 
L 96.430887 119.054864 
L 96.849544 151.457758 
L 98.105515 155.324882 
L 98.524172 155.324882 
L 98.942829 149.617231 
L 99.361486 148.086131 
L 99.780143 155.324882 
L 101.036114 151.131024 
L 101.454771 155.324882 
L 101.873428 155.324882 
L 102.292085 202.508126 
L 102.710742 155.324882 
L 103.966713 229.925418 
L 104.38537 155.324882 
L 104.804027 121.186451 
L 105.222684 155.324882 
L 106.897311 133.503543 
L 107.315968 155.324882 
L 107.734625 154.445943 
L 108.153282 155.324882 
L 109.82791 117.592412 
L 110.246567 155.324882 
L 110.665224 155.324882 
L 111.083881 163.997736 
L 111.502538 136.316567 
L 112.758509 155.324882 
L 114.01448 155.324882 
L 114.433137 149.344663 
L 115.689108 193.287688 
L 116.526422 121.035326 
L 116.945079 155.324882 
L 117.363736 155.324882 
L 118.619707 129.636709 
L 119.038364 155.324882 
L 119.457021 155.324882 
L 119.875678 136.516473 
L 120.294335 155.324882 
L 121.550306 155.324882 
L 121.968963 136.180372 
L 122.38762 155.324882 
L 122.806277 158.806505 
L 123.224934 155.324882 
L 124.480905 167.081268 
L 124.899562 155.324882 
L 125.318219 171.531967 
L 125.736876 152.28704 
L 126.155533 155.324882 
L 127.411504 156.987975 
L 127.830161 155.324882 
L 129.086132 155.324882 
L 130.76076 139.756974 
L 131.179417 157.129378 
L 131.598074 155.324882 
L 132.016731 141.152631 
L 133.272702 155.324882 
L 133.691359 150.559671 
L 134.110016 155.324882 
L 134.528673 143.256993 
L 134.94733 155.324882 
L 136.203301 151.148466 
L 136.621958 155.324882 
L 137.040615 155.324882 
L 137.459272 175.971149 
L 137.877929 143.490757 
L 139.1339 155.324882 
L 139.552557 139.070204 
L 139.971214 155.324882 
L 140.389871 155.324882 
L 140.808528 187.979948 
L 142.064499 155.324882 
L 142.483156 180.554466 
L 142.901813 155.324882 
L 143.32047 155.653968 
L 143.739127 155.324882 
L 144.995098 170.906137 
L 145.413755 143.689562 
L 146.251069 155.324882 
L 146.669726 155.324882 
L 147.925697 151.021738 
L 148.344354 157.550201 
L 148.763011 155.324882 
L 149.181668 155.324882 
L 149.600325 163.330796 
L 150.856296 139.233675 
L 151.274953 155.324882 
L 151.69361 155.324882 
L 152.112267 126.250196 
L 152.530924 129.358325 
L 153.786895 155.324882 
L 154.205552 155.324882 
L 154.624209 173.046475 
L 155.042866 155.324882 
L 155.461523 190.146702 
L 156.717494 144.387438 
L 157.136151 155.324882 
L 157.554808 135.622733 
L 157.973465 155.324882 
L 158.392122 153.972767 
L 159.648093 155.324882 
L 160.06675 146.230828 
L 160.904064 165.241436 
L 161.322721 155.324882 
L 162.578692 155.324882 
L 162.997349 183.474682 
L 163.416006 155.324882 
L 163.834663 156.229637 
L 164.25332 166.03764 
L 165.509291 155.324882 
L 165.927948 138.783457 
L 166.346605 155.324882 
L 166.765262 155.324882 
L 167.183919 137.355812 
L 168.43989 145.550009 
L 168.858547 155.324882 
L 169.277204 155.324882 
L 169.695861 149.815025 
L 170.114518 155.324882 
L 171.789146 202.113375 
L 172.207803 151.584419 
L 172.62646 155.324882 
L 173.045117 155.324882 
L 174.301088 127.722258 
L 174.719745 155.324882 
L 175.138402 137.888109 
L 175.975716 172.93586 
L 177.231687 155.324882 
L 177.650344 176.975377 
L 178.069001 128.150214 
L 178.487658 155.324882 
L 180.580943 155.324882 
L 180.9996 149.201154 
L 181.418257 155.324882 
L 183.092885 161.783455 
L 183.511542 155.043008 
L 183.930199 155.324882 
L 184.348856 164.823295 
L 184.767513 155.324882 
L 186.023484 134.677749 
L 186.442141 155.324882 
L 186.860798 155.324882 
L 187.279455 99.230583 
L 187.698112 184.509237 
L 188.954083 155.324882 
L 189.37274 159.565719 
L 189.791397 155.324882 
L 190.210054 152.931146 
L 190.628711 155.324882 
L 191.884682 155.324882 
L 192.303339 242.116364 
L 192.721996 60.457706 
L 193.140653 155.324882 
L 193.55931 155.324882 
L 194.815281 157.200445 
L 195.233938 155.324882 
L 195.652595 168.850378 
L 196.071252 155.324882 
L 196.489909 134.683095 
L 197.74588 155.324882 
L 198.164537 91.433188 
L 198.583194 158.369476 
L 199.001851 155.324882 
L 199.420508 155.324882 
L 200.676479 154.261691 
L 201.095136 155.324882 
L 201.513793 119.604055 
L 202.351107 155.324882 
L 203.607078 200.474487 
L 204.025735 155.324882 
L 204.444392 155.954599 
L 205.281706 155.324882 
L 206.537677 155.324882 
L 206.956334 95.026318 
L 207.374991 155.324882 
L 207.793648 145.01321 
L 208.212305 155.324882 
L 209.468276 207.023191 
L 209.886933 145.303136 
L 210.724247 155.324882 
L 211.142904 112.429545 
L 212.398875 155.324882 
L 212.817532 148.000235 
L 213.236189 155.324882 
L 213.654846 206.045577 
L 214.073503 155.324882 
L 215.329474 155.324882 
L 215.748131 159.696312 
L 216.166788 189.451615 
L 216.585445 155.324882 
L 217.004102 155.324882 
L 218.260073 44.443636 
L 219.097387 145.316982 
L 219.516044 155.324882 
L 219.934701 155.324882 
L 221.190672 162.516378 
L 222.027985 215.039558 
L 222.446642 155.324882 
L 222.865299 155.324882 
L 224.12127 143.555485 
L 224.958584 165.755016 
L 225.377241 155.324882 
L 225.795898 167.167378 
L 227.051869 155.324882 
L 227.470526 149.605616 
L 227.889183 155.324882 
L 228.30784 131.004305 
L 228.726497 155.324882 
L 230.401125 139.504422 
L 230.819782 155.324882 
L 231.238439 140.498924 
L 231.657096 155.324882 
L 232.913067 188.38229 
L 233.331724 155.324882 
L 233.750381 185.079136 
L 234.169038 180.971732 
L 234.587695 155.324882 
L 235.843666 155.324882 
L 236.262323 173.34041 
L 236.68098 166.95974 
L 237.099637 155.324882 
L 237.518294 155.324882 
L 238.774265 130.032101 
L 239.192922 156.539762 
L 239.611579 155.324882 
L 240.030236 135.281501 
L 240.448893 155.324882 
L 242.123521 155.324882 
L 242.542178 121.088194 
L 242.960835 132.1807 
L 243.379492 155.324882 
L 244.635463 144.124228 
L 245.05412 155.324882 
L 245.472777 155.324882 
L 245.891434 148.080343 
L 246.310091 159.219508 
L 247.566062 155.324882 
L 248.822033 155.324882 
L 249.24069 121.247871 
L 250.496661 155.324882 
L 250.915318 142.752965 
L 251.333975 155.324882 
L 251.752632 136.62646 
L 252.171289 132.078187 
L 253.42726 155.324882 
L 254.264574 155.324882 
L 254.683231 198.126222 
L 255.101888 155.324882 
L 256.357859 151.875937 
L 256.776516 155.324882 
L 257.195173 155.324882 
L 257.61383 141.304127 
L 258.032487 140.460881 
L 259.288458 155.324882 
L 259.707115 155.324882 
L 260.125772 163.57827 
L 260.544429 155.324882 
L 260.963086 154.783301 
L 262.219057 155.324882 
L 262.637714 142.941186 
L 263.056371 155.324882 
L 263.475028 146.961357 
L 263.893685 155.324882 
L 265.149656 159.079603 
L 265.568313 141.884363 
L 265.98697 155.324882 
L 266.405627 155.324882 
L 268.080255 133.290338 
L 268.498912 155.324882 
L 268.917569 101.568524 
L 269.336226 155.324882 
L 269.754883 156.824437 
L 271.010854 155.324882 
L 271.429511 189.13154 
L 272.266825 120.728331 
L 272.685482 155.324882 
L 273.941453 188.63773 
L 274.36011 155.454136 
L 274.778767 155.324882 
L 275.197424 134.242573 
L 275.616081 155.324882 
L 276.872052 137.16485 
L 277.290709 155.324882 
L 277.709366 155.324882 
L 278.128023 166.151991 
L 278.54668 155.324882 
L 279.802651 155.324882 
L 280.221308 145.47566 
L 280.639965 155.324882 
L 281.058622 155.324882 
L 281.477279 156.353456 
L 283.151907 155.324882 
L 283.570564 145.061246 
L 283.989221 181.791026 
L 284.407878 155.324882 
L 285.663849 110.355963 
L 286.082506 155.324882 
L 286.501163 129.653838 
L 286.91982 155.324882 
L 287.338477 155.324882 
L 288.594448 161.445589 
L 289.013105 155.324882 
L 289.431762 145.078713 
L 289.850419 155.324882 
L 290.269076 150.422661 
L 291.525047 127.100455 
L 291.943704 155.324882 
L 292.362361 140.252008 
L 292.781018 155.324882 
L 293.199675 145.725714 
L 294.455646 155.324882 
L 294.874303 155.324882 
L 295.29296 152.658503 
L 295.711617 157.62372 
L 296.130274 155.324882 
L 297.386245 144.557599 
L 297.804902 155.324882 
L 298.223559 155.324882 
L 299.060873 156.509083 
L 300.316844 161.250741 
L 300.735501 155.324882 
L 301.991472 155.324882 
L 303.247443 176.593651 
L 303.6661 155.324882 
L 304.084757 153.538194 
L 304.503414 152.945191 
L 304.922071 155.324882 
L 306.178042 145.240638 
L 306.596699 155.324882 
L 307.015356 161.438444 
L 307.434013 155.324882 
L 307.85267 158.885026 
L 309.108641 155.324882 
L 309.527298 155.324882 
L 309.945955 134.002957 
L 310.364612 168.963386 
L 310.783269 155.324882 
L 312.457897 155.324882 
L 312.876554 112.008845 
L 313.295211 155.324882 
L 313.713868 177.956416 
L 314.969839 155.324882 
L 315.388496 155.324882 
L 315.807153 158.959516 
L 316.22581 125.575572 
L 316.644467 155.324882 
L 317.900438 155.324882 
L 318.319095 137.231407 
L 318.737752 167.137217 
L 319.156409 155.324882 
L 319.575066 130.256943 
L 320.831037 155.324882 
L 321.249694 155.324882 
L 321.668351 124.671175 
L 322.087008 158.380379 
L 322.505665 155.324882 
L 324.180293 155.324882 
L 324.59895 126.78337 
L 325.017607 166.335564 
L 325.436264 155.324882 
L 326.692235 155.324882 
L 327.110892 154.847831 
L 327.529549 155.324882 
L 327.948206 157.685538 
L 328.366863 155.324882 
L 329.622834 142.704041 
L 330.041491 155.324882 
L 330.460148 125.44332 
L 330.878805 174.080412 
L 331.297462 155.324882 
L 332.553433 155.324882 
L 332.97209 131.930268 
L 333.390747 153.228405 
L 333.809404 155.324882 
L 334.228061 140.003748 
L 335.484032 155.324882 
L 335.902689 155.324882 
L 336.321346 135.675102 
L 336.740003 155.324882 
L 337.158659 167.077065 
L 338.41463 172.489787 
L 338.833287 155.324882 
L 339.251944 145.226767 
L 339.670601 155.324882 
L 340.089258 156.835487 
L 341.345229 155.324882 
L 341.763886 168.625229 
L 342.182543 155.324882 
L 342.6012 155.324882 
L 343.019857 143.275848 
L 344.275828 155.324882 
L 344.694485 144.969157 
L 345.113142 155.324882 
L 345.531799 146.161474 
L 345.950456 155.324882 
L 347.206427 170.635011 
L 347.625084 155.324882 
L 348.043741 169.243642 
L 348.462398 155.324882 
L 348.881055 155.324882 
L 350.137026 156.335484 
L 350.555683 155.324882 
L 350.97434 155.324882 
L 351.392997 136.196371 
L 351.811654 153.656809 
L 353.067625 155.324882 
L 353.486282 152.676102 
L 353.904939 155.324882 
L 354.323596 134.385136 
L 354.742253 155.324882 
L 355.998224 154.785003 
L 356.416881 155.324882 
L 356.835538 156.843716 
L 357.254195 155.324882 
L 357.672852 155.324882 
L 358.928823 146.738133 
L 359.34748 152.228491 
L 359.766137 155.324882 
L 360.603451 155.324882 
L 361.859422 157.929889 
L 362.278079 149.454229 
L 362.696736 155.324882 
L 363.115393 135.620644 
L 363.53405 155.324882 
L 364.790021 157.7914 
L 365.208678 155.324882 
L 365.627335 138.846578 
L 366.045992 155.324882 
L 366.464649 155.324882 
L 367.72062 164.091633 
L 368.139277 155.324882 
L 368.557934 141.234561 
L 368.976591 137.603127 
L 369.395248 155.324882 
L 370.651219 155.324882 
L 371.069876 142.019943 
L 371.90719 155.324882 
L 372.325847 169.314675 
L 373.581818 154.191848 
L 373.581818 154.191848 
" style="fill:none;stroke:#1f77b4;stroke-linecap:square;stroke-width:1.5;"/>
   </g>
   <g id="patch_3">
    <path d="M 54 252 
L 54 34.56 
" style="fill:none;stroke:#000000;stroke-linecap:square;stroke-linejoin:miter;stroke-width:0.8;"/>
   </g>
   <g id="patch_4">
    <path d="M 388.8 252 
L 388.8 34.56 
" style="fill:none;stroke:#000000;stroke-linecap:square;stroke-linejoin:miter;stroke-width:0.8;"/>
   </g>
   <g id="patch_5">
    <path d="M 54 252 
L 388.8 252 
" style="fill:none;stroke:#000000;stroke-linecap:square;stroke-linejoin:miter;stroke-width:0.8;"/>
   </g>
   <g id="patch_6">
    <path d="M 54 34.56 
L 388.8 34.56 
" style="fill:none;stroke:#000000;stroke-linecap:square;stroke-linejoin:miter;stroke-width:0.8;"/>
   </g>
   <g id="text_18">
    <!-- Strategy Returns Per Date -->
    <defs>
     <path d="M 44.390625 34.1875 
Q 47.5625 33.109375 50.5625 29.59375 
Q 53.5625 26.078125 56.59375 19.921875 
L 66.609375 0 
L 56 0 
L 46.6875 18.703125 
Q 43.0625 26.03125 39.671875 28.421875 
Q 36.28125 30.8125 30.421875 30.8125 
L 19.671875 30.8125 
L 19.671875 0 
L 9.8125 0 
L 9.8125 72.90625 
L 32.078125 72.90625 
Q 44.578125 72.90625 50.734375 67.671875 
Q 56.890625 62.453125 56.890625 51.90625 
Q 56.890625 45.015625 53.6875 40.46875 
Q 50.484375 35.9375 44.390625 34.1875 
z
M 19.671875 64.796875 
L 19.671875 38.921875 
L 32.078125 38.921875 
Q 39.203125 38.921875 42.84375 42.21875 
Q 46.484375 45.515625 46.484375 51.90625 
Q 46.484375 58.296875 42.84375 61.546875 
Q 39.203125 64.796875 32.078125 64.796875 
z
" id="DejaVuSans-82"/>
     <path d="M 19.671875 64.796875 
L 19.671875 37.40625 
L 32.078125 37.40625 
Q 38.96875 37.40625 42.71875 40.96875 
Q 46.484375 44.53125 46.484375 51.125 
Q 46.484375 57.671875 42.71875 61.234375 
Q 38.96875 64.796875 32.078125 64.796875 
z
M 9.8125 72.90625 
L 32.078125 72.90625 
Q 44.34375 72.90625 50.609375 67.359375 
Q 56.890625 61.8125 56.890625 51.125 
Q 56.890625 40.328125 50.609375 34.8125 
Q 44.34375 29.296875 32.078125 29.296875 
L 19.671875 29.296875 
L 19.671875 0 
L 9.8125 0 
z
" id="DejaVuSans-80"/>
    </defs>
    <g transform="translate(142.450312 28.56)scale(0.12 -0.12)">
     <use xlink:href="#DejaVuSans-83"/>
     <use x="63.476562" xlink:href="#DejaVuSans-116"/>
     <use x="102.685547" xlink:href="#DejaVuSans-114"/>
     <use x="143.798828" xlink:href="#DejaVuSans-97"/>
     <use x="205.078125" xlink:href="#DejaVuSans-116"/>
     <use x="244.287109" xlink:href="#DejaVuSans-101"/>
     <use x="305.810547" xlink:href="#DejaVuSans-103"/>
     <use x="369.287109" xlink:href="#DejaVuSans-121"/>
     <use x="428.466797" xlink:href="#DejaVuSans-32"/>
     <use x="460.253906" xlink:href="#DejaVuSans-82"/>
     <use x="529.673828" xlink:href="#DejaVuSans-101"/>
     <use x="591.197266" xlink:href="#DejaVuSans-116"/>
     <use x="630.40625" xlink:href="#DejaVuSans-117"/>
     <use x="693.785156" xlink:href="#DejaVuSans-114"/>
     <use x="734.882812" xlink:href="#DejaVuSans-110"/>
     <use x="798.261719" xlink:href="#DejaVuSans-115"/>
     <use x="850.361328" xlink:href="#DejaVuSans-32"/>
     <use x="882.148438" xlink:href="#DejaVuSans-80"/>
     <use x="942.404297" xlink:href="#DejaVuSans-101"/>
     <use x="1003.927734" xlink:href="#DejaVuSans-114"/>
     <use x="1045.041016" xlink:href="#DejaVuSans-32"/>
     <use x="1076.828125" xlink:href="#DejaVuSans-68"/>
     <use x="1153.830078" xlink:href="#DejaVuSans-97"/>
     <use x="1215.109375" xlink:href="#DejaVuSans-116"/>
     <use x="1254.318359" xlink:href="#DejaVuSans-101"/>
    </g>
   </g>
  </g>
 </g>
 <defs>
  <clipPath id="pf5f7a54e0d">
   <rect height="217.44" width="334.8" x="54" y="34.56"/>
  </clipPath>
 </defs>
</svg>
