<svg class="main-svg" xmlns="http://www.w3.org/2000/svg" xmlns:xlink="http://www.w3.org/1999/xlink" width="700" height="500" viewBox="0 0 700 500"><rect x="0" y="0" width="700" height="500" style="fill: rgb(255, 255, 255); fill-opacity: 1;"/><defs id="defs-007d67"><g class="clips"><clipPath id="clip007d67xyplot" class="plotclip"><rect width="540" height="320"/></clipPath><clipPath class="axesclip" id="clip007d67x"><rect x="80" y="0" width="540" height="500"/></clipPath><clipPath class="axesclip" id="clip007d67y"><rect x="0" y="100" width="700" height="320"/></clipPath><clipPath class="axesclip" id="clip007d67xy"><rect x="80" y="100" width="540" height="320"/></clipPath></g><g class="gradients"/></defs><g class="bglayer"><rect class="bg" x="80" y="100" width="540" height="320" style="fill: rgb(229, 236, 246); fill-opacity: 1; stroke-width: 0;"/></g><g class="layer-below"><g class="imagelayer"/><g class="shapelayer"/></g><g class="cartesianlayer"><g class="subplot xy"><g class="layer-subplot"><g class="shapelayer"/><g class="imagelayer"/></g><g class="gridlayer"><g class="x"><path class="xgrid crisp" transform="translate(213.52,0)" d="M0,100v320" style="stroke: rgb(255, 255, 255); stroke-opacity: 1; stroke-width: 1px;"/><path class="xgrid crisp" transform="translate(350,0)" d="M0,100v320" style="stroke: rgb(255, 255, 255); stroke-opacity: 1; stroke-width: 1px;"/><path class="xgrid crisp" transform="translate(484.26,0)" d="M0,100v320" style="stroke: rgb(255, 255, 255); stroke-opacity: 1; stroke-width: 1px;"/></g><g class="y"><path class="ygrid crisp" transform="translate(0,359.14)" d="M80,0h540" style="stroke: rgb(255, 255, 255); stroke-opacity: 1; stroke-width: 1px;"/><path class="ygrid crisp" transform="translate(0,314.28)" d="M80,0h540" style="stroke: rgb(255, 255, 255); stroke-opacity: 1; stroke-width: 1px;"/><path class="ygrid crisp" transform="translate(0,269.41999999999996)" d="M80,0h540" style="stroke: rgb(255, 255, 255); stroke-opacity: 1; stroke-width: 1px;"/><path class="ygrid crisp" transform="translate(0,224.56)" d="M80,0h540" style="stroke: rgb(255, 255, 255); stroke-opacity: 1; stroke-width: 1px;"/><path class="ygrid crisp" transform="translate(0,179.7)" d="M80,0h540" style="stroke: rgb(255, 255, 255); stroke-opacity: 1; stroke-width: 1px;"/><path class="ygrid crisp" transform="translate(0,134.84)" d="M80,0h540" style="stroke: rgb(255, 255, 255); stroke-opacity: 1; stroke-width: 1px;"/></g></g><g class="zerolinelayer"><path class="yzl zl crisp" transform="translate(0,404)" d="M80,0h540" style="stroke: rgb(255, 255, 255); stroke-opacity: 1; stroke-width: 2px;"/></g><path class="xlines-below"/><path class="ylines-below"/><g class="overlines-below"/><g class="xaxislayer-below"/><g class="yaxislayer-below"/><g class="overaxes-below"/><g class="plot" transform="translate(80, 100)" clip-path="url('#clip007d67xyplot')"><g class="scatterlayer mlayer"><g class="trace scatter traceb1cdc5" style="stroke-miterlimit: 2; opacity: 1;"><g class="fills"/><g class="errorbars"/><g class="lines"><path class="js-line" d="M0,232.09L1.48,202.35L2.23,238.65L4.45,248.25L5.19,270.8L5.93,245.86L6.68,178.39L7.42,221.07L10.38,207.31L11.13,270.44L11.87,226.84L12.61,221.31L14.84,228.86L15.58,251.21L16.32,214.64L17.06,287.85L17.8,280.93L20.03,304L21.51,304L22.25,225.64L22.99,230.73L25.22,202.87L25.96,182.34L27.45,304L28.19,227.29L30.41,196.93L31.15,256.45L31.9,218.77L32.64,127L33.38,245.08L36.35,245.61L37.09,247.81L37.83,208.27L38.57,234.74L41.54,185.46L42.28,238.59L43.02,217.57L43.76,212.9L45.99,241.05L46.73,219.78L47.47,241.35L48.21,304L48.96,293.95L51.92,218.65L52.66,240.66L53.41,252.26L54.15,279.55L56.37,112.3L57.12,222.8L57.86,180.06L58.6,231.1L59.34,178.84L61.57,269.46L62.31,213.68L63.05,256.25L63.79,191.4L66.76,157.56L68.24,238.36L68.98,176.6L69.73,240.17L71.95,193.82L72.69,141.31L73.43,199.93L74.18,254.21L74.92,135.03L77.14,231.78L77.88,221.05L78.63,197.92L79.37,256.19L80.11,213.98L82.34,196.11L83.82,294L84.56,287.85L85.3,252.45L87.53,207.1L88.27,233.38L89.01,209.67L89.75,260.74L90.49,132.81L92.72,177.41L93.46,232.99L94.2,185.79L94.95,259.5L95.69,268.65L97.91,250.17L98.65,289.45L99.4,263L100.14,256.94L100.88,174.72L103.85,304L104.59,189.37L105.33,181.25L106.07,248.37L109.04,211.97L109.78,222.53L111.26,268.26L113.49,211.81L114.23,256.8L114.97,194.44L115.71,201.94L116.46,195.89L118.68,204.25L119.42,230.36L120.16,207.58L120.91,207.87L121.65,224.76L123.87,135.25L125.36,213.94L126.1,235.46L126.84,220.68L129.07,221.07L129.81,230.36L130.55,256.61L132.03,174.09L134.26,304L135,225.09L136.48,183.03L137.23,257.79L139.45,224.66L140.19,228.83L140.93,240.1L142.42,271.25L144.64,241.12L145.38,235.63L146.13,236.23L147.61,180.96L149.84,171.21L150.58,259.59L151.32,224.21L152.06,266.32L152.8,250.11L155.03,257.67L155.77,233.83L156.51,223.06L157.25,193.58L157.99,234.92L160.22,228.01L161.7,283.19L162.45,212.79L163.19,243.33L165.41,215.43L166.15,188.1L166.9,246.05L167.64,200.45L168.38,201.97L170.6,141.31L171.35,213.45L172.09,268.11L172.83,220.15L173.57,254.86L175.8,236.62L176.54,218.32L177.28,223.93L178.02,187.91L178.76,219.66L181.73,234.54L182.47,216.31L183.21,280.67L183.96,217.87L186.18,248.41L186.92,285.81L187.66,230.84L188.41,234.55L189.15,252.62L191.37,267.66L192.12,250.17L192.86,276.29L193.6,277.98L194.34,270.27L196.57,271.79L197.31,290.6L198.79,195.44L201.76,284.08L202.5,289.89L203.24,269.29L203.98,257.94L204.73,227.47L207.69,277.98L208.43,271.78L209.18,282.71L209.92,277.31L212.14,230.63L212.88,237.7L213.63,259.3L214.37,252.41L215.11,282.96L217.34,228.38L218.08,271.52L218.82,257.6L219.56,181.83L220.3,236.55L222.53,176.21L223.27,254.43L224.01,219.78L224.75,253.98L225.49,304L227.72,248.58L228.46,265.88L229.2,251.32L229.95,142.06L230.69,218.32L232.91,176.2L233.65,219.66L234.4,278.7L235.14,193.94L235.88,276.64L238.1,248.63L238.85,290.84L239.59,210.14L241.07,187.9L243.3,221.55L244.04,213.28L244.78,214.4L245.52,220.37L246.26,254.57L248.49,235.44L249.23,259.5L250.71,203.07L251.46,212.92L253.68,191.25L254.42,243.47L255.16,222.06L255.91,170.73L256.65,264.52L258.87,287.85L259.62,215.18L260.36,220.35L261.84,244.02L264.07,241.2L265.55,304L266.29,216.37L267.03,248.73L269.26,215.4L271.48,258.24L272.23,273.88L274.45,168.67L275.19,255.37L275.93,269.78L276.68,197.71L277.42,237.42L279.64,226.59L280.38,216.12L281.13,165.83L281.87,122.17L282.61,208.06L285.58,229.19L286.32,211.81L287.06,240.3L287.8,188.49L290.03,237.61L290.77,174.8L291.51,184L292.25,208.21L292.99,219.29L295.22,304L295.96,241.64L296.7,304L298.19,220.83L300.41,181.88L301.15,293.91L301.9,262.23L302.64,170.32L303.38,236.86L306.35,203.4L307.09,135.51L307.83,209.44L308.57,208.22L311.54,257.57L312.28,223.77L313.02,304L313.76,241.67L316.73,178.74L317.47,147.61L318.21,115.77L318.96,232.78L321.18,215.48L321.92,195.74L322.66,218.47L323.41,172.04L324.15,224.36L326.37,240.78L327.12,186.96L327.86,202.62L328.6,261.06L329.34,252.26L332.31,193.93L333.05,217.62L333.79,197.16L334.53,215.18L336.76,149.12L337.5,225.1L338.24,267.89L338.98,154.53L339.73,240.43L341.95,233.03L342.69,218.87L343.43,261.68L344.92,212.55L347.14,216.42L347.88,16L348.63,209.47L349.37,212.67L352.34,215.67L353.82,232.33L354.56,175.87L355.3,257.94L357.53,203.68L358.27,176.6L359.01,223.67L359.75,247.36L360.49,190.18L362.72,217.61L363.46,269.01L364.2,233.69L364.95,244.93L365.69,250.02L367.91,222.42L368.65,278.09L369.4,258.47L370.88,235.16L373.1,218.11L373.85,248.15L374.59,238.79L375.33,176.28L376.07,252.92L379.04,238.11L379.78,275.51L380.52,202.08L381.26,210.63L383.49,245.72L384.23,293.11L384.97,224.93L385.71,238.1L386.46,231.27L388.68,232.96L389.42,247.95L390.16,222.26L391.65,225.17L393.87,255.95L394.62,223.64L395.36,255.79L396.84,177.75L399.07,253.22L401.29,218.85L402.03,209.79L405,272.04L405.74,246.13L407.23,267.95L409.45,225.6L410.19,229.08L410.93,236.26L411.68,248.74L412.42,244.8L414.64,169.22L415.38,229.61L416.13,193.07L416.87,235.88L417.61,199.35L419.84,157.12L420.58,223.84L421.32,222.94L422.06,260.38L422.8,225.44L425.03,223.59L425.77,226.44L426.51,216.41L427.25,256.39L427.99,251.2L430.22,123.17L430.96,216.22L431.7,210.78L432.45,213.88L433.19,188.66L435.41,239.64L436.15,227.62L436.9,200.79L437.64,207.86L438.38,251.68L440.6,204.65L441.35,237.35L442.09,226.32L442.83,268.49L443.57,249.51L445.8,269.63L446.54,211.16L447.28,218.53L448.02,218.35L448.76,242.06L451.73,211.38L452.47,214.6L453.96,246.75L456.18,242.09L456.92,238.85L457.66,267.05L458.41,285.57L459.15,242.77L461.37,239.23L462.12,230.28L462.86,235.52L463.6,163.14L464.34,262.17L466.57,230.22L468.05,249.88L468.79,212.88L469.53,234.39L471.76,249.25L472.5,261.53L473.24,218.57L473.98,227.72L474.73,246.75L476.95,218.7L477.69,228.13L479.18,208.15L479.92,232.14L482.14,243.99L482.88,213.68L484.37,183.72L485.11,220.97L487.34,268.31L488.08,240.56L488.82,243.56L489.56,241.32L490.3,228.81L492.53,226.01L493.27,202.06L494.01,239.48L494.75,215.37L495.49,218.06L498.46,229.6L499.2,242.09L499.95,224.01L500.69,304L502.91,257.13L503.65,210.88L505.14,230.8L505.88,261.77L508.85,218.25L509.59,231.01L511.07,247.57L513.3,304L514.04,239.8L514.78,253.59L516.26,304L518.49,256.27L519.97,239.95L520.71,240.08L521.46,225.63L523.68,204.81L524.42,230.56L525.16,229.65L526.65,197.05L528.87,236.18L530.36,220.15L531.1,231.06L531.84,253.8L534.07,213.38L534.81,262.17L536.29,144.9L537.03,255.86L539.26,205.61L540,241.17" style="vector-effect: non-scaling-stroke; fill: none; stroke: rgb(0, 191, 255); stroke-opacity: 1; stroke-width: 2px; opacity: 1;"/></g><g class="points"/><g class="text"/></g></g></g><g class="overplot"/><path class="xlines-above crisp" d="M0,0" style="fill: none;"/><path class="ylines-above crisp" d="M0,0" style="fill: none;"/><g class="overlines-above"/><g class="xaxislayer-above"><g class="xtick"><text text-anchor="middle" x="0" y="433" transform="translate(213.52,0)" style="font-family: 'Open Sans', verdana, arial, sans-serif; font-size: 12px; fill: rgb(42, 63, 95); fill-opacity: 1; white-space: pre;">Jul 2018</text></g><g class="xtick"><text text-anchor="middle" x="0" y="433" transform="translate(350,0)" style="font-family: 'Open Sans', verdana, arial, sans-serif; font-size: 12px; fill: rgb(42, 63, 95); fill-opacity: 1; white-space: pre;">Jan 2019</text></g><g class="xtick"><text text-anchor="middle" x="0" y="433" transform="translate(484.26,0)" style="font-family: 'Open Sans', verdana, arial, sans-serif; font-size: 12px; fill: rgb(42, 63, 95); fill-opacity: 1; white-space: pre;">Jul 2019</text></g></g><g class="yaxislayer-above"><g class="ytick"><text text-anchor="end" x="79" y="4.199999999999999" transform="translate(0,404)" style="font-family: 'Open Sans', verdana, arial, sans-serif; font-size: 12px; fill: rgb(42, 63, 95); fill-opacity: 1; white-space: pre;">0</text></g><g class="ytick"><text text-anchor="end" x="79" y="4.199999999999999" transform="translate(0,359.14)" style="font-family: 'Open Sans', verdana, arial, sans-serif; font-size: 12px; fill: rgb(42, 63, 95); fill-opacity: 1; white-space: pre;">0.05</text></g><g class="ytick"><text text-anchor="end" x="79" y="4.199999999999999" transform="translate(0,314.28)" style="font-family: 'Open Sans', verdana, arial, sans-serif; font-size: 12px; fill: rgb(42, 63, 95); fill-opacity: 1; white-space: pre;">0.1</text></g><g class="ytick"><text text-anchor="end" x="79" y="4.199999999999999" transform="translate(0,269.41999999999996)" style="font-family: 'Open Sans', verdana, arial, sans-serif; font-size: 12px; fill: rgb(42, 63, 95); fill-opacity: 1; white-space: pre;">0.15</text></g><g class="ytick"><text text-anchor="end" x="79" y="4.199999999999999" transform="translate(0,224.56)" style="font-family: 'Open Sans', verdana, arial, sans-serif; font-size: 12px; fill: rgb(42, 63, 95); fill-opacity: 1; white-space: pre;">0.2</text></g><g class="ytick"><text text-anchor="end" x="79" y="4.199999999999999" transform="translate(0,179.7)" style="font-family: 'Open Sans', verdana, arial, sans-serif; font-size: 12px; fill: rgb(42, 63, 95); fill-opacity: 1; white-space: pre;">0.25</text></g><g class="ytick"><text text-anchor="end" x="79" y="4.199999999999999" transform="translate(0,134.84)" style="font-family: 'Open Sans', verdana, arial, sans-serif; font-size: 12px; fill: rgb(42, 63, 95); fill-opacity: 1; white-space: pre;">0.3</text></g></g><g class="overaxes-above"/></g></g><g class="polarlayer"/><g class="ternarylayer"/><g class="geolayer"/><g class="funnelarealayer"/><g class="pielayer"/><g class="treemaplayer"/><g class="sunburstlayer"/><g class="glimages"/><defs id="topdefs-007d67"><g class="clips"/></defs><g class="layer-above"><g class="imagelayer"/><g class="shapelayer"/></g><g class="infolayer"><g class="g-gtitle"><text class="gtitle" x="350" y="50" text-anchor="middle" dy="0em" style="font-family: 'Open Sans', verdana, arial, sans-serif; font-size: 17px; fill: rgb(42, 63, 95); opacity: 1; font-weight: normal; white-space: pre;">Negative Sentiment</text></g><g class="g-xtitle"/><g class="g-ytitle"/></g></svg>