<svg class="main-svg" xmlns="http://www.w3.org/2000/svg" xmlns:xlink="http://www.w3.org/1999/xlink" width="400" height="400" viewBox="0 0 400 400"><rect x="0" y="0" width="400" height="400" style="fill: rgb(255, 255, 255); fill-opacity: 1;"/><defs id="defs-857489"><g class="clips"><clipPath id="clip857489xyplot" class="plotclip"><rect width="240" height="220"/></clipPath><clipPath class="axesclip" id="clip857489x"><rect x="80" y="0" width="240" height="400"/></clipPath><clipPath class="axesclip" id="clip857489y"><rect x="0" y="100" width="400" height="220"/></clipPath><clipPath class="axesclip" id="clip857489xy"><rect x="80" y="100" width="240" height="220"/></clipPath></g><g class="gradients"/></defs><g class="bglayer"><rect class="bg" x="80" y="100" width="240" height="220" style="fill: rgb(229, 236, 246); fill-opacity: 1; stroke-width: 0;"/></g><g class="layer-below"><g class="imagelayer"/><g class="shapelayer"/></g><g class="cartesianlayer"><g class="subplot xy"><g class="layer-subplot"><g class="shapelayer"/><g class="imagelayer"/></g><g class="gridlayer"><g class="x"><path class="xgrid crisp" transform="translate(200,0)" d="M0,100v220" style="stroke: rgb(255, 255, 255); stroke-opacity: 1; stroke-width: 1px;"/><path class="xgrid crisp" transform="translate(318,0)" d="M0,100v220" style="stroke: rgb(255, 255, 255); stroke-opacity: 1; stroke-width: 1px;"/></g><g class="y"><path class="ygrid crisp" transform="translate(0,318.58000000000004)" d="M80,0h240" style="stroke: rgb(255, 255, 255); stroke-opacity: 1; stroke-width: 1px;"/><path class="ygrid crisp" transform="translate(0,270.68)" d="M80,0h240" style="stroke: rgb(255, 255, 255); stroke-opacity: 1; stroke-width: 1px;"/><path class="ygrid crisp" transform="translate(0,222.76999999999998)" d="M80,0h240" style="stroke: rgb(255, 255, 255); stroke-opacity: 1; stroke-width: 1px;"/><path class="ygrid crisp" transform="translate(0,174.87)" d="M80,0h240" style="stroke: rgb(255, 255, 255); stroke-opacity: 1; stroke-width: 1px;"/><path class="ygrid crisp" transform="translate(0,126.97)" d="M80,0h240" style="stroke: rgb(255, 255, 255); stroke-opacity: 1; stroke-width: 1px;"/></g></g><g class="zerolinelayer"><path class="xzl zl crisp" transform="translate(82,0)" d="M0,100v220" style="stroke: rgb(255, 255, 255); stroke-opacity: 1; stroke-width: 2px;"/></g><path class="xlines-below"/><path class="ylines-below"/><g class="overlines-below"/><g class="xaxislayer-below"/><g class="yaxislayer-below"/><g class="overaxes-below"/><g class="plot" transform="translate(80, 100)" clip-path="url('#clip857489xyplot')"><g class="scatterlayer mlayer"><g class="trace scatter traceafb28b" style="stroke-miterlimit: 2; opacity: 1;"><g class="fills"/><g class="errorbars"/><g class="lines"><path class="js-line" d="M2,183.45L2.94,151.52L3.18,170.68L3.42,164.29L3.65,196.23L4.12,202.61L4.36,183.45L4.6,189.84L5.07,183.45L5.3,209L5.54,189.84L6.72,164.29L6.96,170.68L7.19,177.06L7.43,177.06L7.66,170.68L7.9,170.68L8.14,183.45L8.37,196.23L8.61,170.68L8.84,170.68L9.08,170.68L9.32,157.9L9.55,170.68L10.02,164.29L10.26,164.29L10.97,138.74L11.2,145.13L11.44,170.68L11.68,177.06L11.91,164.29L12.15,170.68L12.38,157.9L12.62,183.45L12.86,170.68L13.09,145.13L14.04,189.84L14.27,164.29L14.51,145.13L14.74,189.84L15.45,151.52L15.69,170.68L15.92,183.45L16.16,138.74L16.63,183.45L16.87,170.68L17.1,164.29L17.34,125.97L17.81,164.29L18.05,145.13L18.28,145.13L18.99,106.81L19.23,132.35L19.46,132.35L20.41,151.52L20.64,145.13L21.12,151.52L21.59,138.74L21.82,138.74L22.77,157.9L23,145.13L23.48,125.97L23.71,145.13L23.95,145.13L24.42,106.81L24.66,119.58L24.89,151.52L25.13,119.58L25.6,145.13L25.84,132.35L26.07,132.35L26.31,151.52L26.54,151.52L26.78,125.97L27.02,113.19L27.25,145.13L27.72,132.35L27.96,138.74L28.2,151.52L29.14,125.97L29.38,125.97L29.61,119.58L29.85,138.74L30.08,132.35L30.32,151.52L30.79,113.19L31.26,132.35L31.5,138.74L31.97,119.58L32.21,145.13L32.44,138.74L32.68,151.52L32.92,151.52L33.15,157.9L33.39,138.74L33.62,138.74L33.86,132.35L34.1,138.74L34.33,132.35L34.57,119.58L35.51,157.9L35.75,138.74L35.98,138.74L36.22,151.52L37.16,119.58L37.4,125.97L37.64,132.35L38.58,145.13L38.82,145.13L39.05,145.13L39.29,119.58L39.52,119.58L39.76,145.13L40.47,119.58L40.94,125.97L41.18,132.35L41.65,145.13L41.88,100.42L42.12,106.81L42.36,113.19L42.59,113.19L42.83,125.97L43.06,125.97L43.3,106.81L43.54,113.19L43.77,94.03L44.01,81.26L44.24,94.03L44.48,100.42L44.72,119.58L45.19,100.42L45.42,94.03L45.9,106.81L46.13,100.42L46.37,100.42L46.84,100.42L47.08,113.19L47.31,113.19L47.55,138.74L48.49,100.42L48.73,106.81L48.96,106.81L49.2,113.19L49.44,106.81L49.67,100.42L49.91,106.81L50.14,81.26L51.09,113.19L51.32,106.81L51.56,113.19L51.8,113.19L52.03,132.35L52.98,94.03L53.21,113.19L54.16,106.81L54.39,113.19L54.63,113.19L54.86,106.81L55.57,113.19L55.81,106.81L56.04,113.19L56.28,106.81L56.52,138.74L57.22,100.42L57.46,106.81L57.7,106.81L57.93,125.97L58.17,119.58L58.4,100.42L59.35,125.97L59.58,119.58L59.82,113.19L60.53,125.97L60.76,113.19L61.47,74.87L61.71,119.58L61.94,132.35L62.18,113.19L62.42,119.58L62.65,106.81L62.89,113.19L63.12,94.03L63.6,119.58L63.83,106.81L64.07,106.81L64.3,113.19L64.54,87.65L65.25,100.42L65.48,94.03L65.72,81.26L65.96,106.81L66.19,138.74L66.66,100.42L66.9,106.81L67.14,113.19L67.61,100.42L67.84,113.19L68.08,106.81L68.79,87.65L69.02,100.42L69.73,113.19L69.97,100.42L70.44,87.65L70.91,94.03L71.15,100.42L71.86,81.26L72.09,113.19L72.56,87.65L72.8,106.81L73.04,100.42L73.27,113.19L73.74,100.42L73.98,74.87L74.92,87.65L75.16,81.26L75.4,68.48L75.63,94.03L75.87,100.42L76.58,74.87L77.05,81.26L77.28,100.42L77.99,81.26L78.23,100.42L78.94,74.87L79.17,87.65L79.41,100.42L79.64,100.42L79.88,81.26L80.35,94.03L80.59,87.65L80.82,74.87L81.06,68.48L81.3,106.81L81.53,106.81L81.77,87.65L82,74.87L82.48,81.26L82.71,81.26L82.95,94.03L83.18,68.48L83.42,62.1L84.13,106.81L84.36,62.1L85.07,94.03L85.31,87.65L85.54,87.65L86.49,74.87L86.72,81.26L87.2,94.03L87.43,81.26L87.67,81.26L87.9,68.48L88.14,81.26L88.38,87.65L88.61,81.26L88.85,100.42L89.32,87.65L89.56,100.42L89.79,94.03L90.03,94.03L90.26,87.65L90.5,74.87L90.97,81.26L91.21,81.26L91.68,94.03L91.92,87.65L92.15,81.26L92.39,100.42L92.62,87.65L92.86,74.87L93.1,87.65L93.57,81.26L93.8,81.26L94.04,81.26L94.28,87.65L94.51,74.87L94.75,106.81L95.69,81.26L95.93,100.42L96.87,55.71L97.11,94.03L97.58,81.26L97.82,87.65L98.05,94.03L98.76,62.1L99,87.65L99.47,106.81L99.7,94.03L99.94,87.65L100.88,100.42L101.12,100.42L101.36,68.48L102.06,74.87L102.3,94.03L102.77,62.1L103.24,74.87L103.48,87.65L103.95,100.42L104.19,68.48L104.66,94.03L104.9,81.26L105.13,74.87L105.37,74.87L105.6,87.65L106.08,100.42L106.31,81.26L106.78,87.65L107.02,81.26L107.26,81.26L107.49,100.42L107.73,87.65L107.96,68.48L108.44,94.03L108.67,87.65L108.91,74.87L109.14,68.48L109.38,81.26L109.62,113.19L109.85,81.26L110.32,87.65L110.56,106.81L111.5,81.26L111.74,81.26L111.98,100.42L112.21,68.48L112.45,87.65L112.68,81.26L113.63,68.48L113.86,81.26L114.1,81.26L114.34,94.03L114.81,74.87L115.28,81.26L115.52,81.26L115.99,94.03L116.22,87.65L116.46,74.87L117.17,81.26L117.4,68.48L118.11,94.03L118.35,81.26L118.58,94.03L118.82,68.48L119.06,74.87L119.53,87.65L119.76,68.48L120.24,87.65L120.47,62.1L120.94,94.03L121.18,74.87L121.65,106.81L121.89,74.87L122.6,87.65L122.83,74.87L123.3,74.87L123.54,81.26L123.78,87.65L124.01,74.87L124.25,74.87L124.48,68.48L124.72,74.87L124.96,94.03L125.19,68.48L125.66,81.26L125.9,81.26L127.08,62.1L127.32,68.48L127.55,49.32L127.79,94.03L128.02,94.03L128.26,113.19L128.73,55.71L129.2,74.87L129.44,74.87L129.68,94.03L129.91,68.48L130.15,81.26L130.38,81.26L130.86,62.1L131.09,68.48L131.33,87.65L131.56,100.42L132.04,94.03L132.27,68.48L132.74,94.03L132.98,81.26L133.22,68.48L133.45,81.26L133.92,74.87L134.16,74.87L134.4,68.48L134.63,81.26L134.87,74.87L135.1,74.87L135.34,62.1L135.58,87.65L135.81,87.65L136.28,55.71L136.52,100.42L137.46,87.65L137.7,87.65L138.17,94.03L138.41,68.48L138.64,113.19L139.12,87.65L139.35,81.26L140.06,68.48L140.3,87.65L141,62.1L141.24,81.26L141.95,87.65L142.18,81.26L142.42,94.03L142.66,55.71L143.84,87.65L144.07,74.87L144.54,81.26L144.78,74.87L145.02,68.48L145.25,62.1L145.49,81.26L145.72,62.1L145.96,106.81L147.14,68.48L147.38,87.65L147.61,87.65L147.85,94.03L148.32,74.87L148.56,94.03L148.79,87.65L149.03,87.65L149.26,68.48L149.5,87.65L149.74,49.32L149.97,74.87L150.21,81.26L150.44,100.42L150.68,74.87L150.92,81.26L151.15,81.26L151.39,87.65L151.62,62.1L151.86,55.71L152.1,87.65L152.57,94.03L152.8,68.48L153.04,87.65L153.75,68.48L153.98,94.03L154.46,106.81L154.69,68.48L154.93,74.87L155.16,87.65L155.4,81.26L155.64,94.03L155.87,87.65L156.11,42.94L156.34,42.94L156.58,87.65L157.29,100.42L157.52,68.48L157.76,81.26L158,55.71L158.23,74.87L158.47,68.48L159.18,81.26L159.41,49.32L159.65,81.26L160.12,68.48L160.36,62.1L161.06,81.26L161.3,55.71L162.24,87.65L162.48,68.48L162.95,81.26L163.19,42.94L164.13,74.87L164.37,94.03L164.84,30.16L165.08,74.87L165.31,62.1L165.78,74.87L166.02,62.1L166.26,62.1L166.49,55.71L166.73,81.26L166.96,55.71L167.2,62.1L167.44,94.03L168.62,55.71L168.85,55.71L169.8,81.26L170.03,55.71L170.74,81.26L170.98,74.87L171.21,55.71L171.45,49.32L171.68,62.1L171.92,62.1L172.16,68.48L172.39,42.94L172.86,74.87L173.1,55.71L173.34,55.71L173.57,68.48L173.81,55.71L174.04,42.94L175.22,81.26L175.46,36.55L176.17,55.71L176.4,49.32L176.64,49.32L177.35,62.1L177.58,55.71L177.82,55.71L178.76,81.26L179,62.1L179.24,55.71L179.47,74.87L179.71,87.65L179.94,55.71L180.18,74.87L180.65,55.71L180.89,49.32L181.12,42.94L181.36,74.87L181.6,74.87L181.83,55.71L182.3,49.32L182.54,68.48L182.78,55.71L183.25,49.32L183.48,55.71L183.72,62.1L183.96,62.1L184.19,55.71L184.43,36.55L184.9,55.71L185.14,55.71L185.37,49.32L185.61,74.87L186.08,49.32L186.32,55.71L186.55,74.87L186.79,49.32L187.26,62.1L187.5,55.71L187.97,74.87L188.2,62.1L188.44,49.32L189.15,74.87L189.38,55.71L189.62,55.71L189.86,49.32L190.56,81.26L190.8,49.32L191.04,62.1L191.27,42.94L191.51,42.94L191.98,49.32L192.22,36.55L193.16,55.71L193.4,55.71L193.87,68.48L194.1,42.94L194.34,42.94L194.58,68.48L195.28,42.94L195.52,74.87L195.76,81.26L195.99,68.48L196.23,49.32L196.46,55.71L196.7,36.55L197.64,55.71L197.88,55.71L198.59,68.48L198.82,49.32L199.06,36.55L199.3,55.71L199.53,68.48L200.24,36.55L200.48,55.71L200.71,42.94L200.95,62.1L201.18,49.32L201.42,55.71L201.66,23.77L202.13,49.32L202.36,42.94L202.6,42.94L202.84,49.32L203.07,62.1L203.31,42.94L203.54,49.32L203.78,55.71L204.02,68.48L204.25,49.32L204.49,36.55L205.43,62.1L205.67,55.71L206.14,62.1L206.38,36.55L206.61,42.94L206.85,49.32L207.08,68.48L207.32,49.32L207.56,36.55L208.74,62.1L208.97,36.55L209.44,74.87L209.68,36.55L210.15,55.71L210.39,30.16L211.1,62.1L211.33,42.94L211.57,62.1L212.04,49.32L212.28,49.32L212.51,49.32L212.75,36.55L212.98,23.77L213.22,49.32L213.46,55.71L213.69,62.1L213.93,49.32L214.16,49.32L215.11,62.1L215.34,42.94L215.58,30.16L215.82,55.71L216.05,55.71L216.29,30.16L216.76,36.55L217,49.32L217.23,49.32L217.47,42.94L217.7,36.55L217.94,49.32L218.18,62.1L219.12,30.16L219.36,55.71L219.59,49.32L219.83,62.1L220.06,62.1L220.54,36.55L220.77,42.94L221.01,49.32L221.48,30.16L221.72,49.32L222.42,68.48L222.66,55.71L222.9,49.32L223.13,62.1L223.37,23.77L224.08,68.48L224.31,49.32L224.55,49.32L224.78,42.94L225.02,42.94L225.26,30.16L225.49,36.55L225.73,23.77L225.96,17.39L226.91,55.71L227.14,49.32L227.62,62.1L227.85,11L228.56,55.71L228.8,42.94L229.03,30.16L229.5,23.77L229.74,55.71L229.98,36.55L230.68,42.94L230.92,30.16L231.63,55.71L231.86,36.55L232.57,49.32L232.81,17.39L233.52,49.32L233.75,23.77L234.46,55.71L234.7,49.32L234.93,30.16L235.4,23.77L235.64,42.94L235.88,30.16L236.11,62.1L236.58,23.77L236.82,55.71L237.06,55.71L237.29,30.16L237.53,23.77L237.76,42.94" style="vector-effect: non-scaling-stroke; fill: none; stroke: rgb(99, 110, 250); stroke-opacity: 1; stroke-width: 2px; opacity: 1;"/></g><g class="points"/><g class="text"/></g></g></g><g class="overplot"/><path class="xlines-above crisp" d="M0,0" style="fill: none;"/><path class="ylines-above crisp" d="M0,0" style="fill: none;"/><g class="overlines-above"/><g class="xaxislayer-above"><g class="xtick"><text text-anchor="middle" x="0" y="333" transform="translate(82,0)" style="font-family: 'Open Sans', verdana, arial, sans-serif; font-size: 12px; fill: rgb(42, 63, 95); fill-opacity: 1; white-space: pre;">0</text></g><g class="xtick"><text text-anchor="middle" x="0" y="333" transform="translate(200,0)" style="font-family: 'Open Sans', verdana, arial, sans-serif; font-size: 12px; fill: rgb(42, 63, 95); fill-opacity: 1; white-space: pre;">500</text></g><g class="xtick"><text text-anchor="middle" x="0" y="333" transform="translate(318,0)" style="font-family: 'Open Sans', verdana, arial, sans-serif; font-size: 12px; fill: rgb(42, 63, 95); fill-opacity: 1; white-space: pre;">1000</text></g></g><g class="yaxislayer-above"><g class="ytick"><text text-anchor="end" x="79" y="4.199999999999999" transform="translate(0,318.58000000000004)" style="font-family: 'Open Sans', verdana, arial, sans-serif; font-size: 12px; fill: rgb(42, 63, 95); fill-opacity: 1; white-space: pre;">0.54</text></g><g class="ytick"><text text-anchor="end" x="79" y="4.199999999999999" transform="translate(0,270.68)" style="font-family: 'Open Sans', verdana, arial, sans-serif; font-size: 12px; fill: rgb(42, 63, 95); fill-opacity: 1; white-space: pre;">0.56</text></g><g class="ytick"><text text-anchor="end" x="79" y="4.199999999999999" transform="translate(0,222.76999999999998)" style="font-family: 'Open Sans', verdana, arial, sans-serif; font-size: 12px; fill: rgb(42, 63, 95); fill-opacity: 1; white-space: pre;">0.58</text></g><g class="ytick"><text text-anchor="end" x="79" y="4.199999999999999" transform="translate(0,174.87)" style="font-family: 'Open Sans', verdana, arial, sans-serif; font-size: 12px; fill: rgb(42, 63, 95); fill-opacity: 1; white-space: pre;">0.6</text></g><g class="ytick"><text text-anchor="end" x="79" y="4.199999999999999" transform="translate(0,126.97)" style="font-family: 'Open Sans', verdana, arial, sans-serif; font-size: 12px; fill: rgb(42, 63, 95); fill-opacity: 1; white-space: pre;">0.62</text></g></g><g class="overaxes-above"/></g></g><g class="polarlayer"/><g class="ternarylayer"/><g class="geolayer"/><g class="funnelarealayer"/><g class="pielayer"/><g class="treemaplayer"/><g class="sunburstlayer"/><g class="glimages"/><defs id="topdefs-857489"><g class="clips"/></defs><g class="layer-above"><g class="imagelayer"/><g class="shapelayer"><path data-index="0" fill-rule="evenodd" d="M82,289.84000000000003L318,289.84000000000003" clip-path="url('#clip857489xy')" style="opacity: 1; stroke: rgb(32, 178, 170); stroke-opacity: 1; fill: rgb(0, 0, 0); fill-opacity: 0; stroke-dasharray: 12px, 4px, 4px, 4px; stroke-width: 4px;"/></g></g><g class="infolayer"><g class="g-gtitle"><text class="gtitle" x="20" y="50" text-anchor="start" dy="0em" style="font-family: 'Open Sans', verdana, arial, sans-serif; font-size: 17px; fill: rgb(42, 63, 95); opacity: 1; font-weight: normal; white-space: pre;">Training Accuracy, S&amp;P 500</text></g><g class="g-xtitle"><text class="xtitle" x="200" y="360.890625" text-anchor="middle" style="font-family: 'Open Sans', verdana, arial, sans-serif; font-size: 15px; fill: rgb(42, 63, 95); opacity: 1; font-weight: normal; white-space: pre;">Epoch</text></g><g class="g-ytitle"><text class="ytitle" transform="rotate(-90,26.234375,210)" x="26.234375" y="210" text-anchor="middle" style="font-family: 'Open Sans', verdana, arial, sans-serif; font-size: 15px; fill: rgb(42, 63, 95); opacity: 1; font-weight: normal; white-space: pre;">Accuracy</text></g></g></svg>