<svg class="main-svg" xmlns="http://www.w3.org/2000/svg" xmlns:xlink="http://www.w3.org/1999/xlink" width="700" height="500" viewBox="0 0 700 500"><rect x="0" y="0" width="700" height="500" style="fill: rgb(255, 255, 255); fill-opacity: 1;"/><defs id="defs-b080ef"><g class="clips"><clipPath id="clipb080efxyplot" class="plotclip"><rect width="480" height="309"/></clipPath><clipPath class="axesclip" id="clipb080efx"><rect x="80" y="0" width="480" height="500"/></clipPath><clipPath class="axesclip" id="clipb080efy"><rect x="0" y="100" width="700" height="309"/></clipPath><clipPath class="axesclip" id="clipb080efxy"><rect x="80" y="100" width="480" height="309"/></clipPath></g><g class="gradients"/></defs><g class="bglayer"><rect class="bg" x="80" y="100" width="480" height="309" style="fill: rgb(229, 236, 246); fill-opacity: 1; stroke-width: 0;"/></g><g class="layer-below"><g class="imagelayer"/><g class="shapelayer"/></g><g class="cartesianlayer"><g class="subplot xy"><g class="layer-subplot"><g class="shapelayer"/><g class="imagelayer"/></g><g class="gridlayer"><g class="x"><path class="xgrid crisp" transform="translate(95.3,0)" d="M0,100v309" style="stroke: rgb(255, 255, 255); stroke-opacity: 1; stroke-width: 1px;"/><path class="xgrid crisp" transform="translate(110.6,0)" d="M0,100v309" style="stroke: rgb(255, 255, 255); stroke-opacity: 1; stroke-width: 1px;"/><path class="xgrid crisp" transform="translate(125.9,0)" d="M0,100v309" style="stroke: rgb(255, 255, 255); stroke-opacity: 1; stroke-width: 1px;"/><path class="xgrid crisp" transform="translate(141.2,0)" d="M0,100v309" style="stroke: rgb(255, 255, 255); stroke-opacity: 1; stroke-width: 1px;"/><path class="xgrid crisp" transform="translate(156.49,0)" d="M0,100v309" style="stroke: rgb(255, 255, 255); stroke-opacity: 1; stroke-width: 1px;"/><path class="xgrid crisp" transform="translate(171.79000000000002,0)" d="M0,100v309" style="stroke: rgb(255, 255, 255); stroke-opacity: 1; stroke-width: 1px;"/><path class="xgrid crisp" transform="translate(187.09,0)" d="M0,100v309" style="stroke: rgb(255, 255, 255); stroke-opacity: 1; stroke-width: 1px;"/><path class="xgrid crisp" transform="translate(202.39,0)" d="M0,100v309" style="stroke: rgb(255, 255, 255); stroke-opacity: 1; stroke-width: 1px;"/><path class="xgrid crisp" transform="translate(217.69,0)" d="M0,100v309" style="stroke: rgb(255, 255, 255); stroke-opacity: 1; stroke-width: 1px;"/><path class="xgrid crisp" transform="translate(232.99,0)" d="M0,100v309" style="stroke: rgb(255, 255, 255); stroke-opacity: 1; stroke-width: 1px;"/><path class="xgrid crisp" transform="translate(248.29,0)" d="M0,100v309" style="stroke: rgb(255, 255, 255); stroke-opacity: 1; stroke-width: 1px;"/><path class="xgrid crisp" transform="translate(263.59000000000003,0)" d="M0,100v309" style="stroke: rgb(255, 255, 255); stroke-opacity: 1; stroke-width: 1px;"/><path class="xgrid crisp" transform="translate(278.88,0)" d="M0,100v309" style="stroke: rgb(255, 255, 255); stroke-opacity: 1; stroke-width: 1px;"/><path class="xgrid crisp" transform="translate(294.18,0)" d="M0,100v309" style="stroke: rgb(255, 255, 255); stroke-opacity: 1; stroke-width: 1px;"/><path class="xgrid crisp" transform="translate(309.48,0)" d="M0,100v309" style="stroke: rgb(255, 255, 255); stroke-opacity: 1; stroke-width: 1px;"/><path class="xgrid crisp" transform="translate(324.78,0)" d="M0,100v309" style="stroke: rgb(255, 255, 255); stroke-opacity: 1; stroke-width: 1px;"/><path class="xgrid crisp" transform="translate(340.08,0)" d="M0,100v309" style="stroke: rgb(255, 255, 255); stroke-opacity: 1; stroke-width: 1px;"/><path class="xgrid crisp" transform="translate(355.38,0)" d="M0,100v309" style="stroke: rgb(255, 255, 255); stroke-opacity: 1; stroke-width: 1px;"/><path class="xgrid crisp" transform="translate(370.68,0)" d="M0,100v309" style="stroke: rgb(255, 255, 255); stroke-opacity: 1; stroke-width: 1px;"/><path class="xgrid crisp" transform="translate(385.98,0)" d="M0,100v309" style="stroke: rgb(255, 255, 255); stroke-opacity: 1; stroke-width: 1px;"/><path class="xgrid crisp" transform="translate(401.27,0)" d="M0,100v309" style="stroke: rgb(255, 255, 255); stroke-opacity: 1; stroke-width: 1px;"/><path class="xgrid crisp" transform="translate(416.57,0)" d="M0,100v309" style="stroke: rgb(255, 255, 255); stroke-opacity: 1; stroke-width: 1px;"/><path class="xgrid crisp" transform="translate(431.87,0)" d="M0,100v309" style="stroke: rgb(255, 255, 255); stroke-opacity: 1; stroke-width: 1px;"/><path class="xgrid crisp" transform="translate(447.17,0)" d="M0,100v309" style="stroke: rgb(255, 255, 255); stroke-opacity: 1; stroke-width: 1px;"/><path class="xgrid crisp" transform="translate(462.47,0)" d="M0,100v309" style="stroke: rgb(255, 255, 255); stroke-opacity: 1; stroke-width: 1px;"/><path class="xgrid crisp" transform="translate(477.77,0)" d="M0,100v309" style="stroke: rgb(255, 255, 255); stroke-opacity: 1; stroke-width: 1px;"/><path class="xgrid crisp" transform="translate(493.07,0)" d="M0,100v309" style="stroke: rgb(255, 255, 255); stroke-opacity: 1; stroke-width: 1px;"/><path class="xgrid crisp" transform="translate(508.37,0)" d="M0,100v309" style="stroke: rgb(255, 255, 255); stroke-opacity: 1; stroke-width: 1px;"/><path class="xgrid crisp" transform="translate(523.6700000000001,0)" d="M0,100v309" style="stroke: rgb(255, 255, 255); stroke-opacity: 1; stroke-width: 1px;"/><path class="xgrid crisp" transform="translate(538.96,0)" d="M0,100v309" style="stroke: rgb(255, 255, 255); stroke-opacity: 1; stroke-width: 1px;"/><path class="xgrid crisp" transform="translate(554.26,0)" d="M0,100v309" style="stroke: rgb(255, 255, 255); stroke-opacity: 1; stroke-width: 1px;"/></g><g class="y"><path class="ygrid crisp" transform="translate(0,379.91)" d="M80,0h480" style="stroke: rgb(255, 255, 255); stroke-opacity: 1; stroke-width: 1px;"/><path class="ygrid crisp" transform="translate(0,343.69)" d="M80,0h480" style="stroke: rgb(255, 255, 255); stroke-opacity: 1; stroke-width: 1px;"/><path class="ygrid crisp" transform="translate(0,307.46000000000004)" d="M80,0h480" style="stroke: rgb(255, 255, 255); stroke-opacity: 1; stroke-width: 1px;"/><path class="ygrid crisp" transform="translate(0,271.24)" d="M80,0h480" style="stroke: rgb(255, 255, 255); stroke-opacity: 1; stroke-width: 1px;"/><path class="ygrid crisp" transform="translate(0,235.01)" d="M80,0h480" style="stroke: rgb(255, 255, 255); stroke-opacity: 1; stroke-width: 1px;"/><path class="ygrid crisp" transform="translate(0,198.79000000000002)" d="M80,0h480" style="stroke: rgb(255, 255, 255); stroke-opacity: 1; stroke-width: 1px;"/><path class="ygrid crisp" transform="translate(0,162.56)" d="M80,0h480" style="stroke: rgb(255, 255, 255); stroke-opacity: 1; stroke-width: 1px;"/><path class="ygrid crisp" transform="translate(0,126.34)" d="M80,0h480" style="stroke: rgb(255, 255, 255); stroke-opacity: 1; stroke-width: 1px;"/></g></g><g class="zerolinelayer"/><path class="xlines-below"/><path class="ylines-below"/><g class="overlines-below"/><g class="xaxislayer-below"/><g class="yaxislayer-below"/><g class="overaxes-below"/><g class="plot" transform="translate(80, 100)" clip-path="url('#clipb080efxyplot')"><g class="scatterlayer mlayer"><g class="trace scatter trace4f58dd" style="stroke-miterlimit: 2; opacity: 1;"><g class="fills"/><g class="errorbars"/><g class="lines"><path class="js-line" d="M0,285.36L0.96,282.63L1.91,282.77L2.87,263.81L3.82,260.24L5.74,239.79L6.69,228.47L9.56,185.31L10.52,187.85L12.43,204.96L13.39,209.38L14.34,209.29L15.3,200.9L16.25,196.63L17.21,199.35L18.17,207.5L19.12,169.48L20.08,168.61L21.04,179.93L22.95,204.44L23.9,182.85L24.86,191.16L25.82,211.43L26.77,193.42L27.73,193.19L28.69,194L29.64,177.48L30.6,172.14L31.55,175.24L32.51,169.77L33.47,174.73L34.42,173.46L35.38,163.9L37.29,150.23L38.25,166.27L39.2,196.43L40.16,180.71L41.12,179.91L42.07,192.23L43.98,180.49L44.94,179.88L48.76,224.07L49.72,219.54L51.63,204L52.59,220.72L53.55,223.51L54.5,222.06L55.46,216.73L56.41,237.82L57.37,224.7L58.33,225.68L59.28,223.58L60.24,229.54L61.2,209.34L62.15,217.26L63.11,216.73L64.06,213.46L66.93,208.06L67.89,219.74L69.8,203.11L70.76,203.1L72.67,205.18L73.63,193.57L74.58,198.57L75.54,197.23L76.49,202.17L77.45,202.79L79.36,224.29L80.32,220.81L81.27,214.91L82.23,202.06L83.19,203.95L84.14,194.91L85.1,191.94L86.06,197.64L87.01,193.44L87.97,200.49L88.92,201.01L89.88,198.82L90.84,185.64L91.79,162.18L92.75,162.45L93.71,171.96L94.66,170.04L95.62,170.15L96.57,169.48L97.53,173.19L98.49,176.98L99.44,174.59L100.4,165.1L101.35,165.13L103.27,145.01L104.22,150.55L105.18,147.09L106.14,148.18L107.09,151.31L108.05,157.4L110.92,194.47L111.87,194.82L112.83,205.38L113.78,205.76L114.74,218.6L115.7,217.6L116.65,204.89L117.61,211.92L118.57,207.46L119.52,214.11L120.48,208.02L121.43,212.39L122.39,214.52L123.35,201.95L124.3,192.97L125.26,199.51L126.22,195.51L127.17,187.1L129.08,173.05L130.04,167.87L132.91,180.29L133.86,172.2L134.82,177.94L135.78,170.87L136.73,163.01L137.69,166.8L139.6,175.02L140.56,188.03L141.51,187.56L142.47,194.11L143.43,185.51L144.38,186.41L146.29,205.65L147.25,203.57L149.16,212.64L150.12,193.48L151.08,192.07L152.03,184.62L153.94,178.72L154.9,188.84L155.86,188.21L156.81,180.29L157.77,179.06L158.73,185.09L159.68,187.63L160.64,196.87L162.55,194.33L163.51,183.28L164.46,189.33L165.42,187.99L166.37,195.47L167.33,180.22L169.24,167.14L170.2,168.88L172.11,150.9L173.07,149.99L174.02,148.47L174.98,149.7L176.89,155.73L177.85,154.99L180.72,119.4L181.67,109.15L182.63,114.92L183.59,112.57L184.54,122.82L185.5,122.66L186.45,128.13L187.41,153.4L189.32,166.62L190.28,155.71L191.24,155.84L192.19,157.18L193.15,171.47L194.1,173.48L195.06,182.9L196.02,162.9L196.97,163.28L197.93,165.26L198.88,168.14L199.84,187.45L200.8,165.06L201.75,162.96L202.71,150.33L203.67,165.28L205.58,147.96L206.53,146.42L207.49,151.31L208.45,152.25L209.4,179.6L210.36,178.75L214.18,239.74L215.14,231.21L216.1,249.12L217.05,246.24L218.01,246.29L218.96,218.31L220.88,193.73L221.83,154.93L222.79,174.28L223.75,219L224.7,211.79L225.66,230.65L226.61,217.44L227.57,222.13L229.48,236.6L230.44,230.61L232.35,219.27L233.31,240.39L235.22,274.48L236.18,254.39L239.04,237.09L240,236.53L240.96,244.16L241.91,228.4L242.87,224.32L243.82,205.2L245.74,183.06L246.69,181.45L247.65,184.26L248.61,183.34L249.56,180.29L250.52,164.3L251.47,157.98L252.43,163.63L253.39,167.25L254.34,165.48L255.3,158.67L256.25,165.49L257.21,157.14L258.17,113.33L259.12,118.73L260.08,111.83L261.04,104.09L261.99,79.31L262.95,73.65L263.9,80.04L264.86,89.8L265.82,80.98L267.73,75.75L268.69,76.65L269.64,66.09L270.6,66.29L271.55,59.23L272.51,58.2L273.47,54.46L274.42,44.59L275.38,46.26L276.33,32.98L278.25,15.45L279.2,18.19L280.16,37.47L281.12,40.83L282.07,36.57L283.03,56.35L284.94,116.9L285.9,131.81L286.85,134.3L287.81,124.67L288.76,147.56L289.72,137.24L290.68,133.56L291.63,140.44L292.59,153.38L293.55,150.93L295.46,141.06L296.41,141.06L297.37,131.06L298.33,111.65L299.28,108.15L300.24,114.11L302.15,101.21L303.11,135.37L305.02,155.32L305.98,151.17L306.93,135.1L307.89,138.81L308.84,126.61L309.8,127.42L312.67,140.68L313.63,132.93L314.58,126.32L315.54,127.77L316.49,125.41L317.45,132.95L318.41,132.84L319.36,139.27L320.32,138.81L321.27,148.63L324.14,179.11L325.1,179.31L326.06,195.45L327.01,196.41L327.97,191.52L328.92,177.58L329.88,171.25L330.84,178.59L331.79,169.84L332.75,175.64L333.71,186.69L334.66,168.7L335.62,172.49L336.57,184.3L337.53,185.87L338.49,196.87L339.44,209.07L340.4,195.85L341.35,183.46L342.31,186.38L344.22,175.95L345.18,179.44L346.14,190.67L347.09,191.05L348.05,190.85L349,178.39L350.92,136.26L351.87,142.64L352.83,142.06L353.78,143.18L354.74,143.61L355.7,136.86L357.61,159.95L358.57,161.76L360.48,180.56L361.43,176.22L362.39,183.99L363.35,182.38L365.26,172.58L366.22,161.36L367.17,166.07L368.13,161.55L369.08,153.58L370.04,155.93L371.95,130.52L372.91,141.48L373.86,150.66L374.82,175.42L376.73,196.45L377.69,193.89L378.65,187.01L379.6,199.69L380.56,206.48L381.51,219.47L382.47,215.25L383.43,218.96L385.34,209.13L386.29,214.69L387.25,212.17L388.21,226.41L389.16,229.07L390.12,223.47L391.08,214.87L392.03,219.23L393.94,177.68L394.9,153.68L395.86,157.94L396.81,168.86L397.77,170.89L398.73,160.3L399.68,159.7L400.64,179.71L401.59,174.8L402.55,162.71L403.51,162.34L404.46,169.55L406.37,128.67L407.33,127.77L408.29,131.84L409.24,132.06L411.16,122.8L412.11,119.58L414.02,134.83L414.98,131.59L415.94,115.09L416.89,120.1L417.85,117.46L418.8,128.18L419.76,129.85L420.72,147.71L421.67,149.05L422.63,142.02L423.59,138.36L424.54,139.83L425.5,138.89L426.45,144.9L428.37,137.37L429.32,146.73L430.28,139.68L431.24,146.24L432.19,154.3L433.15,217.89L435.06,187.9L436.02,197.06L436.97,201.36L437.93,198.44L438.88,189.86L439.84,189.35L441.75,198.06L442.71,186.72L443.67,168.32L444.62,172.32L445.58,172.32L446.53,176.67L447.49,153.58L448.45,158.36L449.4,159.25L450.36,155.88L452.27,142.98L453.23,144.38L454.18,151.33L455.14,151.75L457.05,145.34L458.01,144.48L460.88,157.87L461.83,179.28L462.79,179.77L463.75,188.59L464.7,181.38L465.66,182.83L467.57,189.29L468.53,187.41L469.48,190.6L470.44,214.29L471.39,223.85L472.35,216.06L473.31,216.86L474.26,215.61L475.22,206.39L476.18,207.91L477.13,219.49L478.09,218.96L480,231.79" style="vector-effect: non-scaling-stroke; fill: none; stroke: rgb(0, 191, 255); stroke-opacity: 1; stroke-width: 2px; opacity: 1;"/></g><g class="points"/><g class="text"/></g><g class="trace scatter trace4dba26" style="stroke-miterlimit: 2; opacity: 1;"><g class="fills"/><g class="errorbars"/><g class="lines"><path class="js-line" d="M0,288.24L1.91,288.12L2.87,285.85L4.78,260.91L5.74,251.84L7.65,224.89L8.61,223.16L10.52,209L11.47,215.16L12.43,221.88L13.39,216.86L14.34,218.08L15.3,215.97L16.25,205.2L17.21,207.28L18.17,218.04L19.12,186.41L20.08,185.65L21.04,191.7L21.99,248.41L22.95,247.94L23.9,207.7L24.86,226.66L25.82,245.04L26.77,216.28L27.73,206.94L28.69,205.34L30.6,182.99L31.55,186.81L32.51,186.18L33.47,184.57L34.42,183.79L35.38,174.48L36.33,165.26L37.29,167.23L39.2,215.97L40.16,213.6L41.12,196.56L42.07,208.37L43.98,188.93L44.94,201.56L45.9,211.79L46.85,239.52L47.81,238.42L48.76,233.49L49.72,231.41L50.68,223.76L51.63,216.21L52.59,245.48L53.55,246.73L54.5,237.18L56.41,259.68L57.37,240.06L58.33,248.81L59.28,238.09L60.24,258.39L61.2,225.1L62.15,239.68L63.11,239.97L64.06,226.39L65.02,232.26L65.98,224.74L66.93,231.73L67.89,229.87L68.84,218.96L69.8,212.57L70.76,211.99L71.71,216.43L72.67,214.71L73.63,237.75L74.58,224.63L75.54,210.49L76.49,211.5L77.45,219.42L78.41,236.12L79.36,236.48L80.32,245.26L82.23,216.14L83.19,213.6L84.14,210.03L85.1,203.1L86.06,205.56L87.01,200.42L87.97,206.99L88.92,206.92L89.88,207.01L90.84,198.06L91.79,174.04L92.75,181.16L93.71,186.41L94.66,181.43L95.62,176.58L96.57,188.15L97.53,181.92L98.49,186.41L100.4,173.32L101.35,173.32L102.31,169.44L103.27,160.28L104.22,161.35L105.18,155.3L106.14,156.76L107.09,165.28L109.96,185.06L110.92,210.05L111.87,206.63L112.83,214.34L113.78,213.62L114.74,229.92L115.7,224.7L116.65,226.01L117.61,230.48L118.57,215.87L119.52,226.81L120.48,221.95L121.43,227.2L122.39,224.76L124.3,202.43L125.26,208.93L129.08,180.22L130.04,181.63L131,179.82L131.95,183.91L132.91,185.02L133.86,180.94L134.82,197.5L135.78,179.8L136.73,172.2L137.69,188.5L138.65,181.99L139.6,188.44L140.56,196.54L141.51,197.19L142.47,201.81L143.43,197.5L144.38,196.14L145.34,201.81L146.29,213.89L147.25,212.28L148.21,211.77L149.16,229.14L151.08,204.44L152.03,194.6L152.99,190.02L153.94,189.64L154.9,197.57L155.86,192.79L156.81,187.52L157.77,188.24L158.73,190.78L159.68,197.05L161.59,208.77L162.55,201.74L163.51,195.54L164.46,199.38L166.37,212.33L167.33,199.11L168.29,181.56L169.24,178.3L170.2,181.13L171.16,178.3L173.07,160.97L174.02,160.28L174.98,157.96L175.94,158.77L176.89,163.41L177.85,163.27L178.8,159.97L179.76,144.07L181.67,122.89L182.63,125.43L183.59,129.52L184.54,139.81L185.5,132.95L186.45,158.39L188.37,185.26L189.32,179.39L191.24,166.35L192.19,177.1L194.1,184.89L195.06,202.34L196.97,180.35L197.93,181.89L198.88,228.06L199.84,225.99L200.8,184.8L201.75,183.55L202.71,177.1L203.67,177.61L204.62,167.41L205.58,172.14L206.53,161.18L207.49,160.15L209.4,203.77L210.36,200.42L212.27,223.47L213.23,248.76L214.18,286.05L215.14,251.71L217.05,260.6L218.01,260.06L221.83,177.81L222.79,204.31L223.75,248.58L224.7,241.17L225.66,251.82L226.61,245.95L227.57,235.25L228.53,236.13L229.48,251.73L230.44,253.76L231.39,237.89L232.35,250.75L235.22,290.49L236.18,293.55L239.04,245.95L240,255.08L240.96,262.89L241.91,250.79L245.74,202.03L246.69,192.81L247.65,194.76L248.61,193.01L249.56,186.52L250.52,188.03L251.47,168.85L252.43,181.69L253.39,182.7L254.34,176.85L255.3,170.64L256.25,175.76L257.21,166.87L258.17,134.11L260.08,126.44L261.04,120.3L262.95,88.53L263.9,94.64L264.86,102.77L265.82,93.91L267.73,84.89L268.69,84.66L271.55,67.8L272.51,70.39L273.47,64.12L274.42,50.75L275.38,54.86L276.33,49.61L278.25,25.99L279.2,50.55L280.16,46.91L281.12,58.79L282.07,69.01L283.03,70.71L283.98,161.18L284.94,156.75L285.9,165.2L286.85,149.32L287.81,159.55L288.76,158.19L290.68,146.46L291.63,149.08L292.59,168.46L293.55,166L294.5,157.47L295.46,161.18L299.28,119.62L300.24,127.64L301.2,125.77L302.15,115.18L304.06,157.2L305.02,165.95L305.98,163.61L306.93,149.5L309.8,139.58L310.76,139.5L312.67,148.4L313.63,146.49L314.58,148.12L315.54,138.38L317.45,143.98L318.41,141.57L319.36,147.24L320.32,145.48L322.23,180.26L323.19,183.32L324.14,193.93L325.1,193.79L326.06,212.89L327.01,212.48L327.97,211.74L328.92,196.92L329.88,187.25L330.84,188.39L331.79,180.51L332.75,186.18L333.71,205.38L334.66,183.91L335.62,180.51L336.57,196.5L337.53,193.08L338.49,205L339.44,224.36L340.4,207.24L341.35,221.06L342.31,197.35L343.27,185.18L344.22,182.92L346.14,202.39L347.09,200.03L349,194.69L349.96,175.58L350.92,156.11L351.87,155.01L352.83,150.01L353.78,149.32L354.74,156.69L355.7,153.12L356.65,166.98L357.61,168.39L358.57,183.34L359.52,184.48L361.43,186.76L362.39,190.44L363.35,193.15L364.3,187.08L365.26,188.08L366.22,174.6L367.17,173.01L368.13,169.06L369.08,167.61L370.04,171.69L371.95,149.7L372.91,151.89L375.78,203.84L376.73,209.07L377.69,213.69L378.65,205.56L379.6,220.14L380.56,221.37L381.51,231.08L382.47,227.13L383.43,235.41L384.38,227.64L385.34,219.83L386.29,223.09L387.25,224.67L388.21,242.94L389.16,244.5L390.12,231.95L391.08,223.04L392.03,227.6L392.99,219.76L393.94,205.63L394.9,181.47L395.86,176.87L397.77,187.21L398.73,170.93L399.68,166.89L400.64,188.24L402.55,172.81L403.51,172.83L404.46,180.78L405.42,173.86L407.33,145.32L408.29,140.35L409.24,144.07L410.2,139L412.11,129.76L413.07,138.78L414.02,145.12L414.98,143.51L415.94,129.4L416.89,128.98L417.85,132.64L418.8,141.01L419.76,144.74L420.72,164.41L421.67,165.39L422.63,150.01L423.59,147.58L424.54,155.59L425.5,146.78L426.45,152.53L427.41,152.98L428.37,148.27L430.28,154.5L431.24,154.83L433.15,235.72L434.1,217.5L436.02,211.5L436.97,209.45L437.93,208.38L438.88,208.87L439.84,201.54L440.8,208.46L441.75,208.37L442.71,196.5L443.67,183.57L444.62,183.68L445.58,180.2L446.53,188.35L447.49,197.39L448.45,171.22L450.36,168.56L451.31,154.39L452.27,156.93L453.23,168.32L454.18,160.82L455.14,159.9L456.1,159.26L457.05,154.57L458.01,150.66L458.96,158.92L459.92,160.04L460.88,180L461.83,193.68L462.79,191.49L463.75,197.34L464.7,194.58L465.66,190.13L466.61,193.97L467.57,210.18L468.53,205.65L469.48,205.47L470.44,232.04L471.39,242.58L472.35,228.94L473.31,223.8L474.26,229.2L475.22,217.97L476.18,220.83L477.13,226.84L478.09,227.08L480,237.67" style="vector-effect: non-scaling-stroke; fill: none; stroke: rgb(105, 105, 105); stroke-opacity: 1; stroke-width: 2px; opacity: 1;"/></g><g class="points"/><g class="text"/></g></g></g><g class="overplot"/><path class="xlines-above crisp" d="M0,0" style="fill: none;"/><path class="ylines-above crisp" d="M0,0" style="fill: none;"/><g class="overlines-above"/><g class="xaxislayer-above"><g class="xtick"><text text-anchor="start" x="0" y="422" transform="translate(80,0) rotate(90,0,416)" style="font-family: 'Open Sans', verdana, arial, sans-serif; font-size: 12px; fill: rgb(42, 63, 95); fill-opacity: 1; white-space: pre;">1/2/2018</text></g><g class="xtick"><text text-anchor="start" x="0" y="422" transform="translate(95.3,0) rotate(90,0,416)" style="font-family: 'Open Sans', verdana, arial, sans-serif; font-size: 12px; fill: rgb(42, 63, 95); fill-opacity: 1; white-space: pre;">1/25/2018</text></g><g class="xtick"><text text-anchor="start" x="0" y="422" transform="translate(110.6,0) rotate(90,0,416)" style="font-family: 'Open Sans', verdana, arial, sans-serif; font-size: 12px; fill: rgb(42, 63, 95); fill-opacity: 1; white-space: pre;">2/16/2018</text></g><g class="xtick"><text text-anchor="start" x="0" y="422" transform="translate(125.9,0) rotate(90,0,416)" style="font-family: 'Open Sans', verdana, arial, sans-serif; font-size: 12px; fill: rgb(42, 63, 95); fill-opacity: 1; white-space: pre;">3/13/2018</text></g><g class="xtick"><text text-anchor="start" x="0" y="422" transform="translate(141.2,0) rotate(90,0,416)" style="font-family: 'Open Sans', verdana, arial, sans-serif; font-size: 12px; fill: rgb(42, 63, 95); fill-opacity: 1; white-space: pre;">4/5/2018</text></g><g class="xtick"><text text-anchor="start" x="0" y="422" transform="translate(156.49,0) rotate(90,0,416)" style="font-family: 'Open Sans', verdana, arial, sans-serif; font-size: 12px; fill: rgb(42, 63, 95); fill-opacity: 1; white-space: pre;">4/27/2018</text></g><g class="xtick"><text text-anchor="start" x="0" y="422" transform="translate(171.79000000000002,0) rotate(90,0,416)" style="font-family: 'Open Sans', verdana, arial, sans-serif; font-size: 12px; fill: rgb(42, 63, 95); fill-opacity: 1; white-space: pre;">5/21/2018</text></g><g class="xtick"><text text-anchor="start" x="0" y="422" transform="translate(187.09,0) rotate(90,0,416)" style="font-family: 'Open Sans', verdana, arial, sans-serif; font-size: 12px; fill: rgb(42, 63, 95); fill-opacity: 1; white-space: pre;">6/13/2018</text></g><g class="xtick"><text text-anchor="start" x="0" y="422" transform="translate(202.39,0) rotate(90,0,416)" style="font-family: 'Open Sans', verdana, arial, sans-serif; font-size: 12px; fill: rgb(42, 63, 95); fill-opacity: 1; white-space: pre;">7/6/2018</text></g><g class="xtick"><text text-anchor="start" x="0" y="422" transform="translate(217.69,0) rotate(90,0,416)" style="font-family: 'Open Sans', verdana, arial, sans-serif; font-size: 12px; fill: rgb(42, 63, 95); fill-opacity: 1; white-space: pre;">7/30/2018</text></g><g class="xtick"><text text-anchor="start" x="0" y="422" transform="translate(232.99,0) rotate(90,0,416)" style="font-family: 'Open Sans', verdana, arial, sans-serif; font-size: 12px; fill: rgb(42, 63, 95); fill-opacity: 1; white-space: pre;">8/21/2018</text></g><g class="xtick"><text text-anchor="start" x="0" y="422" transform="translate(248.29,0) rotate(90,0,416)" style="font-family: 'Open Sans', verdana, arial, sans-serif; font-size: 12px; fill: rgb(42, 63, 95); fill-opacity: 1; white-space: pre;">9/13/2018</text></g><g class="xtick"><text text-anchor="start" x="0" y="422" transform="translate(263.59000000000003,0) rotate(90,0,416)" style="font-family: 'Open Sans', verdana, arial, sans-serif; font-size: 12px; fill: rgb(42, 63, 95); fill-opacity: 1; white-space: pre;">10/5/2018</text></g><g class="xtick"><text text-anchor="start" x="0" y="422" transform="translate(278.88,0) rotate(90,0,416)" style="font-family: 'Open Sans', verdana, arial, sans-serif; font-size: 12px; fill: rgb(42, 63, 95); fill-opacity: 1; white-space: pre;">10/29/2018</text></g><g class="xtick"><text text-anchor="start" x="0" y="422" transform="translate(294.18,0) rotate(90,0,416)" style="font-family: 'Open Sans', verdana, arial, sans-serif; font-size: 12px; fill: rgb(42, 63, 95); fill-opacity: 1; white-space: pre;">11/20/2018</text></g><g class="xtick"><text text-anchor="start" x="0" y="422" transform="translate(309.48,0) rotate(90,0,416)" style="font-family: 'Open Sans', verdana, arial, sans-serif; font-size: 12px; fill: rgb(42, 63, 95); fill-opacity: 1; white-space: pre;">12/14/2018</text></g><g class="xtick"><text text-anchor="start" x="0" y="422" transform="translate(324.78,0) rotate(90,0,416)" style="font-family: 'Open Sans', verdana, arial, sans-serif; font-size: 12px; fill: rgb(42, 63, 95); fill-opacity: 1; white-space: pre;">1/9/2019</text></g><g class="xtick"><text text-anchor="start" x="0" y="422" transform="translate(340.08,0) rotate(90,0,416)" style="font-family: 'Open Sans', verdana, arial, sans-serif; font-size: 12px; fill: rgb(42, 63, 95); fill-opacity: 1; white-space: pre;">2/1/2019</text></g><g class="xtick"><text text-anchor="start" x="0" y="422" transform="translate(355.38,0) rotate(90,0,416)" style="font-family: 'Open Sans', verdana, arial, sans-serif; font-size: 12px; fill: rgb(42, 63, 95); fill-opacity: 1; white-space: pre;">2/26/2019</text></g><g class="xtick"><text text-anchor="start" x="0" y="422" transform="translate(370.68,0) rotate(90,0,416)" style="font-family: 'Open Sans', verdana, arial, sans-serif; font-size: 12px; fill: rgb(42, 63, 95); fill-opacity: 1; white-space: pre;">3/20/2019</text></g><g class="xtick"><text text-anchor="start" x="0" y="422" transform="translate(385.98,0) rotate(90,0,416)" style="font-family: 'Open Sans', verdana, arial, sans-serif; font-size: 12px; fill: rgb(42, 63, 95); fill-opacity: 1; white-space: pre;">4/11/2019</text></g><g class="xtick"><text text-anchor="start" x="0" y="422" transform="translate(401.27,0) rotate(90,0,416)" style="font-family: 'Open Sans', verdana, arial, sans-serif; font-size: 12px; fill: rgb(42, 63, 95); fill-opacity: 1; white-space: pre;">5/6/2019</text></g><g class="xtick"><text text-anchor="start" x="0" y="422" transform="translate(416.57,0) rotate(90,0,416)" style="font-family: 'Open Sans', verdana, arial, sans-serif; font-size: 12px; fill: rgb(42, 63, 95); fill-opacity: 1; white-space: pre;">5/29/2019</text></g><g class="xtick"><text text-anchor="start" x="0" y="422" transform="translate(431.87,0) rotate(90,0,416)" style="font-family: 'Open Sans', verdana, arial, sans-serif; font-size: 12px; fill: rgb(42, 63, 95); fill-opacity: 1; white-space: pre;">6/20/2019</text></g><g class="xtick"><text text-anchor="start" x="0" y="422" transform="translate(447.17,0) rotate(90,0,416)" style="font-family: 'Open Sans', verdana, arial, sans-serif; font-size: 12px; fill: rgb(42, 63, 95); fill-opacity: 1; white-space: pre;">7/15/2019</text></g><g class="xtick"><text text-anchor="start" x="0" y="422" transform="translate(462.47,0) rotate(90,0,416)" style="font-family: 'Open Sans', verdana, arial, sans-serif; font-size: 12px; fill: rgb(42, 63, 95); fill-opacity: 1; white-space: pre;">8/6/2019</text></g><g class="xtick"><text text-anchor="start" x="0" y="422" transform="translate(477.77,0) rotate(90,0,416)" style="font-family: 'Open Sans', verdana, arial, sans-serif; font-size: 12px; fill: rgb(42, 63, 95); fill-opacity: 1; white-space: pre;">8/28/2019</text></g><g class="xtick"><text text-anchor="start" x="0" y="422" transform="translate(493.07,0) rotate(90,0,416)" style="font-family: 'Open Sans', verdana, arial, sans-serif; font-size: 12px; fill: rgb(42, 63, 95); fill-opacity: 1; white-space: pre;">9/20/2019</text></g><g class="xtick"><text text-anchor="start" x="0" y="422" transform="translate(508.37,0) rotate(90,0,416)" style="font-family: 'Open Sans', verdana, arial, sans-serif; font-size: 12px; fill: rgb(42, 63, 95); fill-opacity: 1; white-space: pre;">10/14/2019</text></g><g class="xtick"><text text-anchor="start" x="0" y="422" transform="translate(523.6700000000001,0) rotate(90,0,416)" style="font-family: 'Open Sans', verdana, arial, sans-serif; font-size: 12px; fill: rgb(42, 63, 95); fill-opacity: 1; white-space: pre;">11/5/2019</text></g><g class="xtick"><text text-anchor="start" x="0" y="422" transform="translate(538.96,0) rotate(90,0,416)" style="font-family: 'Open Sans', verdana, arial, sans-serif; font-size: 12px; fill: rgb(42, 63, 95); fill-opacity: 1; white-space: pre;">11/27/2019</text></g><g class="xtick"><text text-anchor="start" x="0" y="422" transform="translate(554.26,0) rotate(90,0,416)" style="font-family: 'Open Sans', verdana, arial, sans-serif; font-size: 12px; fill: rgb(42, 63, 95); fill-opacity: 1; white-space: pre;">12/20/2019</text></g></g><g class="yaxislayer-above"><g class="ytick"><text text-anchor="end" x="79" y="4.199999999999999" transform="translate(0,379.91)" style="font-family: 'Open Sans', verdana, arial, sans-serif; font-size: 12px; fill: rgb(42, 63, 95); fill-opacity: 1; white-space: pre;">300</text></g><g class="ytick"><text text-anchor="end" x="79" y="4.199999999999999" transform="translate(0,343.69)" style="font-family: 'Open Sans', verdana, arial, sans-serif; font-size: 12px; fill: rgb(42, 63, 95); fill-opacity: 1; white-space: pre;">320</text></g><g class="ytick"><text text-anchor="end" x="79" y="4.199999999999999" transform="translate(0,307.46000000000004)" style="font-family: 'Open Sans', verdana, arial, sans-serif; font-size: 12px; fill: rgb(42, 63, 95); fill-opacity: 1; white-space: pre;">340</text></g><g class="ytick"><text text-anchor="end" x="79" y="4.199999999999999" transform="translate(0,271.24)" style="font-family: 'Open Sans', verdana, arial, sans-serif; font-size: 12px; fill: rgb(42, 63, 95); fill-opacity: 1; white-space: pre;">360</text></g><g class="ytick"><text text-anchor="end" x="79" y="4.199999999999999" transform="translate(0,235.01)" style="font-family: 'Open Sans', verdana, arial, sans-serif; font-size: 12px; fill: rgb(42, 63, 95); fill-opacity: 1; white-space: pre;">380</text></g><g class="ytick"><text text-anchor="end" x="79" y="4.199999999999999" transform="translate(0,198.79000000000002)" style="font-family: 'Open Sans', verdana, arial, sans-serif; font-size: 12px; fill: rgb(42, 63, 95); fill-opacity: 1; white-space: pre;">400</text></g><g class="ytick"><text text-anchor="end" x="79" y="4.199999999999999" transform="translate(0,162.56)" style="font-family: 'Open Sans', verdana, arial, sans-serif; font-size: 12px; fill: rgb(42, 63, 95); fill-opacity: 1; white-space: pre;">420</text></g><g class="ytick"><text text-anchor="end" x="79" y="4.199999999999999" transform="translate(0,126.34)" style="font-family: 'Open Sans', verdana, arial, sans-serif; font-size: 12px; fill: rgb(42, 63, 95); fill-opacity: 1; white-space: pre;">440</text></g></g><g class="overaxes-above"/></g></g><g class="polarlayer"/><g class="ternarylayer"/><g class="geolayer"/><g class="funnelarealayer"/><g class="pielayer"/><g class="treemaplayer"/><g class="sunburstlayer"/><g class="glimages"/><defs id="topdefs-b080ef"><g class="clips"/><clipPath id="legendb080ef"><rect width="118" height="48" x="0" y="0"/></clipPath></defs><g class="layer-above"><g class="imagelayer"/><g class="shapelayer"/></g><g class="infolayer"><g class="legend" pointer-events="all" transform="translate(569.6, 100)"><rect class="bg" shape-rendering="crispEdges" style="stroke: rgb(68, 68, 68); stroke-opacity: 1; fill: rgb(255, 255, 255); fill-opacity: 1; stroke-width: 0px;" width="118" height="48" x="0" y="0"/><g class="scrollbox" transform="translate(0, 0)" clip-path="url('#legendb080ef')"><g class="groups"><g class="traces" transform="translate(0, 14.5)" style="opacity: 1;"><text class="legendtext user-select-none" text-anchor="start" x="40" y="4.680000000000001" style="font-family: 'Open Sans', verdana, arial, sans-serif; font-size: 12px; fill: rgb(42, 63, 95); fill-opacity: 1; white-space: pre;">Boeing High</text><g class="layers" style="opacity: 1;"><g class="legendfill"/><g class="legendlines"><path class="js-line" d="M5,0h30" style="fill: none; stroke: rgb(0, 191, 255); stroke-opacity: 1; stroke-width: 2px;"/></g><g class="legendsymbols"><g class="legendpoints"/></g></g><rect class="legendtoggle" pointer-events="all" x="0" y="-9.5" width="112.609375" height="19" style="cursor: pointer; fill: rgb(0, 0, 0); fill-opacity: 0;"/></g><g class="traces" transform="translate(0, 33.5)" style="opacity: 1;"><text class="legendtext user-select-none" text-anchor="start" x="40" y="4.680000000000001" style="font-family: 'Open Sans', verdana, arial, sans-serif; font-size: 12px; fill: rgb(42, 63, 95); fill-opacity: 1; white-space: pre;">Boeing Low</text><g class="layers" style="opacity: 1;"><g class="legendfill"/><g class="legendlines"><path class="js-line" d="M5,0h30" style="fill: none; stroke: rgb(105, 105, 105); stroke-opacity: 1; stroke-width: 2px;"/></g><g class="legendsymbols"><g class="legendpoints"/></g></g><rect class="legendtoggle" pointer-events="all" x="0" y="-9.5" width="112.609375" height="19" style="cursor: pointer; fill: rgb(0, 0, 0); fill-opacity: 0;"/></g></g></g><rect class="scrollbar" rx="20" ry="3" width="0" height="0" style="fill: rgb(128, 139, 164); fill-opacity: 1;" x="0" y="0"/></g><g class="g-gtitle"><text class="gtitle" x="35" y="50" text-anchor="start" dy="0em" style="font-family: 'Open Sans', verdana, arial, sans-serif; font-size: 17px; fill: rgb(42, 63, 95); opacity: 1; font-weight: normal; white-space: pre;">Boeing Time Series</text></g><g class="g-xtitle"/><g class="g-ytitle"/></g></svg>