<svg class="main-svg" xmlns="http://www.w3.org/2000/svg" xmlns:xlink="http://www.w3.org/1999/xlink" width="400" height="400" viewBox="0 0 400 400"><rect x="0" y="0" width="400" height="400" style="fill: rgb(255, 255, 255); fill-opacity: 1;"/><defs id="defs-969491"><g class="clips"><clipPath id="clip969491xyplot" class="plotclip"><rect width="240" height="220"/></clipPath><clipPath class="axesclip" id="clip969491x"><rect x="80" y="0" width="240" height="400"/></clipPath><clipPath class="axesclip" id="clip969491y"><rect x="0" y="100" width="400" height="220"/></clipPath><clipPath class="axesclip" id="clip969491xy"><rect x="80" y="100" width="240" height="220"/></clipPath></g><g class="gradients"/></defs><g class="bglayer"><rect class="bg" x="80" y="100" width="240" height="220" style="fill: rgb(229, 236, 246); fill-opacity: 1; stroke-width: 0;"/></g><g class="layer-below"><g class="imagelayer"/><g class="shapelayer"/></g><g class="cartesianlayer"><g class="subplot xy"><g class="layer-subplot"><g class="shapelayer"/><g class="imagelayer"/></g><g class="gridlayer"><g class="x"><path class="xgrid crisp" transform="translate(200,0)" d="M0,100v220" style="stroke: rgb(255, 255, 255); stroke-opacity: 1; stroke-width: 1px;"/><path class="xgrid crisp" transform="translate(318,0)" d="M0,100v220" style="stroke: rgb(255, 255, 255); stroke-opacity: 1; stroke-width: 1px;"/></g><g class="y"><path class="ygrid crisp" transform="translate(0,278.95)" d="M80,0h240" style="stroke: rgb(255, 255, 255); stroke-opacity: 1; stroke-width: 1px;"/><path class="ygrid crisp" transform="translate(0,212.65)" d="M80,0h240" style="stroke: rgb(255, 255, 255); stroke-opacity: 1; stroke-width: 1px;"/><path class="ygrid crisp" transform="translate(0,146.36)" d="M80,0h240" style="stroke: rgb(255, 255, 255); stroke-opacity: 1; stroke-width: 1px;"/></g></g><g class="zerolinelayer"><path class="xzl zl crisp" transform="translate(82,0)" d="M0,100v220" style="stroke: rgb(255, 255, 255); stroke-opacity: 1; stroke-width: 2px;"/></g><path class="xlines-below"/><path class="ylines-below"/><g class="overlines-below"/><g class="xaxislayer-below"/><g class="yaxislayer-below"/><g class="overaxes-below"/><g class="plot" transform="translate(80, 100)" clip-path="url('#clip969491xyplot')"><g class="scatterlayer mlayer"><g class="trace scatter trace34f7cc" style="stroke-miterlimit: 2; opacity: 1;"><g class="fills"/><g class="errorbars"/><g class="lines"><path class="js-line" d="M2,194.86L2.47,209L2.71,201.93L2.94,194.86L4.83,46.36L5.07,46.36L6.01,49.89L6.25,42.82L7.43,71.11L7.66,67.57L7.9,60.5L8.14,64.04L8.37,71.11L10.02,42.82L10.26,49.89L10.73,39.29L10.97,56.96L11.91,39.29L12.15,46.36L12.38,46.36L12.62,39.29L13.09,42.82L13.33,39.29L13.56,39.29L13.8,35.75L14.04,42.82L14.27,42.82L15.45,32.21L15.69,35.75L16.63,39.29L16.87,35.75L17.1,32.21L17.58,35.75L17.81,39.29L18.99,32.21L19.23,42.82L20.17,35.75L20.41,39.29L20.64,25.14L21.12,39.29L21.35,42.82L21.82,28.68L22.3,35.75L22.53,39.29L22.77,42.82L23,35.75L23.24,35.75L24.42,42.82L24.66,35.75L24.89,35.75L25.13,46.36L25.84,46.36L26.07,39.29L26.54,42.82L27.02,35.75L27.25,35.75L27.72,42.82L27.96,32.21L28.43,46.36L28.67,35.75L28.9,32.21L29.85,39.29L30.08,35.75L31.03,46.36L31.26,42.82L31.5,39.29L31.74,39.29L31.97,28.68L32.44,46.36L32.68,39.29L32.92,28.68L33.15,25.14L33.39,32.21L33.62,35.75L34.1,39.29L34.33,28.68L35.28,35.75L35.51,35.75L36.22,35.75L36.46,28.68L37.4,39.29L37.64,28.68L38.58,39.29L38.82,25.14L39.05,35.75L39.52,32.21L39.76,32.21L40,28.68L40.23,32.21L40.47,35.75L40.7,35.75L40.94,28.68L41.18,28.68L41.41,25.14L41.88,39.29L42.12,35.75L42.36,32.21L42.59,35.75L42.83,28.68L43.06,28.68L43.3,28.68L43.54,39.29L44.48,28.68L44.72,32.21L44.95,32.21L45.66,25.14L45.9,28.68L46.13,28.68L46.37,21.61L47.31,35.75L47.55,35.75L48.96,25.14L49.2,32.21L50.14,28.68L50.38,32.21L50.62,32.21L50.85,28.68L51.8,32.21L52.03,28.68L52.27,25.14L52.5,32.21L52.74,32.21L52.98,35.75L53.21,25.14L54.16,32.21L54.39,35.75L55.57,18.07L55.81,28.68L56.28,28.68L56.52,21.61L56.75,21.61L56.99,28.68L57.22,18.07L57.46,28.68L57.7,32.21L57.93,35.75L58.17,21.61L58.4,18.07L58.64,28.68L59.11,28.68L59.35,32.21L60.53,18.07L60.76,28.68L61,18.07L61.24,35.75L61.47,39.29L61.94,14.54L62.42,18.07L62.65,25.14L62.89,21.61L63.12,28.68L63.36,35.75L64.3,25.14L64.54,32.21L64.78,18.07L65.25,21.61L65.48,35.75L66.43,18.07L66.66,28.68L67.14,32.21L67.37,18.07L67.61,25.14L67.84,18.07L68.08,28.68L68.32,25.14L68.55,35.75L69.5,18.07L69.97,21.61L70.2,25.14L70.44,11L70.68,25.14L70.91,35.75L71.38,25.14L71.62,35.75L72.09,21.61L72.33,28.68L72.56,32.21L72.8,18.07L73.27,25.14L73.51,25.14L73.74,21.61L73.98,28.68L74.22,25.14L74.45,25.14L74.92,39.29L75.16,35.75L75.4,28.68L75.63,28.68L75.87,25.14L76.81,18.07L77.05,32.21L77.28,53.43L77.52,28.68L77.76,25.14L78.23,25.14L78.46,21.61L78.7,35.75L79.17,21.61L79.41,21.61L79.64,18.07L79.88,28.68L80.82,18.07L81.06,28.68L81.3,32.21L81.53,21.61L81.77,18.07L82,25.14L82.24,32.21L82.71,28.68L82.95,39.29L83.66,18.07L83.89,32.21L84.13,18.07L84.36,35.75L84.6,28.68L84.84,28.68L85.07,28.68L85.31,14.54L86.49,39.29L86.72,32.21L87.43,18.07L87.67,32.21L87.9,18.07L88.38,32.21L88.61,21.61L88.85,18.07L89.08,21.61L89.32,32.21L89.79,35.75L90.03,18.07L90.26,32.21L91.21,28.68L91.44,35.75L91.68,39.29L91.92,32.21L92.15,25.14L92.86,28.68L93.1,25.14L93.57,28.68L93.8,25.14L94.04,21.61L94.51,39.29L94.75,28.68L94.98,25.14L95.22,32.21L95.69,28.68L95.93,21.61L96.16,32.21L96.4,18.07L96.64,18.07L97.34,32.21L97.58,21.61L98.29,39.29L98.52,14.54L99.47,25.14L99.7,32.21L100.41,39.29L100.65,14.54L100.88,11L101.12,39.29L102.06,21.61L102.3,28.68L102.77,35.75L103.01,18.07L103.95,35.75L104.19,25.14L105.13,35.75L105.37,32.21L105.6,35.75L106.08,32.21L106.31,21.61L106.55,42.82L107.02,39.29L107.26,32.21L107.49,32.21L107.73,25.14L108.44,35.75L108.67,28.68L108.91,42.82L109.38,32.21L109.62,39.29L109.85,18.07L110.32,32.21L110.56,28.68L110.8,28.68L111.03,32.21L111.27,39.29L111.5,25.14L111.74,21.61L112.45,39.29L112.68,35.75L112.92,25.14L113.39,42.82L113.63,32.21L114.34,42.82L114.57,28.68L115.75,35.75L115.99,32.21L116.22,32.21L116.46,21.61L116.7,21.61L116.93,28.68L117.17,25.14L117.4,32.21L117.64,32.21L117.88,32.21L118.11,39.29L119.29,32.21L119.53,42.82L120.47,25.14L120.71,32.21L120.94,49.89L121.18,32.21L121.42,25.14L122.12,46.36L122.36,35.75L122.83,35.75L123.07,32.21L123.3,28.68L123.54,42.82L123.78,46.36L124.01,35.75L124.25,35.75L124.48,32.21L125.19,28.68L125.43,32.21L125.66,42.82L126.14,35.75L126.37,28.68L126.61,25.14L126.84,39.29L127.08,21.61L127.55,35.75L127.79,28.68L128.73,35.75L128.97,28.68L129.68,35.75L129.91,32.21L130.62,28.68L130.86,35.75L131.09,35.75L131.33,21.61L132.27,35.75L132.51,28.68L132.74,35.75L133.22,28.68L133.45,25.14L133.92,42.82L134.16,25.14L134.4,28.68L134.63,28.68L134.87,35.75L135.1,21.61L135.58,25.14L135.81,35.75L136.05,25.14L136.52,35.75L136.76,35.75L137.23,32.21L137.46,42.82L137.7,35.75L137.94,32.21L138.17,35.75L138.41,39.29L138.64,42.82L138.88,32.21L139.12,39.29L139.35,35.75L139.59,28.68L139.82,21.61L140.06,32.21L140.3,32.21L140.77,39.29L141,32.21L141.24,32.21L141.48,28.68L141.71,46.36L141.95,28.68L142.42,32.21L142.66,39.29L142.89,32.21L143.36,39.29L143.6,49.89L144.31,25.14L144.54,39.29L144.78,35.75L145.02,42.82L145.25,46.36L145.72,28.68L146.2,32.21L146.43,39.29L146.67,39.29L146.9,35.75L147.38,32.21L147.61,39.29L147.85,39.29L148.08,42.82L148.56,46.36L148.79,28.68L149.03,35.75L149.5,28.68L149.74,32.21L149.97,35.75L150.44,25.14L150.68,35.75L150.92,32.21L151.15,28.68L151.39,39.29L151.62,39.29L151.86,32.21L152.1,39.29L152.33,28.68L152.57,28.68L152.8,28.68L153.04,32.21L153.51,18.07L153.75,25.14L153.98,39.29L154.22,18.07L154.69,32.21L154.93,28.68L155.64,42.82L155.87,32.21L156.11,32.21L156.34,42.82L156.82,28.68L157.05,46.36L158,28.68L158.23,39.29L159.18,25.14L159.41,32.21L159.65,21.61L159.88,39.29L160.12,35.75L160.36,32.21L160.59,39.29L160.83,14.54L161.54,35.75L161.77,21.61L162.01,42.82L162.72,39.29L162.95,35.75L163.42,39.29L163.66,28.68L163.9,28.68L164.13,25.14L164.6,46.36L164.84,35.75L165.08,35.75L165.31,42.82L165.55,18.07L166.02,35.75L166.26,64.04L166.73,18.07L167.2,28.68L167.44,39.29L167.91,25.14L168.14,32.21L168.38,28.68L168.85,42.82L169.09,25.14L169.56,39.29L169.8,32.21L170.03,32.21L170.74,46.36L170.98,18.07L171.92,35.75L172.16,35.75L172.63,39.29L172.86,32.21L173.1,25.14L173.34,42.82L173.81,25.14L174.04,39.29L174.28,32.21L174.99,42.82L175.22,35.75L175.46,39.29L175.7,25.14L176.17,39.29L176.64,32.21L176.88,21.61L177.11,25.14L177.35,46.36L177.58,46.36L177.82,25.14L178.06,46.36L178.53,28.68L178.76,32.21L179,21.61L179.24,46.36L180.18,25.14L180.42,28.68L180.65,42.82L180.89,25.14L181.12,28.68L181.36,14.54L181.83,39.29L182.3,32.21L182.54,28.68L183.01,25.14L183.48,39.29L183.72,25.14L183.96,46.36L184.43,25.14L184.66,39.29L185.61,21.61L185.84,28.68L186.08,46.36L186.55,35.75L186.79,32.21L187.02,28.68L187.26,39.29L188.2,18.07L188.44,39.29L189.15,28.68L189.38,14.54L190.09,35.75L190.33,32.21L190.56,21.61L191.04,32.21L191.27,28.68L191.51,28.68L191.74,35.75L192.22,42.82L192.45,25.14L192.69,35.75L193.16,28.68L193.4,25.14L193.63,42.82L194.1,28.68L194.34,21.61L194.58,35.75L195.05,32.21L195.28,28.68L195.76,35.75L195.99,21.61L196.7,39.29L196.94,35.75L197.17,39.29L197.41,32.21L197.64,35.75L197.88,25.14L198.12,14.54L198.35,39.29L199.06,21.61L199.3,32.21L199.53,32.21L199.77,35.75L200.24,18.07L200.48,42.82L201.18,18.07L201.42,32.21L201.66,35.75L202.36,28.68L202.6,35.75L203.31,21.61L203.54,28.68L203.78,32.21L204.49,32.21L204.72,28.68L205.2,32.21L205.43,21.61L205.67,28.68L205.9,21.61L206.38,28.68L206.61,35.75L207.32,25.14L207.56,39.29L208.74,25.14L208.97,35.75L209.21,25.14L209.44,28.68L209.68,39.29L210.15,21.61L210.39,35.75L210.62,32.21L210.86,35.75L211.1,32.21L211.33,25.14L212.51,32.21L212.75,28.68L213.69,39.29L213.93,28.68L214.16,39.29L214.4,32.21L214.64,25.14L214.87,21.61L215.34,25.14L215.58,25.14L215.82,42.82L216.29,25.14L216.52,21.61L216.76,14.54L217,32.21L217.23,39.29L217.47,28.68L217.7,35.75L217.94,18.07L218.18,39.29L218.65,25.14L218.88,28.68L219.12,35.75L219.59,32.21L219.83,21.61L220.3,18.07L220.54,32.21L221.01,28.68L221.48,35.75L221.72,35.75L222.66,32.21L222.9,14.54L223.84,35.75L224.08,28.68L224.31,32.21L225.26,28.68L225.49,35.75L225.73,39.29L225.96,32.21L226.2,28.68L226.44,25.14L226.67,42.82L227.62,25.14L227.85,49.89L228.56,18.07L228.8,32.21L229.03,35.75L230.21,21.61L230.45,28.68L230.68,28.68L230.92,18.07L231.86,39.29L232.1,25.14L232.34,18.07L232.57,25.14L232.81,28.68L233.04,25.14L233.28,39.29L233.52,39.29L233.75,35.75L234.46,21.61L234.7,39.29L235.64,25.14L235.88,21.61L236.82,28.68L237.06,25.14L237.29,25.14L237.53,32.21L237.76,35.75" style="vector-effect: non-scaling-stroke; fill: none; stroke: rgb(99, 110, 250); stroke-opacity: 1; stroke-width: 2px; opacity: 1;"/></g><g class="points"/><g class="text"/></g></g></g><g class="overplot"/><path class="xlines-above crisp" d="M0,0" style="fill: none;"/><path class="ylines-above crisp" d="M0,0" style="fill: none;"/><g class="overlines-above"/><g class="xaxislayer-above"><g class="xtick"><text text-anchor="middle" x="0" y="333" transform="translate(82,0)" style="font-family: 'Open Sans', verdana, arial, sans-serif; font-size: 12px; fill: rgb(42, 63, 95); fill-opacity: 1; white-space: pre;">0</text></g><g class="xtick"><text text-anchor="middle" x="0" y="333" transform="translate(200,0)" style="font-family: 'Open Sans', verdana, arial, sans-serif; font-size: 12px; fill: rgb(42, 63, 95); fill-opacity: 1; white-space: pre;">500</text></g><g class="xtick"><text text-anchor="middle" x="0" y="333" transform="translate(318,0)" style="font-family: 'Open Sans', verdana, arial, sans-serif; font-size: 12px; fill: rgb(42, 63, 95); fill-opacity: 1; white-space: pre;">1000</text></g></g><g class="yaxislayer-above"><g class="ytick"><text text-anchor="end" x="79" y="4.199999999999999" transform="translate(0,278.95)" style="font-family: 'Open Sans', verdana, arial, sans-serif; font-size: 12px; fill: rgb(42, 63, 95); fill-opacity: 1; white-space: pre;">0.5</text></g><g class="ytick"><text text-anchor="end" x="79" y="4.199999999999999" transform="translate(0,212.65)" style="font-family: 'Open Sans', verdana, arial, sans-serif; font-size: 12px; fill: rgb(42, 63, 95); fill-opacity: 1; white-space: pre;">0.55</text></g><g class="ytick"><text text-anchor="end" x="79" y="4.199999999999999" transform="translate(0,146.36)" style="font-family: 'Open Sans', verdana, arial, sans-serif; font-size: 12px; fill: rgb(42, 63, 95); fill-opacity: 1; white-space: pre;">0.6</text></g></g><g class="overaxes-above"/></g></g><g class="polarlayer"/><g class="ternarylayer"/><g class="geolayer"/><g class="funnelarealayer"/><g class="pielayer"/><g class="treemaplayer"/><g class="sunburstlayer"/><g class="glimages"/><defs id="topdefs-969491"><g class="clips"/></defs><g class="layer-above"><g class="imagelayer"/><g class="shapelayer"><path data-index="0" fill-rule="evenodd" d="M82,284.25L318,284.25" clip-path="url('#clip969491xy')" style="opacity: 1; stroke: rgb(32, 178, 170); stroke-opacity: 1; fill: rgb(0, 0, 0); fill-opacity: 0; stroke-dasharray: 12px, 4px, 4px, 4px; stroke-width: 4px;"/></g></g><g class="infolayer"><g class="g-gtitle"><text class="gtitle" x="20" y="50" text-anchor="start" dy="0em" style="font-family: 'Open Sans', verdana, arial, sans-serif; font-size: 17px; fill: rgb(42, 63, 95); opacity: 1; font-weight: normal; white-space: pre;">Training Accuracy, Boeing Co</text></g><g class="g-xtitle"><text class="xtitle" x="200" y="360.890625" text-anchor="middle" style="font-family: 'Open Sans', verdana, arial, sans-serif; font-size: 15px; fill: rgb(42, 63, 95); opacity: 1; font-weight: normal; white-space: pre;">Epoch</text></g><g class="g-ytitle"><text class="ytitle" transform="rotate(-90,26.234375,210)" x="26.234375" y="210" text-anchor="middle" style="font-family: 'Open Sans', verdana, arial, sans-serif; font-size: 15px; fill: rgb(42, 63, 95); opacity: 1; font-weight: normal; white-space: pre;">Accuracy</text></g></g></svg>