<svg class="main-svg" xmlns="http://www.w3.org/2000/svg" xmlns:xlink="http://www.w3.org/1999/xlink" width="700" height="500" viewBox="0 0 700 500"><rect x="0" y="0" width="700" height="500" style="fill: rgb(255, 255, 255); fill-opacity: 1;"/><defs id="defs-3782e7"><g class="clips"><clipPath id="clip3782e7xyplot" class="plotclip"><rect width="467" height="309"/></clipPath><clipPath class="axesclip" id="clip3782e7x"><rect x="80" y="0" width="467" height="500"/></clipPath><clipPath class="axesclip" id="clip3782e7y"><rect x="0" y="100" width="700" height="309"/></clipPath><clipPath class="axesclip" id="clip3782e7xy"><rect x="80" y="100" width="467" height="309"/></clipPath></g><g class="gradients"/></defs><g class="bglayer"><rect class="bg" x="80" y="100" width="467" height="309" style="fill: rgb(229, 236, 246); fill-opacity: 1; stroke-width: 0;"/></g><g class="layer-below"><g class="imagelayer"/><g class="shapelayer"/></g><g class="cartesianlayer"><g class="subplot xy"><g class="layer-subplot"><g class="shapelayer"/><g class="imagelayer"/></g><g class="gridlayer"><g class="x"><path class="xgrid crisp" transform="translate(94.88,0)" d="M0,100v309" style="stroke: rgb(255, 255, 255); stroke-opacity: 1; stroke-width: 1px;"/><path class="xgrid crisp" transform="translate(109.77,0)" d="M0,100v309" style="stroke: rgb(255, 255, 255); stroke-opacity: 1; stroke-width: 1px;"/><path class="xgrid crisp" transform="translate(124.65,0)" d="M0,100v309" style="stroke: rgb(255, 255, 255); stroke-opacity: 1; stroke-width: 1px;"/><path class="xgrid crisp" transform="translate(139.54,0)" d="M0,100v309" style="stroke: rgb(255, 255, 255); stroke-opacity: 1; stroke-width: 1px;"/><path class="xgrid crisp" transform="translate(154.42000000000002,0)" d="M0,100v309" style="stroke: rgb(255, 255, 255); stroke-opacity: 1; stroke-width: 1px;"/><path class="xgrid crisp" transform="translate(169.31,0)" d="M0,100v309" style="stroke: rgb(255, 255, 255); stroke-opacity: 1; stroke-width: 1px;"/><path class="xgrid crisp" transform="translate(184.19,0)" d="M0,100v309" style="stroke: rgb(255, 255, 255); stroke-opacity: 1; stroke-width: 1px;"/><path class="xgrid crisp" transform="translate(199.07999999999998,0)" d="M0,100v309" style="stroke: rgb(255, 255, 255); stroke-opacity: 1; stroke-width: 1px;"/><path class="xgrid crisp" transform="translate(213.96,0)" d="M0,100v309" style="stroke: rgb(255, 255, 255); stroke-opacity: 1; stroke-width: 1px;"/><path class="xgrid crisp" transform="translate(228.84,0)" d="M0,100v309" style="stroke: rgb(255, 255, 255); stroke-opacity: 1; stroke-width: 1px;"/><path class="xgrid crisp" transform="translate(243.73,0)" d="M0,100v309" style="stroke: rgb(255, 255, 255); stroke-opacity: 1; stroke-width: 1px;"/><path class="xgrid crisp" transform="translate(258.61,0)" d="M0,100v309" style="stroke: rgb(255, 255, 255); stroke-opacity: 1; stroke-width: 1px;"/><path class="xgrid crisp" transform="translate(273.5,0)" d="M0,100v309" style="stroke: rgb(255, 255, 255); stroke-opacity: 1; stroke-width: 1px;"/><path class="xgrid crisp" transform="translate(288.38,0)" d="M0,100v309" style="stroke: rgb(255, 255, 255); stroke-opacity: 1; stroke-width: 1px;"/><path class="xgrid crisp" transform="translate(303.27,0)" d="M0,100v309" style="stroke: rgb(255, 255, 255); stroke-opacity: 1; stroke-width: 1px;"/><path class="xgrid crisp" transform="translate(318.15,0)" d="M0,100v309" style="stroke: rgb(255, 255, 255); stroke-opacity: 1; stroke-width: 1px;"/><path class="xgrid crisp" transform="translate(333.03999999999996,0)" d="M0,100v309" style="stroke: rgb(255, 255, 255); stroke-opacity: 1; stroke-width: 1px;"/><path class="xgrid crisp" transform="translate(347.92,0)" d="M0,100v309" style="stroke: rgb(255, 255, 255); stroke-opacity: 1; stroke-width: 1px;"/><path class="xgrid crisp" transform="translate(362.8,0)" d="M0,100v309" style="stroke: rgb(255, 255, 255); stroke-opacity: 1; stroke-width: 1px;"/><path class="xgrid crisp" transform="translate(377.69,0)" d="M0,100v309" style="stroke: rgb(255, 255, 255); stroke-opacity: 1; stroke-width: 1px;"/><path class="xgrid crisp" transform="translate(392.57,0)" d="M0,100v309" style="stroke: rgb(255, 255, 255); stroke-opacity: 1; stroke-width: 1px;"/><path class="xgrid crisp" transform="translate(407.46,0)" d="M0,100v309" style="stroke: rgb(255, 255, 255); stroke-opacity: 1; stroke-width: 1px;"/><path class="xgrid crisp" transform="translate(422.34,0)" d="M0,100v309" style="stroke: rgb(255, 255, 255); stroke-opacity: 1; stroke-width: 1px;"/><path class="xgrid crisp" transform="translate(437.23,0)" d="M0,100v309" style="stroke: rgb(255, 255, 255); stroke-opacity: 1; stroke-width: 1px;"/><path class="xgrid crisp" transform="translate(452.11,0)" d="M0,100v309" style="stroke: rgb(255, 255, 255); stroke-opacity: 1; stroke-width: 1px;"/><path class="xgrid crisp" transform="translate(467,0)" d="M0,100v309" style="stroke: rgb(255, 255, 255); stroke-opacity: 1; stroke-width: 1px;"/><path class="xgrid crisp" transform="translate(481.88,0)" d="M0,100v309" style="stroke: rgb(255, 255, 255); stroke-opacity: 1; stroke-width: 1px;"/><path class="xgrid crisp" transform="translate(496.76,0)" d="M0,100v309" style="stroke: rgb(255, 255, 255); stroke-opacity: 1; stroke-width: 1px;"/><path class="xgrid crisp" transform="translate(511.65,0)" d="M0,100v309" style="stroke: rgb(255, 255, 255); stroke-opacity: 1; stroke-width: 1px;"/><path class="xgrid crisp" transform="translate(526.53,0)" d="M0,100v309" style="stroke: rgb(255, 255, 255); stroke-opacity: 1; stroke-width: 1px;"/><path class="xgrid crisp" transform="translate(541.4200000000001,0)" d="M0,100v309" style="stroke: rgb(255, 255, 255); stroke-opacity: 1; stroke-width: 1px;"/></g><g class="y"><path class="ygrid crisp" transform="translate(0,407.62)" d="M80,0h467" style="stroke: rgb(255, 255, 255); stroke-opacity: 1; stroke-width: 1px;"/><path class="ygrid crisp" transform="translate(0,370.89)" d="M80,0h467" style="stroke: rgb(255, 255, 255); stroke-opacity: 1; stroke-width: 1px;"/><path class="ygrid crisp" transform="translate(0,334.15999999999997)" d="M80,0h467" style="stroke: rgb(255, 255, 255); stroke-opacity: 1; stroke-width: 1px;"/><path class="ygrid crisp" transform="translate(0,297.43)" d="M80,0h467" style="stroke: rgb(255, 255, 255); stroke-opacity: 1; stroke-width: 1px;"/><path class="ygrid crisp" transform="translate(0,260.71000000000004)" d="M80,0h467" style="stroke: rgb(255, 255, 255); stroke-opacity: 1; stroke-width: 1px;"/><path class="ygrid crisp" transform="translate(0,223.98000000000002)" d="M80,0h467" style="stroke: rgb(255, 255, 255); stroke-opacity: 1; stroke-width: 1px;"/><path class="ygrid crisp" transform="translate(0,187.25)" d="M80,0h467" style="stroke: rgb(255, 255, 255); stroke-opacity: 1; stroke-width: 1px;"/><path class="ygrid crisp" transform="translate(0,150.52)" d="M80,0h467" style="stroke: rgb(255, 255, 255); stroke-opacity: 1; stroke-width: 1px;"/><path class="ygrid crisp" transform="translate(0,113.8)" d="M80,0h467" style="stroke: rgb(255, 255, 255); stroke-opacity: 1; stroke-width: 1px;"/></g></g><g class="zerolinelayer"/><path class="xlines-below"/><path class="ylines-below"/><g class="overlines-below"/><g class="xaxislayer-below"/><g class="yaxislayer-below"/><g class="overaxes-below"/><g class="plot" transform="translate(80, 100)" clip-path="url('#clip3782e7xyplot')"><g class="scatterlayer mlayer"><g class="trace scatter trace60b441" style="stroke-miterlimit: 2; opacity: 1;"><g class="fills"/><g class="errorbars"/><g class="lines"><path class="js-line" d="M0,284.44L0.93,283.71L1.86,279.48L3.72,276.1L4.65,275.55L6.51,277.76L7.44,271.7L8.37,267.99L9.3,269.86L10.23,268.43L11.16,268.65L13.95,258.29L14.88,258.99L16.75,250.87L17.68,257.45L19.54,248.6L20.47,256.31L21.4,258.99L22.33,265.45L23.26,264.39L24.19,271.33L25.12,274.82L26.05,271.7L26.98,270.89L27.91,267.25L29.77,258.03L30.7,259.65L31.63,258.55L32.56,260.86L35.35,249.44L36.28,249.92L38.14,259.32L39.07,255.21L40,254.4L40.93,256.42L43.72,244.41L44.65,244.3L46.51,254.07L47.44,251.13L48.37,256.57L49.3,257.04L50.24,256.01L51.17,264.46L52.1,269.2L53.03,256.2L53.96,252.01L54.89,266.37L55.82,262.48L56.75,267.66L57.68,270.71L58.61,260.75L59.54,259.61L60.47,261.85L62.33,258.84L63.26,258.81L64.19,255.61L65.12,255.54L66.05,253.77L66.98,246.87L68.84,244.92L69.77,248.45L71.63,247.13L72.56,258.77L74.42,241.87L75.35,247.38L76.28,251.46L77.21,251.9L78.14,252.78L79.07,251.17L80,246.25L80.93,248.27L82.79,241.69L83.73,241.98L84.66,238.97L85.59,242.06L86.52,243.71L87.45,243.2L88.38,245.44L89.31,241.47L90.24,240.88L91.17,238.83L93.03,237.91L93.96,238.28L94.89,236.92L95.82,234.2L98.61,225.6L99.54,224.61L100.47,224.28L101.4,227L103.26,228.84L104.19,226.78L105.12,226.71L106.05,228.54L107.91,230.49L108.84,224.91L109.77,225.13L110.7,231.33L111.63,233.76L112.56,233.87L113.49,234.09L114.42,237.43L116.28,233.94L117.22,231.85L118.15,234.46L119.08,228.91L120.94,224.94L121.87,225.57L123.73,213.59L124.66,212.79L125.59,210.29L126.52,211.94L127.45,214.66L128.38,204.05L129.31,204.27L130.24,201.77L131.17,193.21L132.1,193.76L133.03,196.77L133.96,206.51L135.82,210.47L136.75,204.45L137.68,204.6L138.61,203.24L141.4,196.85L142.33,198.57L143.26,198.98L144.19,198.35L146.98,205.15L147.91,205.15L148.84,207.17L149.77,207.2L153.5,195.6L154.43,189.98L156.29,187.22L157.22,190.24L158.15,192.22L159.08,201.14L160.01,202.14L160.94,198.76L161.87,191.59L162.8,190.64L163.73,183.74L164.66,183.74L166.52,183.85L167.45,185.24L168.38,183.48L169.31,178.01L170.24,179.44L171.17,178.7L173.03,179.4L173.96,180.65L174.89,176.57L175.82,175.99L176.75,174.74L177.68,179.95L179.54,189.98L180.47,186.12L182.33,201.36L183.26,192.88L184.2,199.34L185.13,192.26L186.06,190.79L186.99,195.49L187.92,194.28L188.85,195.45L190.71,202.98L191.64,200.12L192.57,202.03L193.5,202.21L194.43,218.08L195.36,204.27L196.29,207.28L197.22,207.28L198.15,205.73L199.08,201.69L200.01,189.21L200.94,189.32L201.87,192.11L202.8,197.58L204.66,203.82L205.59,205.51L206.52,201.55L207.45,202.72L208.38,223.25L209.31,217.89L210.24,220.17L211.17,209.81L212.1,207.24L213.03,192.55L214.89,193.87L215.82,184.87L216.75,187.74L217.69,200.23L218.62,199.45L219.55,204.85L220.48,193.95L221.41,192.77L222.34,194.24L223.27,200.15L225.13,217.6L226.06,208.89L227.92,223.14L228.85,241.62L229.78,231.63L230.71,229.79L231.64,225.31L232.57,225.35L233.5,227.73L234.43,233.46L236.29,222.15L237.22,219.58L238.15,216.24L239.08,220.39L240.94,223.62L241.87,215.61L244.66,205.15L245.59,208.09L247.45,208.45L248.38,205.22L250.25,215.91L251.18,210.73L253.04,219.1L253.97,212.86L254.9,207.46L255.83,208.45L256.76,213.63L257.69,212.93L260.48,205.59L261.41,207.39L263.27,202.36L264.2,205L267.92,185.53L268.85,188.77L270.71,186.34L271.64,185.5L272.57,188.66L273.5,187.66L275.36,194.83L276.29,186.6L278.15,179.07L279.08,178.34L280.01,170.81L280.94,169.48L282.8,165.3L283.74,157.7L285.6,168.02L286.53,165.44L288.39,169.59L289.32,166.88L292.11,159.13L293.04,159.86L293.97,159.86L294.9,160.63L295.83,162.4L296.76,159.42L299.55,154.9L300.48,154.65L301.41,153.91L302.34,147.78L303.27,146.02L304.2,140.21L305.13,139.22L306.06,118.95L307.92,123.32L308.85,121.41L309.78,121.59L310.71,131.33L311.64,126.07L312.57,129.27L314.43,137.31L315.36,139.44L316.29,131.58L317.23,140.32L318.16,139.11L319.09,136.06L320.95,122.29L321.88,132.83L322.81,133.05L323.74,130.44L324.67,137.61L325.6,133.46L326.53,131.33L327.46,140.91L328.39,139.55L329.32,143.74L330.25,144.66L331.18,148.66L334.9,108.99L335.83,108.41L336.76,116.74L337.69,112.96L338.62,110.06L339.55,110.28L342.34,95.85L343.27,95.59L344.2,93.13L345.13,96.1L346.99,106.68L347.92,107.08L348.85,99.37L349.78,99.78L350.72,95.55L351.65,97.06L353.51,98.38L354.44,92.47L355.37,90.12L356.3,90.45L357.23,88.94L358.16,90.74L360.02,99.67L360.95,84.79L361.88,90.23L362.81,87.29L363.74,84.53L364.67,85.01L365.6,81.08L366.53,81.71L367.46,82.77L368.39,85.45L369.32,83.8L370.25,93.42L371.18,109.55L372.11,103.12L373.04,103.23L373.97,90.96L374.9,89.53L375.83,95.11L376.76,91.66L377.69,98.56L378.62,107.16L379.55,100.25L380.48,92.58L381.41,91.99L382.34,89.13L383.27,90.19L384.21,93.31L385.14,103.56L386.07,99.3L387,102.82L388.86,90.26L389.79,97.54L390.72,95.74L391.65,85.86L393.51,88.17L394.44,98.67L395.37,100.95L396.3,93.06L397.23,94.38L398.16,99.37L400.02,92.14L400.95,78.55L401.88,81.19L402.81,88.61L403.74,84.72L404.67,87.4L406.53,85.93L407.46,90.12L408.39,86.33L409.32,100.58L410.25,99.19L411.18,93.68L412.11,93.94L413.04,95.48L415.83,83.47L416.76,86.19L417.7,80.68L418.63,83.62L419.56,82.04L420.49,87.25L421.42,92.76L422.35,87.22L423.28,96.62L424.21,85.71L425.14,83.07L426.07,66.43L427,70.72L427.93,68.89L428.86,69.15L429.79,71.02L430.72,68.89L431.65,68.81L432.58,70.65L433.51,69.33L436.3,59.45L437.23,59.85L440.95,45.64L441.88,47.44L442.81,51.26L443.74,49.42L445.6,41.64L446.53,41.34L447.46,42.08L448.39,43.8L449.32,52.62L450.25,49.86L451.19,49.35L452.12,43.66L453.05,42.41L453.98,43.58L454.91,43.66L455.84,37.89L457.7,28.86L458.63,29.55L459.56,30.4L460.49,29.33L461.42,19.34L462.35,20.7L463.28,22.21L464.21,18.46L465.14,15.45L466.07,17.4L467,21.99" style="vector-effect: non-scaling-stroke; fill: none; stroke: rgb(0, 191, 255); stroke-opacity: 1; stroke-width: 2px; opacity: 1;"/></g><g class="points"/><g class="text"/></g><g class="trace scatter trace82ccb2" style="stroke-miterlimit: 2; opacity: 1;"><g class="fills"/><g class="errorbars"/><g class="lines"><path class="js-line" d="M0,287.42L1.86,283.49L2.79,280.33L4.65,278.75L5.58,280.4L6.51,281.03L7.44,276.58L8.37,278.2L9.3,275.48L10.23,272.14L11.16,272.14L12.09,271.84L13.02,265.23L13.95,265.09L14.88,263.8L16.75,257.23L17.68,263.18L18.61,258L19.54,257.74L21.4,278.23L22.33,288.33L23.26,273.83L24.19,290.13L25.12,293.55L26.05,278.49L26.98,278.97L27.91,276.73L29.77,264.28L30.7,267.18L31.63,265.42L32.56,265.89L33.49,262.22L34.42,255.28L35.35,255.46L36.28,257.56L38.14,267.73L39.07,262.59L40,260.09L40.93,261.96L43.72,248.71L44.65,256.31L46.51,260.5L47.44,256.49L48.37,263.14L49.3,259.87L50.24,262.77L51.17,272.14L52.1,281.61L53.03,269.42L53.96,276.36L54.89,275.04L56.75,280.03L57.68,278.64L58.61,279.23L59.54,265.75L60.47,272.8L61.4,268.61L62.33,264.87L63.26,265.45L64.19,261.96L65.12,261.93L67.91,250.62L68.84,251.28L69.77,256.01L70.7,253.88L72.56,269.86L73.49,259.5L74.42,256.53L75.35,259.32L76.28,260.64L77.21,259.17L78.14,261.89L79.07,260.16L80,252.16L80.93,252.31L81.86,252.34L82.79,245L83.73,245.03L84.66,244.04L85.59,247.6L86.52,246.58L87.45,249.48L88.38,248.82L90.24,244.45L91.17,247.68L92.1,245.88L93.03,242.02L93.96,244.34L94.89,241.84L96.75,237.21L97.68,231.04L99.54,227.18L100.47,232.77L103.26,231.41L104.19,232.11L105.12,230.49L106.05,233.9L106.98,236.29L107.91,236L108.84,230.05L109.77,230.93L110.7,235.52L111.63,244.08L112.56,238.75L113.49,243.71L114.42,244.23L115.35,240.3L116.28,241.51L117.22,238.05L118.15,237.72L119.08,235.37L120.94,227.33L121.87,230.12L123.73,219.14L124.66,217.56L125.59,218.3L126.52,216.83L127.45,219.87L128.38,211.83L129.31,211.65L130.24,207.5L131.17,206.25L132.1,199.27L133.96,216.68L134.89,214.4L135.82,214.26L136.75,216.39L138.61,206.4L139.54,204.16L141.4,198.9L142.33,203.38L144.19,204.63L145.12,209.11L146.05,207.35L146.98,209.59L147.91,210.36L148.84,212.68L149.77,212.93L150.71,208.93L152.57,202.91L153.5,198.21L154.43,196.44L155.36,192.15L156.29,191.85L157.22,196.63L159.08,206.58L160.01,207.61L162.8,195.56L163.73,189.65L164.66,188.47L165.59,190.6L166.52,191.12L167.45,193.61L169.31,184.54L170.24,189.28L171.17,183.66L172.1,183.7L173.03,182.01L173.96,183.92L174.89,180.06L175.82,181.13L176.75,179.33L177.68,191.45L179.54,199.86L180.47,194.5L182.33,218.74L183.26,208.01L184.2,208.64L185.13,201.29L186.06,199.09L186.99,205.4L188.85,203.9L189.78,215.39L190.71,228.32L191.64,211.57L192.57,216.68L193.5,228.18L194.43,233.76L195.36,214.37L196.29,213.85L197.22,215.87L199.08,211.1L200.01,199.64L200.94,194.09L201.87,201.99L202.8,211.76L203.73,209.77L205.59,219.8L206.52,209.19L208.38,236.55L209.31,225.93L210.24,226.82L211.17,217.34L212.1,214.48L213.03,205.29L215.82,194.75L216.75,204.01L218.62,218.37L219.55,219.87L221.41,200.96L222.34,202.47L224.2,227.88L225.13,224.91L226.06,229.2L226.99,238.64L227.92,243.49L228.85,256.27L229.78,256.35L230.71,247.38L232.57,232.55L233.5,238.05L234.43,244.45L235.36,238.09L237.22,227.88L238.15,222.26L240.94,229.53L241.87,227.26L242.8,215.94L243.73,216.68L244.66,212.46L245.59,216.31L246.52,214.55L247.45,214.55L248.38,211.39L249.31,217.05L250.25,226.19L251.18,218.26L253.04,225.53L253.97,223.99L254.9,212.27L255.83,213.85L256.76,218.41L257.69,218.52L260.48,209.52L261.41,213.37L263.27,205.59L264.2,211.06L265.13,208.93L266.06,198.1L266.99,192.81L267.92,193.14L268.85,194.2L269.78,191.08L270.71,191.3L271.64,194.5L273.5,192.18L274.43,197.91L275.36,201.84L276.29,193.84L278.15,183.55L279.08,181.53L280.01,180.58L280.94,175.21L281.87,171.76L282.8,172.79L283.74,171.39L284.67,171.58L285.6,174.22L286.53,172.28L287.46,177.16L288.39,174.92L292.11,163.83L293.04,166.66L293.97,163.02L294.9,165.7L295.83,165.92L296.76,162.4L299.55,158.61L300.48,160.34L302.34,155.93L303.27,151.27L305.13,144.11L306.06,128.28L308.85,126.22L309.78,132.43L310.71,140.43L311.64,134.08L313.5,145.21L314.43,143.26L315.36,147.6L316.29,146.68L317.23,149.54L318.16,147.12L319.09,147.12L320.02,136.98L320.95,131.62L321.88,139.55L322.81,136.54L323.74,136.76L324.67,143.3L325.6,138.78L326.53,138.49L327.46,145.87L328.39,143.15L329.32,148.51L330.25,164.34L331.18,158.32L333.04,140.14L333.97,130.37L334.9,116.63L335.83,119.28L336.76,121.37L337.69,118.25L338.62,117.96L339.55,114.69L341.41,109.99L342.34,102.97L344.2,98.27L345.13,113.95L346.06,110.76L346.99,111.09L347.92,112.37L348.85,105.73L349.78,104.37L350.72,100.88L352.58,104.26L353.51,102.68L355.37,95.08L356.3,94.56L357.23,92.91L358.16,100.03L359.09,101.14L360.02,106.83L361.88,97.06L362.81,94.49L365.6,86.15L366.53,89.57L367.46,87.99L368.39,105.32L369.32,98.53L370.25,104.66L371.18,121.11L372.11,112.19L373.04,117.26L373.97,102.2L374.9,100.25L375.83,104.73L376.76,105.62L377.69,110.5L378.62,115.72L379.55,106.64L380.48,98.67L381.41,97.39L382.34,94.6L383.27,100.88L384.21,113.7L385.14,109.66L386.07,106.86L387,110.94L387.93,98.6L388.86,100.95L389.79,103.04L390.72,100.18L391.65,91.81L392.58,93.86L394.44,107.42L395.37,105.29L396.3,98.75L397.23,99.85L398.16,103.19L399.09,100.36L400.02,100L400.95,86.99L401.88,93.68L402.81,92.98L404.67,101.83L405.6,92.98L406.53,99.56L407.46,95.41L408.39,98.27L409.32,110.83L410.25,112.15L411.18,100.4L412.11,98.2L413.04,103.34L415.83,89.09L416.76,89.02L417.7,87.95L418.63,88.98L419.56,90.85L420.49,99.89L421.42,98.23L422.35,100.99L423.28,103.38L424.21,92.14L425.14,90.19L426.07,74.36L427,77.52L427.93,77.01L429.79,76.34L430.72,71.97L431.65,72.89L432.58,75.5L433.51,73.41L434.44,73.44L437.23,64.19L438.16,61.54L440.95,49.79L441.88,56.18L442.81,56.03L443.74,54.86L446.53,44.94L447.46,45.82L449.32,62.83L450.25,53.46L451.19,52.43L452.12,49.53L453.05,47.18L453.98,47.73L454.91,49.31L455.84,46.78L457.7,32.82L458.63,34.18L460.49,36.75L461.42,27.42L462.35,23.82L463.28,24.37L464.21,23.35L465.14,20.33L467,26.84" style="vector-effect: non-scaling-stroke; fill: none; stroke: rgb(105, 105, 105); stroke-opacity: 1; stroke-width: 2px; opacity: 1;"/></g><g class="points"/><g class="text"/></g></g></g><g class="overplot"/><path class="xlines-above crisp" d="M0,0" style="fill: none;"/><path class="ylines-above crisp" d="M0,0" style="fill: none;"/><g class="overlines-above"/><g class="xaxislayer-above"><g class="xtick"><text text-anchor="start" x="0" y="422" transform="translate(80,0) rotate(90,0,416)" style="font-family: 'Open Sans', verdana, arial, sans-serif; font-size: 12px; fill: rgb(42, 63, 95); fill-opacity: 1; white-space: pre;">1/2/2018</text></g><g class="xtick"><text text-anchor="start" x="0" y="422" transform="translate(94.88,0) rotate(90,0,416)" style="font-family: 'Open Sans', verdana, arial, sans-serif; font-size: 12px; fill: rgb(42, 63, 95); fill-opacity: 1; white-space: pre;">1/25/2018</text></g><g class="xtick"><text text-anchor="start" x="0" y="422" transform="translate(109.77,0) rotate(90,0,416)" style="font-family: 'Open Sans', verdana, arial, sans-serif; font-size: 12px; fill: rgb(42, 63, 95); fill-opacity: 1; white-space: pre;">2/16/2018</text></g><g class="xtick"><text text-anchor="start" x="0" y="422" transform="translate(124.65,0) rotate(90,0,416)" style="font-family: 'Open Sans', verdana, arial, sans-serif; font-size: 12px; fill: rgb(42, 63, 95); fill-opacity: 1; white-space: pre;">3/13/2018</text></g><g class="xtick"><text text-anchor="start" x="0" y="422" transform="translate(139.54,0) rotate(90,0,416)" style="font-family: 'Open Sans', verdana, arial, sans-serif; font-size: 12px; fill: rgb(42, 63, 95); fill-opacity: 1; white-space: pre;">4/5/2018</text></g><g class="xtick"><text text-anchor="start" x="0" y="422" transform="translate(154.42000000000002,0) rotate(90,0,416)" style="font-family: 'Open Sans', verdana, arial, sans-serif; font-size: 12px; fill: rgb(42, 63, 95); fill-opacity: 1; white-space: pre;">4/27/2018</text></g><g class="xtick"><text text-anchor="start" x="0" y="422" transform="translate(169.31,0) rotate(90,0,416)" style="font-family: 'Open Sans', verdana, arial, sans-serif; font-size: 12px; fill: rgb(42, 63, 95); fill-opacity: 1; white-space: pre;">5/21/2018</text></g><g class="xtick"><text text-anchor="start" x="0" y="422" transform="translate(184.19,0) rotate(90,0,416)" style="font-family: 'Open Sans', verdana, arial, sans-serif; font-size: 12px; fill: rgb(42, 63, 95); fill-opacity: 1; white-space: pre;">6/13/2018</text></g><g class="xtick"><text text-anchor="start" x="0" y="422" transform="translate(199.07999999999998,0) rotate(90,0,416)" style="font-family: 'Open Sans', verdana, arial, sans-serif; font-size: 12px; fill: rgb(42, 63, 95); fill-opacity: 1; white-space: pre;">7/6/2018</text></g><g class="xtick"><text text-anchor="start" x="0" y="422" transform="translate(213.96,0) rotate(90,0,416)" style="font-family: 'Open Sans', verdana, arial, sans-serif; font-size: 12px; fill: rgb(42, 63, 95); fill-opacity: 1; white-space: pre;">7/30/2018</text></g><g class="xtick"><text text-anchor="start" x="0" y="422" transform="translate(228.84,0) rotate(90,0,416)" style="font-family: 'Open Sans', verdana, arial, sans-serif; font-size: 12px; fill: rgb(42, 63, 95); fill-opacity: 1; white-space: pre;">8/21/2018</text></g><g class="xtick"><text text-anchor="start" x="0" y="422" transform="translate(243.73,0) rotate(90,0,416)" style="font-family: 'Open Sans', verdana, arial, sans-serif; font-size: 12px; fill: rgb(42, 63, 95); fill-opacity: 1; white-space: pre;">9/13/2018</text></g><g class="xtick"><text text-anchor="start" x="0" y="422" transform="translate(258.61,0) rotate(90,0,416)" style="font-family: 'Open Sans', verdana, arial, sans-serif; font-size: 12px; fill: rgb(42, 63, 95); fill-opacity: 1; white-space: pre;">10/5/2018</text></g><g class="xtick"><text text-anchor="start" x="0" y="422" transform="translate(273.5,0) rotate(90,0,416)" style="font-family: 'Open Sans', verdana, arial, sans-serif; font-size: 12px; fill: rgb(42, 63, 95); fill-opacity: 1; white-space: pre;">10/29/2018</text></g><g class="xtick"><text text-anchor="start" x="0" y="422" transform="translate(288.38,0) rotate(90,0,416)" style="font-family: 'Open Sans', verdana, arial, sans-serif; font-size: 12px; fill: rgb(42, 63, 95); fill-opacity: 1; white-space: pre;">11/20/2018</text></g><g class="xtick"><text text-anchor="start" x="0" y="422" transform="translate(303.27,0) rotate(90,0,416)" style="font-family: 'Open Sans', verdana, arial, sans-serif; font-size: 12px; fill: rgb(42, 63, 95); fill-opacity: 1; white-space: pre;">12/14/2018</text></g><g class="xtick"><text text-anchor="start" x="0" y="422" transform="translate(318.15,0) rotate(90,0,416)" style="font-family: 'Open Sans', verdana, arial, sans-serif; font-size: 12px; fill: rgb(42, 63, 95); fill-opacity: 1; white-space: pre;">1/9/2019</text></g><g class="xtick"><text text-anchor="start" x="0" y="422" transform="translate(333.03999999999996,0) rotate(90,0,416)" style="font-family: 'Open Sans', verdana, arial, sans-serif; font-size: 12px; fill: rgb(42, 63, 95); fill-opacity: 1; white-space: pre;">2/1/2019</text></g><g class="xtick"><text text-anchor="start" x="0" y="422" transform="translate(347.92,0) rotate(90,0,416)" style="font-family: 'Open Sans', verdana, arial, sans-serif; font-size: 12px; fill: rgb(42, 63, 95); fill-opacity: 1; white-space: pre;">2/26/2019</text></g><g class="xtick"><text text-anchor="start" x="0" y="422" transform="translate(362.8,0) rotate(90,0,416)" style="font-family: 'Open Sans', verdana, arial, sans-serif; font-size: 12px; fill: rgb(42, 63, 95); fill-opacity: 1; white-space: pre;">3/20/2019</text></g><g class="xtick"><text text-anchor="start" x="0" y="422" transform="translate(377.69,0) rotate(90,0,416)" style="font-family: 'Open Sans', verdana, arial, sans-serif; font-size: 12px; fill: rgb(42, 63, 95); fill-opacity: 1; white-space: pre;">4/11/2019</text></g><g class="xtick"><text text-anchor="start" x="0" y="422" transform="translate(392.57,0) rotate(90,0,416)" style="font-family: 'Open Sans', verdana, arial, sans-serif; font-size: 12px; fill: rgb(42, 63, 95); fill-opacity: 1; white-space: pre;">5/6/2019</text></g><g class="xtick"><text text-anchor="start" x="0" y="422" transform="translate(407.46,0) rotate(90,0,416)" style="font-family: 'Open Sans', verdana, arial, sans-serif; font-size: 12px; fill: rgb(42, 63, 95); fill-opacity: 1; white-space: pre;">5/29/2019</text></g><g class="xtick"><text text-anchor="start" x="0" y="422" transform="translate(422.34,0) rotate(90,0,416)" style="font-family: 'Open Sans', verdana, arial, sans-serif; font-size: 12px; fill: rgb(42, 63, 95); fill-opacity: 1; white-space: pre;">6/20/2019</text></g><g class="xtick"><text text-anchor="start" x="0" y="422" transform="translate(437.23,0) rotate(90,0,416)" style="font-family: 'Open Sans', verdana, arial, sans-serif; font-size: 12px; fill: rgb(42, 63, 95); fill-opacity: 1; white-space: pre;">7/15/2019</text></g><g class="xtick"><text text-anchor="start" x="0" y="422" transform="translate(452.11,0) rotate(90,0,416)" style="font-family: 'Open Sans', verdana, arial, sans-serif; font-size: 12px; fill: rgb(42, 63, 95); fill-opacity: 1; white-space: pre;">8/6/2019</text></g><g class="xtick"><text text-anchor="start" x="0" y="422" transform="translate(467,0) rotate(90,0,416)" style="font-family: 'Open Sans', verdana, arial, sans-serif; font-size: 12px; fill: rgb(42, 63, 95); fill-opacity: 1; white-space: pre;">8/28/2019</text></g><g class="xtick"><text text-anchor="start" x="0" y="422" transform="translate(481.88,0) rotate(90,0,416)" style="font-family: 'Open Sans', verdana, arial, sans-serif; font-size: 12px; fill: rgb(42, 63, 95); fill-opacity: 1; white-space: pre;">9/20/2019</text></g><g class="xtick"><text text-anchor="start" x="0" y="422" transform="translate(496.76,0) rotate(90,0,416)" style="font-family: 'Open Sans', verdana, arial, sans-serif; font-size: 12px; fill: rgb(42, 63, 95); fill-opacity: 1; white-space: pre;">10/14/2019</text></g><g class="xtick"><text text-anchor="start" x="0" y="422" transform="translate(511.65,0) rotate(90,0,416)" style="font-family: 'Open Sans', verdana, arial, sans-serif; font-size: 12px; fill: rgb(42, 63, 95); fill-opacity: 1; white-space: pre;">11/5/2019</text></g><g class="xtick"><text text-anchor="start" x="0" y="422" transform="translate(526.53,0) rotate(90,0,416)" style="font-family: 'Open Sans', verdana, arial, sans-serif; font-size: 12px; fill: rgb(42, 63, 95); fill-opacity: 1; white-space: pre;">11/27/2019</text></g><g class="xtick"><text text-anchor="start" x="0" y="422" transform="translate(541.4200000000001,0) rotate(90,0,416)" style="font-family: 'Open Sans', verdana, arial, sans-serif; font-size: 12px; fill: rgb(42, 63, 95); fill-opacity: 1; white-space: pre;">12/20/2019</text></g></g><g class="yaxislayer-above"><g class="ytick"><text text-anchor="end" x="79" y="4.199999999999999" transform="translate(0,407.62)" style="font-family: 'Open Sans', verdana, arial, sans-serif; font-size: 12px; fill: rgb(42, 63, 95); fill-opacity: 1; white-space: pre;">80</text></g><g class="ytick"><text text-anchor="end" x="79" y="4.199999999999999" transform="translate(0,370.89)" style="font-family: 'Open Sans', verdana, arial, sans-serif; font-size: 12px; fill: rgb(42, 63, 95); fill-opacity: 1; white-space: pre;">90</text></g><g class="ytick"><text text-anchor="end" x="79" y="4.199999999999999" transform="translate(0,334.15999999999997)" style="font-family: 'Open Sans', verdana, arial, sans-serif; font-size: 12px; fill: rgb(42, 63, 95); fill-opacity: 1; white-space: pre;">100</text></g><g class="ytick"><text text-anchor="end" x="79" y="4.199999999999999" transform="translate(0,297.43)" style="font-family: 'Open Sans', verdana, arial, sans-serif; font-size: 12px; fill: rgb(42, 63, 95); fill-opacity: 1; white-space: pre;">110</text></g><g class="ytick"><text text-anchor="end" x="79" y="4.199999999999999" transform="translate(0,260.71000000000004)" style="font-family: 'Open Sans', verdana, arial, sans-serif; font-size: 12px; fill: rgb(42, 63, 95); fill-opacity: 1; white-space: pre;">120</text></g><g class="ytick"><text text-anchor="end" x="79" y="4.199999999999999" transform="translate(0,223.98000000000002)" style="font-family: 'Open Sans', verdana, arial, sans-serif; font-size: 12px; fill: rgb(42, 63, 95); fill-opacity: 1; white-space: pre;">130</text></g><g class="ytick"><text text-anchor="end" x="79" y="4.199999999999999" transform="translate(0,187.25)" style="font-family: 'Open Sans', verdana, arial, sans-serif; font-size: 12px; fill: rgb(42, 63, 95); fill-opacity: 1; white-space: pre;">140</text></g><g class="ytick"><text text-anchor="end" x="79" y="4.199999999999999" transform="translate(0,150.52)" style="font-family: 'Open Sans', verdana, arial, sans-serif; font-size: 12px; fill: rgb(42, 63, 95); fill-opacity: 1; white-space: pre;">150</text></g><g class="ytick"><text text-anchor="end" x="79" y="4.199999999999999" transform="translate(0,113.8)" style="font-family: 'Open Sans', verdana, arial, sans-serif; font-size: 12px; fill: rgb(42, 63, 95); fill-opacity: 1; white-space: pre;">160</text></g></g><g class="overaxes-above"/></g></g><g class="polarlayer"/><g class="ternarylayer"/><g class="geolayer"/><g class="funnelarealayer"/><g class="pielayer"/><g class="treemaplayer"/><g class="sunburstlayer"/><g class="glimages"/><defs id="topdefs-3782e7"><g class="clips"/><clipPath id="legend3782e7"><rect width="132" height="48" x="0" y="0"/></clipPath></defs><g class="layer-above"><g class="imagelayer"/><g class="shapelayer"/></g><g class="infolayer"><g class="legend" pointer-events="all" transform="translate(556.34, 100)"><rect class="bg" shape-rendering="crispEdges" style="stroke: rgb(68, 68, 68); stroke-opacity: 1; fill: rgb(255, 255, 255); fill-opacity: 1; stroke-width: 0px;" width="132" height="48" x="0" y="0"/><g class="scrollbox" transform="translate(0, 0)" clip-path="url('#legend3782e7')"><g class="groups"><g class="traces" transform="translate(0, 14.5)" style="opacity: 1;"><text class="legendtext user-select-none" text-anchor="start" x="40" y="4.680000000000001" style="font-family: 'Open Sans', verdana, arial, sans-serif; font-size: 12px; fill: rgb(42, 63, 95); fill-opacity: 1; white-space: pre;">Microsoft High</text><g class="layers" style="opacity: 1;"><g class="legendfill"/><g class="legendlines"><path class="js-line" d="M5,0h30" style="fill: none; stroke: rgb(0, 191, 255); stroke-opacity: 1; stroke-width: 2px;"/></g><g class="legendsymbols"><g class="legendpoints"/></g></g><rect class="legendtoggle" pointer-events="all" x="0" y="-9.5" width="126.140625" height="19" style="cursor: pointer; fill: rgb(0, 0, 0); fill-opacity: 0;"/></g><g class="traces" transform="translate(0, 33.5)" style="opacity: 1;"><text class="legendtext user-select-none" text-anchor="start" x="40" y="4.680000000000001" style="font-family: 'Open Sans', verdana, arial, sans-serif; font-size: 12px; fill: rgb(42, 63, 95); fill-opacity: 1; white-space: pre;">Microsoft Low</text><g class="layers" style="opacity: 1;"><g class="legendfill"/><g class="legendlines"><path class="js-line" d="M5,0h30" style="fill: none; stroke: rgb(105, 105, 105); stroke-opacity: 1; stroke-width: 2px;"/></g><g class="legendsymbols"><g class="legendpoints"/></g></g><rect class="legendtoggle" pointer-events="all" x="0" y="-9.5" width="126.140625" height="19" style="cursor: pointer; fill: rgb(0, 0, 0); fill-opacity: 0;"/></g></g></g><rect class="scrollbar" rx="20" ry="3" width="0" height="0" style="fill: rgb(128, 139, 164); fill-opacity: 1;" x="0" y="0"/></g><g class="g-gtitle"><text class="gtitle" x="35" y="50" text-anchor="start" dy="0em" style="font-family: 'Open Sans', verdana, arial, sans-serif; font-size: 17px; fill: rgb(42, 63, 95); opacity: 1; font-weight: normal; white-space: pre;">Microsoft Time Series</text></g><g class="g-xtitle"/><g class="g-ytitle"/></g></svg>