<svg class="main-svg" xmlns="http://www.w3.org/2000/svg" xmlns:xlink="http://www.w3.org/1999/xlink" width="400" height="400" viewBox="0 0 400 400"><rect x="0" y="0" width="400" height="400" style="fill: rgb(255, 255, 255); fill-opacity: 1;"/><defs id="defs-9cce1c"><g class="clips"><clipPath id="clip9cce1cxyplot" class="plotclip"><rect width="240" height="220"/></clipPath><clipPath class="axesclip" id="clip9cce1cx"><rect x="80" y="0" width="240" height="400"/></clipPath><clipPath class="axesclip" id="clip9cce1cy"><rect x="0" y="100" width="400" height="220"/></clipPath><clipPath class="axesclip" id="clip9cce1cxy"><rect x="80" y="100" width="240" height="220"/></clipPath></g><g class="gradients"/></defs><g class="bglayer"><rect class="bg" x="80" y="100" width="240" height="220" style="fill: rgb(229, 236, 246); fill-opacity: 1; stroke-width: 0;"/></g><g class="layer-below"><g class="imagelayer"/><g class="shapelayer"/></g><g class="cartesianlayer"><g class="subplot xy"><g class="layer-subplot"><g class="shapelayer"/><g class="imagelayer"/></g><g class="gridlayer"><g class="x"><path class="xgrid crisp" transform="translate(200,0)" d="M0,100v220" style="stroke: rgb(255, 255, 255); stroke-opacity: 1; stroke-width: 1px;"/><path class="xgrid crisp" transform="translate(318,0)" d="M0,100v220" style="stroke: rgb(255, 255, 255); stroke-opacity: 1; stroke-width: 1px;"/></g><g class="y"><path class="ygrid crisp" transform="translate(0,283.58000000000004)" d="M80,0h240" style="stroke: rgb(255, 255, 255); stroke-opacity: 1; stroke-width: 1px;"/><path class="ygrid crisp" transform="translate(0,233.41)" d="M80,0h240" style="stroke: rgb(255, 255, 255); stroke-opacity: 1; stroke-width: 1px;"/><path class="ygrid crisp" transform="translate(0,183.24)" d="M80,0h240" style="stroke: rgb(255, 255, 255); stroke-opacity: 1; stroke-width: 1px;"/><path class="ygrid crisp" transform="translate(0,133.07)" d="M80,0h240" style="stroke: rgb(255, 255, 255); stroke-opacity: 1; stroke-width: 1px;"/></g></g><g class="zerolinelayer"><path class="xzl zl crisp" transform="translate(82,0)" d="M0,100v220" style="stroke: rgb(255, 255, 255); stroke-opacity: 1; stroke-width: 2px;"/></g><path class="xlines-below"/><path class="ylines-below"/><g class="overlines-below"/><g class="xaxislayer-below"/><g class="yaxislayer-below"/><g class="overaxes-below"/><g class="plot" transform="translate(80, 100)" clip-path="url('#clip9cce1cxyplot')"><g class="scatterlayer mlayer"><g class="trace scatter trace4b545e" style="stroke-miterlimit: 2; opacity: 1;"><g class="fills"/><g class="errorbars"/><g class="lines"><path class="js-line" d="M2,206.32L2.24,209L2.47,203.65L2.71,200.97L2.94,200.97L3.18,195.62L3.89,179.57L4.12,174.22L4.36,176.89L4.6,171.54L4.83,174.22L5.07,160.84L5.3,158.16L5.54,166.19L6.48,155.49L6.72,158.16L8.14,134.08L8.37,142.11L9.79,112.68L10.02,128.73L10.26,128.73L10.5,131.41L10.73,120.7L11.2,131.41L11.44,128.73L11.68,131.41L11.91,123.38L12.15,131.41L12.38,123.38L12.62,118.03L12.86,110L13.33,112.68L13.56,115.35L13.8,123.38L14.27,118.03L14.51,118.03L14.74,123.38L14.98,115.35L15.22,112.68L15.69,123.38L15.92,120.7L16.16,112.68L16.4,112.68L16.63,118.03L17.1,118.03L17.34,107.32L17.81,110L18.05,107.32L18.28,107.32L18.76,99.3L19.23,101.97L19.46,104.65L20.41,93.95L20.64,110L20.88,96.62L21.12,99.3L21.35,112.68L22.06,96.62L22.3,101.97L22.53,101.97L22.77,101.97L23,96.62L23.71,104.65L23.95,96.62L24.42,96.62L24.66,101.97L25.6,91.27L25.84,93.95L26.54,91.27L26.78,93.95L27.02,93.95L27.25,91.27L27.49,85.92L27.72,93.95L27.96,93.95L28.9,99.3L29.14,91.27L29.61,91.27L29.85,88.59L30.56,96.62L30.79,91.27L31.03,88.59L31.26,99.3L31.5,85.92L31.74,91.27L31.97,83.24L32.92,93.95L33.15,85.92L33.39,85.92L33.62,91.27L34.1,93.95L34.33,91.27L34.57,77.89L35.04,101.97L35.28,85.92L35.51,88.59L35.98,88.59L36.22,80.57L36.46,91.27L36.93,83.24L37.16,80.57L38.11,88.59L38.34,80.57L39.29,85.92L39.52,83.24L40.23,88.59L40.47,80.57L40.94,80.57L41.18,85.92L41.41,77.89L41.88,83.24L42.12,83.24L42.83,91.27L43.06,88.59L43.3,83.24L43.54,83.24L43.77,80.57L44.24,91.27L44.48,88.59L44.72,83.24L44.95,85.92L45.19,77.89L45.66,88.59L45.9,83.24L46.13,80.57L46.84,88.59L47.08,83.24L48.02,69.86L48.26,75.22L49.2,85.92L49.44,80.57L50.38,75.22L50.62,83.24L50.85,75.22L51.09,91.27L51.32,93.95L52.03,67.19L52.27,77.89L52.5,67.19L53.45,83.24L53.68,80.57L53.92,77.89L54.16,83.24L54.39,67.19L54.63,56.49L54.86,69.86L55.1,72.54L55.34,72.54L55.57,64.51L55.81,64.51L56.04,59.16L56.75,72.54L56.99,69.86L57.22,53.81L57.7,69.86L57.93,75.22L58.88,59.16L59.11,59.16L59.35,48.46L59.58,64.51L59.82,59.16L60.06,69.86L61,61.84L61.24,64.51L61.47,56.49L61.94,64.51L62.18,64.51L62.42,64.51L62.65,59.16L62.89,59.16L63.12,67.19L63.36,67.19L63.6,61.84L64.07,80.57L64.3,67.19L65.48,53.81L65.72,59.16L65.96,61.84L66.43,59.16L66.66,56.49L67.14,45.78L67.37,59.16L67.61,51.14L68.08,56.49L68.32,56.49L68.55,53.81L68.79,59.16L69.02,61.84L69.5,61.84L69.73,53.81L69.97,48.46L70.2,51.14L70.44,64.51L70.68,64.51L70.91,56.49L71.15,59.16L71.38,51.14L72.09,64.51L72.33,59.16L72.56,51.14L73.04,53.81L73.27,56.49L73.51,67.19L73.74,53.81L73.98,51.14L74.22,51.14L74.45,56.49L74.69,64.51L75.16,59.16L75.4,53.81L75.63,53.81L75.87,56.49L76.58,48.46L76.81,53.81L77.05,53.81L77.28,40.43L77.76,51.14L78.23,45.78L78.46,45.78L78.7,67.19L79.17,53.81L79.41,51.14L79.64,40.43L80.12,48.46L80.35,56.49L81.06,37.76L81.3,61.84L81.77,43.11L82.24,48.46L82.48,45.78L82.71,48.46L82.95,37.76L83.89,56.49L84.13,48.46L84.36,43.11L84.84,56.49L85.07,51.14L85.31,45.78L85.78,32.41L86.02,43.11L86.25,51.14L86.49,53.81L86.72,40.43L86.96,40.43L87.2,43.11L87.43,43.11L87.67,45.78L87.9,45.78L88.14,51.14L88.61,32.41L89.08,37.76L89.32,40.43L89.56,40.43L89.79,43.11L90.5,29.73L90.74,43.11L90.97,48.46L91.21,45.78L91.44,35.08L92.15,43.11L92.39,37.76L92.86,51.14L93.1,45.78L93.33,45.78L93.8,29.73L94.04,37.76L94.28,43.11L94.51,40.43L94.75,48.46L95.22,37.76L95.46,51.14L95.69,51.14L95.93,43.11L96.87,35.08L97.11,40.43L97.34,40.43L97.58,43.11L98.29,37.76L98.52,43.11L98.76,45.78L99,40.43L99.23,40.43L99.47,53.81L99.94,40.43L100.18,35.08L101.12,45.78L101.36,40.43L101.59,37.76L101.83,48.46L102.06,59.16L102.3,53.81L102.54,35.08L102.77,32.41L103.01,45.78L103.24,45.78L103.48,43.11L104.19,32.41L104.42,40.43L104.9,32.41L105.13,48.46L105.84,37.76L106.08,43.11L106.31,40.43L106.55,45.78L106.78,32.41L107.73,48.46L107.96,45.78L108.2,32.41L108.44,29.73L108.67,32.41L108.91,45.78L109.85,32.41L110.09,32.41L110.32,40.43L110.8,35.08L111.03,35.08L111.5,27.05L111.74,45.78L112.45,29.73L112.68,37.76L113.63,29.73L113.86,32.41L114.1,32.41L114.34,32.41L114.57,24.38L115.28,40.43L115.52,37.76L115.75,27.05L116.7,32.41L116.93,29.73L117.88,37.76L118.11,27.05L118.82,35.08L119.06,32.41L119.53,29.73L119.76,35.08L120,32.41L120.24,35.08L120.47,29.73L120.71,43.11L120.94,43.11L121.18,37.76L121.42,27.05L121.89,29.73L122.12,29.73L122.36,29.73L122.6,32.41L122.83,32.41L123.07,29.73L123.54,40.43L123.78,29.73L124.01,32.41L124.96,40.43L125.19,21.7L126.14,37.76L126.37,37.76L126.84,29.73L127.08,35.08L127.32,37.76L128.02,27.05L128.26,40.43L128.5,40.43L128.73,35.08L129.2,29.73L129.44,32.41L129.68,35.08L129.91,37.76L130.15,29.73L131.09,37.76L131.33,35.08L131.56,40.43L131.8,37.76L132.04,32.41L132.27,29.73L132.74,32.41L132.98,35.08L133.92,35.08L134.16,40.43L134.87,29.73L135.1,40.43L135.34,40.43L135.58,29.73L135.81,40.43L136.28,37.76L136.52,35.08L136.76,37.76L136.99,29.73L138.17,43.11L138.41,40.43L138.64,29.73L138.88,29.73L139.12,32.41L139.35,48.46L139.82,35.08L140.06,35.08L140.3,37.76L140.53,29.73L141,35.08L141.24,32.41L141.48,29.73L142.66,35.08L142.89,27.05L143.84,32.41L144.07,27.05L144.31,27.05L144.54,29.73L144.78,24.38L145.02,35.08L145.25,35.08L145.72,37.76L145.96,27.05L146.2,29.73L146.43,27.05L146.67,35.08L147.14,21.7L147.38,29.73L147.61,32.41L147.85,40.43L148.08,32.41L148.32,29.73L148.56,29.73L148.79,32.41L149.26,35.08L149.5,21.7L150.44,37.76L150.68,32.41L150.92,32.41L151.15,35.08L151.39,29.73L151.62,29.73L151.86,29.73L152.1,27.05L152.57,37.76L152.8,27.05L153.04,35.08L153.51,21.7L153.75,24.38L153.98,32.41L154.46,32.41L154.69,37.76L154.93,37.76L155.16,32.41L155.87,16.35L156.11,32.41L156.58,32.41L156.82,19.03L157.29,35.08L157.52,32.41L157.76,24.38L158.7,37.76L158.94,29.73L159.18,37.76L159.65,29.73L159.88,24.38L160.12,40.43L160.59,32.41L160.83,24.38L161.06,24.38L161.3,29.73L161.54,40.43L162.01,29.73L162.24,24.38L162.95,35.08L163.19,27.05L163.9,37.76L164.13,21.7L164.6,35.08L164.84,43.11L166.26,27.05L166.49,32.41L166.96,27.05L167.2,29.73L167.44,35.08L167.67,37.76L167.91,29.73L168.38,35.08L168.62,32.41L168.85,29.73L169.8,27.05L170.03,32.41L170.27,29.73L170.5,35.08L170.74,40.43L170.98,27.05L171.45,32.41L171.68,32.41L172.16,37.76L172.39,35.08L172.63,24.38L173.34,43.11L173.57,35.08L173.81,35.08L174.04,27.05L174.28,40.43L174.52,35.08L174.75,32.41L174.99,32.41L175.22,45.78L176.64,24.38L176.88,24.38L177.58,43.11L178.06,37.76L178.29,29.73L179.47,43.11L179.71,27.05L179.94,27.05L180.18,24.38L181.12,37.76L181.36,27.05L181.83,35.08L182.07,27.05L182.78,35.08L183.01,29.73L183.25,27.05L183.48,24.38L183.72,43.11L184.19,24.38L184.66,32.41L184.9,29.73L185.14,24.38L185.37,32.41L185.61,35.08L185.84,21.7L186.32,32.41L186.55,27.05L186.79,35.08L187.26,32.41L187.5,29.73L187.97,29.73L188.2,21.7L188.91,29.73L189.15,24.38L190.09,37.76L190.33,32.41L191.27,21.7L191.51,40.43L192.22,29.73L192.45,43.11L192.92,27.05L193.16,32.41L193.4,35.08L193.63,24.38L193.87,37.76L194.1,32.41L194.34,27.05L194.58,27.05L194.81,24.38L195.05,27.05L195.28,19.03L196.23,40.43L196.46,29.73L196.7,27.05L196.94,35.08L197.17,24.38L197.41,19.03L197.88,29.73L198.12,19.03L198.35,24.38L198.59,27.05L198.82,24.38L199.06,19.03L200,32.41L200.24,29.73L200.48,32.41L200.71,24.38L200.95,35.08L201.42,29.73L201.66,13.68L203.07,37.76L203.31,27.05L203.78,24.38L204.02,27.05L204.25,35.08L204.49,24.38L204.72,27.05L204.96,37.76L205.2,37.76L205.43,19.03L205.67,13.68L205.9,24.38L206.14,19.03L206.38,27.05L206.61,27.05L206.85,35.08L207.32,40.43L207.56,24.38L207.79,27.05L208.03,35.08L208.26,27.05L208.5,24.38L208.97,24.38L209.21,27.05L209.44,43.11L209.68,32.41L209.92,19.03L210.62,37.76L210.86,19.03L211.1,21.7L211.33,45.78L211.57,11L212.04,13.68L212.28,32.41L212.75,19.03L212.98,21.7L213.22,27.05L213.69,35.08L213.93,29.73L214.16,24.38L214.64,21.7L214.87,29.73L215.11,24.38L215.34,29.73L215.58,37.76L216.05,21.7L216.52,24.38L216.76,21.7L217.23,43.11L217.47,21.7L217.7,19.03L217.94,21.7L218.18,19.03L218.41,37.76L219.36,24.38L219.59,27.05L219.83,21.7L220.06,35.08L220.54,24.38L220.77,32.41L221.01,32.41L221.48,24.38L221.72,27.05L221.95,32.41L222.19,32.41L222.42,35.08L222.66,37.76L222.9,21.7L223.37,32.41L223.6,45.78L224.31,24.38L224.55,29.73L224.78,29.73L225.26,32.41L225.73,21.7L225.96,29.73L226.67,19.03L226.91,24.38L227.14,35.08L227.38,35.08L227.62,27.05L227.85,19.03L228.09,37.76L228.8,27.05L229.03,32.41L229.27,37.76L229.5,32.41L229.74,16.35L229.98,40.43L230.45,29.73L230.68,19.03L231.86,32.41L232.1,27.05L232.34,21.7L232.57,24.38L232.81,29.73L233.04,29.73L233.28,32.41L233.75,21.7L233.99,27.05L234.22,27.05L234.46,27.05L234.7,29.73L234.93,19.03L235.4,27.05L235.64,29.73L235.88,13.68L236.35,24.38L236.58,24.38L237.06,27.05L237.29,19.03L237.53,27.05L237.76,29.73" style="vector-effect: non-scaling-stroke; fill: none; stroke: rgb(99, 110, 250); stroke-opacity: 1; stroke-width: 2px; opacity: 1;"/></g><g class="points"/><g class="text"/></g></g></g><g class="overplot"/><path class="xlines-above crisp" d="M0,0" style="fill: none;"/><path class="ylines-above crisp" d="M0,0" style="fill: none;"/><g class="overlines-above"/><g class="xaxislayer-above"><g class="xtick"><text text-anchor="middle" x="0" y="333" transform="translate(82,0)" style="font-family: 'Open Sans', verdana, arial, sans-serif; font-size: 12px; fill: rgb(42, 63, 95); fill-opacity: 1; white-space: pre;">0</text></g><g class="xtick"><text text-anchor="middle" x="0" y="333" transform="translate(200,0)" style="font-family: 'Open Sans', verdana, arial, sans-serif; font-size: 12px; fill: rgb(42, 63, 95); fill-opacity: 1; white-space: pre;">500</text></g><g class="xtick"><text text-anchor="middle" x="0" y="333" transform="translate(318,0)" style="font-family: 'Open Sans', verdana, arial, sans-serif; font-size: 12px; fill: rgb(42, 63, 95); fill-opacity: 1; white-space: pre;">1000</text></g></g><g class="yaxislayer-above"><g class="ytick"><text text-anchor="end" x="79" y="4.199999999999999" transform="translate(0,283.58000000000004)" style="font-family: 'Open Sans', verdana, arial, sans-serif; font-size: 12px; fill: rgb(42, 63, 95); fill-opacity: 1; white-space: pre;">0.5</text></g><g class="ytick"><text text-anchor="end" x="79" y="4.199999999999999" transform="translate(0,233.41)" style="font-family: 'Open Sans', verdana, arial, sans-serif; font-size: 12px; fill: rgb(42, 63, 95); fill-opacity: 1; white-space: pre;">0.55</text></g><g class="ytick"><text text-anchor="end" x="79" y="4.199999999999999" transform="translate(0,183.24)" style="font-family: 'Open Sans', verdana, arial, sans-serif; font-size: 12px; fill: rgb(42, 63, 95); fill-opacity: 1; white-space: pre;">0.6</text></g><g class="ytick"><text text-anchor="end" x="79" y="4.199999999999999" transform="translate(0,133.07)" style="font-family: 'Open Sans', verdana, arial, sans-serif; font-size: 12px; fill: rgb(42, 63, 95); fill-opacity: 1; white-space: pre;">0.65</text></g></g><g class="overaxes-above"/></g></g><g class="polarlayer"/><g class="ternarylayer"/><g class="geolayer"/><g class="funnelarealayer"/><g class="pielayer"/><g class="treemaplayer"/><g class="sunburstlayer"/><g class="glimages"/><defs id="topdefs-9cce1c"><g class="clips"/></defs><g class="layer-above"><g class="imagelayer"/><g class="shapelayer"><path data-index="0" fill-rule="evenodd" d="M82,311.68L318,311.68" clip-path="url('#clip9cce1cxy')" style="opacity: 1; stroke: rgb(32, 178, 170); stroke-opacity: 1; fill: rgb(0, 0, 0); fill-opacity: 0; stroke-dasharray: 12px, 4px, 4px, 4px; stroke-width: 4px;"/></g></g><g class="infolayer"><g class="g-gtitle"><text class="gtitle" x="20" y="50" text-anchor="start" dy="0em" style="font-family: 'Open Sans', verdana, arial, sans-serif; font-size: 17px; fill: rgb(42, 63, 95); opacity: 1; font-weight: normal; white-space: pre;">Training Accuracy, Microsoft Corporation</text></g><g class="g-xtitle"><text class="xtitle" x="200" y="360.890625" text-anchor="middle" style="font-family: 'Open Sans', verdana, arial, sans-serif; font-size: 15px; fill: rgb(42, 63, 95); opacity: 1; font-weight: normal; white-space: pre;">Epoch</text></g><g class="g-ytitle"><text class="ytitle" transform="rotate(-90,26.234375,210)" x="26.234375" y="210" text-anchor="middle" style="font-family: 'Open Sans', verdana, arial, sans-serif; font-size: 15px; fill: rgb(42, 63, 95); opacity: 1; font-weight: normal; white-space: pre;">Accuracy</text></g></g></svg>