<svg class="main-svg" xmlns="http://www.w3.org/2000/svg" xmlns:xlink="http://www.w3.org/1999/xlink" width="700" height="500" viewBox="0 0 700 500"><rect x="0" y="0" width="700" height="500" style="fill: rgb(255, 255, 255); fill-opacity: 1;"/><defs id="defs-d6c294"><g class="clips"><clipPath id="clipd6c294xyplot" class="plotclip"><rect width="491" height="309"/></clipPath><clipPath class="axesclip" id="clipd6c294x"><rect x="80" y="0" width="491" height="500"/></clipPath><clipPath class="axesclip" id="clipd6c294y"><rect x="0" y="100" width="700" height="309"/></clipPath><clipPath class="axesclip" id="clipd6c294xy"><rect x="80" y="100" width="491" height="309"/></clipPath></g><g class="gradients"/></defs><g class="bglayer"><rect class="bg" x="80" y="100" width="491" height="309" style="fill: rgb(229, 236, 246); fill-opacity: 1; stroke-width: 0;"/></g><g class="layer-below"><g class="imagelayer"/><g class="shapelayer"/></g><g class="cartesianlayer"><g class="subplot xy"><g class="layer-subplot"><g class="shapelayer"/><g class="imagelayer"/></g><g class="gridlayer"><g class="x"><path class="xgrid crisp" transform="translate(94.67,0)" d="M0,100v309" style="stroke: rgb(255, 255, 255); stroke-opacity: 1; stroke-width: 1px;"/><path class="xgrid crisp" transform="translate(109.34,0)" d="M0,100v309" style="stroke: rgb(255, 255, 255); stroke-opacity: 1; stroke-width: 1px;"/><path class="xgrid crisp" transform="translate(124.00999999999999,0)" d="M0,100v309" style="stroke: rgb(255, 255, 255); stroke-opacity: 1; stroke-width: 1px;"/><path class="xgrid crisp" transform="translate(138.69,0)" d="M0,100v309" style="stroke: rgb(255, 255, 255); stroke-opacity: 1; stroke-width: 1px;"/><path class="xgrid crisp" transform="translate(153.36,0)" d="M0,100v309" style="stroke: rgb(255, 255, 255); stroke-opacity: 1; stroke-width: 1px;"/><path class="xgrid crisp" transform="translate(168.03,0)" d="M0,100v309" style="stroke: rgb(255, 255, 255); stroke-opacity: 1; stroke-width: 1px;"/><path class="xgrid crisp" transform="translate(182.7,0)" d="M0,100v309" style="stroke: rgb(255, 255, 255); stroke-opacity: 1; stroke-width: 1px;"/><path class="xgrid crisp" transform="translate(197.37,0)" d="M0,100v309" style="stroke: rgb(255, 255, 255); stroke-opacity: 1; stroke-width: 1px;"/><path class="xgrid crisp" transform="translate(212.04,0)" d="M0,100v309" style="stroke: rgb(255, 255, 255); stroke-opacity: 1; stroke-width: 1px;"/><path class="xgrid crisp" transform="translate(226.71,0)" d="M0,100v309" style="stroke: rgb(255, 255, 255); stroke-opacity: 1; stroke-width: 1px;"/><path class="xgrid crisp" transform="translate(241.38,0)" d="M0,100v309" style="stroke: rgb(255, 255, 255); stroke-opacity: 1; stroke-width: 1px;"/><path class="xgrid crisp" transform="translate(256.06,0)" d="M0,100v309" style="stroke: rgb(255, 255, 255); stroke-opacity: 1; stroke-width: 1px;"/><path class="xgrid crisp" transform="translate(270.73,0)" d="M0,100v309" style="stroke: rgb(255, 255, 255); stroke-opacity: 1; stroke-width: 1px;"/><path class="xgrid crisp" transform="translate(285.4,0)" d="M0,100v309" style="stroke: rgb(255, 255, 255); stroke-opacity: 1; stroke-width: 1px;"/><path class="xgrid crisp" transform="translate(300.07,0)" d="M0,100v309" style="stroke: rgb(255, 255, 255); stroke-opacity: 1; stroke-width: 1px;"/><path class="xgrid crisp" transform="translate(314.74,0)" d="M0,100v309" style="stroke: rgb(255, 255, 255); stroke-opacity: 1; stroke-width: 1px;"/><path class="xgrid crisp" transform="translate(329.40999999999997,0)" d="M0,100v309" style="stroke: rgb(255, 255, 255); stroke-opacity: 1; stroke-width: 1px;"/><path class="xgrid crisp" transform="translate(344.08,0)" d="M0,100v309" style="stroke: rgb(255, 255, 255); stroke-opacity: 1; stroke-width: 1px;"/><path class="xgrid crisp" transform="translate(358.75,0)" d="M0,100v309" style="stroke: rgb(255, 255, 255); stroke-opacity: 1; stroke-width: 1px;"/><path class="xgrid crisp" transform="translate(373.43,0)" d="M0,100v309" style="stroke: rgb(255, 255, 255); stroke-opacity: 1; stroke-width: 1px;"/><path class="xgrid crisp" transform="translate(388.1,0)" d="M0,100v309" style="stroke: rgb(255, 255, 255); stroke-opacity: 1; stroke-width: 1px;"/><path class="xgrid crisp" transform="translate(402.77,0)" d="M0,100v309" style="stroke: rgb(255, 255, 255); stroke-opacity: 1; stroke-width: 1px;"/><path class="xgrid crisp" transform="translate(417.44,0)" d="M0,100v309" style="stroke: rgb(255, 255, 255); stroke-opacity: 1; stroke-width: 1px;"/><path class="xgrid crisp" transform="translate(432.11,0)" d="M0,100v309" style="stroke: rgb(255, 255, 255); stroke-opacity: 1; stroke-width: 1px;"/><path class="xgrid crisp" transform="translate(446.78,0)" d="M0,100v309" style="stroke: rgb(255, 255, 255); stroke-opacity: 1; stroke-width: 1px;"/><path class="xgrid crisp" transform="translate(461.45,0)" d="M0,100v309" style="stroke: rgb(255, 255, 255); stroke-opacity: 1; stroke-width: 1px;"/><path class="xgrid crisp" transform="translate(476.13,0)" d="M0,100v309" style="stroke: rgb(255, 255, 255); stroke-opacity: 1; stroke-width: 1px;"/><path class="xgrid crisp" transform="translate(490.8,0)" d="M0,100v309" style="stroke: rgb(255, 255, 255); stroke-opacity: 1; stroke-width: 1px;"/><path class="xgrid crisp" transform="translate(505.47,0)" d="M0,100v309" style="stroke: rgb(255, 255, 255); stroke-opacity: 1; stroke-width: 1px;"/><path class="xgrid crisp" transform="translate(520.14,0)" d="M0,100v309" style="stroke: rgb(255, 255, 255); stroke-opacity: 1; stroke-width: 1px;"/><path class="xgrid crisp" transform="translate(534.81,0)" d="M0,100v309" style="stroke: rgb(255, 255, 255); stroke-opacity: 1; stroke-width: 1px;"/><path class="xgrid crisp" transform="translate(549.48,0)" d="M0,100v309" style="stroke: rgb(255, 255, 255); stroke-opacity: 1; stroke-width: 1px;"/><path class="xgrid crisp" transform="translate(564.15,0)" d="M0,100v309" style="stroke: rgb(255, 255, 255); stroke-opacity: 1; stroke-width: 1px;"/></g><g class="y"><path class="ygrid crisp" transform="translate(0,376.78)" d="M80,0h491" style="stroke: rgb(255, 255, 255); stroke-opacity: 1; stroke-width: 1px;"/><path class="ygrid crisp" transform="translate(0,334.87)" d="M80,0h491" style="stroke: rgb(255, 255, 255); stroke-opacity: 1; stroke-width: 1px;"/><path class="ygrid crisp" transform="translate(0,292.96000000000004)" d="M80,0h491" style="stroke: rgb(255, 255, 255); stroke-opacity: 1; stroke-width: 1px;"/><path class="ygrid crisp" transform="translate(0,251.04)" d="M80,0h491" style="stroke: rgb(255, 255, 255); stroke-opacity: 1; stroke-width: 1px;"/><path class="ygrid crisp" transform="translate(0,209.13)" d="M80,0h491" style="stroke: rgb(255, 255, 255); stroke-opacity: 1; stroke-width: 1px;"/><path class="ygrid crisp" transform="translate(0,167.20999999999998)" d="M80,0h491" style="stroke: rgb(255, 255, 255); stroke-opacity: 1; stroke-width: 1px;"/><path class="ygrid crisp" transform="translate(0,125.3)" d="M80,0h491" style="stroke: rgb(255, 255, 255); stroke-opacity: 1; stroke-width: 1px;"/></g></g><g class="zerolinelayer"/><path class="xlines-below"/><path class="ylines-below"/><g class="overlines-below"/><g class="xaxislayer-below"/><g class="yaxislayer-below"/><g class="overaxes-below"/><g class="plot" transform="translate(80, 100)" clip-path="url('#clipd6c294xyplot')"><g class="scatterlayer mlayer"><g class="trace scatter tracef08dc2" style="stroke-miterlimit: 2; opacity: 1;"><g class="fills"/><g class="errorbars"/><g class="lines"><path class="js-line" d="M0,223.97L1.96,215.59L2.93,216.43L3.91,218.1L4.89,221.46L5.87,222.09L6.85,220.2L8.8,214.33L9.78,206.16L10.76,210.35L11.74,208.05L12.72,212.45L13.69,212.24L14.67,212.45L15.65,206.79L16.63,170.11L17.61,162.99L20.54,205.53L21.52,208.67L22.5,220.2L23.47,245.77L24.45,242.21L25.43,252.26L26.41,267.77L27.39,258.55L28.36,255.2L29.34,248.7L30.32,240.53L31.3,221.04L32.28,224.6L33.25,222.51L34.23,231.73L35.21,228.58L36.19,209.51L37.17,208.88L38.15,208.05L39.12,229.21L40.1,233.4L41.08,229L42.06,229.84L43.04,233.19L44.99,215.59L45.97,213.91L46.95,214.75L47.93,214.12L48.9,217.9L49.88,213.07L51.84,223.34L52.82,219.57L55.75,252.68L56.73,244.09L57.71,238.85L58.69,241.79L59.66,240.32L60.64,240.32L61.62,230.05L62.6,234.87L63.58,237.59L64.55,236.34L65.53,232.77L66.51,233.4L67.49,224.39L68.47,224.39L69.44,219.57L70.42,218.52L71.4,222.51L72.38,220.41L74.33,216.22L75.31,208.25L76.29,213.07L77.27,211.82L78.25,211.61L79.23,210.14L81.18,248.07L82.16,258.34L84.12,253.1L85.09,253.94L86.07,247.23L87.05,249.33L89.01,236.55L89.98,239.48L90.96,237.39L91.94,239.48L92.92,240.11L93.9,237.59L94.87,232.98L95.85,234.24L96.83,232.98L97.81,236.55L98.79,240.53L99.76,229.63L100.74,230.68L101.72,229L103.68,221.46L104.66,222.92L105.63,222.51L106.61,219.99L107.59,218.1L108.57,226.49L109.55,224.18L110.52,226.7L111.5,226.7L112.48,230.26L114.44,222.72L115.41,227.33L116.39,221.46L117.37,225.23L118.35,222.51L119.33,223.34L120.3,224.6L121.28,222.72L122.26,227.12L123.24,222.72L126.17,204.06L127.15,203.43L128.13,205.32L129.11,202.18L130.09,201.55L131.06,202.39L132.04,197.78L133.02,198.61L134,201.34L134.98,207L136.93,198.2L137.91,191.49L139.87,182.9L140.84,178.71L142.8,144.34L143.78,146.43L145.74,125.47L146.71,124.85L147.69,116.67L148.67,122.33L150.63,125.68L151.6,129.25L153.56,120.24L154.54,105.15L155.52,92.99L156.49,99.91L158.45,102.42L159.43,98.86L160.41,96.13L161.38,113.74L162.36,117.09L163.34,111.01L164.32,117.93L165.3,118.56L166.27,110.8L167.25,111.01L169.21,94.04L170.19,100.12L172.14,89.85L173.12,88.17L174.1,84.4L175.08,73.92L176.06,73.92L177.03,69.73L178.99,57.57L179.97,61.14L180.95,60.72L181.92,63.44L182.9,64.28L183.88,56.32L184.86,59.04L185.84,49.61L186.81,50.66L187.79,46.26L189.75,29.28L190.73,30.96L192.68,68.05L193.66,73.29L194.64,67.63L195.62,50.45L196.6,56.74L197.57,49.82L199.53,60.51L200.51,61.14L201.49,68.47L202.46,82.3L203.44,73.92L204.42,86.28L206.38,70.78L207.35,70.57L208.33,75.18L209.31,75.81L210.29,55.48L211.27,63.02L212.25,54.43L213.22,55.69L214.2,57.57L215.18,70.36L216.16,80L217.14,71.82L219.09,59.04L220.07,77.69L221.05,76.64L222.03,77.9L225.94,19.85L226.92,17.34L227.89,15.45L228.87,46.47L229.85,47.51L230.83,55.48L231.81,56.53L232.78,49.4L233.76,48.35L234.74,64.7L235.72,67.84L236.7,77.69L238.65,100.54L239.63,90.9L240.61,109.97L241.59,104.94L244.52,72.87L245.5,77.69L246.48,81.05L247.46,80.84L249.41,73.5L250.39,74.13L253.32,95.93L254.3,83.14L256.26,95.3L257.24,90.69L258.22,94.67L259.19,104.94L261.15,124.85L262.13,139.93L263.11,133.23L264.08,114.37L266.04,85.66L267.02,91.52L268,93.83L268.97,101.37L269.95,105.98L270.93,104.1L271.91,102.63L272.89,108.92L274.84,106.61L275.82,98.44L276.8,91.1L277.78,97.39L278.75,102.42L279.73,85.45L280.71,80.42L281.69,83.35L282.67,83.56L283.65,71.82L284.62,71.61L285.6,75.81L287.56,90.9L288.54,111.43L289.51,120.86L290.49,119.19L292.45,106.4L293.43,107.45L294.4,111.64L295.38,107.66L296.36,100.12L297.34,100.75L298.32,95.72L299.29,96.13L300.27,105.98L301.25,94.46L302.23,95.72L303.21,101.37L305.16,89.43L306.14,84.4L308.1,89.85L309.08,82.3L310.05,82.3L311.03,88.17L312.99,91.73L313.97,102L314.94,106.61L315.92,102.84L317.88,152.51L318.86,161.52L319.83,158.59L320.81,158.59L322.77,151.25L323.75,150.62L324.73,126.31L325.7,131.76L326.68,129.67L327.66,119.61L328.64,113.95L329.62,115.21L331.57,133.44L332.55,133.86L333.53,137.42L334.51,132.81L336.46,109.55L337.44,113.11L338.42,115.21L339.4,113.11L340.37,104.73L341.35,109.55L343.31,99.07L344.29,112.48L346.24,109.55L347.22,105.15L348.2,93.41L349.18,91.52L351.13,82.93L352.11,83.14L353.09,81.88L354.07,84.61L355.05,85.24L356.02,90.9L357,90.27L357.98,81.26L358.96,75.81L359.94,64.91L361.89,69.31L362.87,61.14L364.83,76.44L365.8,73.08L366.78,69.73L367.76,62.6L368.74,55.48L369.72,59.88L370.7,69.94L371.67,71.41L372.65,64.91L373.63,76.44L375.59,92.99L376.56,88.8L377.54,84.19L378.52,86.91L379.5,83.77L380.48,87.75L381.45,83.35L382.43,88.17L383.41,88.17L384.39,84.61L385.37,88.17L386.34,146.01L387.32,157.96L388.3,179.96L389.28,181.64L390.26,196.52L392.21,218.52L393.19,214.96L394.17,217.48L395.15,228.16L398.08,264.63L399.06,255.62L400.04,249.12L401.02,252.47L401.99,253.31L402.97,251.01L403.95,248.49L404.93,258.76L406.88,252.68L407.86,239.27L408.84,240.74L409.82,229L412.75,222.92L413.73,217.27L415.69,197.99L416.67,200.92L417.64,201.34L418.62,213.49L420.58,219.78L421.56,218.73L422.53,208.67L423.51,222.51L424.49,222.72L425.47,227.54L426.45,229.84L427.42,227.74L428.4,228.37L429.38,234.45L430.36,250.17L431.34,245.98L433.29,229.42L434.27,237.39L435.25,237.18L436.23,234.66L437.21,222.72L438.18,227.54L439.16,219.36L440.14,219.15L441.12,217.9L442.1,220.2L443.07,220.62L444.05,220.2L446.99,216.43L447.96,203.85L448.94,177.03L449.92,175.77L450.9,180.8L451.88,173.26L452.85,177.45L453.83,190.86L456.77,210.56L457.75,213.7L458.72,212.03L459.7,214.96L460.68,218.94L461.66,204.06L462.64,204.69L463.61,199.66L464.59,199.45L465.57,194.21L467.53,174.51L468.5,180.59L470.46,174.51L471.44,176.19L472.42,188.76L473.39,187.51L475.35,182.06L476.33,184.99L477.31,180.8L478.28,181.01L480.24,178.71L481.22,163.62L482.2,162.78L483.18,170.32L484.15,168.86L485.13,160.68L486.11,161.1L487.09,162.78L489.04,159.01L490.02,163.2L491,167.81" style="vector-effect: non-scaling-stroke; fill: none; stroke: rgb(0, 191, 255); stroke-opacity: 1; stroke-width: 2px; opacity: 1;"/></g><g class="points"/><g class="text"/></g><g class="trace scatter tracee357fc" style="stroke-miterlimit: 2; opacity: 1;"><g class="fills"/><g class="errorbars"/><g class="lines"><path class="js-line" d="M0,229.84L0.98,230.05L1.96,222.3L2.93,222.09L3.91,227.95L4.89,227.33L5.87,228.37L7.82,225.23L8.8,225.02L9.78,218.73L10.76,220.2L11.74,224.39L12.72,219.57L13.69,223.55L14.67,219.57L15.65,216.01L16.63,207.63L17.61,176.82L18.58,206.58L20.54,222.09L21.52,224.18L22.5,276.78L23.47,276.78L24.45,256.46L25.43,285.17L26.41,293.55L27.39,276.16L30.32,254.15L31.3,241.58L32.28,237.39L33.25,240.53L34.23,243.04L35.21,238.43L37.17,219.36L38.15,228.37L39.12,251.64L40.1,247.44L41.08,239.69L42.06,240.11L43.04,244.3L44.01,236.34L44.99,223.76L45.97,224.39L46.95,225.86L47.93,231.1L49.88,221.88L50.86,233.19L52.82,230.68L53.79,245.98L54.77,267.56L55.75,270.08L57.71,253.31L58.69,254.36L59.66,260.86L60.64,257.5L62.6,244.72L63.58,258.13L65.53,240.74L66.51,243.46L68.47,232.15L69.44,226.7L70.42,229.21L71.4,229L72.38,229.21L73.36,225.02L75.31,218.73L76.29,224.18L77.27,219.15L78.25,220.2L79.23,226.49L80.2,263.37L81.18,261.28L82.16,267.98L83.14,269.03L84.12,261.9L85.09,261.9L86.07,258.55L87.05,258.13L88.03,254.36L89.01,245.56L89.98,245.77L90.96,243.88L91.94,246.61L92.92,246.82L93.9,244.93L94.87,241.37L95.85,242.62L96.83,239.69L97.81,244.51L98.79,249.12L99.76,236.97L100.74,237.18L101.72,232.56L103.68,227.74L104.66,230.89L106.61,225.44L107.59,229L108.57,231.73L109.55,230.68L110.52,233.82L111.5,234.24L112.48,240.53L113.46,237.59L114.44,230.47L115.41,231.73L116.39,226.49L117.37,231.94L118.35,228.58L119.33,231.1L120.3,232.56L121.28,229L122.26,234.87L123.24,229.84L126.17,213.7L127.15,209.72L128.13,210.56L129.11,209.51L130.09,209.3L131.06,207.84L132.04,204.48L133.02,203.85L134.98,211.4L135.95,210.98L136.93,208.25L137.91,202.18L138.89,192.12L139.87,191.49L140.84,189.18L141.82,190.02L142.8,160.68L143.78,160.89L144.76,161.73L145.74,144.13L146.71,134.49L147.69,138.89L148.67,134.07L149.65,136.37L150.63,134.07L151.6,139.73L152.58,137.42L153.56,128.62L155.52,107.24L156.49,109.34L157.47,113.11L158.45,109.97L159.43,109.13L160.41,123.59L161.38,123.38L162.36,126.52L163.34,125.89L164.32,128.2L167.25,120.65L168.23,120.44L169.21,108.08L170.19,110.18L172.14,100.12L173.12,98.65L175.08,91.73L176.06,88.38L178.99,70.78L179.97,72.24L180.95,74.76L181.92,73.92L182.9,72.87L183.88,69.1L185.84,61.35L186.81,61.14L188.77,52.54L189.75,50.66L190.73,57.15L191.71,100.75L194.64,87.33L195.62,72.45L196.6,73.29L197.57,67.63L198.55,66.79L199.53,73.71L201.49,116.25L202.46,105.36L203.44,97.39L204.42,113.74L206.38,86.28L207.35,99.07L208.33,91.73L209.31,94.67L211.27,78.32L212.25,73.08L213.22,69.31L214.2,80.84L216.16,101.79L217.14,90.06L218.11,77.48L219.09,79.79L220.07,92.99L221.05,92.36L223,88.8L223.98,65.12L226.92,30.33L227.89,43.95L228.87,75.18L229.85,73.92L230.83,86.7L231.81,76.23L232.78,64.07L233.76,62.81L237.68,118.35L238.65,118.98L239.63,120.65L240.61,140.14L241.59,142.24L242.57,124.64L243.54,92.15L244.52,86.08L246.48,110.18L247.46,103.68L249.41,85.03L250.39,83.98L251.37,108.5L252.35,105.98L253.32,105.57L254.3,100.12L256.26,112.69L257.24,103.68L259.19,118.56L260.17,138.05L261.15,140.35L262.13,161.94L263.11,162.15L264.08,135.74L265.06,122.75L266.04,97.6L267.02,109.97L268,107.87L268.97,113.53L269.95,125.68L270.93,119.82L271.91,119.4L272.89,121.91L273.86,121.91L274.84,117.09L275.82,107.45L276.8,105.15L277.78,110.6L278.75,112.06L279.73,104.52L280.71,89.43L281.69,92.36L282.67,92.15L283.65,90.9L284.62,82.09L285.6,90.69L286.58,91.31L287.56,117.09L288.54,124.85L289.51,143.92L292.45,118.56L293.43,127.36L294.4,133.02L295.38,116.46L298.32,111.85L299.29,112.69L300.27,116.04L301.25,106.4L302.23,110.8L303.21,107.87L304.19,105.15L305.16,97.6L306.14,93.62L307.12,97.6L308.1,98.65L309.08,90.48L310.05,90.06L311.03,96.97L312.01,95.51L312.99,109.34L315.92,133.65L316.9,163.83L317.88,184.15L318.86,175.98L319.83,174.51L320.81,168.65L321.79,168.44L322.77,162.57L324.73,155.23L325.7,147.48L327.66,129.46L328.64,133.44L329.62,140.56L330.59,141.82L332.55,153.77L333.53,147.9L336.46,126.94L337.44,124.85L338.42,124.22L339.4,119.82L341.35,116.46L342.33,111.85L343.31,111.43L344.29,124.22L345.26,117.93L346.24,120.65L347.22,118.14L348.2,108.29L349.18,100.54L350.16,99.07L351.13,91.1L352.11,95.09L355.05,101.37L356.02,99.07L357,101.79L357.98,91.94L359.94,77.48L360.91,81.67L361.89,78.32L362.87,72.24L363.85,98.65L364.83,87.96L365.8,88.59L366.78,81.05L368.74,67.63L369.72,71.82L370.7,88.59L371.67,81.88L372.65,78.95L373.63,101.16L374.61,108.92L375.59,104.1L377.54,93.83L378.52,97.6L379.5,92.99L380.48,97.6L381.45,93.41L382.43,101.37L383.41,98.02L384.39,100.12L385.37,122.96L386.34,180.38L387.32,182.27L388.3,199.66L389.28,198.2L390.26,226.28L391.24,225.02L392.21,237.8L393.19,222.3L394.17,232.56L395.15,260.44L396.13,252.68L398.08,277.41L399.06,266.52L400.04,259.39L401.02,264.84L401.99,259.6L402.97,260.02L403.95,273.22L404.93,266.73L405.91,270.29L406.88,270.92L407.86,251.01L408.84,249.96L412.75,232.56L413.73,232.15L414.71,234.45L415.69,216.01L416.67,212.66L417.64,222.09L418.62,227.54L419.6,227.54L420.58,229.42L421.56,227.74L422.53,224.81L423.51,230.05L426.45,243.88L427.42,240.74L428.4,236.55L429.38,246.82L430.36,262.95L431.34,264.21L433.29,239.06L434.27,247.03L436.23,243.25L437.21,233.4L438.18,235.29L439.16,226.28L440.14,228.16L441.12,227.12L443.07,227.33L444.05,229.63L445.03,230.26L446.01,229.42L446.99,228.37L447.96,217.69L449.92,186.67L450.9,189.18L451.88,184.78L452.85,192.33L453.83,204.06L454.81,206.58L455.79,216.43L456.77,217.48L458.72,220.2L459.7,228.58L460.68,228.16L461.66,223.97L463.61,207.21L464.59,213.7L465.57,213.07L466.55,199.45L467.53,183.53L468.5,191.91L470.46,182.27L471.44,187.72L472.42,196.31L473.39,195.26L474.37,197.36L475.35,188.35L476.33,190.86L477.31,188.97L478.28,188.76L479.26,189.39L480.24,191.49L481.22,179.12L482.2,175.35L483.18,179.54L487.09,167.81L488.07,167.81L489.04,166.76L490.02,174.3L491,178.08" style="vector-effect: non-scaling-stroke; fill: none; stroke: rgb(105, 105, 105); stroke-opacity: 1; stroke-width: 2px; opacity: 1;"/></g><g class="points"/><g class="text"/></g></g></g><g class="overplot"/><path class="xlines-above crisp" d="M0,0" style="fill: none;"/><path class="ylines-above crisp" d="M0,0" style="fill: none;"/><g class="overlines-above"/><g class="xaxislayer-above"><g class="xtick"><text text-anchor="start" x="0" y="422" transform="translate(80,0) rotate(90,0,416)" style="font-family: 'Open Sans', verdana, arial, sans-serif; font-size: 12px; fill: rgb(42, 63, 95); fill-opacity: 1; white-space: pre;">1/2/2018</text></g><g class="xtick"><text text-anchor="start" x="0" y="422" transform="translate(94.67,0) rotate(90,0,416)" style="font-family: 'Open Sans', verdana, arial, sans-serif; font-size: 12px; fill: rgb(42, 63, 95); fill-opacity: 1; white-space: pre;">1/24/2018</text></g><g class="xtick"><text text-anchor="start" x="0" y="422" transform="translate(109.34,0) rotate(90,0,416)" style="font-family: 'Open Sans', verdana, arial, sans-serif; font-size: 12px; fill: rgb(42, 63, 95); fill-opacity: 1; white-space: pre;">2/14/2018</text></g><g class="xtick"><text text-anchor="start" x="0" y="422" transform="translate(124.00999999999999,0) rotate(90,0,416)" style="font-family: 'Open Sans', verdana, arial, sans-serif; font-size: 12px; fill: rgb(42, 63, 95); fill-opacity: 1; white-space: pre;">3/8/2018</text></g><g class="xtick"><text text-anchor="start" x="0" y="422" transform="translate(138.69,0) rotate(90,0,416)" style="font-family: 'Open Sans', verdana, arial, sans-serif; font-size: 12px; fill: rgb(42, 63, 95); fill-opacity: 1; white-space: pre;">3/29/2018</text></g><g class="xtick"><text text-anchor="start" x="0" y="422" transform="translate(153.36,0) rotate(90,0,416)" style="font-family: 'Open Sans', verdana, arial, sans-serif; font-size: 12px; fill: rgb(42, 63, 95); fill-opacity: 1; white-space: pre;">4/20/2018</text></g><g class="xtick"><text text-anchor="start" x="0" y="422" transform="translate(168.03,0) rotate(90,0,416)" style="font-family: 'Open Sans', verdana, arial, sans-serif; font-size: 12px; fill: rgb(42, 63, 95); fill-opacity: 1; white-space: pre;">5/11/2018</text></g><g class="xtick"><text text-anchor="start" x="0" y="422" transform="translate(182.7,0) rotate(90,0,416)" style="font-family: 'Open Sans', verdana, arial, sans-serif; font-size: 12px; fill: rgb(42, 63, 95); fill-opacity: 1; white-space: pre;">6/4/2018</text></g><g class="xtick"><text text-anchor="start" x="0" y="422" transform="translate(197.37,0) rotate(90,0,416)" style="font-family: 'Open Sans', verdana, arial, sans-serif; font-size: 12px; fill: rgb(42, 63, 95); fill-opacity: 1; white-space: pre;">6/25/2018</text></g><g class="xtick"><text text-anchor="start" x="0" y="422" transform="translate(212.04,0) rotate(90,0,416)" style="font-family: 'Open Sans', verdana, arial, sans-serif; font-size: 12px; fill: rgb(42, 63, 95); fill-opacity: 1; white-space: pre;">7/17/2018</text></g><g class="xtick"><text text-anchor="start" x="0" y="422" transform="translate(226.71,0) rotate(90,0,416)" style="font-family: 'Open Sans', verdana, arial, sans-serif; font-size: 12px; fill: rgb(42, 63, 95); fill-opacity: 1; white-space: pre;">8/7/2018</text></g><g class="xtick"><text text-anchor="start" x="0" y="422" transform="translate(241.38,0) rotate(90,0,416)" style="font-family: 'Open Sans', verdana, arial, sans-serif; font-size: 12px; fill: rgb(42, 63, 95); fill-opacity: 1; white-space: pre;">8/28/2018</text></g><g class="xtick"><text text-anchor="start" x="0" y="422" transform="translate(256.06,0) rotate(90,0,416)" style="font-family: 'Open Sans', verdana, arial, sans-serif; font-size: 12px; fill: rgb(42, 63, 95); fill-opacity: 1; white-space: pre;">9/19/2018</text></g><g class="xtick"><text text-anchor="start" x="0" y="422" transform="translate(270.73,0) rotate(90,0,416)" style="font-family: 'Open Sans', verdana, arial, sans-serif; font-size: 12px; fill: rgb(42, 63, 95); fill-opacity: 1; white-space: pre;">10/10/2018</text></g><g class="xtick"><text text-anchor="start" x="0" y="422" transform="translate(285.4,0) rotate(90,0,416)" style="font-family: 'Open Sans', verdana, arial, sans-serif; font-size: 12px; fill: rgb(42, 63, 95); fill-opacity: 1; white-space: pre;">10/31/2018</text></g><g class="xtick"><text text-anchor="start" x="0" y="422" transform="translate(300.07,0) rotate(90,0,416)" style="font-family: 'Open Sans', verdana, arial, sans-serif; font-size: 12px; fill: rgb(42, 63, 95); fill-opacity: 1; white-space: pre;">11/21/2018</text></g><g class="xtick"><text text-anchor="start" x="0" y="422" transform="translate(314.74,0) rotate(90,0,416)" style="font-family: 'Open Sans', verdana, arial, sans-serif; font-size: 12px; fill: rgb(42, 63, 95); fill-opacity: 1; white-space: pre;">12/14/2018</text></g><g class="xtick"><text text-anchor="start" x="0" y="422" transform="translate(329.40999999999997,0) rotate(90,0,416)" style="font-family: 'Open Sans', verdana, arial, sans-serif; font-size: 12px; fill: rgb(42, 63, 95); fill-opacity: 1; white-space: pre;">1/8/2019</text></g><g class="xtick"><text text-anchor="start" x="0" y="422" transform="translate(344.08,0) rotate(90,0,416)" style="font-family: 'Open Sans', verdana, arial, sans-serif; font-size: 12px; fill: rgb(42, 63, 95); fill-opacity: 1; white-space: pre;">1/30/2019</text></g><g class="xtick"><text text-anchor="start" x="0" y="422" transform="translate(358.75,0) rotate(90,0,416)" style="font-family: 'Open Sans', verdana, arial, sans-serif; font-size: 12px; fill: rgb(42, 63, 95); fill-opacity: 1; white-space: pre;">2/21/2019</text></g><g class="xtick"><text text-anchor="start" x="0" y="422" transform="translate(373.43,0) rotate(90,0,416)" style="font-family: 'Open Sans', verdana, arial, sans-serif; font-size: 12px; fill: rgb(42, 63, 95); fill-opacity: 1; white-space: pre;">3/14/2019</text></g><g class="xtick"><text text-anchor="start" x="0" y="422" transform="translate(388.1,0) rotate(90,0,416)" style="font-family: 'Open Sans', verdana, arial, sans-serif; font-size: 12px; fill: rgb(42, 63, 95); fill-opacity: 1; white-space: pre;">4/4/2019</text></g><g class="xtick"><text text-anchor="start" x="0" y="422" transform="translate(402.77,0) rotate(90,0,416)" style="font-family: 'Open Sans', verdana, arial, sans-serif; font-size: 12px; fill: rgb(42, 63, 95); fill-opacity: 1; white-space: pre;">4/26/2019</text></g><g class="xtick"><text text-anchor="start" x="0" y="422" transform="translate(417.44,0) rotate(90,0,416)" style="font-family: 'Open Sans', verdana, arial, sans-serif; font-size: 12px; fill: rgb(42, 63, 95); fill-opacity: 1; white-space: pre;">5/17/2019</text></g><g class="xtick"><text text-anchor="start" x="0" y="422" transform="translate(432.11,0) rotate(90,0,416)" style="font-family: 'Open Sans', verdana, arial, sans-serif; font-size: 12px; fill: rgb(42, 63, 95); fill-opacity: 1; white-space: pre;">6/10/2019</text></g><g class="xtick"><text text-anchor="start" x="0" y="422" transform="translate(446.78,0) rotate(90,0,416)" style="font-family: 'Open Sans', verdana, arial, sans-serif; font-size: 12px; fill: rgb(42, 63, 95); fill-opacity: 1; white-space: pre;">7/1/2019</text></g><g class="xtick"><text text-anchor="start" x="0" y="422" transform="translate(461.45,0) rotate(90,0,416)" style="font-family: 'Open Sans', verdana, arial, sans-serif; font-size: 12px; fill: rgb(42, 63, 95); fill-opacity: 1; white-space: pre;">7/23/2019</text></g><g class="xtick"><text text-anchor="start" x="0" y="422" transform="translate(476.13,0) rotate(90,0,416)" style="font-family: 'Open Sans', verdana, arial, sans-serif; font-size: 12px; fill: rgb(42, 63, 95); fill-opacity: 1; white-space: pre;">8/13/2019</text></g><g class="xtick"><text text-anchor="start" x="0" y="422" transform="translate(490.8,0) rotate(90,0,416)" style="font-family: 'Open Sans', verdana, arial, sans-serif; font-size: 12px; fill: rgb(42, 63, 95); fill-opacity: 1; white-space: pre;">9/4/2019</text></g><g class="xtick"><text text-anchor="start" x="0" y="422" transform="translate(505.47,0) rotate(90,0,416)" style="font-family: 'Open Sans', verdana, arial, sans-serif; font-size: 12px; fill: rgb(42, 63, 95); fill-opacity: 1; white-space: pre;">9/25/2019</text></g><g class="xtick"><text text-anchor="start" x="0" y="422" transform="translate(520.14,0) rotate(90,0,416)" style="font-family: 'Open Sans', verdana, arial, sans-serif; font-size: 12px; fill: rgb(42, 63, 95); fill-opacity: 1; white-space: pre;">10/16/2019</text></g><g class="xtick"><text text-anchor="start" x="0" y="422" transform="translate(534.81,0) rotate(90,0,416)" style="font-family: 'Open Sans', verdana, arial, sans-serif; font-size: 12px; fill: rgb(42, 63, 95); fill-opacity: 1; white-space: pre;">11/6/2019</text></g><g class="xtick"><text text-anchor="start" x="0" y="422" transform="translate(549.48,0) rotate(90,0,416)" style="font-family: 'Open Sans', verdana, arial, sans-serif; font-size: 12px; fill: rgb(42, 63, 95); fill-opacity: 1; white-space: pre;">11/27/2019</text></g><g class="xtick"><text text-anchor="start" x="0" y="422" transform="translate(564.15,0) rotate(90,0,416)" style="font-family: 'Open Sans', verdana, arial, sans-serif; font-size: 12px; fill: rgb(42, 63, 95); fill-opacity: 1; white-space: pre;">12/19/2019</text></g></g><g class="yaxislayer-above"><g class="ytick"><text text-anchor="end" x="79" y="4.199999999999999" transform="translate(0,376.78)" style="font-family: 'Open Sans', verdana, arial, sans-serif; font-size: 12px; fill: rgb(42, 63, 95); fill-opacity: 1; white-space: pre;">34</text></g><g class="ytick"><text text-anchor="end" x="79" y="4.199999999999999" transform="translate(0,334.87)" style="font-family: 'Open Sans', verdana, arial, sans-serif; font-size: 12px; fill: rgb(42, 63, 95); fill-opacity: 1; white-space: pre;">36</text></g><g class="ytick"><text text-anchor="end" x="79" y="4.199999999999999" transform="translate(0,292.96000000000004)" style="font-family: 'Open Sans', verdana, arial, sans-serif; font-size: 12px; fill: rgb(42, 63, 95); fill-opacity: 1; white-space: pre;">38</text></g><g class="ytick"><text text-anchor="end" x="79" y="4.199999999999999" transform="translate(0,251.04)" style="font-family: 'Open Sans', verdana, arial, sans-serif; font-size: 12px; fill: rgb(42, 63, 95); fill-opacity: 1; white-space: pre;">40</text></g><g class="ytick"><text text-anchor="end" x="79" y="4.199999999999999" transform="translate(0,209.13)" style="font-family: 'Open Sans', verdana, arial, sans-serif; font-size: 12px; fill: rgb(42, 63, 95); fill-opacity: 1; white-space: pre;">42</text></g><g class="ytick"><text text-anchor="end" x="79" y="4.199999999999999" transform="translate(0,167.20999999999998)" style="font-family: 'Open Sans', verdana, arial, sans-serif; font-size: 12px; fill: rgb(42, 63, 95); fill-opacity: 1; white-space: pre;">44</text></g><g class="ytick"><text text-anchor="end" x="79" y="4.199999999999999" transform="translate(0,125.3)" style="font-family: 'Open Sans', verdana, arial, sans-serif; font-size: 12px; fill: rgb(42, 63, 95); fill-opacity: 1; white-space: pre;">46</text></g></g><g class="overaxes-above"/></g></g><g class="polarlayer"/><g class="ternarylayer"/><g class="geolayer"/><g class="funnelarealayer"/><g class="pielayer"/><g class="treemaplayer"/><g class="sunburstlayer"/><g class="glimages"/><defs id="topdefs-d6c294"><g class="clips"/><clipPath id="legendd6c294"><rect width="107" height="48" x="0" y="0"/></clipPath></defs><g class="layer-above"><g class="imagelayer"/><g class="shapelayer"/></g><g class="infolayer"><g class="legend" pointer-events="all" transform="translate(580.8199999999999, 100)"><rect class="bg" shape-rendering="crispEdges" style="stroke: rgb(68, 68, 68); stroke-opacity: 1; fill: rgb(255, 255, 255); fill-opacity: 1; stroke-width: 0px;" width="107" height="48" x="0" y="0"/><g class="scrollbox" transform="translate(0, 0)" clip-path="url('#legendd6c294')"><g class="groups"><g class="traces" transform="translate(0, 14.5)" style="opacity: 1;"><text class="legendtext user-select-none" text-anchor="start" x="40" y="4.680000000000001" style="font-family: 'Open Sans', verdana, arial, sans-serif; font-size: 12px; fill: rgb(42, 63, 95); fill-opacity: 1; white-space: pre;">PfizerHigh</text><g class="layers" style="opacity: 1;"><g class="legendfill"/><g class="legendlines"><path class="js-line" d="M5,0h30" style="fill: none; stroke: rgb(0, 191, 255); stroke-opacity: 1; stroke-width: 2px;"/></g><g class="legendsymbols"><g class="legendpoints"/></g></g><rect class="legendtoggle" pointer-events="all" x="0" y="-9.5" width="101.25" height="19" style="cursor: pointer; fill: rgb(0, 0, 0); fill-opacity: 0;"/></g><g class="traces" transform="translate(0, 33.5)" style="opacity: 1;"><text class="legendtext user-select-none" text-anchor="start" x="40" y="4.680000000000001" style="font-family: 'Open Sans', verdana, arial, sans-serif; font-size: 12px; fill: rgb(42, 63, 95); fill-opacity: 1; white-space: pre;">Pfizer Low</text><g class="layers" style="opacity: 1;"><g class="legendfill"/><g class="legendlines"><path class="js-line" d="M5,0h30" style="fill: none; stroke: rgb(105, 105, 105); stroke-opacity: 1; stroke-width: 2px;"/></g><g class="legendsymbols"><g class="legendpoints"/></g></g><rect class="legendtoggle" pointer-events="all" x="0" y="-9.5" width="101.25" height="19" style="cursor: pointer; fill: rgb(0, 0, 0); fill-opacity: 0;"/></g></g></g><rect class="scrollbar" rx="20" ry="3" width="0" height="0" style="fill: rgb(128, 139, 164); fill-opacity: 1;" x="0" y="0"/></g><g class="g-gtitle"><text class="gtitle" x="35" y="50" text-anchor="start" dy="0em" style="font-family: 'Open Sans', verdana, arial, sans-serif; font-size: 17px; fill: rgb(42, 63, 95); opacity: 1; font-weight: normal; white-space: pre;">Pfizer Time Series</text></g><g class="g-xtitle"/><g class="g-ytitle"/></g></svg>