<svg class="main-svg" xmlns="http://www.w3.org/2000/svg" xmlns:xlink="http://www.w3.org/1999/xlink" width="400" height="400" viewBox="0 0 400 400"><rect x="0" y="0" width="400" height="400" style="fill: rgb(255, 255, 255); fill-opacity: 1;"/><defs id="defs-f987e1"><g class="clips"><clipPath id="clipf987e1xyplot" class="plotclip"><rect width="240" height="220"/></clipPath><clipPath class="axesclip" id="clipf987e1x"><rect x="80" y="0" width="240" height="400"/></clipPath><clipPath class="axesclip" id="clipf987e1y"><rect x="0" y="100" width="400" height="220"/></clipPath><clipPath class="axesclip" id="clipf987e1xy"><rect x="80" y="100" width="240" height="220"/></clipPath></g><g class="gradients"/></defs><g class="bglayer"><rect class="bg" x="80" y="100" width="240" height="220" style="fill: rgb(229, 236, 246); fill-opacity: 1; stroke-width: 0;"/></g><g class="layer-below"><g class="imagelayer"/><g class="shapelayer"/></g><g class="cartesianlayer"><g class="subplot xy"><g class="layer-subplot"><g class="shapelayer"/><g class="imagelayer"/></g><g class="gridlayer"><g class="x"><path class="xgrid crisp" transform="translate(200,0)" d="M0,100v220" style="stroke: rgb(255, 255, 255); stroke-opacity: 1; stroke-width: 1px;"/><path class="xgrid crisp" transform="translate(318,0)" d="M0,100v220" style="stroke: rgb(255, 255, 255); stroke-opacity: 1; stroke-width: 1px;"/></g><g class="y"><path class="ygrid crisp" transform="translate(0,315.81)" d="M80,0h240" style="stroke: rgb(255, 255, 255); stroke-opacity: 1; stroke-width: 1px;"/><path class="ygrid crisp" transform="translate(0,261.15)" d="M80,0h240" style="stroke: rgb(255, 255, 255); stroke-opacity: 1; stroke-width: 1px;"/><path class="ygrid crisp" transform="translate(0,206.48000000000002)" d="M80,0h240" style="stroke: rgb(255, 255, 255); stroke-opacity: 1; stroke-width: 1px;"/><path class="ygrid crisp" transform="translate(0,151.82)" d="M80,0h240" style="stroke: rgb(255, 255, 255); stroke-opacity: 1; stroke-width: 1px;"/></g></g><g class="zerolinelayer"><path class="xzl zl crisp" transform="translate(82,0)" d="M0,100v220" style="stroke: rgb(255, 255, 255); stroke-opacity: 1; stroke-width: 2px;"/></g><path class="xlines-below"/><path class="ylines-below"/><g class="overlines-below"/><g class="xaxislayer-below"/><g class="yaxislayer-below"/><g class="overaxes-below"/><g class="plot" transform="translate(80, 100)" clip-path="url('#clipf987e1xyplot')"><g class="scatterlayer mlayer"><g class="trace scatter trace279a7f" style="stroke-miterlimit: 2; opacity: 1;"><g class="fills"/><g class="errorbars"/><g class="lines"><path class="js-line" d="M2,133.45L3.18,101.38L3.42,107.21L3.65,104.3L4.6,98.46L4.83,95.55L5.3,95.55L5.54,98.46L6.48,92.63L6.72,92.63L6.96,92.63L7.19,95.55L7.43,95.55L7.66,104.3L8.14,104.3L8.37,101.38L8.84,104.3L9.08,101.38L9.32,101.38L10.5,89.72L10.73,86.8L11.2,83.89L11.68,95.55L11.91,95.55L12.38,95.55L12.62,98.46L12.86,101.38L13.09,92.63L13.33,92.63L13.56,83.89L13.8,83.89L14.04,86.8L14.27,89.72L14.51,83.89L14.74,86.8L14.98,83.89L15.69,83.89L15.92,78.06L16.16,75.14L16.4,78.06L16.63,86.8L18.05,75.14L18.28,78.06L18.52,83.89L18.99,78.06L19.23,78.06L19.7,80.97L20.41,69.31L20.64,78.06L21.35,75.14L21.59,78.06L22.53,78.06L22.77,66.39L23.24,75.14L23.48,69.31L23.71,69.31L24.42,83.89L24.66,69.31L25.6,75.14L25.84,72.23L26.31,75.14L26.78,66.39L27.02,72.23L27.25,78.06L27.72,72.23L27.96,63.48L28.2,72.23L28.67,63.48L28.9,69.31L29.14,69.31L29.38,66.39L29.85,72.23L30.32,69.31L30.56,66.39L30.79,66.39L31.03,57.65L31.97,75.14L32.21,66.39L32.68,66.39L32.92,63.48L33.15,63.48L33.39,60.56L33.62,72.23L34.1,66.39L34.33,66.39L35.28,57.65L35.51,63.48L35.75,66.39L35.98,60.56L36.22,60.56L36.69,66.39L37.16,63.48L37.4,60.56L37.64,66.39L38.11,60.56L38.34,60.56L38.58,60.56L38.82,51.82L39.76,66.39L40,63.48L40.47,60.56L40.7,66.39L41.88,54.73L42.12,57.65L42.36,54.73L42.59,66.39L43.77,43.07L44.01,54.73L44.95,60.56L45.19,51.82L45.42,63.48L45.9,57.65L46.13,60.56L46.84,45.99L47.08,54.73L47.31,57.65L47.55,54.73L47.78,60.56L48.02,60.56L49.2,48.9L49.44,66.39L49.67,63.48L49.91,43.07L50.38,54.73L50.62,45.99L51.56,60.56L51.8,51.82L52.03,51.82L52.27,48.9L52.5,45.99L52.74,48.9L52.98,54.73L53.45,43.07L53.68,48.9L53.92,51.82L54.86,54.73L55.1,45.99L55.34,54.73L55.81,51.82L56.04,45.99L56.99,48.9L57.22,48.9L57.7,51.82L57.93,45.99L58.17,51.82L58.64,51.82L58.88,48.9L59.11,48.9L59.35,45.99L59.58,40.15L59.82,45.99L60.06,60.56L60.53,43.07L61,45.99L61.24,40.15L62.18,51.82L62.42,48.9L62.65,48.9L62.89,43.07L63.12,69.31L63.6,57.65L63.83,40.15L64.3,45.99L64.54,34.32L65.48,51.82L65.72,48.9L65.96,48.9L66.19,43.07L66.43,37.24L66.9,43.07L67.14,48.9L67.84,40.15L68.08,43.07L68.32,48.9L68.55,51.82L68.79,37.24L69.02,34.32L69.26,45.99L70.2,54.73L70.44,51.82L70.68,40.15L71.15,43.07L71.38,43.07L72.33,54.73L72.56,45.99L72.8,45.99L73.04,48.9L73.27,45.99L73.51,57.65L73.74,45.99L74.22,48.9L74.45,48.9L75.4,40.15L75.63,48.9L75.87,48.9L76.1,57.65L76.34,57.65L76.58,54.73L77.05,43.07L77.28,51.82L77.52,54.73L77.76,54.73L77.99,51.82L78.23,54.73L78.46,45.99L78.7,45.99L78.94,51.82L79.41,48.9L79.64,54.73L79.88,51.82L80.12,57.65L80.35,54.73L80.59,48.9L81.06,54.73L81.3,48.9L81.53,45.99L82.71,51.82L82.95,51.82L83.18,45.99L83.66,51.82L83.89,54.73L84.36,43.07L84.6,48.9L84.84,54.73L85.07,43.07L85.54,48.9L85.78,51.82L86.02,57.65L86.25,48.9L86.49,45.99L86.72,45.99L86.96,51.82L87.2,51.82L87.43,57.65L88.38,48.9L88.61,48.9L88.85,51.82L89.08,43.07L90.26,54.73L90.5,54.73L90.74,54.73L90.97,51.82L91.21,48.9L91.44,54.73L91.68,57.65L91.92,57.65L92.15,51.82L92.39,51.82L92.62,45.99L92.86,54.73L93.1,48.9L93.33,40.15L94.51,63.48L94.75,51.82L94.98,51.82L95.22,54.73L95.46,60.56L95.69,54.73L95.93,51.82L96.16,48.9L96.4,60.56L96.64,54.73L97.11,60.56L97.34,57.65L97.58,60.56L97.82,57.65L98.05,48.9L99,60.56L99.23,43.07L99.7,57.65L99.94,51.82L100.18,48.9L100.65,57.65L100.88,48.9L101.83,57.65L102.06,48.9L102.3,43.07L102.54,51.82L102.77,51.82L103.24,51.82L103.48,48.9L103.72,60.56L104.19,54.73L104.42,51.82L104.9,43.07L105.13,57.65L105.37,57.65L105.6,51.82L105.84,51.82L106.08,57.65L106.55,43.07L106.78,51.82L107.73,43.07L107.96,51.82L108.2,54.73L108.67,51.82L108.91,48.9L109.62,63.48L109.85,51.82L110.09,60.56L110.32,43.07L110.56,48.9L110.8,48.9L111.03,54.73L111.74,37.24L111.98,40.15L112.21,48.9L112.45,40.15L112.68,54.73L112.92,43.07L113.16,48.9L113.63,40.15L114.1,43.07L114.34,45.99L114.57,48.9L114.81,45.99L115.04,40.15L115.75,54.73L115.99,40.15L116.22,57.65L116.7,45.99L116.93,48.9L117.17,48.9L117.4,43.07L118.11,51.82L118.35,40.15L118.82,37.24L119.06,45.99L119.29,40.15L119.53,37.24L119.76,48.9L120.94,34.32L121.18,34.32L121.65,48.9L121.89,40.15L122.12,31.41L122.36,54.73L122.83,40.15L123.07,31.41L123.78,60.56L124.01,37.24L124.72,45.99L124.96,43.07L125.43,54.73L125.66,37.24L126.37,45.99L126.61,37.24L126.84,48.9L127.32,43.07L127.55,37.24L127.79,34.32L128.02,43.07L128.97,37.24L129.2,51.82L130.38,25.58L130.62,43.07L131.09,31.41L131.33,45.99L132.27,37.24L132.51,40.15L132.98,34.32L133.22,48.9L133.69,34.32L133.92,54.73L134.87,34.32L135.1,37.24L135.34,37.24L135.58,34.32L135.81,34.32L136.05,40.15L136.76,28.49L136.99,40.15L137.23,48.9L137.7,43.07L137.94,40.15L138.17,31.41L138.64,40.15L138.88,37.24L139.12,48.9L139.35,45.99L139.59,31.41L140.06,34.32L140.3,31.41L140.53,45.99L141.24,34.32L141.48,37.24L141.71,31.41L141.95,40.15L142.18,34.32L142.42,28.49L142.66,43.07L143.36,40.15L143.6,34.32L144.31,34.32L144.54,31.41L145.25,48.9L145.49,45.99L145.72,31.41L145.96,25.58L146.2,31.41L146.43,34.32L146.67,28.49L146.9,37.24L147.14,34.32L147.38,34.32L147.61,34.32L147.85,37.24L148.08,37.24L148.32,40.15L149.26,31.41L149.5,34.32L149.74,25.58L150.21,31.41L150.44,31.41L150.68,28.49L150.92,31.41L151.15,34.32L151.39,34.32L151.62,31.41L152.1,31.41L152.33,34.32L152.57,34.32L152.8,37.24L153.28,25.58L153.75,31.41L153.98,34.32L154.22,28.49L154.46,31.41L154.69,37.24L155.4,25.58L155.64,31.41L155.87,34.32L156.11,25.58L156.34,37.24L156.58,40.15L158,28.49L158.23,34.32L158.47,25.58L158.94,31.41L159.18,37.24L159.41,40.15L159.65,31.41L160.12,34.32L160.36,31.41L160.59,31.41L161.3,37.24L161.54,25.58L161.77,45.99L162.24,37.24L162.48,28.49L162.95,25.58L163.19,28.49L163.42,31.41L164.13,31.41L164.37,28.49L165.08,34.32L165.31,28.49L165.55,25.58L165.78,31.41L166.02,37.24L166.73,25.58L166.96,28.49L167.2,31.41L168.14,19.75L168.38,34.32L169.09,25.58L169.32,31.41L169.8,28.49L170.03,34.32L170.74,25.58L171.21,28.49L171.45,34.32L171.68,34.32L171.92,28.49L172.16,28.49L172.39,37.24L173.34,22.66L173.57,28.49L174.52,34.32L174.75,31.41L175.22,34.32L175.46,31.41L175.7,28.49L176.64,34.32L176.88,28.49L177.58,40.15L177.82,34.32L178.53,25.58L178.76,31.41L179.71,34.32L179.94,31.41L180.18,34.32L180.42,31.41L180.65,28.49L181.6,34.32L181.83,28.49L182.07,31.41L182.3,28.49L182.54,22.66L183.25,40.15L183.48,28.49L184.19,40.15L184.43,37.24L184.66,34.32L185.14,37.24L185.61,28.49L185.84,31.41L186.32,28.49L186.55,37.24L186.79,31.41L187.26,31.41L187.5,34.32L187.73,25.58L188.2,34.32L188.44,34.32L188.68,34.32L188.91,37.24L189.86,28.49L190.09,28.49L190.56,28.49L190.8,34.32L191.51,31.41L191.74,40.15L192.69,34.32L192.92,34.32L193.16,40.15L193.63,34.32L193.87,37.24L194.1,37.24L194.34,31.41L194.58,48.9L195.05,34.32L195.28,37.24L195.52,40.15L195.99,37.24L196.23,34.32L196.46,34.32L196.7,31.41L197.64,37.24L197.88,34.32L198.35,43.07L198.59,40.15L198.82,31.41L199.53,54.73L199.77,40.15L200.71,34.32L200.95,37.24L201.42,40.15L201.66,34.32L201.89,28.49L202.36,31.41L202.6,31.41L202.84,48.9L203.31,34.32L203.54,34.32L204.02,37.24L204.49,31.41L204.72,40.15L204.96,34.32L205.43,37.24L205.67,37.24L205.9,34.32L206.14,37.24L206.38,45.99L207.32,16.83L207.56,31.41L207.79,25.58L208.03,34.32L208.26,37.24L208.5,34.32L208.97,37.24L209.21,40.15L209.44,40.15L209.68,31.41L209.92,28.49L210.15,34.32L210.39,37.24L210.86,22.66L211.1,34.32L211.33,37.24L211.57,45.99L211.8,34.32L212.04,40.15L212.28,40.15L212.51,31.41L212.75,37.24L212.98,45.99L213.22,45.99L213.46,40.15L214.16,28.49L214.4,40.15L214.87,28.49L215.11,37.24L216.05,25.58L216.29,34.32L217,43.07L217.23,34.32L217.47,28.49L217.7,31.41L217.94,37.24L218.65,31.41L218.88,37.24L219.12,40.15L219.36,37.24L219.59,34.32L219.83,31.41L220.06,40.15L221.01,22.66L221.24,31.41L221.48,31.41L221.72,34.32L222.19,28.49L222.42,34.32L222.66,40.15L223.13,25.58L223.6,28.49L223.84,31.41L224.08,28.49L224.31,34.32L224.55,31.41L224.78,34.32L225.26,25.58L225.49,34.32L225.73,37.24L226.44,11L226.67,22.66L226.91,37.24L227.85,25.58L228.09,31.41L228.32,34.32L228.56,25.58L228.8,22.66L229.03,34.32L229.27,25.58L229.5,37.24L229.74,40.15L230.21,25.58L230.68,31.41L230.92,45.99L231.16,43.07L231.39,22.66L231.63,16.83L231.86,22.66L232.1,28.49L232.57,37.24L232.81,34.32L233.04,34.32L233.28,34.32L233.52,37.24L233.75,37.24L233.99,22.66L234.93,43.07L235.17,28.49L235.4,31.41L235.64,25.58L235.88,28.49L236.11,43.07L237.06,22.66L237.29,31.41L237.53,31.41L237.76,19.75" style="vector-effect: non-scaling-stroke; fill: none; stroke: rgb(99, 110, 250); stroke-opacity: 1; stroke-width: 2px; opacity: 1;"/></g><g class="points"/><g class="text"/></g></g></g><g class="overplot"/><path class="xlines-above crisp" d="M0,0" style="fill: none;"/><path class="ylines-above crisp" d="M0,0" style="fill: none;"/><g class="overlines-above"/><g class="xaxislayer-above"><g class="xtick"><text text-anchor="middle" x="0" y="333" transform="translate(82,0)" style="font-family: 'Open Sans', verdana, arial, sans-serif; font-size: 12px; fill: rgb(42, 63, 95); fill-opacity: 1; white-space: pre;">0</text></g><g class="xtick"><text text-anchor="middle" x="0" y="333" transform="translate(200,0)" style="font-family: 'Open Sans', verdana, arial, sans-serif; font-size: 12px; fill: rgb(42, 63, 95); fill-opacity: 1; white-space: pre;">500</text></g><g class="xtick"><text text-anchor="middle" x="0" y="333" transform="translate(318,0)" style="font-family: 'Open Sans', verdana, arial, sans-serif; font-size: 12px; fill: rgb(42, 63, 95); fill-opacity: 1; white-space: pre;">1000</text></g></g><g class="yaxislayer-above"><g class="ytick"><text text-anchor="end" x="79" y="4.199999999999999" transform="translate(0,315.81)" style="font-family: 'Open Sans', verdana, arial, sans-serif; font-size: 12px; fill: rgb(42, 63, 95); fill-opacity: 1; white-space: pre;">0.45</text></g><g class="ytick"><text text-anchor="end" x="79" y="4.199999999999999" transform="translate(0,261.15)" style="font-family: 'Open Sans', verdana, arial, sans-serif; font-size: 12px; fill: rgb(42, 63, 95); fill-opacity: 1; white-space: pre;">0.5</text></g><g class="ytick"><text text-anchor="end" x="79" y="4.199999999999999" transform="translate(0,206.48000000000002)" style="font-family: 'Open Sans', verdana, arial, sans-serif; font-size: 12px; fill: rgb(42, 63, 95); fill-opacity: 1; white-space: pre;">0.55</text></g><g class="ytick"><text text-anchor="end" x="79" y="4.199999999999999" transform="translate(0,151.82)" style="font-family: 'Open Sans', verdana, arial, sans-serif; font-size: 12px; fill: rgb(42, 63, 95); fill-opacity: 1; white-space: pre;">0.6</text></g></g><g class="overaxes-above"/></g></g><g class="polarlayer"/><g class="ternarylayer"/><g class="geolayer"/><g class="funnelarealayer"/><g class="pielayer"/><g class="treemaplayer"/><g class="sunburstlayer"/><g class="glimages"/><defs id="topdefs-f987e1"><g class="clips"/></defs><g class="layer-above"><g class="imagelayer"/><g class="shapelayer"><path data-index="0" fill-rule="evenodd" d="M82,318L318,318" clip-path="url('#clipf987e1xy')" style="opacity: 1; stroke: rgb(32, 178, 170); stroke-opacity: 1; fill: rgb(0, 0, 0); fill-opacity: 0; stroke-dasharray: 12px, 4px, 4px, 4px; stroke-width: 4px;"/></g></g><g class="infolayer"><g class="g-gtitle"><text class="gtitle" x="20" y="50" text-anchor="start" dy="0em" style="font-family: 'Open Sans', verdana, arial, sans-serif; font-size: 17px; fill: rgb(42, 63, 95); opacity: 1; font-weight: normal; white-space: pre;">Training Accuracy, Pfizer</text></g><g class="g-xtitle"><text class="xtitle" x="200" y="360.890625" text-anchor="middle" style="font-family: 'Open Sans', verdana, arial, sans-serif; font-size: 15px; fill: rgb(42, 63, 95); opacity: 1; font-weight: normal; white-space: pre;">Epoch</text></g><g class="g-ytitle"><text class="ytitle" transform="rotate(-90,26.234375,210)" x="26.234375" y="210" text-anchor="middle" style="font-family: 'Open Sans', verdana, arial, sans-serif; font-size: 15px; fill: rgb(42, 63, 95); opacity: 1; font-weight: normal; white-space: pre;">Accuracy</text></g></g></svg>