<svg class="main-svg" xmlns="http://www.w3.org/2000/svg" xmlns:xlink="http://www.w3.org/1999/xlink" width="700" height="500" viewBox="0 0 700 500"><rect x="0" y="0" width="700" height="500" style="fill: rgb(255, 255, 255); fill-opacity: 1;"/><defs id="defs-cf1e93"><g class="clips"><clipPath id="clipcf1e93xyplot" class="plotclip"><rect width="497" height="309"/></clipPath><clipPath class="axesclip" id="clipcf1e93x"><rect x="80" y="0" width="497" height="500"/></clipPath><clipPath class="axesclip" id="clipcf1e93y"><rect x="0" y="100" width="700" height="309"/></clipPath><clipPath class="axesclip" id="clipcf1e93xy"><rect x="80" y="100" width="497" height="309"/></clipPath></g><g class="gradients"/></defs><g class="bglayer"><rect class="bg" x="80" y="100" width="497" height="309" style="fill: rgb(229, 236, 246); fill-opacity: 1; stroke-width: 0;"/></g><g class="layer-below"><g class="imagelayer"/><g class="shapelayer"/></g><g class="cartesianlayer"><g class="subplot xy"><g class="layer-subplot"><g class="shapelayer"/><g class="imagelayer"/></g><g class="gridlayer"><g class="x"><path class="xgrid crisp" transform="translate(94.85,0)" d="M0,100v309" style="stroke: rgb(255, 255, 255); stroke-opacity: 1; stroke-width: 1px;"/><path class="xgrid crisp" transform="translate(109.7,0)" d="M0,100v309" style="stroke: rgb(255, 255, 255); stroke-opacity: 1; stroke-width: 1px;"/><path class="xgrid crisp" transform="translate(124.55,0)" d="M0,100v309" style="stroke: rgb(255, 255, 255); stroke-opacity: 1; stroke-width: 1px;"/><path class="xgrid crisp" transform="translate(139.4,0)" d="M0,100v309" style="stroke: rgb(255, 255, 255); stroke-opacity: 1; stroke-width: 1px;"/><path class="xgrid crisp" transform="translate(154.25,0)" d="M0,100v309" style="stroke: rgb(255, 255, 255); stroke-opacity: 1; stroke-width: 1px;"/><path class="xgrid crisp" transform="translate(169.1,0)" d="M0,100v309" style="stroke: rgb(255, 255, 255); stroke-opacity: 1; stroke-width: 1px;"/><path class="xgrid crisp" transform="translate(183.95,0)" d="M0,100v309" style="stroke: rgb(255, 255, 255); stroke-opacity: 1; stroke-width: 1px;"/><path class="xgrid crisp" transform="translate(198.8,0)" d="M0,100v309" style="stroke: rgb(255, 255, 255); stroke-opacity: 1; stroke-width: 1px;"/><path class="xgrid crisp" transform="translate(213.66,0)" d="M0,100v309" style="stroke: rgb(255, 255, 255); stroke-opacity: 1; stroke-width: 1px;"/><path class="xgrid crisp" transform="translate(228.51,0)" d="M0,100v309" style="stroke: rgb(255, 255, 255); stroke-opacity: 1; stroke-width: 1px;"/><path class="xgrid crisp" transform="translate(243.36,0)" d="M0,100v309" style="stroke: rgb(255, 255, 255); stroke-opacity: 1; stroke-width: 1px;"/><path class="xgrid crisp" transform="translate(258.21000000000004,0)" d="M0,100v309" style="stroke: rgb(255, 255, 255); stroke-opacity: 1; stroke-width: 1px;"/><path class="xgrid crisp" transform="translate(273.06,0)" d="M0,100v309" style="stroke: rgb(255, 255, 255); stroke-opacity: 1; stroke-width: 1px;"/><path class="xgrid crisp" transform="translate(287.90999999999997,0)" d="M0,100v309" style="stroke: rgb(255, 255, 255); stroke-opacity: 1; stroke-width: 1px;"/><path class="xgrid crisp" transform="translate(302.76,0)" d="M0,100v309" style="stroke: rgb(255, 255, 255); stroke-opacity: 1; stroke-width: 1px;"/><path class="xgrid crisp" transform="translate(317.61,0)" d="M0,100v309" style="stroke: rgb(255, 255, 255); stroke-opacity: 1; stroke-width: 1px;"/><path class="xgrid crisp" transform="translate(332.46000000000004,0)" d="M0,100v309" style="stroke: rgb(255, 255, 255); stroke-opacity: 1; stroke-width: 1px;"/><path class="xgrid crisp" transform="translate(347.31,0)" d="M0,100v309" style="stroke: rgb(255, 255, 255); stroke-opacity: 1; stroke-width: 1px;"/><path class="xgrid crisp" transform="translate(362.16,0)" d="M0,100v309" style="stroke: rgb(255, 255, 255); stroke-opacity: 1; stroke-width: 1px;"/><path class="xgrid crisp" transform="translate(377.01,0)" d="M0,100v309" style="stroke: rgb(255, 255, 255); stroke-opacity: 1; stroke-width: 1px;"/><path class="xgrid crisp" transform="translate(391.86,0)" d="M0,100v309" style="stroke: rgb(255, 255, 255); stroke-opacity: 1; stroke-width: 1px;"/><path class="xgrid crisp" transform="translate(406.71,0)" d="M0,100v309" style="stroke: rgb(255, 255, 255); stroke-opacity: 1; stroke-width: 1px;"/><path class="xgrid crisp" transform="translate(421.56,0)" d="M0,100v309" style="stroke: rgb(255, 255, 255); stroke-opacity: 1; stroke-width: 1px;"/><path class="xgrid crisp" transform="translate(436.41,0)" d="M0,100v309" style="stroke: rgb(255, 255, 255); stroke-opacity: 1; stroke-width: 1px;"/><path class="xgrid crisp" transform="translate(451.26,0)" d="M0,100v309" style="stroke: rgb(255, 255, 255); stroke-opacity: 1; stroke-width: 1px;"/><path class="xgrid crisp" transform="translate(466.12,0)" d="M0,100v309" style="stroke: rgb(255, 255, 255); stroke-opacity: 1; stroke-width: 1px;"/><path class="xgrid crisp" transform="translate(480.97,0)" d="M0,100v309" style="stroke: rgb(255, 255, 255); stroke-opacity: 1; stroke-width: 1px;"/><path class="xgrid crisp" transform="translate(495.82,0)" d="M0,100v309" style="stroke: rgb(255, 255, 255); stroke-opacity: 1; stroke-width: 1px;"/><path class="xgrid crisp" transform="translate(510.67,0)" d="M0,100v309" style="stroke: rgb(255, 255, 255); stroke-opacity: 1; stroke-width: 1px;"/><path class="xgrid crisp" transform="translate(525.52,0)" d="M0,100v309" style="stroke: rgb(255, 255, 255); stroke-opacity: 1; stroke-width: 1px;"/><path class="xgrid crisp" transform="translate(540.37,0)" d="M0,100v309" style="stroke: rgb(255, 255, 255); stroke-opacity: 1; stroke-width: 1px;"/><path class="xgrid crisp" transform="translate(555.22,0)" d="M0,100v309" style="stroke: rgb(255, 255, 255); stroke-opacity: 1; stroke-width: 1px;"/><path class="xgrid crisp" transform="translate(570.0699999999999,0)" d="M0,100v309" style="stroke: rgb(255, 255, 255); stroke-opacity: 1; stroke-width: 1px;"/></g><g class="y"><path class="ygrid crisp" transform="translate(0,377.07)" d="M80,0h497" style="stroke: rgb(255, 255, 255); stroke-opacity: 1; stroke-width: 1px;"/><path class="ygrid crisp" transform="translate(0,315.36)" d="M80,0h497" style="stroke: rgb(255, 255, 255); stroke-opacity: 1; stroke-width: 1px;"/><path class="ygrid crisp" transform="translate(0,253.65)" d="M80,0h497" style="stroke: rgb(255, 255, 255); stroke-opacity: 1; stroke-width: 1px;"/><path class="ygrid crisp" transform="translate(0,191.95)" d="M80,0h497" style="stroke: rgb(255, 255, 255); stroke-opacity: 1; stroke-width: 1px;"/><path class="ygrid crisp" transform="translate(0,130.24)" d="M80,0h497" style="stroke: rgb(255, 255, 255); stroke-opacity: 1; stroke-width: 1px;"/></g></g><g class="zerolinelayer"/><path class="xlines-below"/><path class="ylines-below"/><g class="overlines-below"/><g class="xaxislayer-below"/><g class="yaxislayer-below"/><g class="overaxes-below"/><g class="plot" transform="translate(80, 100)" clip-path="url('#clipcf1e93xyplot')"><g class="scatterlayer mlayer"><g class="trace scatter traceb931bb" style="stroke-miterlimit: 2; opacity: 1;"><g class="fills"/><g class="errorbars"/><g class="lines"><path class="js-line" d="M0,185.77L2.97,171.1L3.96,169.54L4.95,166.26L5.94,168.83L8.91,151.33L9.9,151.48L10.89,151.85L11.88,150.47L13.86,140.62L14.85,137.31L15.84,138.67L16.83,131.17L17.82,131.86L18.81,142.01L19.8,141.54L20.79,142.56L22.77,164.95L23.76,184.19L24.75,175.97L25.74,189.05L26.73,203.43L27.72,192.96L28.71,194.12L29.7,183.86L31.68,167.72L32.67,172.91L33.66,169.77L34.65,174.86L35.64,169.77L36.63,159.63L37.62,157L38.61,165.53L40.59,185.66L41.58,175.84L42.57,174.61L43.56,175.07L44.55,172.03L45.54,157.8L47.52,153.07L48.51,160.72L49.5,165.06L50.49,165.42L52.47,177.03L53.46,172.43L55.44,197.57L56.43,196.43L57.42,192.29L58.41,205.29L59.4,197.14L60.39,203.54L61.38,209.46L62.37,199.98L63.36,193.12L64.35,197.81L65.34,198.84L66.33,195.17L67.32,196.41L68.31,192.31L70.29,188.68L71.28,180.39L72.27,179.11L73.26,183.63L75.24,189.8L76.23,189.58L77.22,201.38L78.21,191.76L79.2,191.5L80.19,189.79L81.18,198.31L82.17,196.58L83.16,203.9L84.15,193.48L85.14,189.64L86.13,191.81L89.1,174.37L90.09,171.52L91.08,178.77L92.07,175.94L93.06,174.65L94.05,178.49L95.04,172.42L96.03,171.47L97.02,174.22L98.01,174.64L99,176.07L99.99,181.21L100.98,175.45L101.97,177.56L103.95,169.34L104.94,168.27L106.92,159.85L107.91,160.01L108.9,156.67L109.89,156.8L110.88,156.28L111.87,157.03L114.84,164.44L115.83,161.41L117.81,164.71L118.8,171.26L119.79,174.35L120.78,170.29L121.77,177L122.76,171.16L123.75,176.1L124.75,173.22L125.74,172.83L126.73,164.63L128.71,155.02L129.7,158L131.68,152.26L132.67,153.29L133.66,149.27L134.65,148.48L136.63,150.66L137.62,151L139.6,138.83L140.59,139.59L141.58,140.33L142.57,146.95L145.54,144.42L146.53,141.19L148.51,134.08L149.5,134.39L150.49,134.38L151.48,140.63L153.46,140.35L154.45,145.03L155.44,138.08L156.43,136.49L157.42,135.21L158.41,131.06L159.4,132.81L160.39,132.43L161.38,130.15L162.37,123.34L163.36,121.64L164.35,117.71L166.33,120.85L167.32,122.74L170.29,127.79L171.28,126.83L173.26,124.45L174.25,120.71L175.24,120.24L176.23,121.36L178.21,118.99L179.2,112.06L180.19,110.18L181.18,115.46L182.17,115.41L183.16,113.19L185.14,116.47L186.13,111.36L187.12,113.11L188.11,110.5L191.08,126.05L192.07,124.39L193.06,130.82L194.05,155.15L195.04,161.13L196.03,161.06L197.02,149.5L198.01,148.43L200.98,160.15L201.97,167.97L202.96,171.37L203.95,177.5L204.94,186.86L205.93,182.39L206.92,189L207.91,173.19L208.9,171.65L209.89,167.06L210.88,170.85L211.87,166.98L212.86,148.98L213.85,149.1L217.81,170.07L218.8,173.59L219.79,170.08L220.78,174.28L221.77,193.94L222.76,193.54L223.75,200.69L224.74,192.42L225.73,189.9L226.72,170.93L228.7,165.72L229.69,153.6L230.68,157.99L231.67,185.69L232.66,181.87L233.65,200.7L235.63,189L236.62,193.7L239.59,223.39L240.58,219.9L241.57,243.24L242.56,244.85L243.55,273.88L244.54,256.16L246.52,239.96L247.51,243.36L248.5,240.2L249.49,248.33L251.47,225.8L252.46,221.59L253.45,216.8L254.44,216.03L255.43,216.51L256.42,218.66L260.38,192.08L261.37,197.5L263.35,200.8L264.34,193.03L265.33,201.49L266.32,199.65L268.3,181.75L269.29,179.37L271.27,172.48L272.26,172.76L274.24,182.02L275.23,178.94L277.21,165.42L278.2,166.64L280.18,157.56L281.17,156.78L282.16,159.34L283.15,155.44L284.14,149.49L285.13,152.69L287.11,155.59L288.1,151.18L289.09,148.44L290.08,154.75L291.07,156.66L292.06,163.76L293.05,170.89L294.04,158.59L296.02,147.1L297.01,149.03L299.98,137.48L300.97,140.22L301.96,135.05L302.95,139.41L303.94,150.63L304.93,144.44L306.91,147.57L307.9,142.54L308.89,132.24L309.88,131.16L310.87,127.35L311.86,128.58L313.84,124.05L314.83,126.85L316.81,124.83L317.8,119.55L318.79,119.84L319.78,117.84L320.77,117.25L321.76,120.21L322.75,119.87L323.74,111.6L324.73,111.44L325.72,112.59L327.7,107.52L328.69,107.92L329.68,106.1L330.67,113.02L331.66,108.04L332.65,111.28L335.62,130.21L336.61,125.48L337.6,141.25L338.59,137.44L339.58,135.55L340.57,125.22L341.56,127.28L342.55,137.04L343.54,132.4L344.53,133.45L345.52,142.33L346.51,140.89L347.5,141.15L348.49,156.11L349.48,153.96L350.47,163.22L351.46,165.05L352.45,152.27L356.41,121.33L357.4,119.53L358.39,126.33L359.38,124.27L360.37,124.51L361.36,123.64L362.35,113.3L363.34,113.01L364.33,104.89L365.32,103.01L369.28,113.76L370.27,109.23L371.26,98.76L372.25,100.21L373.25,93.23L374.24,93.79L375.23,97.88L376.22,97.53L377.21,91.03L378.2,91.23L380.18,86.45L381.17,87.31L383.15,92.48L384.14,90.09L385.13,94.81L386.12,90.13L387.11,85.9L388.1,86.91L389.09,83.31L390.08,84.04L391.07,86.64L392.06,86.58L393.05,87.75L394.04,108.76L396.02,127.61L397.01,125.22L398,110.85L398.99,111.77L399.98,120.46L400.97,109.44L402.95,136.17L403.94,124.76L404.93,113.23L405.92,115.51L406.91,113.94L407.9,110.74L408.89,114.47L409.88,129.2L410.87,123.17L411.86,125.88L413.84,110.33L414.83,118.36L415.82,110.82L416.81,96.31L417.8,96.56L418.79,95.21L419.78,98.3L420.77,91.66L421.76,85.55L422.75,86.6L423.74,91.27L424.73,90.03L425.72,89.53L426.71,85.16L427.7,86.89L428.69,92.21L429.68,89.48L430.67,95.09L433.64,96.93L434.63,94.25L435.62,115.15L436.61,119.37L437.6,106.22L438.59,104.36L439.58,114.94L440.57,113.75L441.56,107.85L442.55,94.02L443.54,100.33L444.53,90.93L445.52,92.7L446.51,89.39L447.5,91.95L448.49,89.68L449.48,87.45L450.47,90.47L454.43,77.18L455.42,76.49L456.41,77.48L457.4,71.29L458.39,65.66L459.38,66.04L460.37,67.77L461.36,61.78L463.34,64.69L464.33,60.29L465.32,61.69L466.31,61.65L467.3,54.78L468.29,53.63L469.28,52.56L470.27,55.24L471.26,57.97L472.25,57.12L474.23,47.92L475.22,44.35L477.2,47.42L478.19,62.64L479.18,55.11L480.17,55.09L481.16,45.48L482.15,46.01L483.14,48.1L484.13,47.52L485.12,37.56L486.11,35.58L487.1,30.94L488.09,30.79L489.08,30.71L490.07,28.55L491.06,22.32L492.05,21.67L493.04,22.08L494.03,17.87L495.02,15.45L496.01,17.61L497,20.45" style="vector-effect: non-scaling-stroke; fill: none; stroke: rgb(0, 191, 255); stroke-opacity: 1; stroke-width: 2px; opacity: 1;"/></g><g class="points"/><g class="text"/></g><g class="trace scatter traceb72e3d" style="stroke-miterlimit: 2; opacity: 1;"><g class="fills"/><g class="errorbars"/><g class="lines"><path class="js-line" d="M0,189.95L2.97,175.89L3.96,172.91L4.95,169.74L5.94,173.38L7.92,163.02L8.91,163.33L12.87,151.15L13.86,144.21L14.85,146L15.84,144.11L17.82,137.77L18.81,148.02L19.8,149.63L20.79,149.73L21.78,166L22.77,203.58L23.76,217.5L24.75,190.27L26.73,236.13L27.72,208.43L29.7,200.28L30.69,187.65L31.68,176.76L32.67,182.42L34.65,185.19L35.64,180.27L36.63,167.91L37.62,170.86L40.59,200.76L41.58,191.99L42.57,181.03L43.56,183.97L46.53,160.05L47.52,166.4L48.51,170.81L49.5,171.71L50.49,169.09L51.48,186.18L52.47,181.41L53.46,181.49L55.44,219.71L56.43,214.8L58.41,217.5L59.4,212.36L60.39,229.61L61.38,222.92L62.37,223.5L63.36,200.06L64.35,219.6L65.34,212.03L66.33,204.32L67.32,203.25L68.31,198.75L69.3,201.46L72.27,183.39L73.26,190.09L74.25,196.66L75.24,197.47L76.23,210.02L77.22,211.45L79.2,197.15L80.19,200.54L81.18,207.52L82.17,205.58L83.16,217.02L84.15,210.63L85.14,195.4L86.13,198.33L89.1,179.12L90.09,176.65L91.08,183.92L92.07,180.75L94.05,181.67L95.04,176.58L96.03,177.76L97.02,181.56L98.01,182.23L99,179.88L99.99,191.66L100.98,183.76L101.97,184.3L102.96,178.74L103.95,172L104.94,172.32L107.91,164.89L108.9,159.77L109.89,160.2L110.88,161.47L111.87,160.9L112.86,165.46L113.85,166.88L114.84,171.18L115.83,164.79L116.82,170.81L117.81,168.25L118.8,184.92L119.79,179.69L120.78,184.7L121.77,186.98L122.76,178.94L123.75,184.83L124.75,181.06L125.74,179.56L126.73,174.16L128.71,157.9L129.7,162.67L131.68,156.22L132.67,155.69L133.66,156.97L134.65,151.84L135.64,153.72L136.63,153.65L137.62,155.15L138.61,150.22L139.6,148.18L140.59,142.77L142.57,154.24L143.56,151.17L144.55,151.85L145.54,154.78L147.52,142.55L148.51,136.4L150.49,137.62L151.48,145.69L152.47,147.52L153.46,145.45L154.45,152.88L155.44,143.95L156.43,143.25L157.42,138.03L158.41,134.73L159.4,136.36L160.39,136.98L161.38,134.42L163.36,124.8L164.35,123.29L166.33,125.35L167.32,127.39L170.29,133.87L171.28,130.22L172.27,133.05L173.26,129.22L174.25,123.91L175.24,124.1L176.23,127.07L177.22,125.75L180.19,114.43L181.18,118.9L182.17,118.57L183.16,121.79L184.15,119.94L185.14,120.49L186.13,117.27L187.12,116.82L188.11,116.21L189.1,127.76L191.08,134.5L192.07,130.74L194.05,181.26L195.04,175.42L198.01,159.27L199,167.48L199.99,165.91L200.98,169.32L202.96,199.35L203.95,194.43L205.93,214.27L206.92,204.46L207.91,182.78L208.9,181.78L209.89,184.37L210.88,178.97L211.87,173.07L212.86,161.63L213.85,155.2L214.84,164.69L215.83,177.72L216.82,179.88L218.8,193.53L219.79,180.76L221.77,205.64L222.76,199.99L223.75,205.77L224.74,199.94L225.73,198.12L226.72,189.33L229.69,161.87L230.68,185.38L231.67,208.72L232.66,208.22L233.65,220.53L234.64,208.79L235.63,199.85L236.62,203.86L238.6,236.79L239.59,237.36L243.55,292.16L244.54,293.55L246.52,254.58L247.51,251.51L249.49,263.5L250.48,254.13L252.46,231.54L253.45,224.96L254.44,227.08L255.43,222.33L256.42,224.49L257.41,219.96L258.4,211.45L259.39,213.4L260.38,200.68L261.37,210.03L262.36,211.39L263.35,207.03L264.34,197.67L265.33,207.94L266.32,205.78L267.31,200.45L269.29,185.47L270.28,184.89L271.27,177.09L272.26,177.06L273.25,188.44L274.24,190.11L277.21,169.5L278.2,174.87L280.18,163.75L281.17,161.66L282.16,164.59L283.15,160.1L284.14,155.2L285.13,156.9L286.12,161.33L287.11,159.05L288.1,157.55L289.09,163.63L290.08,158.91L291.07,163.31L293.05,177.64L294.04,169.82L296.02,153.72L297.01,152.59L299.98,146.47L300.97,149.82L301.96,148.29L302.95,153.51L303.94,158.27L304.93,152.42L305.92,157.44L306.91,154.03L309.88,135.53L310.87,133.55L311.86,132.94L312.85,128.05L313.84,128.73L314.83,131.03L316.81,128.36L317.8,123.3L318.79,123.89L319.78,122.58L321.76,125.3L322.75,123.93L324.73,114.76L325.72,118.84L326.71,117.38L327.7,110.66L328.69,115.36L329.68,115.59L330.67,122.65L331.66,113.79L333.64,134.34L334.63,131.04L336.61,145.82L337.6,153.21L338.59,147.45L339.58,149L340.57,136.44L341.56,136.92L342.55,144L343.54,136.99L344.53,137.88L345.52,151.96L346.51,147.42L347.5,153.17L348.49,164.12L349.48,160.83L351.46,175.62L352.45,165.18L355.42,137.34L356.41,127.27L358.39,130.61L359.38,128.36L360.37,129.09L361.36,126.72L365.32,108.34L366.31,109.21L367.3,117.86L368.29,118.79L369.28,117.07L370.27,113.84L371.26,106.69L372.25,105.55L373.25,98.75L374.24,101.83L375.23,101.17L376.22,103.23L377.21,96.69L378.2,95.4L380.18,89.24L381.17,91.59L383.15,100.25L384.14,99.39L385.13,99.15L386.12,95.48L387.11,92.93L388.1,92.8L389.09,88.06L390.08,87.53L391.07,91.66L392.06,104.88L393.05,108.84L394.04,118.45L395.03,146.83L396.02,139.02L397.01,145.72L398,124.51L398.99,122.75L399.98,131.09L400.97,129.88L401.96,141.42L402.95,145.78L403.94,133.68L404.93,118.64L405.92,122.92L406.91,117.27L407.9,121.41L408.89,142.86L409.88,136.37L410.87,134.96L411.86,137.29L412.85,121.05L413.84,118.69L414.83,125.31L415.82,116.05L417.8,100.43L418.79,101.39L419.78,105.21L420.77,99.56L421.76,91.66L422.75,91.05L423.74,94.82L424.73,93.88L425.72,98.56L426.71,90.97L427.7,96.67L428.69,97.43L429.68,104.99L430.67,106.49L431.66,103.14L432.65,108.75L433.64,102.11L434.63,110.86L436.61,136.39L437.6,117.07L438.59,111.79L439.58,125.06L441.56,117.52L442.55,103.34L443.54,103.38L444.53,100.09L446.51,94.48L447.5,99.25L448.49,93.38L449.48,93.48L450.47,94.66L451.46,91.82L452.45,91.35L453.44,82.04L454.43,81.21L455.42,83.94L456.41,84.79L457.4,76.3L458.39,68.85L459.38,69.68L460.37,71.62L461.36,67.19L462.35,69.24L463.34,68.55L464.33,65.8L465.32,67.63L466.31,66.26L467.3,59.67L469.28,56.94L470.27,63.74L472.25,61.32L473.24,55.71L475.22,47.7L476.21,48.95L478.19,70.25L479.18,60.31L480.17,59.93L481.16,50.41L482.15,50.15L483.14,53.04L485.12,49.22L486.11,43.66L488.09,33.01L489.08,32.97L490.07,32.61L491.06,25.29L492.05,23.36L493.04,23.91L495.02,19.63L496.01,25.13L497,26.53" style="vector-effect: non-scaling-stroke; fill: none; stroke: rgb(105, 105, 105); stroke-opacity: 1; stroke-width: 2px; opacity: 1;"/></g><g class="points"/><g class="text"/></g></g></g><g class="overplot"/><path class="xlines-above crisp" d="M0,0" style="fill: none;"/><path class="ylines-above crisp" d="M0,0" style="fill: none;"/><g class="overlines-above"/><g class="xaxislayer-above"><g class="xtick"><text text-anchor="start" x="0" y="422" transform="translate(80,0) rotate(90,0,416)" style="font-family: 'Open Sans', verdana, arial, sans-serif; font-size: 12px; fill: rgb(42, 63, 95); fill-opacity: 1; white-space: pre;">1/2/2018</text></g><g class="xtick"><text text-anchor="start" x="0" y="422" transform="translate(94.85,0) rotate(90,0,416)" style="font-family: 'Open Sans', verdana, arial, sans-serif; font-size: 12px; fill: rgb(42, 63, 95); fill-opacity: 1; white-space: pre;">1/24/2018</text></g><g class="xtick"><text text-anchor="start" x="0" y="422" transform="translate(109.7,0) rotate(90,0,416)" style="font-family: 'Open Sans', verdana, arial, sans-serif; font-size: 12px; fill: rgb(42, 63, 95); fill-opacity: 1; white-space: pre;">2/14/2018</text></g><g class="xtick"><text text-anchor="start" x="0" y="422" transform="translate(124.55,0) rotate(90,0,416)" style="font-family: 'Open Sans', verdana, arial, sans-serif; font-size: 12px; fill: rgb(42, 63, 95); fill-opacity: 1; white-space: pre;">3/8/2018</text></g><g class="xtick"><text text-anchor="start" x="0" y="422" transform="translate(139.4,0) rotate(90,0,416)" style="font-family: 'Open Sans', verdana, arial, sans-serif; font-size: 12px; fill: rgb(42, 63, 95); fill-opacity: 1; white-space: pre;">3/29/2018</text></g><g class="xtick"><text text-anchor="start" x="0" y="422" transform="translate(154.25,0) rotate(90,0,416)" style="font-family: 'Open Sans', verdana, arial, sans-serif; font-size: 12px; fill: rgb(42, 63, 95); fill-opacity: 1; white-space: pre;">4/20/2018</text></g><g class="xtick"><text text-anchor="start" x="0" y="422" transform="translate(169.1,0) rotate(90,0,416)" style="font-family: 'Open Sans', verdana, arial, sans-serif; font-size: 12px; fill: rgb(42, 63, 95); fill-opacity: 1; white-space: pre;">5/11/2018</text></g><g class="xtick"><text text-anchor="start" x="0" y="422" transform="translate(183.95,0) rotate(90,0,416)" style="font-family: 'Open Sans', verdana, arial, sans-serif; font-size: 12px; fill: rgb(42, 63, 95); fill-opacity: 1; white-space: pre;">6/4/2018</text></g><g class="xtick"><text text-anchor="start" x="0" y="422" transform="translate(198.8,0) rotate(90,0,416)" style="font-family: 'Open Sans', verdana, arial, sans-serif; font-size: 12px; fill: rgb(42, 63, 95); fill-opacity: 1; white-space: pre;">6/25/2018</text></g><g class="xtick"><text text-anchor="start" x="0" y="422" transform="translate(213.66,0) rotate(90,0,416)" style="font-family: 'Open Sans', verdana, arial, sans-serif; font-size: 12px; fill: rgb(42, 63, 95); fill-opacity: 1; white-space: pre;">7/17/2018</text></g><g class="xtick"><text text-anchor="start" x="0" y="422" transform="translate(228.51,0) rotate(90,0,416)" style="font-family: 'Open Sans', verdana, arial, sans-serif; font-size: 12px; fill: rgb(42, 63, 95); fill-opacity: 1; white-space: pre;">8/7/2018</text></g><g class="xtick"><text text-anchor="start" x="0" y="422" transform="translate(243.36,0) rotate(90,0,416)" style="font-family: 'Open Sans', verdana, arial, sans-serif; font-size: 12px; fill: rgb(42, 63, 95); fill-opacity: 1; white-space: pre;">8/28/2018</text></g><g class="xtick"><text text-anchor="start" x="0" y="422" transform="translate(258.21000000000004,0) rotate(90,0,416)" style="font-family: 'Open Sans', verdana, arial, sans-serif; font-size: 12px; fill: rgb(42, 63, 95); fill-opacity: 1; white-space: pre;">9/19/2018</text></g><g class="xtick"><text text-anchor="start" x="0" y="422" transform="translate(273.06,0) rotate(90,0,416)" style="font-family: 'Open Sans', verdana, arial, sans-serif; font-size: 12px; fill: rgb(42, 63, 95); fill-opacity: 1; white-space: pre;">10/10/2018</text></g><g class="xtick"><text text-anchor="start" x="0" y="422" transform="translate(287.90999999999997,0) rotate(90,0,416)" style="font-family: 'Open Sans', verdana, arial, sans-serif; font-size: 12px; fill: rgb(42, 63, 95); fill-opacity: 1; white-space: pre;">10/31/2018</text></g><g class="xtick"><text text-anchor="start" x="0" y="422" transform="translate(302.76,0) rotate(90,0,416)" style="font-family: 'Open Sans', verdana, arial, sans-serif; font-size: 12px; fill: rgb(42, 63, 95); fill-opacity: 1; white-space: pre;">11/21/2018</text></g><g class="xtick"><text text-anchor="start" x="0" y="422" transform="translate(317.61,0) rotate(90,0,416)" style="font-family: 'Open Sans', verdana, arial, sans-serif; font-size: 12px; fill: rgb(42, 63, 95); fill-opacity: 1; white-space: pre;">12/14/2018</text></g><g class="xtick"><text text-anchor="start" x="0" y="422" transform="translate(332.46000000000004,0) rotate(90,0,416)" style="font-family: 'Open Sans', verdana, arial, sans-serif; font-size: 12px; fill: rgb(42, 63, 95); fill-opacity: 1; white-space: pre;">1/8/2019</text></g><g class="xtick"><text text-anchor="start" x="0" y="422" transform="translate(347.31,0) rotate(90,0,416)" style="font-family: 'Open Sans', verdana, arial, sans-serif; font-size: 12px; fill: rgb(42, 63, 95); fill-opacity: 1; white-space: pre;">1/30/2019</text></g><g class="xtick"><text text-anchor="start" x="0" y="422" transform="translate(362.16,0) rotate(90,0,416)" style="font-family: 'Open Sans', verdana, arial, sans-serif; font-size: 12px; fill: rgb(42, 63, 95); fill-opacity: 1; white-space: pre;">2/21/2019</text></g><g class="xtick"><text text-anchor="start" x="0" y="422" transform="translate(377.01,0) rotate(90,0,416)" style="font-family: 'Open Sans', verdana, arial, sans-serif; font-size: 12px; fill: rgb(42, 63, 95); fill-opacity: 1; white-space: pre;">3/14/2019</text></g><g class="xtick"><text text-anchor="start" x="0" y="422" transform="translate(391.86,0) rotate(90,0,416)" style="font-family: 'Open Sans', verdana, arial, sans-serif; font-size: 12px; fill: rgb(42, 63, 95); fill-opacity: 1; white-space: pre;">4/4/2019</text></g><g class="xtick"><text text-anchor="start" x="0" y="422" transform="translate(406.71,0) rotate(90,0,416)" style="font-family: 'Open Sans', verdana, arial, sans-serif; font-size: 12px; fill: rgb(42, 63, 95); fill-opacity: 1; white-space: pre;">4/26/2019</text></g><g class="xtick"><text text-anchor="start" x="0" y="422" transform="translate(421.56,0) rotate(90,0,416)" style="font-family: 'Open Sans', verdana, arial, sans-serif; font-size: 12px; fill: rgb(42, 63, 95); fill-opacity: 1; white-space: pre;">5/17/2019</text></g><g class="xtick"><text text-anchor="start" x="0" y="422" transform="translate(436.41,0) rotate(90,0,416)" style="font-family: 'Open Sans', verdana, arial, sans-serif; font-size: 12px; fill: rgb(42, 63, 95); fill-opacity: 1; white-space: pre;">6/10/2019</text></g><g class="xtick"><text text-anchor="start" x="0" y="422" transform="translate(451.26,0) rotate(90,0,416)" style="font-family: 'Open Sans', verdana, arial, sans-serif; font-size: 12px; fill: rgb(42, 63, 95); fill-opacity: 1; white-space: pre;">7/1/2019</text></g><g class="xtick"><text text-anchor="start" x="0" y="422" transform="translate(466.12,0) rotate(90,0,416)" style="font-family: 'Open Sans', verdana, arial, sans-serif; font-size: 12px; fill: rgb(42, 63, 95); fill-opacity: 1; white-space: pre;">7/23/2019</text></g><g class="xtick"><text text-anchor="start" x="0" y="422" transform="translate(480.97,0) rotate(90,0,416)" style="font-family: 'Open Sans', verdana, arial, sans-serif; font-size: 12px; fill: rgb(42, 63, 95); fill-opacity: 1; white-space: pre;">8/13/2019</text></g><g class="xtick"><text text-anchor="start" x="0" y="422" transform="translate(495.82,0) rotate(90,0,416)" style="font-family: 'Open Sans', verdana, arial, sans-serif; font-size: 12px; fill: rgb(42, 63, 95); fill-opacity: 1; white-space: pre;">9/4/2019</text></g><g class="xtick"><text text-anchor="start" x="0" y="422" transform="translate(510.67,0) rotate(90,0,416)" style="font-family: 'Open Sans', verdana, arial, sans-serif; font-size: 12px; fill: rgb(42, 63, 95); fill-opacity: 1; white-space: pre;">9/25/2019</text></g><g class="xtick"><text text-anchor="start" x="0" y="422" transform="translate(525.52,0) rotate(90,0,416)" style="font-family: 'Open Sans', verdana, arial, sans-serif; font-size: 12px; fill: rgb(42, 63, 95); fill-opacity: 1; white-space: pre;">10/16/2019</text></g><g class="xtick"><text text-anchor="start" x="0" y="422" transform="translate(540.37,0) rotate(90,0,416)" style="font-family: 'Open Sans', verdana, arial, sans-serif; font-size: 12px; fill: rgb(42, 63, 95); fill-opacity: 1; white-space: pre;">11/6/2019</text></g><g class="xtick"><text text-anchor="start" x="0" y="422" transform="translate(555.22,0) rotate(90,0,416)" style="font-family: 'Open Sans', verdana, arial, sans-serif; font-size: 12px; fill: rgb(42, 63, 95); fill-opacity: 1; white-space: pre;">11/27/2019</text></g><g class="xtick"><text text-anchor="start" x="0" y="422" transform="translate(570.0699999999999,0) rotate(90,0,416)" style="font-family: 'Open Sans', verdana, arial, sans-serif; font-size: 12px; fill: rgb(42, 63, 95); fill-opacity: 1; white-space: pre;">12/19/2019</text></g></g><g class="yaxislayer-above"><g class="ytick"><text text-anchor="end" x="79" y="4.199999999999999" transform="translate(0,377.07)" style="font-family: 'Open Sans', verdana, arial, sans-serif; font-size: 12px; fill: rgb(42, 63, 95); fill-opacity: 1; white-space: pre;">2400</text></g><g class="ytick"><text text-anchor="end" x="79" y="4.199999999999999" transform="translate(0,315.36)" style="font-family: 'Open Sans', verdana, arial, sans-serif; font-size: 12px; fill: rgb(42, 63, 95); fill-opacity: 1; white-space: pre;">2600</text></g><g class="ytick"><text text-anchor="end" x="79" y="4.199999999999999" transform="translate(0,253.65)" style="font-family: 'Open Sans', verdana, arial, sans-serif; font-size: 12px; fill: rgb(42, 63, 95); fill-opacity: 1; white-space: pre;">2800</text></g><g class="ytick"><text text-anchor="end" x="79" y="4.199999999999999" transform="translate(0,191.95)" style="font-family: 'Open Sans', verdana, arial, sans-serif; font-size: 12px; fill: rgb(42, 63, 95); fill-opacity: 1; white-space: pre;">3000</text></g><g class="ytick"><text text-anchor="end" x="79" y="4.199999999999999" transform="translate(0,130.24)" style="font-family: 'Open Sans', verdana, arial, sans-serif; font-size: 12px; fill: rgb(42, 63, 95); fill-opacity: 1; white-space: pre;">3200</text></g></g><g class="overaxes-above"/></g></g><g class="polarlayer"/><g class="ternarylayer"/><g class="geolayer"/><g class="funnelarealayer"/><g class="pielayer"/><g class="treemaplayer"/><g class="sunburstlayer"/><g class="glimages"/><defs id="topdefs-cf1e93"><g class="clips"/><clipPath id="legendcf1e93"><rect width="101" height="48" x="0" y="0"/></clipPath></defs><g class="layer-above"><g class="imagelayer"/><g class="shapelayer"/></g><g class="infolayer"><g class="legend" pointer-events="all" transform="translate(586.94, 100)"><rect class="bg" shape-rendering="crispEdges" style="stroke: rgb(68, 68, 68); stroke-opacity: 1; fill: rgb(255, 255, 255); fill-opacity: 1; stroke-width: 0px;" width="101" height="48" x="0" y="0"/><g class="scrollbox" transform="translate(0, 0)" clip-path="url('#legendcf1e93')"><g class="groups"><g class="traces" transform="translate(0, 14.5)" style="opacity: 1;"><text class="legendtext user-select-none" text-anchor="start" x="40" y="4.680000000000001" style="font-family: 'Open Sans', verdana, arial, sans-serif; font-size: 12px; fill: rgb(42, 63, 95); fill-opacity: 1; white-space: pre;">S&amp;P High</text><g class="layers" style="opacity: 1;"><g class="legendfill"/><g class="legendlines"><path class="js-line" d="M5,0h30" style="fill: none; stroke: rgb(0, 191, 255); stroke-opacity: 1; stroke-width: 2px;"/></g><g class="legendsymbols"><g class="legendpoints"/></g></g><rect class="legendtoggle" pointer-events="all" x="0" y="-9.5" width="95.75" height="19" style="cursor: pointer; fill: rgb(0, 0, 0); fill-opacity: 0;"/></g><g class="traces" transform="translate(0, 33.5)" style="opacity: 1;"><text class="legendtext user-select-none" text-anchor="start" x="40" y="4.680000000000001" style="font-family: 'Open Sans', verdana, arial, sans-serif; font-size: 12px; fill: rgb(42, 63, 95); fill-opacity: 1; white-space: pre;">S&amp;P Low</text><g class="layers" style="opacity: 1;"><g class="legendfill"/><g class="legendlines"><path class="js-line" d="M5,0h30" style="fill: none; stroke: rgb(105, 105, 105); stroke-opacity: 1; stroke-width: 2px;"/></g><g class="legendsymbols"><g class="legendpoints"/></g></g><rect class="legendtoggle" pointer-events="all" x="0" y="-9.5" width="95.75" height="19" style="cursor: pointer; fill: rgb(0, 0, 0); fill-opacity: 0;"/></g></g></g><rect class="scrollbar" rx="20" ry="3" width="0" height="0" style="fill: rgb(128, 139, 164); fill-opacity: 1;" x="0" y="0"/></g><g class="g-gtitle"><text class="gtitle" x="35" y="50" text-anchor="start" dy="0em" style="font-family: 'Open Sans', verdana, arial, sans-serif; font-size: 17px; fill: rgb(42, 63, 95); opacity: 1; font-weight: normal; white-space: pre;">S&amp;P 500 Time Series</text></g><g class="g-xtitle"/><g class="g-ytitle"/></g></svg>