<svg class="main-svg" xmlns="http://www.w3.org/2000/svg" xmlns:xlink="http://www.w3.org/1999/xlink" width="700" height="500" viewBox="0 0 700 500"><rect x="0" y="0" width="700" height="500" style="fill: rgb(255, 255, 255); fill-opacity: 1;"/><defs id="defs-99faee"><g class="clips"><clipPath id="clip99faeexyplot" class="plotclip"><rect width="513" height="309"/></clipPath><clipPath class="axesclip" id="clip99faeex"><rect x="80" y="0" width="513" height="500"/></clipPath><clipPath class="axesclip" id="clip99faeey"><rect x="0" y="100" width="700" height="309"/></clipPath><clipPath class="axesclip" id="clip99faeexy"><rect x="80" y="100" width="513" height="309"/></clipPath></g><g class="gradients"/></defs><g class="bglayer"><rect class="bg" x="80" y="100" width="513" height="309" style="fill: rgb(229, 236, 246); fill-opacity: 1; stroke-width: 0;"/></g><g class="layer-below"><g class="imagelayer"/><g class="shapelayer"/></g><g class="cartesianlayer"><g class="subplot xy"><g class="layer-subplot"><g class="shapelayer"/><g class="imagelayer"/></g><g class="gridlayer"><g class="x"><path class="xgrid crisp" transform="translate(95.33,0)" d="M0,100v309" style="stroke: rgb(255, 255, 255); stroke-opacity: 1; stroke-width: 1px;"/><path class="xgrid crisp" transform="translate(110.66,0)" d="M0,100v309" style="stroke: rgb(255, 255, 255); stroke-opacity: 1; stroke-width: 1px;"/><path class="xgrid crisp" transform="translate(125.99000000000001,0)" d="M0,100v309" style="stroke: rgb(255, 255, 255); stroke-opacity: 1; stroke-width: 1px;"/><path class="xgrid crisp" transform="translate(141.31,0)" d="M0,100v309" style="stroke: rgb(255, 255, 255); stroke-opacity: 1; stroke-width: 1px;"/><path class="xgrid crisp" transform="translate(156.64,0)" d="M0,100v309" style="stroke: rgb(255, 255, 255); stroke-opacity: 1; stroke-width: 1px;"/><path class="xgrid crisp" transform="translate(171.97,0)" d="M0,100v309" style="stroke: rgb(255, 255, 255); stroke-opacity: 1; stroke-width: 1px;"/><path class="xgrid crisp" transform="translate(187.3,0)" d="M0,100v309" style="stroke: rgb(255, 255, 255); stroke-opacity: 1; stroke-width: 1px;"/><path class="xgrid crisp" transform="translate(202.63,0)" d="M0,100v309" style="stroke: rgb(255, 255, 255); stroke-opacity: 1; stroke-width: 1px;"/><path class="xgrid crisp" transform="translate(217.96,0)" d="M0,100v309" style="stroke: rgb(255, 255, 255); stroke-opacity: 1; stroke-width: 1px;"/><path class="xgrid crisp" transform="translate(233.29,0)" d="M0,100v309" style="stroke: rgb(255, 255, 255); stroke-opacity: 1; stroke-width: 1px;"/><path class="xgrid crisp" transform="translate(248.62,0)" d="M0,100v309" style="stroke: rgb(255, 255, 255); stroke-opacity: 1; stroke-width: 1px;"/><path class="xgrid crisp" transform="translate(263.94,0)" d="M0,100v309" style="stroke: rgb(255, 255, 255); stroke-opacity: 1; stroke-width: 1px;"/><path class="xgrid crisp" transform="translate(279.27,0)" d="M0,100v309" style="stroke: rgb(255, 255, 255); stroke-opacity: 1; stroke-width: 1px;"/><path class="xgrid crisp" transform="translate(294.6,0)" d="M0,100v309" style="stroke: rgb(255, 255, 255); stroke-opacity: 1; stroke-width: 1px;"/><path class="xgrid crisp" transform="translate(309.93,0)" d="M0,100v309" style="stroke: rgb(255, 255, 255); stroke-opacity: 1; stroke-width: 1px;"/><path class="xgrid crisp" transform="translate(325.26,0)" d="M0,100v309" style="stroke: rgb(255, 255, 255); stroke-opacity: 1; stroke-width: 1px;"/><path class="xgrid crisp" transform="translate(340.59,0)" d="M0,100v309" style="stroke: rgb(255, 255, 255); stroke-opacity: 1; stroke-width: 1px;"/><path class="xgrid crisp" transform="translate(355.92,0)" d="M0,100v309" style="stroke: rgb(255, 255, 255); stroke-opacity: 1; stroke-width: 1px;"/><path class="xgrid crisp" transform="translate(371.25,0)" d="M0,100v309" style="stroke: rgb(255, 255, 255); stroke-opacity: 1; stroke-width: 1px;"/><path class="xgrid crisp" transform="translate(386.57,0)" d="M0,100v309" style="stroke: rgb(255, 255, 255); stroke-opacity: 1; stroke-width: 1px;"/><path class="xgrid crisp" transform="translate(401.9,0)" d="M0,100v309" style="stroke: rgb(255, 255, 255); stroke-opacity: 1; stroke-width: 1px;"/><path class="xgrid crisp" transform="translate(417.23,0)" d="M0,100v309" style="stroke: rgb(255, 255, 255); stroke-opacity: 1; stroke-width: 1px;"/><path class="xgrid crisp" transform="translate(432.56,0)" d="M0,100v309" style="stroke: rgb(255, 255, 255); stroke-opacity: 1; stroke-width: 1px;"/><path class="xgrid crisp" transform="translate(447.89,0)" d="M0,100v309" style="stroke: rgb(255, 255, 255); stroke-opacity: 1; stroke-width: 1px;"/><path class="xgrid crisp" transform="translate(463.22,0)" d="M0,100v309" style="stroke: rgb(255, 255, 255); stroke-opacity: 1; stroke-width: 1px;"/><path class="xgrid crisp" transform="translate(478.55,0)" d="M0,100v309" style="stroke: rgb(255, 255, 255); stroke-opacity: 1; stroke-width: 1px;"/><path class="xgrid crisp" transform="translate(493.87,0)" d="M0,100v309" style="stroke: rgb(255, 255, 255); stroke-opacity: 1; stroke-width: 1px;"/><path class="xgrid crisp" transform="translate(509.2,0)" d="M0,100v309" style="stroke: rgb(255, 255, 255); stroke-opacity: 1; stroke-width: 1px;"/><path class="xgrid crisp" transform="translate(524.53,0)" d="M0,100v309" style="stroke: rgb(255, 255, 255); stroke-opacity: 1; stroke-width: 1px;"/><path class="xgrid crisp" transform="translate(539.86,0)" d="M0,100v309" style="stroke: rgb(255, 255, 255); stroke-opacity: 1; stroke-width: 1px;"/><path class="xgrid crisp" transform="translate(555.19,0)" d="M0,100v309" style="stroke: rgb(255, 255, 255); stroke-opacity: 1; stroke-width: 1px;"/><path class="xgrid crisp" transform="translate(570.52,0)" d="M0,100v309" style="stroke: rgb(255, 255, 255); stroke-opacity: 1; stroke-width: 1px;"/><path class="xgrid crisp" transform="translate(585.85,0)" d="M0,100v309" style="stroke: rgb(255, 255, 255); stroke-opacity: 1; stroke-width: 1px;"/></g><g class="y"><path class="ygrid crisp" transform="translate(0,393.03)" d="M80,0h513" style="stroke: rgb(255, 255, 255); stroke-opacity: 1; stroke-width: 1px;"/><path class="ygrid crisp" transform="translate(0,356.16)" d="M80,0h513" style="stroke: rgb(255, 255, 255); stroke-opacity: 1; stroke-width: 1px;"/><path class="ygrid crisp" transform="translate(0,319.28999999999996)" d="M80,0h513" style="stroke: rgb(255, 255, 255); stroke-opacity: 1; stroke-width: 1px;"/><path class="ygrid crisp" transform="translate(0,282.40999999999997)" d="M80,0h513" style="stroke: rgb(255, 255, 255); stroke-opacity: 1; stroke-width: 1px;"/><path class="ygrid crisp" transform="translate(0,245.54)" d="M80,0h513" style="stroke: rgb(255, 255, 255); stroke-opacity: 1; stroke-width: 1px;"/><path class="ygrid crisp" transform="translate(0,208.67000000000002)" d="M80,0h513" style="stroke: rgb(255, 255, 255); stroke-opacity: 1; stroke-width: 1px;"/><path class="ygrid crisp" transform="translate(0,171.79000000000002)" d="M80,0h513" style="stroke: rgb(255, 255, 255); stroke-opacity: 1; stroke-width: 1px;"/><path class="ygrid crisp" transform="translate(0,134.92000000000002)" d="M80,0h513" style="stroke: rgb(255, 255, 255); stroke-opacity: 1; stroke-width: 1px;"/></g></g><g class="zerolinelayer"/><path class="xlines-below"/><path class="ylines-below"/><g class="overlines-below"/><g class="xaxislayer-below"/><g class="yaxislayer-below"/><g class="overaxes-below"/><g class="plot" transform="translate(80, 100)" clip-path="url('#clip99faeexyplot')"><g class="scatterlayer mlayer"><g class="trace scatter tracea244ea" style="stroke-miterlimit: 2; opacity: 1;"><g class="fills"/><g class="errorbars"/><g class="lines"><path class="js-line" d="M0,90.52L2.04,84.48L3.07,82.63L4.09,74.23L5.11,77.54L7.15,72.24L8.18,74.82L9.2,72.09L10.22,73.42L12.26,77.69L13.28,74.37L14.31,67.37L15.33,66.26L16.35,62.35L17.37,62.43L18.39,59.11L19.42,63.9L20.44,78.43L21.46,79.98L22.48,100.78L23.5,105.13L24.53,104.54L25.55,101.66L27.59,110.36L28.61,98.42L31.68,75.04L32.7,31.67L33.72,21.5L34.75,30.72L35.77,41.78L36.79,42.07L37.81,29.39L38.83,36.98L39.85,35.8L40.88,15.45L41.9,29.17L42.92,28.5L43.94,34.62L44.96,17.51L45.99,30.13L47.01,25.7L51.1,76.96L52.12,67.81L53.14,69.88L54.16,74.74L55.18,73.86L56.21,84.92L57.23,108.89L58.25,104.61L59.27,102.4L60.29,112.94L61.31,103.5L62.34,103.36L63.36,101.07L64.38,107.04L65.4,95.39L66.42,99.45L67.45,102.91L68.47,100.04L69.49,101.29L70.51,98.05L71.53,94.43L72.56,100.33L73.58,96.35L74.6,83.96L76.64,89.49L77.67,91.04L78.69,88.53L79.71,90.67L80.73,85.51L81.75,97.75L82.77,116.78L83.8,121.06L84.82,122.97L85.84,118.99L86.86,110.36L87.88,108.22L88.91,107.41L89.93,104.61L90.95,97.6L91.97,96.2L94.02,99.6L95.04,88.09L96.06,85.8L97.08,87.21L98.1,100.63L99.13,96.94L100.15,103.95L101.17,101.22L102.19,102.32L103.21,100.92L104.24,96.5L105.26,77.47L106.28,84.11L107.3,81.9L108.32,87.28L109.34,84.7L111.39,90.16L112.41,87.65L114.45,83.52L115.48,86.91L116.5,88.39L117.52,98.64L118.54,105.5L119.56,103.28L120.59,101.51L121.61,91.34L122.63,96.2L123.65,105.2L124.67,103.65L125.7,109.03L127.74,103.95L128.76,105.79L129.78,107.78L130.8,104.09L131.83,103.14L132.85,97.01L133.87,98.49L134.89,95.1L135.91,97.68L136.94,95.54L137.96,96.65L138.98,88.09L140,90.01L141.02,90.23L142.05,88.53L143.07,79.98L144.09,83.52L145.11,91.7L146.13,87.94L147.16,88.24L148.18,95.76L149.2,96.87L150.22,107.41L151.24,125.92L152.26,130.2L153.29,130.13L156.35,141.48L157.37,143.47L158.4,137.72L159.42,148.19L160.44,147.01L161.46,143.03L163.51,133.81L164.53,134.33L165.55,137.13L166.57,136.25L167.59,138.46L168.62,135.29L170.66,142.44L171.68,145.69L173.73,147.97L174.75,143.33L177.81,155.86L178.83,152.47L181.9,149.3L182.92,144.21L183.94,142.29L184.97,142L185.99,145.83L187.01,146.42L188.03,142.88L189.05,143.18L190.08,144.65L191.1,138.83L192.12,138.9L193.14,145.54L194.16,145.54L195.19,138.83L196.21,146.72L197.23,148.56L198.25,148.42L199.27,150.92L200.29,154.76L201.32,152.91L203.36,157.56L204.38,158.52L205.4,156.82L206.43,160.29L207.45,161.47L208.47,167.22L209.49,164.64L210.51,168.92L211.54,175.04L212.56,172.68L213.58,177.91L214.6,169.8L215.62,164.71L216.65,152.18L219.71,146.72L220.73,150.55L222.78,162.8L223.8,160.88L224.82,161.03L225.84,162.5L226.86,159.85L227.89,162.21L228.91,169.21L229.93,169.58L231.97,174.15L233,184.18L234.02,194.14L235.04,193.7L236.06,193.92L237.08,188.17L238.11,190.53L239.13,201.73L240.15,201.07L241.17,208L244.24,213.31L245.26,213.46L246.28,212.8L247.3,216.48L248.32,216.56L249.35,224.3L251.39,233.59L252.41,230.94L253.43,231.38L254.46,229.69L256.5,227.99L257.52,227.25L259.57,211.91L260.59,210.44L261.61,211.91L262.63,210.81L263.65,211.32L264.68,210.07L266.72,212.13L267.74,208L268.76,206.45L269.78,210.81L271.83,212.5L272.85,206.53L273.87,206.16L274.89,202.69L275.92,198.56L276.94,198.2L277.96,200.11L278.98,198.05L281.03,193.55L282.05,195.1L283.07,199.82L284.09,198.93L285.11,196.35L286.14,196.28L287.16,198.42L288.18,194.8L289.2,193.03L290.22,188.39L291.25,184.33L292.27,186.32L294.31,188.02L295.33,186.54L298.4,200.26L299.42,202.84L300.44,205.13L301.46,215.89L302.49,222.24L303.51,219.07L304.53,213.76L305.55,214.42L307.6,218.99L308.62,218.25L309.64,216.04L310.66,219.07L311.68,215.3L312.71,218.25L313.73,222.97L314.75,221.28L315.77,224.74L316.79,223.42L318.84,216.26L319.86,216.93L320.88,215.38L321.9,218.25L322.92,217.44L323.95,219.51L327.01,240.01L328.03,241.19L329.06,240.82L330.08,242L331.1,238.31L332.12,242L333.14,245.25L334.17,245.76L335.19,247.31L336.21,247.38L337.23,250.11L338.25,249.97L339.27,248.93L340.3,250.41L341.32,257.34L342.34,241.48L343.36,242.44L344.38,241.93L345.41,250.41L346.43,249.6L347.45,249.01L348.47,254.98L349.49,254.54L350.52,255.57L351.54,254.54L352.56,257.41L353.58,259.33L354.6,256.01L355.63,257.27L356.65,264.27L357.67,264.35L358.69,265.97L361.76,277.84L362.78,273.56L363.8,268.77L364.82,267.66L365.84,268.84L366.87,266.04L368.91,259.55L369.93,263.9L370.95,261.47L371.98,262.13L373,262.28L374.02,257.12L375.04,251.15L376.06,251.59L377.09,257.78L378.11,258L379.13,253.43L380.15,253.95L381.17,253.06L382.2,253.65L383.22,250.85L384.24,255.5L386.28,257.71L387.3,258.08L388.33,265.3L389.35,263.9L390.37,264.12L391.39,260.81L392.41,258.82L393.44,253.14L395.48,256.82L396.5,254.17L398.55,249.74L399.57,249.74L400.59,249.67L401.61,253.21L402.63,253.95L403.66,250.92L404.68,249.52L405.7,255.35L407.74,270.47L408.76,271.35L409.79,275.26L410.81,272.53L411.83,274.01L412.85,278.43L413.87,275.85L414.9,279.32L416.94,281.9L417.96,275.11L420.01,274.67L421.03,276.66L424.09,284.33L425.12,286.77L427.16,283.59L428.18,286.69L430.23,278.8L431.25,280.05L434.31,268.92L435.33,269.21L436.36,266.26L437.38,267.74L439.42,271.35L440.44,283.08L442.49,284.26L443.51,285.07L444.53,281.97L445.55,282.34L446.58,280.57L447.6,281.38L448.62,273.42L449.64,281.31L451.69,286.1L452.71,283.82L453.73,284.33L454.75,286.03L455.77,288.68L456.79,281.82L457.82,282.71L458.84,280.13L459.86,282.78L460.88,288.17L464.97,281.46L465.99,283.23L468.04,274.15L469.06,274.82L471.1,278.36L472.12,265.16L475.19,268.62L476.21,265.53L477.23,265.89L478.25,264.86L479.28,263.31L480.3,264.79L482.34,267.37L483.36,267.89L484.39,267.52L485.41,269.36L486.43,270.17L487.45,265.82L488.47,263.61L489.5,263.98L490.52,264.05L491.54,265.38L492.56,265.6L493.58,268.7L494.61,265.38L495.63,267.37L497.67,260.29L498.69,262.72L499.72,259.7L500.74,260.44L501.76,260.88L502.78,263.83L503.8,266.26L504.82,265.82L505.85,264.12L506.87,274.67L507.89,277.99L508.91,277.03L509.93,278.21L510.96,283L513,281.09" style="vector-effect: non-scaling-stroke; fill: none; stroke: rgb(0, 191, 255); stroke-opacity: 1; stroke-width: 2px; opacity: 1;"/></g><g class="points"/><g class="text"/></g><g class="trace scatter trace491044" style="stroke-miterlimit: 2; opacity: 1;"><g class="fills"/><g class="errorbars"/><g class="lines"><path class="js-line" d="M0,105.79L2.04,90.75L3.07,91.04L4.09,83.37L5.11,84.33L6.13,88.75L7.15,79.9L8.18,81.16L9.2,84.03L11.24,81.53L12.26,85.07L13.28,81.67L14.31,84.03L15.33,73.86L16.35,72.9L17.37,72.75L18.39,67.96L20.44,95.39L21.46,101.14L22.48,111.91L23.5,138.83L25.55,110.29L26.57,121.87L27.59,124.89L28.61,111.39L30.66,98.71L31.68,83.37L32.7,82.19L33.72,48.27L34.75,50.77L35.77,51.14L36.79,52.91L37.81,43.92L38.83,47.75L39.85,47.16L40.88,44.36L41.9,48.05L42.92,40.23L43.94,45.98L44.96,36.03L45.99,45.32L47.01,54.68L48.03,50.55L50.07,84.48L51.1,87.28L52.12,83.59L53.14,83.96L54.16,83.44L55.18,83.89L56.21,112.5L57.23,119.58L58.25,114.64L59.27,120.54L60.29,124.45L61.31,117.52L62.34,118.55L63.36,110.36L64.38,120.17L65.4,107.85L66.42,116.63L67.45,113.83L68.47,106.23L69.49,114.57L70.51,108.96L71.53,109.7L72.56,108.81L73.58,104.17L74.6,95.32L75.62,96.65L76.64,101.59L77.67,102.1L78.69,105.64L79.71,103.21L80.73,98.49L81.75,131.75L82.77,126.81L83.8,135.44L85.84,127.62L86.86,126L87.88,114.42L88.91,113.83L89.93,111.91L90.95,108.15L92.99,103.43L94.02,105.42L96.06,93.47L97.08,97.97L98.1,114.79L99.13,105.35L100.15,110.44L101.17,108.44L103.21,108.22L104.24,104.83L106.28,92.52L107.3,94.95L108.32,98.34L109.34,96.94L110.37,97.9L111.39,96.06L112.41,94.88L113.43,91.85L114.45,92.81L115.48,91.85L116.5,106.68L117.52,105.5L118.54,113.46L119.56,112.13L121.61,103.14L122.63,117.44L123.65,117.81L124.67,113.02L125.7,116.63L126.72,111.25L128.76,117.15L129.78,115.67L130.8,114.27L131.83,109.7L132.85,105.05L133.87,106.01L134.89,102.18L135.91,103.87L136.94,103.87L137.96,102.55L140,95.39L141.02,97.16L142.05,96.57L143.07,88.31L144.09,90.3L145.11,102.62L146.13,95.54L147.16,95.69L149.2,104.91L150.22,130.27L153.29,136.69L154.31,144.29L155.33,144.21L156.35,149.96L158.4,147.01L159.42,157.27L160.44,152.18L161.46,151.88L163.51,140.89L164.53,138.61L165.55,143.99L166.57,140.45L167.59,147.01L168.62,141.85L169.64,143.11L170.66,155.72L171.68,154.09L172.7,155.86L174.75,150.7L175.77,155.13L176.79,154.24L177.81,161.1L179.86,156.38L180.88,156.82L183.94,146.79L184.97,147.31L185.99,154.68L187.01,154.17L188.03,148.19L189.05,147.46L190.08,150.11L191.1,148.34L192.12,150.26L193.14,154.09L194.16,149.3L195.19,148.56L196.21,152.84L197.23,153.87L198.25,152.69L199.27,160.07L200.29,164.27L201.32,158.15L203.36,165.75L204.38,165.3L205.4,163.98L206.43,165.75L207.45,165.75L208.47,173.86L209.49,179.61L210.51,177.47L211.54,181.31L212.56,182.19L213.58,183.59L214.6,179.32L219.71,151.29L220.73,159.11L222.78,168.92L223.8,166.63L224.82,168.62L225.84,168.77L226.86,165.23L227.89,168.48L228.91,179.61L229.93,177.32L230.95,179.61L231.97,183.89L234.02,204.83L235.04,200.7L236.06,199.3L237.08,195.1L241.17,217.07L242.19,215.97L243.22,214.35L244.24,218.11L246.28,222.24L247.3,220.54L249.35,231.97L250.37,233.22L251.39,239.57L252.41,240.75L254.46,234.26L255.48,235.07L256.5,236.69L257.52,232.04L258.54,228.28L259.57,218.11L260.59,216.63L261.61,218.18L263.65,215.53L264.68,215.6L265.7,219.8L266.72,217.15L267.74,215.45L268.76,212.13L269.78,216.48L270.81,217L271.83,216.63L272.85,212.06L273.87,212.06L274.89,211.25L275.92,207.93L276.94,219.66L277.96,207.41L278.98,206.45L281.03,198.12L282.05,201.51L283.07,208.15L284.09,205.27L285.11,200.04L286.14,201.88L287.16,202.25L288.18,199.15L289.2,198.93L290.22,194.95L291.25,190.67L292.27,190.89L294.31,192.74L295.33,192.15L296.35,201.88L297.38,204.46L298.4,205.86L299.42,205.94L301.46,220.25L302.49,226.22L303.51,225.26L304.53,219.07L305.55,217.22L306.57,221.5L307.6,222.46L308.62,221.35L309.64,220.39L310.66,224.52L311.68,222.61L312.71,226.81L313.73,228.43L314.75,226.59L315.77,227.84L316.79,226.51L318.84,220.69L319.86,220.17L320.88,219.95L321.9,221.35L322.92,221.35L323.95,222.68L325.99,240.53L327.01,244.58L328.03,245.1L329.06,244.21L330.08,244.73L331.1,243.92L333.14,249.74L334.17,248.71L335.19,249.23L336.21,252.33L339.27,252.62L340.3,254.17L341.32,262.36L342.34,257.05L343.36,247.24L344.38,248.79L345.41,254.83L346.43,255.64L347.45,253.28L348.47,260.51L349.49,258.74L350.52,258.89L351.54,257.49L352.56,260.44L353.58,262.58L354.6,261.47L356.65,268.55L357.67,267.22L359.71,273.56L360.74,277.99L361.76,280.72L362.78,279.39L364.82,272.75L365.84,272.68L366.87,271.13L367.89,265.53L368.91,263.83L369.93,266.41L370.95,265.3L371.98,265.97L373,268.55L374.02,262.8L375.04,256.9L376.06,259.92L379.13,261.54L380.15,258.23L381.17,255.87L382.2,256.6L383.22,255.79L384.24,258.74L386.28,260.59L387.3,266.93L388.33,269.58L389.35,267.89L390.37,268.25L391.39,264.71L393.44,259.55L394.46,258.37L395.48,259.48L396.5,257.49L397.52,257.49L398.55,252.69L402.63,257.12L403.66,257.05L404.68,257.64L405.7,262.21L407.74,274.6L408.76,277.69L409.79,277.84L410.81,276.22L413.87,282.64L414.9,282.19L415.92,286.77L416.94,286.03L418.98,277.03L420.01,279.61L421.03,279.83L422.05,285.07L423.07,285.73L424.09,290.6L425.12,291.85L426.14,286.4L427.16,286.54L428.18,289.49L430.23,282.19L431.25,283L432.27,281.82L433.29,277.99L434.31,276.74L435.33,272.9L436.36,270.76L437.38,272.38L439.42,277.4L440.44,288.39L441.47,287.43L442.49,291.78L446.58,284.04L447.6,285.66L448.62,281.23L449.64,287.72L451.69,289.64L452.71,288.17L453.73,287.72L454.75,293.55L455.77,292.89L456.79,290.67L457.82,285.66L458.84,286.99L460.88,290.97L461.9,289.13L462.93,288.54L463.95,290.16L464.97,285.88L465.99,286.99L468.04,279.1L469.06,278.43L471.1,282.49L472.12,276.44L473.15,270.69L474.17,270.76L475.19,272.16L476.21,270.54L477.23,269.29L478.25,269.88L479.28,267L480.3,268.33L481.32,272.9L482.34,271.2L484.39,272.83L485.41,273.93L486.43,274.15L487.45,270.91L489.5,266.41L490.52,266.56L491.54,274.45L492.56,269.58L493.58,272.75L494.61,269.66L495.63,270.76L496.65,266.63L497.67,263.39L498.69,265.45L499.72,264.64L500.74,266.48L501.76,266.41L502.78,270.1L503.8,270.47L504.82,269.14L505.85,268.99L506.87,279.54L507.89,280.5L508.91,279.83L510.96,284.92L511.98,284.48L513,284.63" style="vector-effect: non-scaling-stroke; fill: none; stroke: rgb(105, 105, 105); stroke-opacity: 1; stroke-width: 2px; opacity: 1;"/></g><g class="points"/><g class="text"/></g></g></g><g class="overplot"/><path class="xlines-above crisp" d="M0,0" style="fill: none;"/><path class="ylines-above crisp" d="M0,0" style="fill: none;"/><g class="overlines-above"/><g class="xaxislayer-above"><g class="xtick"><text text-anchor="start" x="0" y="422" transform="translate(80,0) rotate(90,0,416)" style="font-family: 'Open Sans', verdana, arial, sans-serif; font-size: 12px; fill: rgb(42, 63, 95); fill-opacity: 1; white-space: pre;">1/2/2018</text></g><g class="xtick"><text text-anchor="start" x="0" y="422" transform="translate(95.33,0) rotate(90,0,416)" style="font-family: 'Open Sans', verdana, arial, sans-serif; font-size: 12px; fill: rgb(42, 63, 95); fill-opacity: 1; white-space: pre;">1/24/2018</text></g><g class="xtick"><text text-anchor="start" x="0" y="422" transform="translate(110.66,0) rotate(90,0,416)" style="font-family: 'Open Sans', verdana, arial, sans-serif; font-size: 12px; fill: rgb(42, 63, 95); fill-opacity: 1; white-space: pre;">2/14/2018</text></g><g class="xtick"><text text-anchor="start" x="0" y="422" transform="translate(125.99000000000001,0) rotate(90,0,416)" style="font-family: 'Open Sans', verdana, arial, sans-serif; font-size: 12px; fill: rgb(42, 63, 95); fill-opacity: 1; white-space: pre;">3/8/2018</text></g><g class="xtick"><text text-anchor="start" x="0" y="422" transform="translate(141.31,0) rotate(90,0,416)" style="font-family: 'Open Sans', verdana, arial, sans-serif; font-size: 12px; fill: rgb(42, 63, 95); fill-opacity: 1; white-space: pre;">3/29/2018</text></g><g class="xtick"><text text-anchor="start" x="0" y="422" transform="translate(156.64,0) rotate(90,0,416)" style="font-family: 'Open Sans', verdana, arial, sans-serif; font-size: 12px; fill: rgb(42, 63, 95); fill-opacity: 1; white-space: pre;">4/20/2018</text></g><g class="xtick"><text text-anchor="start" x="0" y="422" transform="translate(171.97,0) rotate(90,0,416)" style="font-family: 'Open Sans', verdana, arial, sans-serif; font-size: 12px; fill: rgb(42, 63, 95); fill-opacity: 1; white-space: pre;">5/11/2018</text></g><g class="xtick"><text text-anchor="start" x="0" y="422" transform="translate(187.3,0) rotate(90,0,416)" style="font-family: 'Open Sans', verdana, arial, sans-serif; font-size: 12px; fill: rgb(42, 63, 95); fill-opacity: 1; white-space: pre;">6/4/2018</text></g><g class="xtick"><text text-anchor="start" x="0" y="422" transform="translate(202.63,0) rotate(90,0,416)" style="font-family: 'Open Sans', verdana, arial, sans-serif; font-size: 12px; fill: rgb(42, 63, 95); fill-opacity: 1; white-space: pre;">6/25/2018</text></g><g class="xtick"><text text-anchor="start" x="0" y="422" transform="translate(217.96,0) rotate(90,0,416)" style="font-family: 'Open Sans', verdana, arial, sans-serif; font-size: 12px; fill: rgb(42, 63, 95); fill-opacity: 1; white-space: pre;">7/17/2018</text></g><g class="xtick"><text text-anchor="start" x="0" y="422" transform="translate(233.29,0) rotate(90,0,416)" style="font-family: 'Open Sans', verdana, arial, sans-serif; font-size: 12px; fill: rgb(42, 63, 95); fill-opacity: 1; white-space: pre;">8/7/2018</text></g><g class="xtick"><text text-anchor="start" x="0" y="422" transform="translate(248.62,0) rotate(90,0,416)" style="font-family: 'Open Sans', verdana, arial, sans-serif; font-size: 12px; fill: rgb(42, 63, 95); fill-opacity: 1; white-space: pre;">8/28/2018</text></g><g class="xtick"><text text-anchor="start" x="0" y="422" transform="translate(263.94,0) rotate(90,0,416)" style="font-family: 'Open Sans', verdana, arial, sans-serif; font-size: 12px; fill: rgb(42, 63, 95); fill-opacity: 1; white-space: pre;">9/19/2018</text></g><g class="xtick"><text text-anchor="start" x="0" y="422" transform="translate(279.27,0) rotate(90,0,416)" style="font-family: 'Open Sans', verdana, arial, sans-serif; font-size: 12px; fill: rgb(42, 63, 95); fill-opacity: 1; white-space: pre;">10/10/2018</text></g><g class="xtick"><text text-anchor="start" x="0" y="422" transform="translate(294.6,0) rotate(90,0,416)" style="font-family: 'Open Sans', verdana, arial, sans-serif; font-size: 12px; fill: rgb(42, 63, 95); fill-opacity: 1; white-space: pre;">10/31/2018</text></g><g class="xtick"><text text-anchor="start" x="0" y="422" transform="translate(309.93,0) rotate(90,0,416)" style="font-family: 'Open Sans', verdana, arial, sans-serif; font-size: 12px; fill: rgb(42, 63, 95); fill-opacity: 1; white-space: pre;">11/21/2018</text></g><g class="xtick"><text text-anchor="start" x="0" y="422" transform="translate(325.26,0) rotate(90,0,416)" style="font-family: 'Open Sans', verdana, arial, sans-serif; font-size: 12px; fill: rgb(42, 63, 95); fill-opacity: 1; white-space: pre;">12/14/2018</text></g><g class="xtick"><text text-anchor="start" x="0" y="422" transform="translate(340.59,0) rotate(90,0,416)" style="font-family: 'Open Sans', verdana, arial, sans-serif; font-size: 12px; fill: rgb(42, 63, 95); fill-opacity: 1; white-space: pre;">1/8/2019</text></g><g class="xtick"><text text-anchor="start" x="0" y="422" transform="translate(355.92,0) rotate(90,0,416)" style="font-family: 'Open Sans', verdana, arial, sans-serif; font-size: 12px; fill: rgb(42, 63, 95); fill-opacity: 1; white-space: pre;">1/30/2019</text></g><g class="xtick"><text text-anchor="start" x="0" y="422" transform="translate(371.25,0) rotate(90,0,416)" style="font-family: 'Open Sans', verdana, arial, sans-serif; font-size: 12px; fill: rgb(42, 63, 95); fill-opacity: 1; white-space: pre;">2/21/2019</text></g><g class="xtick"><text text-anchor="start" x="0" y="422" transform="translate(386.57,0) rotate(90,0,416)" style="font-family: 'Open Sans', verdana, arial, sans-serif; font-size: 12px; fill: rgb(42, 63, 95); fill-opacity: 1; white-space: pre;">3/14/2019</text></g><g class="xtick"><text text-anchor="start" x="0" y="422" transform="translate(401.9,0) rotate(90,0,416)" style="font-family: 'Open Sans', verdana, arial, sans-serif; font-size: 12px; fill: rgb(42, 63, 95); fill-opacity: 1; white-space: pre;">4/4/2019</text></g><g class="xtick"><text text-anchor="start" x="0" y="422" transform="translate(417.23,0) rotate(90,0,416)" style="font-family: 'Open Sans', verdana, arial, sans-serif; font-size: 12px; fill: rgb(42, 63, 95); fill-opacity: 1; white-space: pre;">4/26/2019</text></g><g class="xtick"><text text-anchor="start" x="0" y="422" transform="translate(432.56,0) rotate(90,0,416)" style="font-family: 'Open Sans', verdana, arial, sans-serif; font-size: 12px; fill: rgb(42, 63, 95); fill-opacity: 1; white-space: pre;">5/17/2019</text></g><g class="xtick"><text text-anchor="start" x="0" y="422" transform="translate(447.89,0) rotate(90,0,416)" style="font-family: 'Open Sans', verdana, arial, sans-serif; font-size: 12px; fill: rgb(42, 63, 95); fill-opacity: 1; white-space: pre;">6/10/2019</text></g><g class="xtick"><text text-anchor="start" x="0" y="422" transform="translate(463.22,0) rotate(90,0,416)" style="font-family: 'Open Sans', verdana, arial, sans-serif; font-size: 12px; fill: rgb(42, 63, 95); fill-opacity: 1; white-space: pre;">7/1/2019</text></g><g class="xtick"><text text-anchor="start" x="0" y="422" transform="translate(478.55,0) rotate(90,0,416)" style="font-family: 'Open Sans', verdana, arial, sans-serif; font-size: 12px; fill: rgb(42, 63, 95); fill-opacity: 1; white-space: pre;">7/23/2019</text></g><g class="xtick"><text text-anchor="start" x="0" y="422" transform="translate(493.87,0) rotate(90,0,416)" style="font-family: 'Open Sans', verdana, arial, sans-serif; font-size: 12px; fill: rgb(42, 63, 95); fill-opacity: 1; white-space: pre;">8/13/2019</text></g><g class="xtick"><text text-anchor="start" x="0" y="422" transform="translate(509.2,0) rotate(90,0,416)" style="font-family: 'Open Sans', verdana, arial, sans-serif; font-size: 12px; fill: rgb(42, 63, 95); fill-opacity: 1; white-space: pre;">9/4/2019</text></g><g class="xtick"><text text-anchor="start" x="0" y="422" transform="translate(524.53,0) rotate(90,0,416)" style="font-family: 'Open Sans', verdana, arial, sans-serif; font-size: 12px; fill: rgb(42, 63, 95); fill-opacity: 1; white-space: pre;">9/25/2019</text></g><g class="xtick"><text text-anchor="start" x="0" y="422" transform="translate(539.86,0) rotate(90,0,416)" style="font-family: 'Open Sans', verdana, arial, sans-serif; font-size: 12px; fill: rgb(42, 63, 95); fill-opacity: 1; white-space: pre;">10/16/2019</text></g><g class="xtick"><text text-anchor="start" x="0" y="422" transform="translate(555.19,0) rotate(90,0,416)" style="font-family: 'Open Sans', verdana, arial, sans-serif; font-size: 12px; fill: rgb(42, 63, 95); fill-opacity: 1; white-space: pre;">11/6/2019</text></g><g class="xtick"><text text-anchor="start" x="0" y="422" transform="translate(570.52,0) rotate(90,0,416)" style="font-family: 'Open Sans', verdana, arial, sans-serif; font-size: 12px; fill: rgb(42, 63, 95); fill-opacity: 1; white-space: pre;">11/27/2019</text></g><g class="xtick"><text text-anchor="start" x="0" y="422" transform="translate(585.85,0) rotate(90,0,416)" style="font-family: 'Open Sans', verdana, arial, sans-serif; font-size: 12px; fill: rgb(42, 63, 95); fill-opacity: 1; white-space: pre;">12/19/2019</text></g></g><g class="yaxislayer-above"><g class="ytick"><text text-anchor="end" x="79" y="4.199999999999999" transform="translate(0,393.03)" style="font-family: 'Open Sans', verdana, arial, sans-serif; font-size: 12px; fill: rgb(42, 63, 95); fill-opacity: 1; white-space: pre;">10</text></g><g class="ytick"><text text-anchor="end" x="79" y="4.199999999999999" transform="translate(0,356.16)" style="font-family: 'Open Sans', verdana, arial, sans-serif; font-size: 12px; fill: rgb(42, 63, 95); fill-opacity: 1; white-space: pre;">15</text></g><g class="ytick"><text text-anchor="end" x="79" y="4.199999999999999" transform="translate(0,319.28999999999996)" style="font-family: 'Open Sans', verdana, arial, sans-serif; font-size: 12px; fill: rgb(42, 63, 95); fill-opacity: 1; white-space: pre;">20</text></g><g class="ytick"><text text-anchor="end" x="79" y="4.199999999999999" transform="translate(0,282.40999999999997)" style="font-family: 'Open Sans', verdana, arial, sans-serif; font-size: 12px; fill: rgb(42, 63, 95); fill-opacity: 1; white-space: pre;">25</text></g><g class="ytick"><text text-anchor="end" x="79" y="4.199999999999999" transform="translate(0,245.54)" style="font-family: 'Open Sans', verdana, arial, sans-serif; font-size: 12px; fill: rgb(42, 63, 95); fill-opacity: 1; white-space: pre;">30</text></g><g class="ytick"><text text-anchor="end" x="79" y="4.199999999999999" transform="translate(0,208.67000000000002)" style="font-family: 'Open Sans', verdana, arial, sans-serif; font-size: 12px; fill: rgb(42, 63, 95); fill-opacity: 1; white-space: pre;">35</text></g><g class="ytick"><text text-anchor="end" x="79" y="4.199999999999999" transform="translate(0,171.79000000000002)" style="font-family: 'Open Sans', verdana, arial, sans-serif; font-size: 12px; fill: rgb(42, 63, 95); fill-opacity: 1; white-space: pre;">40</text></g><g class="ytick"><text text-anchor="end" x="79" y="4.199999999999999" transform="translate(0,134.92000000000002)" style="font-family: 'Open Sans', verdana, arial, sans-serif; font-size: 12px; fill: rgb(42, 63, 95); fill-opacity: 1; white-space: pre;">45</text></g></g><g class="overaxes-above"/></g></g><g class="polarlayer"/><g class="ternarylayer"/><g class="geolayer"/><g class="funnelarealayer"/><g class="pielayer"/><g class="treemaplayer"/><g class="sunburstlayer"/><g class="glimages"/><defs id="topdefs-99faee"><g class="clips"/><clipPath id="legend99faee"><rect width="85" height="48" x="0" y="0"/></clipPath></defs><g class="layer-above"><g class="imagelayer"/><g class="shapelayer"/></g><g class="infolayer"><g class="legend" pointer-events="all" transform="translate(603.26, 100)"><rect class="bg" shape-rendering="crispEdges" style="stroke: rgb(68, 68, 68); stroke-opacity: 1; fill: rgb(255, 255, 255); fill-opacity: 1; stroke-width: 0px;" width="85" height="48" x="0" y="0"/><g class="scrollbox" transform="translate(0, 0)" clip-path="url('#legend99faee')"><g class="groups"><g class="traces" transform="translate(0, 14.5)" style="opacity: 1;"><text class="legendtext user-select-none" text-anchor="start" x="40" y="4.680000000000001" style="font-family: 'Open Sans', verdana, arial, sans-serif; font-size: 12px; fill: rgb(42, 63, 95); fill-opacity: 1; white-space: pre;">X High</text><g class="layers" style="opacity: 1;"><g class="legendfill"/><g class="legendlines"><path class="js-line" d="M5,0h30" style="fill: none; stroke: rgb(0, 191, 255); stroke-opacity: 1; stroke-width: 2px;"/></g><g class="legendsymbols"><g class="legendpoints"/></g></g><rect class="legendtoggle" pointer-events="all" x="0" y="-9.5" width="79.8125" height="19" style="cursor: pointer; fill: rgb(0, 0, 0); fill-opacity: 0;"/></g><g class="traces" transform="translate(0, 33.5)" style="opacity: 1;"><text class="legendtext user-select-none" text-anchor="start" x="40" y="4.680000000000001" style="font-family: 'Open Sans', verdana, arial, sans-serif; font-size: 12px; fill: rgb(42, 63, 95); fill-opacity: 1; white-space: pre;">X Low</text><g class="layers" style="opacity: 1;"><g class="legendfill"/><g class="legendlines"><path class="js-line" d="M5,0h30" style="fill: none; stroke: rgb(105, 105, 105); stroke-opacity: 1; stroke-width: 2px;"/></g><g class="legendsymbols"><g class="legendpoints"/></g></g><rect class="legendtoggle" pointer-events="all" x="0" y="-9.5" width="79.8125" height="19" style="cursor: pointer; fill: rgb(0, 0, 0); fill-opacity: 0;"/></g></g></g><rect class="scrollbar" rx="20" ry="3" width="0" height="0" style="fill: rgb(128, 139, 164); fill-opacity: 1;" x="0" y="0"/></g><g class="g-gtitle"><text class="gtitle" x="35" y="50" text-anchor="start" dy="0em" style="font-family: 'Open Sans', verdana, arial, sans-serif; font-size: 17px; fill: rgb(42, 63, 95); opacity: 1; font-weight: normal; white-space: pre;">U.S. Steel</text></g><g class="g-xtitle"/><g class="g-ytitle"/></g></svg>