<svg class="main-svg" xmlns="http://www.w3.org/2000/svg" xmlns:xlink="http://www.w3.org/1999/xlink" width="400" height="400" viewBox="0 0 400 400"><rect x="0" y="0" width="400" height="400" style="fill: rgb(255, 255, 255); fill-opacity: 1;"/><defs id="defs-3c63ff"><g class="clips"><clipPath id="clip3c63ffxyplot" class="plotclip"><rect width="240" height="220"/></clipPath><clipPath class="axesclip" id="clip3c63ffx"><rect x="80" y="0" width="240" height="400"/></clipPath><clipPath class="axesclip" id="clip3c63ffy"><rect x="0" y="100" width="400" height="220"/></clipPath><clipPath class="axesclip" id="clip3c63ffxy"><rect x="80" y="100" width="240" height="220"/></clipPath></g><g class="gradients"/></defs><g class="bglayer"><rect class="bg" x="80" y="100" width="240" height="220" style="fill: rgb(229, 236, 246); fill-opacity: 1; stroke-width: 0;"/></g><g class="layer-below"><g class="imagelayer"/><g class="shapelayer"/></g><g class="cartesianlayer"><g class="subplot xy"><g class="layer-subplot"><g class="shapelayer"/><g class="imagelayer"/></g><g class="gridlayer"><g class="x"><path class="xgrid crisp" transform="translate(200,0)" d="M0,100v220" style="stroke: rgb(255, 255, 255); stroke-opacity: 1; stroke-width: 1px;"/><path class="xgrid crisp" transform="translate(318,0)" d="M0,100v220" style="stroke: rgb(255, 255, 255); stroke-opacity: 1; stroke-width: 1px;"/></g><g class="y"><path class="ygrid crisp" transform="translate(0,312.25)" d="M80,0h240" style="stroke: rgb(255, 255, 255); stroke-opacity: 1; stroke-width: 1px;"/><path class="ygrid crisp" transform="translate(0,240.37)" d="M80,0h240" style="stroke: rgb(255, 255, 255); stroke-opacity: 1; stroke-width: 1px;"/><path class="ygrid crisp" transform="translate(0,168.5)" d="M80,0h240" style="stroke: rgb(255, 255, 255); stroke-opacity: 1; stroke-width: 1px;"/></g></g><g class="zerolinelayer"><path class="xzl zl crisp" transform="translate(82,0)" d="M0,100v220" style="stroke: rgb(255, 255, 255); stroke-opacity: 1; stroke-width: 2px;"/></g><path class="xlines-below"/><path class="ylines-below"/><g class="overlines-below"/><g class="xaxislayer-below"/><g class="yaxislayer-below"/><g class="overaxes-below"/><g class="plot" transform="translate(80, 100)" clip-path="url('#clip3c63ffxyplot')"><g class="scatterlayer mlayer"><g class="trace scatter tracefcd7f7" style="stroke-miterlimit: 2; opacity: 1;"><g class="fills"/><g class="errorbars"/><g class="lines"><path class="js-line" d="M2,202.67L2.71,179.67L2.94,183.5L3.18,183.5L3.42,187.33L3.65,179.67L3.89,164.33L4.12,172L4.36,160.5L4.6,160.5L5.07,145.17L5.3,149L5.54,187.33L6.25,160.5L6.48,168.17L6.72,168.17L6.96,168.17L7.19,164.33L8.14,137.5L8.37,156.67L9.32,145.17L9.55,168.17L10.5,145.17L10.73,149L10.97,149L11.2,137.5L12.38,152.83L12.62,137.5L12.86,141.33L13.09,137.5L13.33,156.67L13.56,156.67L13.8,145.17L14.27,149L14.51,137.5L14.74,141.33L14.98,133.67L15.22,145.17L15.45,137.5L15.69,156.67L15.92,137.5L16.4,145.17L16.63,156.67L16.87,160.5L17.1,149L17.58,133.67L17.81,152.83L18.05,133.67L18.52,137.5L18.76,137.5L19.23,149L19.46,133.67L19.94,164.33L20.41,156.67L20.64,149L21.12,141.33L21.35,145.17L21.59,152.83L21.82,141.33L22.06,145.17L22.3,156.67L23.48,133.67L23.71,149L24.66,129.83L24.89,129.83L25.13,129.83L25.36,137.5L25.6,137.5L25.84,126L26.07,141.33L26.31,133.67L26.54,122.17L27.25,114.5L27.49,126L28.2,114.5L28.43,95.33L29.61,122.17L29.85,126L30.08,103L30.56,126L30.79,122.17L31.03,137.5L31.26,122.17L31.5,106.83L31.74,110.67L31.97,103L32.21,122.17L32.44,129.83L32.68,110.67L32.92,110.67L33.15,114.5L33.39,106.83L33.62,118.33L33.86,122.17L34.57,91.5L34.8,110.67L35.04,103L35.28,114.5L35.51,110.67L35.75,118.33L35.98,95.33L36.69,99.17L36.93,99.17L37.16,110.67L37.64,106.83L37.87,103L38.82,91.5L39.05,103L39.29,110.67L39.52,99.17L39.76,103L40,103L40.23,99.17L40.47,103L40.7,110.67L40.94,87.67L41.41,91.5L41.65,110.67L42.12,87.67L42.36,110.67L43.54,76.17L43.77,91.5L44.01,106.83L44.48,103L44.72,87.67L45.19,80L45.42,87.67L45.66,103L45.9,91.5L46.37,103L46.6,95.33L46.84,110.67L47.08,106.83L47.31,91.5L47.55,87.67L47.78,95.33L48.02,99.17L48.26,106.83L48.49,99.17L48.73,91.5L49.2,80L49.44,91.5L49.67,83.83L49.91,99.17L50.14,95.33L50.62,83.83L50.85,99.17L51.32,80L51.56,91.5L51.8,91.5L52.03,83.83L52.27,95.33L52.5,106.83L52.98,80L53.21,95.33L53.45,91.5L53.68,76.17L53.92,95.33L54.16,91.5L54.39,83.83L54.63,83.83L54.86,80L55.57,95.33L55.81,76.17L56.28,91.5L56.52,87.67L56.75,80L56.99,83.83L57.22,80L57.46,72.33L58.17,80L58.4,76.17L58.64,76.17L59.35,91.5L59.58,68.5L59.82,95.33L60.29,80L60.53,72.33L60.76,72.33L61,80L61.24,80L61.47,87.67L61.71,80L61.94,91.5L62.18,87.67L62.42,95.33L63.12,57L63.36,80L63.6,80L63.83,91.5L64.3,64.67L64.78,72.33L65.01,87.67L65.25,87.67L65.48,83.83L65.72,72.33L66.19,76.17L66.43,76.17L66.9,57L67.14,72.33L67.37,99.17L68.08,72.33L68.32,80L68.55,99.17L69.26,72.33L69.5,91.5L69.97,80L70.2,83.83L70.44,87.67L70.91,57L71.38,68.5L71.62,60.83L72.33,68.5L72.56,91.5L73.27,64.67L73.51,80L74.22,68.5L74.45,91.5L74.92,68.5L75.16,72.33L75.4,80L75.87,60.83L76.34,68.5L76.58,83.83L77.52,72.33L77.76,72.33L78.23,53.17L78.46,64.67L78.7,68.5L78.94,68.5L79.17,64.67L79.41,64.67L79.64,72.33L79.88,53.17L80.35,64.67L80.59,68.5L80.82,68.5L81.06,64.67L81.3,76.17L81.53,53.17L81.77,57L82.48,76.17L82.71,68.5L82.95,72.33L83.18,57L83.42,68.5L83.89,64.67L84.13,37.83L85.07,72.33L85.31,64.67L85.54,60.83L85.78,68.5L86.02,64.67L86.25,72.33L87.2,49.33L87.43,57L88.14,45.5L88.38,64.67L89.56,41.67L89.79,53.17L90.5,41.67L90.74,45.5L90.97,41.67L91.21,53.17L91.92,37.83L92.15,49.33L92.39,34L92.86,41.67L93.1,57L93.57,37.83L93.8,64.67L94.04,68.5L94.28,53.17L94.75,41.67L94.98,49.33L95.22,45.5L95.69,49.33L96.16,37.83L96.4,49.33L96.64,53.17L96.87,76.17L97.82,41.67L98.05,53.17L98.29,34L98.76,45.5L99,37.83L99.47,53.17L99.7,30.17L100.18,57L100.41,49.33L100.65,41.67L101.12,41.67L101.36,45.5L102.06,26.33L102.3,49.33L103.01,30.17L103.24,45.5L103.48,26.33L103.95,41.67L104.19,30.17L104.9,45.5L105.13,41.67L105.37,37.83L105.84,30.17L106.08,41.67L106.78,60.83L107.02,34L107.49,26.33L107.73,37.83L108.2,49.33L108.44,37.83L108.91,34L109.14,45.5L110.09,26.33L110.32,34L110.56,34L110.8,41.67L111.98,26.33L112.21,37.83L112.68,49.33L112.92,45.5L113.16,41.67L113.86,26.33L114.1,37.83L114.57,49.33L114.81,34L115.04,26.33L115.28,30.17L115.52,45.5L115.99,30.17L116.22,41.67L116.46,22.5L116.93,41.67L117.17,37.83L117.4,37.83L117.64,45.5L118.35,34L118.58,49.33L118.82,18.67L119.06,53.17L119.29,22.5L119.53,34L119.76,49.33L120.24,41.67L120.47,30.17L120.94,22.5L121.18,49.33L121.42,37.83L121.65,30.17L122.12,22.5L122.83,45.5L123.07,30.17L123.3,37.83L123.78,34L124.01,26.33L124.48,18.67L124.72,26.33L124.96,22.5L125.19,34L125.43,30.17L125.66,18.67L125.9,37.83L126.37,26.33L126.61,26.33L127.55,41.67L127.79,14.83L128.5,26.33L128.73,18.67L128.97,18.67L129.2,57L130.15,14.83L130.38,45.5L130.62,45.5L130.86,41.67L131.09,22.5L131.56,37.83L131.8,53.17L132.51,30.17L132.74,34L132.98,30.17L133.22,26.33L133.45,37.83L133.69,30.17L133.92,34L134.16,41.67L134.63,18.67L134.87,49.33L135.58,18.67L135.81,34L136.05,34L136.28,18.67L136.52,34L136.76,41.67L136.99,26.33L137.46,34L137.7,34L137.94,41.67L138.17,26.33L138.41,30.17L138.64,18.67L139.12,22.5L139.35,41.67L139.82,37.83L140.06,11L141,41.67L141.24,26.33L141.71,18.67L141.95,30.17L142.18,45.5L142.42,14.83L142.66,30.17L142.89,22.5L143.84,45.5L144.07,30.17L144.31,34L144.54,30.17L144.78,26.33L145.02,41.67L145.25,30.17L145.49,22.5L145.72,18.67L145.96,26.33L146.2,34L146.67,37.83L146.9,30.17L147.14,18.67L147.61,30.17L147.85,37.83L148.32,45.5L148.56,14.83L148.79,22.5L149.03,37.83L149.5,41.67L150.21,26.33L150.44,49.33L151.39,26.33L151.62,18.67L152.33,41.67L152.57,26.33L152.8,18.67L153.04,34L153.28,53.17L153.75,22.5L154.22,30.17L154.46,37.83L154.93,26.33L155.16,37.83L155.4,37.83L155.64,41.67L156.34,22.5L156.58,30.17L156.82,37.83L157.05,37.83L157.29,30.17L157.52,26.33L158,30.17L158.23,37.83L158.94,30.17L159.18,41.67L159.41,41.67L159.65,37.83L159.88,18.67L160.36,37.83L160.59,37.83L160.83,53.17L161.06,26.33L161.3,34L161.77,41.67L162.01,30.17L162.24,30.17L162.48,37.83L162.95,30.17L163.19,34L163.42,49.33L164.37,18.67L164.6,49.33L164.84,37.83L165.31,41.67L165.55,41.67L165.78,30.17L166.02,41.67L166.26,45.5L166.49,22.5L166.96,41.67L167.2,45.5L167.67,18.67L167.91,41.67L168.85,53.17L169.09,37.83L170.03,45.5L170.27,41.67L170.5,41.67L170.74,49.33L170.98,30.17L171.21,60.83L171.45,45.5L171.68,37.83L171.92,49.33L172.39,37.83L172.63,30.17L173.81,49.33L174.04,37.83L174.52,49.33L174.75,45.5L174.99,37.83L175.22,37.83L175.46,41.67L175.7,37.83L175.93,45.5L176.17,49.33L176.4,34L176.88,41.67L177.11,45.5L177.35,41.67L177.58,49.33L177.82,49.33L178.06,49.33L178.29,41.67L178.53,30.17L178.76,53.17L179,34L179.24,49.33L179.47,30.17L179.94,37.83L180.18,34L180.65,26.33L180.89,34L181.12,49.33L181.36,49.33L181.6,37.83L181.83,37.83L182.07,41.67L182.3,41.67L182.54,26.33L183.48,53.17L183.72,30.17L184.19,49.33L184.43,45.5L184.66,26.33L185.14,64.67L185.37,34L185.61,37.83L186.32,26.33L186.55,49.33L187.26,30.17L187.5,41.67L187.73,26.33L188.2,37.83L188.44,45.5L188.91,30.17L189.15,49.33L189.86,14.83L190.09,34L190.33,34L190.56,45.5L191.51,18.67L191.74,37.83L192.22,41.67L192.69,26.33L192.92,37.83L193.16,45.5L193.4,34L193.63,37.83L193.87,34L194.1,22.5L194.34,41.67L194.58,45.5L195.28,30.17L195.52,37.83L195.76,37.83L195.99,37.83L196.23,41.67L196.46,34L196.7,49.33L196.94,45.5L197.64,34L197.88,45.5L198.82,30.17L199.06,45.5L200.24,22.5L200.48,34L200.95,49.33L201.18,26.33L201.66,41.67L201.89,30.17L202.13,26.33L202.6,37.83L202.84,30.17L203.07,30.17L203.78,49.33L204.02,37.83L204.49,41.67L204.72,34L204.96,37.83L205.43,49.33L205.9,45.5L206.14,34L206.38,34L206.61,30.17L206.85,22.5L207.32,30.17L207.56,37.83L207.79,30.17L208.03,37.83L208.26,45.5L208.97,30.17L209.21,37.83L209.44,45.5L209.92,37.83L210.15,41.67L210.39,49.33L210.62,37.83L210.86,41.67L211.1,45.5L211.33,34L211.8,37.83L212.04,45.5L212.28,41.67L212.51,53.17L212.75,26.33L213.22,37.83L213.46,41.67L214.16,45.5L214.4,37.83L214.87,30.17L215.11,37.83L215.34,49.33L216.29,34L216.52,53.17L217.47,26.33L217.7,49.33L218.41,26.33L218.65,30.17L218.88,34L219.59,45.5L219.83,30.17L220.54,18.67L220.77,57L221.48,26.33L221.72,45.5L222.19,26.33L222.66,30.17L222.9,34L223.13,64.67L223.6,34L223.84,26.33L224.08,34L224.31,68.5L224.78,22.5L225.26,41.67L225.49,60.83L226.2,30.17L226.44,41.67L226.67,41.67L227.38,18.67L227.62,57L227.85,34L228.32,53.17L228.56,41.67L229.74,22.5L229.98,34L230.21,53.17L230.68,34L230.92,34L231.16,26.33L231.39,37.83L231.63,34L231.86,34L232.81,49.33L233.04,34L233.28,26.33L233.52,30.17L233.75,37.83L233.99,30.17L234.46,37.83L234.7,34L235.17,26.33L235.4,34L235.64,37.83L235.88,37.83L236.11,30.17L237.29,37.83L237.53,34L237.76,37.83" style="vector-effect: non-scaling-stroke; fill: none; stroke: rgb(99, 110, 250); stroke-opacity: 1; stroke-width: 2px; opacity: 1;"/></g><g class="points"/><g class="text"/></g></g></g><g class="overplot"/><path class="xlines-above crisp" d="M0,0" style="fill: none;"/><path class="ylines-above crisp" d="M0,0" style="fill: none;"/><g class="overlines-above"/><g class="xaxislayer-above"><g class="xtick"><text text-anchor="middle" x="0" y="333" transform="translate(82,0)" style="font-family: 'Open Sans', verdana, arial, sans-serif; font-size: 12px; fill: rgb(42, 63, 95); fill-opacity: 1; white-space: pre;">0</text></g><g class="xtick"><text text-anchor="middle" x="0" y="333" transform="translate(200,0)" style="font-family: 'Open Sans', verdana, arial, sans-serif; font-size: 12px; fill: rgb(42, 63, 95); fill-opacity: 1; white-space: pre;">500</text></g><g class="xtick"><text text-anchor="middle" x="0" y="333" transform="translate(318,0)" style="font-family: 'Open Sans', verdana, arial, sans-serif; font-size: 12px; fill: rgb(42, 63, 95); fill-opacity: 1; white-space: pre;">1000</text></g></g><g class="yaxislayer-above"><g class="ytick"><text text-anchor="end" x="79" y="4.199999999999999" transform="translate(0,312.25)" style="font-family: 'Open Sans', verdana, arial, sans-serif; font-size: 12px; fill: rgb(42, 63, 95); fill-opacity: 1; white-space: pre;">0.5</text></g><g class="ytick"><text text-anchor="end" x="79" y="4.199999999999999" transform="translate(0,240.37)" style="font-family: 'Open Sans', verdana, arial, sans-serif; font-size: 12px; fill: rgb(42, 63, 95); fill-opacity: 1; white-space: pre;">0.55</text></g><g class="ytick"><text text-anchor="end" x="79" y="4.199999999999999" transform="translate(0,168.5)" style="font-family: 'Open Sans', verdana, arial, sans-serif; font-size: 12px; fill: rgb(42, 63, 95); fill-opacity: 1; white-space: pre;">0.6</text></g></g><g class="overaxes-above"/></g></g><g class="polarlayer"/><g class="ternarylayer"/><g class="geolayer"/><g class="funnelarealayer"/><g class="pielayer"/><g class="treemaplayer"/><g class="sunburstlayer"/><g class="glimages"/><defs id="topdefs-3c63ff"><g class="clips"/></defs><g class="layer-above"><g class="imagelayer"/><g class="shapelayer"><path data-index="0" fill-rule="evenodd" d="M82,318L318,318" clip-path="url('#clip3c63ffxy')" style="opacity: 1; stroke: rgb(32, 178, 170); stroke-opacity: 1; fill: rgb(0, 0, 0); fill-opacity: 0; stroke-dasharray: 12px, 4px, 4px, 4px; stroke-width: 4px;"/></g></g><g class="infolayer"><g class="g-gtitle"><text class="gtitle" x="20" y="50" text-anchor="start" dy="0em" style="font-family: 'Open Sans', verdana, arial, sans-serif; font-size: 17px; fill: rgb(42, 63, 95); opacity: 1; font-weight: normal; white-space: pre;">Training Accuracy, U.S. Steel</text></g><g class="g-xtitle"><text class="xtitle" x="200" y="360.890625" text-anchor="middle" style="font-family: 'Open Sans', verdana, arial, sans-serif; font-size: 15px; fill: rgb(42, 63, 95); opacity: 1; font-weight: normal; white-space: pre;">Epoch</text></g><g class="g-ytitle"><text class="ytitle" transform="rotate(-90,26.234375,210)" x="26.234375" y="210" text-anchor="middle" style="font-family: 'Open Sans', verdana, arial, sans-serif; font-size: 15px; fill: rgb(42, 63, 95); opacity: 1; font-weight: normal; white-space: pre;">Accuracy</text></g></g></svg>